<svg width="291" height="713" viewBox="0 0 291 713" fill="none" xmlns="http://www.w3.org/2000/svg">
<g clip-path="url(#clip0_485_170565)">
<mask id="mask0_485_170565" style="mask-type:alpha" maskUnits="userSpaceOnUse" x="-565" y="-626" width="855" height="1425">
<path d="M28.513 93.2878C97.3902 164.629 -97.7967 268.288 -6.26417 343.701C175.992 469.151 195.367 433.754 266.631 500.524C431.438 702.519 -350.185 745.858 -564.016 798.323L-531.487 -625.802C-454.024 -552.67 -221.1 -399.505 -179.375 -335.695C-127.219 -255.934 -25.0855 -115.716 -307.376 -130.815C-430.192 -137.385 -57.5835 4.11106 28.513 93.2878Z" fill="url(#paint0_linear_485_170565)"/>
</mask>
<g mask="url(#mask0_485_170565)">
<path fill-rule="evenodd" clip-rule="evenodd" d="M869.989 1020.49L870.99 1025.18L-372.161 951.361L-373.163 946.679L869.989 1020.49ZM862.27 984.407L864.273 993.772L-378.879 919.956L-380.882 910.592L862.27 984.407ZM854.551 948.321L856.554 957.685L-386.598 883.87L-388.601 874.506L854.551 948.321ZM846.831 912.234L848.835 921.599L-394.317 847.784L-396.32 838.419L846.831 912.234ZM839.112 876.148L841.115 885.512L-402.036 811.697L-404.039 802.333L839.112 876.148ZM831.393 840.061L833.396 849.426L-409.755 775.611L-411.758 766.246L831.393 840.061ZM823.674 803.975L825.677 813.339L-417.474 739.524L-419.477 730.16L823.674 803.975ZM815.955 767.888L817.958 777.253L-425.193 703.438L-427.196 694.073L815.955 767.888ZM808.236 731.802L810.239 741.166L-432.912 667.351L-434.915 657.987L808.236 731.802ZM800.517 695.715L802.52 705.08L-440.631 631.265L-442.635 621.9L800.517 695.715ZM792.798 659.629L794.801 668.993L-448.351 595.178L-450.354 585.814L792.798 659.629ZM785.079 623.543L787.082 632.907L-456.07 559.092L-458.073 549.727L785.079 623.543ZM777.359 587.456L779.363 596.82L-463.789 523.005L-465.792 513.641L777.359 587.456ZM769.64 551.37L771.643 560.734L-471.508 486.919L-473.511 477.554L769.64 551.37ZM761.921 515.283L763.924 524.647L-479.227 450.832L-481.23 441.468L761.921 515.283ZM754.202 479.197L756.205 488.561L-486.946 414.746L-488.949 405.381L754.202 479.197ZM746.483 443.11L748.486 452.475L-494.665 378.659L-496.668 369.295L746.483 443.11ZM738.764 407.024L740.767 416.388L-502.384 342.573L-504.387 333.209L738.764 407.024ZM731.045 370.937L733.048 380.302L-510.103 306.486L-512.106 297.122L731.045 370.937ZM723.326 334.851L725.329 344.215L-517.822 270.4L-519.826 261.036L723.326 334.851ZM715.607 298.764L717.61 308.129L-525.542 234.314L-527.545 224.949L715.607 298.764ZM707.887 262.678L709.89 272.042L-533.261 198.227L-535.264 188.863L707.887 262.678ZM700.168 226.591L702.171 235.956L-540.98 162.14L-542.983 152.776L700.168 226.591ZM692.449 190.505L694.452 199.869L-548.699 126.054L-550.702 116.69L692.449 190.505ZM684.73 154.418L686.733 163.783L-556.418 89.9676L-558.421 80.6032L684.73 154.418ZM677.011 118.332L679.014 127.696L-564.137 53.8812L-566.14 44.5167L677.011 118.332ZM669.292 82.2454L671.295 91.6098L-571.856 17.7946L-573.859 8.43023L669.292 82.2454ZM661.573 46.1589L663.576 55.5233L-579.575 -18.2918L-581.578 -27.6562L661.573 46.1589ZM653.854 10.0724L655.857 19.4368L-587.295 -54.3783L-589.298 -63.7427L653.854 10.0724ZM646.135 -26.014L648.138 -16.6497L-595.014 -90.4648L-597.017 -99.8292L646.135 -26.014ZM638.415 -62.1005L640.419 -52.7361L-602.733 -126.551L-604.736 -135.916L638.415 -62.1005ZM630.696 -98.187L632.7 -88.8226L-610.452 -162.638L-612.455 -172.002L630.696 -98.187ZM622.977 -134.274L624.98 -124.909L-618.171 -198.724L-620.174 -208.089L622.977 -134.274ZM615.258 -170.36L617.261 -160.995L-625.89 -234.811L-627.893 -244.175L615.258 -170.36ZM607.539 -206.446L609.542 -197.082L-633.609 -270.897L-635.612 -280.262L607.539 -206.446ZM599.82 -242.533L601.823 -233.168L-641.328 -306.984L-643.331 -316.348L599.82 -242.533ZM592.101 -278.619L594.104 -269.255L-649.047 -343.07L-651.05 -352.434L592.101 -278.619ZM584.382 -314.706L586.385 -305.341L-656.766 -379.157L-658.77 -388.521L584.382 -314.706ZM577.664 -346.11L578.666 -341.428L-664.486 -415.243L-665.487 -419.925L577.664 -346.11Z" fill="#67E6F9"/>
</g>
</g>
<defs>
<linearGradient id="paint0_linear_485_170565" x1="-0.605548" y1="244.284" x2="85.9222" y2="-588.431" gradientUnits="userSpaceOnUse">
<stop stop-color="#BB5EB3"/>
<stop offset="0.260088" stop-color="#522BB1"/>
<stop offset="1" stop-color="#AC5691"/>
</linearGradient>
<clipPath id="clip0_485_170565">
<rect width="291" height="713" fill="white"/>
</clipPath>
</defs>
</svg>
