<svg width="33" height="33" viewBox="0 0 33 33" fill="none" xmlns="http://www.w3.org/2000/svg">
<g clip-path="url(#clip0_334_115381)">
<path fill-rule="evenodd" clip-rule="evenodd" d="M16.7476 0.697266C7.89271 0.697266 0.734375 8.03057 0.734375 17.1029C0.734375 24.3548 5.32096 30.4935 11.6838 32.6661C12.4793 32.8295 12.7707 32.3131 12.7707 31.8788C12.7707 31.4985 12.7445 30.1948 12.7445 28.8365C8.28997 29.8145 7.36236 26.8808 7.36236 26.8808C6.6465 24.9795 5.58581 24.4908 5.58581 24.4908C4.12785 23.4858 5.69201 23.4858 5.69201 23.4858C7.30926 23.5945 8.15788 25.1698 8.15788 25.1698C9.58928 27.6685 11.8959 26.9625 12.8238 26.5278C12.9562 25.4685 13.3807 24.7352 13.8314 24.3278C10.2786 23.9475 6.54063 22.5352 6.54063 16.2335C6.54063 14.4409 7.17651 12.9742 8.1841 11.8336C8.02513 11.4262 7.46824 9.74189 8.3434 7.48757C8.3434 7.48757 9.69548 7.05291 12.7441 9.17156C14.0494 8.81245 15.3955 8.62977 16.7476 8.62823C18.0997 8.62823 19.478 8.81857 20.7508 9.17156C23.7997 7.05291 25.1518 7.48757 25.1518 7.48757C26.027 9.74189 25.4698 11.4262 25.3108 11.8336C26.3449 12.9742 26.9546 14.4409 26.9546 16.2335C26.9546 22.5352 23.2166 23.9202 19.6373 24.3278C20.2207 24.8438 20.7242 25.8215 20.7242 27.3698C20.7242 29.5698 20.698 31.3355 20.698 31.8785C20.698 32.3131 20.9897 32.8295 21.7849 32.6665C28.1477 30.4931 32.7343 24.3548 32.7343 17.1029C32.7605 8.03057 25.576 0.697266 16.7476 0.697266Z" fill="white"/>
</g>
<defs>
<clipPath id="clip0_334_115381">
<rect width="32" height="32" fill="white" transform="translate(0.734375 0.736328)"/>
</clipPath>
</defs>
</svg>
