<svg width="33" height="33" viewBox="0 0 33 33" fill="none" xmlns="http://www.w3.org/2000/svg">
<path d="M20.2115 4.68918C21.2896 4.0813 22.5513 3.95513 23.767 4.01248C25.1204 4.20746 26.4509 4.72359 27.4832 5.64115C27.6781 5.80172 27.8617 6.06552 28.1484 5.99671C29.1348 5.82466 30.0638 5.44617 30.9699 5.04474C31.3484 4.87269 31.7154 4.65477 32.0939 4.48273C31.7957 5.4347 31.291 6.34079 30.5799 7.04044C30.2358 7.40746 29.8573 7.72861 29.4559 8.02681C29.8918 8.07269 30.3047 7.91212 30.7176 7.83183C31.1305 7.75155 31.5204 7.60244 31.9219 7.47628C32.2889 7.36158 32.6215 7.1666 33 7.08631C32.4151 7.93506 31.7613 8.73793 31.0043 9.43757C30.6143 9.839 30.1556 10.1487 29.7312 10.4928C29.7312 11.0662 29.8 11.6397 29.6738 12.2017C29.628 12.649 29.6509 13.1078 29.605 13.5666C29.5018 14.163 29.3986 14.7594 29.2839 15.3558C29.1118 15.849 29.043 16.3537 28.8824 16.8469C28.7219 17.4089 28.481 17.9365 28.286 18.487C27.5405 20.2075 26.6229 21.8591 25.4186 23.3042C24.7763 24.1415 23.9964 24.8641 23.228 25.5981C22.1842 26.4698 21.0717 27.2842 19.8444 27.8806C18.2158 28.7293 16.4724 29.3946 14.6487 29.6469C14.1785 29.7731 13.6853 29.7616 13.2151 29.8763C12.6645 29.8877 12.1369 30.0139 11.5864 29.991C11.0473 29.9795 10.5082 30.0139 9.96918 29.9795C9.44158 29.8648 8.90251 29.9336 8.37491 29.8075C6.78065 29.5781 5.19785 29.1537 3.71828 28.4999C3.04158 28.2247 2.39928 27.8691 1.74552 27.5365C1.48172 27.3989 1.20645 27.2727 1 27.0662C1.73405 27.0318 2.47957 27.0892 3.21362 27.0548C3.83298 27.0662 4.44086 26.9515 5.04875 26.8369C7.06738 26.4698 8.94839 25.5637 10.5885 24.3594C9.79713 24.2791 9.00573 24.1415 8.27168 23.8204C7.43441 23.4419 6.62007 22.9601 6.00072 22.272C5.42724 21.6526 4.96846 20.93 4.64731 20.1501C4.58996 20.0239 4.57849 19.8863 4.55556 19.7601C5.43871 19.8748 6.35627 19.9207 7.21649 19.6684C6.8724 19.4963 6.47097 19.439 6.12688 19.2555C4.92258 18.7279 3.89032 17.8103 3.20215 16.6863C2.7319 15.9637 2.4681 15.1379 2.28459 14.3006C2.22724 13.9222 2.23871 13.5322 2.22724 13.1537C2.62867 13.2569 2.98423 13.4863 3.38566 13.601C3.87885 13.7501 4.37204 13.9107 4.89964 13.8648C4.47527 13.3601 3.91326 12.9587 3.53477 12.4082C2.89247 11.5021 2.44516 10.4469 2.34194 9.34581C2.23871 8.90997 2.23871 8.45119 2.28459 8.00388C2.3534 7.72861 2.38781 7.44187 2.39928 7.15513C2.52545 6.46696 2.83513 5.82466 3.12186 5.19384C3.43154 5.42323 3.6724 5.74438 3.92473 6.04258C5.08315 7.32717 6.4595 8.38237 7.90466 9.32287C8.53548 9.6899 9.17778 10.0569 9.84301 10.3666C11.1047 10.9286 12.4237 11.3874 13.7771 11.6627C14.729 11.8806 15.7039 11.9609 16.6674 12.0412C16.6559 11.7774 16.5527 11.525 16.5412 11.2498C16.5183 10.768 16.5183 10.2863 16.5412 9.80459C16.6674 8.60029 17.1835 7.45334 17.9061 6.4899C18.5484 5.75585 19.3168 5.10208 20.2115 4.68918Z" fill="white"/>
</svg>
