<svg width="25" height="24" viewBox="0 0 25 24" fill="none" xmlns="http://www.w3.org/2000/svg">
<g clip-path="url(#clip0_896_171950)">
<path d="M1.67772 19.325C0.852478 19.3246 0.00358265 19.9855 0.00301624 21.143C0.00249843 22.2012 0.748222 22.949 1.67594 22.9494C2.44173 22.9498 2.78328 22.436 2.78328 22.436L2.78317 22.66C2.78312 22.7659 2.88318 22.8841 3.00711 22.8842L3.56066 22.8844L3.56236 19.405L2.78476 19.4047L2.78455 19.8462C2.78455 19.8462 2.44064 19.3254 1.67772 19.325ZM1.81589 20.0366C2.49523 20.0369 2.85129 20.6345 2.85105 21.1441C2.85077 21.7118 2.4274 22.2506 1.81624 22.2503C1.30535 22.2501 0.793791 21.836 0.794134 21.1356C0.794443 20.5034 1.23508 20.0363 1.81589 20.0366Z" fill="white"/>
<path d="M4.64028 22.8858C4.52081 22.8858 4.41627 22.8 4.41634 22.6617L4.41793 19.4063L5.19552 19.4067L5.19531 19.8373C5.37164 19.5725 5.71601 19.3268 6.2444 19.3271C7.10802 19.3275 7.56755 20.0162 7.56724 20.6599L7.56615 22.8873L7.02579 22.887C6.8841 22.8869 6.78861 22.7683 6.78867 22.6496L6.78956 20.8309C6.78974 20.474 6.57132 20.0406 6.06568 20.0403C5.52009 20.04 5.19497 20.5555 5.19473 21.041L5.19383 22.8861L4.64028 22.8858Z" fill="white"/>
<path d="M9.83314 19.3294C9.00791 19.329 8.15902 19.9899 8.15845 21.1474C8.15794 22.2056 8.90366 22.9533 9.83137 22.9538C10.5972 22.9542 10.9387 22.4403 10.9387 22.4403L10.9386 22.6644C10.9385 22.7703 11.0386 22.8885 11.1625 22.8886L11.7161 22.8888L11.7186 17.6697L10.941 17.6693L10.94 19.8505C10.94 19.8505 10.5961 19.3298 9.83314 19.3294ZM9.97131 20.041C10.6507 20.0413 11.0067 20.6389 11.0065 21.1485C11.0062 21.7161 10.5828 22.255 9.97167 22.2547C9.46078 22.2544 8.94922 21.8404 8.94956 21.14C8.94987 20.5078 9.3905 20.0407 9.97131 20.041Z" fill="white"/>
<path d="M12.7965 22.8882C12.6771 22.8881 12.5725 22.8024 12.5726 22.664L12.5742 19.4087L13.3518 19.4091L13.3515 19.989C13.4855 19.6642 13.7745 19.3697 14.2876 19.37C14.4306 19.37 14.5643 19.3965 14.5643 19.3965L14.5639 20.2004C14.5639 20.2004 14.397 20.1344 14.1949 20.1343C13.6493 20.1341 13.3512 20.6496 13.3509 21.135L13.3501 22.8885L12.7965 22.8882Z" fill="white"/>
<path d="M19.2809 22.8936C19.1615 22.8935 19.0569 22.8078 19.057 22.6694L19.0586 19.4141L19.8362 19.4144L19.8345 22.8938L19.2809 22.8936Z" fill="white"/>
<path d="M22.1222 19.3353C21.297 19.3349 20.4481 19.9957 20.4475 21.1532C20.447 22.2114 21.1927 22.9592 22.1204 22.9597C22.8862 22.96 23.2278 22.4462 23.2278 22.4462L23.2277 22.6702C23.2276 22.7761 23.3277 22.8944 23.4516 22.8944L24.0052 22.8947L24.0077 17.6756L23.2301 17.6752L23.229 19.8564C23.229 19.8564 22.8851 19.3357 22.1222 19.3353ZM22.2604 20.0468C22.9397 20.0471 23.2958 20.6448 23.2955 21.1544C23.2953 21.722 22.8719 22.2608 22.2607 22.2605C21.7499 22.2603 21.2383 21.8463 21.2386 21.1459C21.2389 20.5136 21.6796 20.0465 22.2604 20.0468Z" fill="white"/>
<path d="M19.4394 18.6633C19.7234 18.6635 19.9537 18.4334 19.9538 18.1494C19.954 17.8655 19.7239 17.6352 19.4399 17.635C19.156 17.6349 18.9257 17.865 18.9255 18.1489C18.9254 18.4329 19.1555 18.6632 19.4394 18.6633Z" fill="white"/>
<path d="M16.6145 19.3329C15.7503 19.3325 14.8005 19.9771 14.7999 21.1458C14.7994 22.2107 15.6078 22.9581 16.6109 22.9586C17.8471 22.9592 18.4513 21.9657 18.4517 21.1543C18.4521 20.1587 17.6752 19.3334 16.6145 19.3329ZM16.617 20.0591C17.2147 20.0594 17.6602 20.5413 17.6599 21.1494C17.6596 21.768 17.1862 22.2452 16.6177 22.2449C16.09 22.2446 15.5773 21.815 15.5776 21.1588C15.578 20.4916 16.066 20.0588 16.617 20.0591Z" fill="white"/>
<path d="M17.8685 6.06099L19.8597 2.61554C19.972 2.42239 19.9043 2.17692 19.7137 2.06456C19.5232 1.9522 19.2751 2.01735 19.1654 2.2105L17.148 5.70033C15.6105 4.99723 13.8797 4.60474 12.0181 4.60383C10.1565 4.60292 8.42524 4.99371 6.88706 5.69531L4.87313 2.20351C4.76095 2.01025 4.51556 1.94486 4.32229 2.05703C4.12903 2.1692 4.06364 2.4146 4.17581 2.60786L6.16365 6.05526C2.73198 7.91257 0.40655 11.384 0.0207626 15.449L24.0048 15.4607C23.623 11.3953 21.3009 7.92162 17.8685 6.06099ZM6.50796 12.0841C5.95183 12.0838 5.50297 11.6319 5.50324 11.0784C5.50352 10.5222 5.95543 10.0734 6.50894 10.0736C7.06507 10.0739 7.51393 10.5258 7.51366 11.0793C7.51601 11.6329 7.06409 12.0843 6.50796 12.0841ZM17.5183 12.0895C16.9622 12.0892 16.5133 11.6373 16.5136 11.0838C16.5138 10.5276 16.9658 10.0788 17.5193 10.079C18.0754 10.0793 18.5243 10.5312 18.524 11.0847C18.5263 11.6383 18.0744 12.0897 17.5183 12.0895Z" fill="#32DE84"/>
</g>
<defs>
<clipPath id="clip0_896_171950">
<rect width="24" height="20.9491" fill="white" transform="translate(0.0117188 2) rotate(0.0280373)"/>
</clipPath>
</defs>
</svg>
