<svg width="24" height="24" viewBox="0 0 24 24" fill="none" xmlns="http://www.w3.org/2000/svg">
<g clip-path="url(#clip0_896_171951)">
<path d="M19.6753 8.818C19.56 8.908 17.5232 10.062 17.5232 12.628C17.5232 15.596 20.1149 16.646 20.1925 16.672C20.1805 16.736 19.7807 18.11 18.826 19.51C17.9747 20.742 17.0856 21.972 15.7331 21.972C14.3806 21.972 14.0325 21.182 12.4712 21.182C10.9496 21.182 10.4086 21.998 9.17141 21.998C7.93425 21.998 7.07102 20.858 6.07851 19.458C4.92886 17.814 4 15.26 4 12.836C4 8.948 6.5141 6.886 8.98842 6.886C10.3031 6.886 11.3991 7.754 12.2245 7.754C13.0102 7.754 14.2354 6.834 15.7311 6.834C16.298 6.834 18.3347 6.886 19.6753 8.818ZM15.0211 5.188C15.6396 4.45 16.0772 3.426 16.0772 2.402C16.0772 2.26 16.0653 2.116 16.0394 2C15.033 2.038 13.8356 2.674 13.1136 3.516C12.5467 4.164 12.0177 5.188 12.0177 6.226C12.0177 6.382 12.0435 6.538 12.0555 6.588C12.1191 6.6 12.2225 6.614 12.326 6.614C13.229 6.614 14.3647 6.006 15.0211 5.188Z" fill="white"/>
</g>
<defs>
<clipPath id="clip0_896_171951">
<rect width="16.1905" height="20" fill="white" transform="translate(4 2)"/>
</clipPath>
</defs>
</svg>
