<?xml version="1.0" standalone="no"?>
<svg id="L10" width="1143" height="969" viewBox="0 0 1143 969" fill="none" xmlns="http://www.w3.org/2000/svg" style="max-width: 100%; max-height: 100%;">
<g clip-path="url(#clip0_380_125167)">
<path opacity="0.5" d="M400.538 -233.271C399.74 -310.952 399.839 -315.582 403.626 -338.764L1074.58 -391.964C1093.44 -218.155 1092.5 216.208 990.404 374.605C888.305 533.003 749.431 492.828 688.616 454.897C556.335 358.935 627.332 170.299 667.419 48.4493C718.233 -106.007 728.554 -177.419 676.672 -214.235C628.275 -242.31 549.359 -192.446 484.805 -158.092C420.251 -123.738 400.884 -199.475 400.538 -233.271Z" stroke="white" stroke-width="5" stroke-dasharray="0,0,0,0,0,2976.635986328125"><animate attributeType="XML" attributeName="stroke-dasharray" repeatCount="indefinite" dur="5.291358502808217s" values="0,0,0,0,0,2976.635986328125; 0,0,0,2490.4547200592074,486.18126626891734,0; 0,0,243.09063313445867,2733.5453531936664,0,0; 0,1488.3179931640625,0,1488.3179931640625,0,0" keyTimes="0; 0.5; 0.5816662280006656; 1" begin="0.6473380768493769s"></animate></path>
<path opacity="0.5" d="M64.4676 10.7097C79.4124 -103.766 80.5294 -110.559 91.2277 -143.888L1142.29 -83.5671C1135.31 176.092 1043.39 815.075 852.141 1027.07C660.896 1239.07 454.011 1151.26 367.649 1082.88C323.671 1042.82 310.138 1001.09 301.79 969.806C248.33 769.441 288.943 735.445 419.452 480.401C530.385 263.612 561.257 160.658 488.51 95.7644C419.342 44.4534 286.636 101.527 179.423 138.744C72.2094 175.962 57.9659 60.5123 64.4676 10.7097Z" stroke="#BC6CD9" stroke-width="8" stroke-dasharray="0,0,0,0,0,4526.7734375"><animate attributeType="XML" attributeName="stroke-dasharray" repeatCount="indefinite" dur="5.83051379519113s" values="0,0,0,0,0,4526.7734375; 0,0,0,3715.6854789267086,811.0879585732911,0; 0,0,405.54397928664554,4121.2294582133545,0,0; 0,2263.38671875,0,2263.38671875,0,0" keyTimes="0; 0.5; 0.5895878675807145; 1" begin="1.9017378651074146s"></animate></path>
</g>
<defs>
<clipPath id="clip0_380_125167">
<rect width="1143" height="969" fill="white" stroke-dasharray="0,0,0,0,0,4224"><animate attributeType="XML" attributeName="stroke-dasharray" repeatCount="indefinite" dur="5.275944122837255s" values="0,0,0,0,0,4224; 0,0,0,3539.065733198865,684.9342668011351,0; 0,0,342.46713340056755,3881.5328665994325,0,0; 0,2112,0,2112,0,0" keyTimes="0; 0.5; 0.581076499384604; 1" begin="2.2540662079161233s"></animate></rect>
</clipPath>
</defs>
<setting>{"type":"shift","speed":8,"random":0.8,"shift":0.5,"size":0.8,"rupture":19}</setting></svg>