<?xml version="1.0" standalone="no"?>
<svg id="L11" width="1675" height="969" viewBox="0 0 1675 969" fill="none" xmlns="http://www.w3.org/2000/svg" style="max-width: 100%; max-height: 100%;">
<g clip-path="url(#clip0_380_125296)">
<path opacity="0.5" d="M1128.31 1330.52C1129.52 1448.57 1129.37 1455.61 1123.61 1490.84L103.984 1571.68C75.3302 1307.55 76.755 647.47 231.911 406.76C387.067 166.049 598.107 227.101 690.525 284.743C891.548 430.573 783.657 717.236 722.738 902.406C645.519 1137.13 629.834 1245.65 708.676 1301.6C782.224 1344.26 902.149 1268.49 1000.25 1216.28C1098.35 1164.07 1127.78 1279.17 1128.31 1330.52Z" stroke="white" stroke-width="5" stroke-dasharray="0,0,0,0,0,4523.47998046875"><animate attributeType="XML" attributeName="stroke-dasharray" repeatCount="indefinite" dur="4.43323766821151s" values="0,0,0,0,0,4523.47998046875; 0,0,0,3842.4032893629405,681.0766911058096,0; 0,0,340.5383455529048,4182.9416349158455,0,0; 0,2261.739990234375,0,2261.739990234375,0,0" keyTimes="0; 0.5; 0.5752823814901942; 1" begin="0.29634865895193263s"></animate></path>
<path opacity="0.5" d="M1639.02 959.757C1616.31 1133.72 1614.61 1144.04 1598.36 1194.69L1.09626 1103.03C11.6991 708.433 151.396 -262.606 442.025 -584.766C732.653 -906.927 1047.05 -773.491 1178.29 -669.577C1245.12 -608.707 1265.69 -545.29 1278.37 -497.744C1359.61 -193.257 1297.89 -141.595 1099.57 245.986C930.985 575.432 884.07 731.887 994.621 830.503C1099.73 908.478 1301.4 821.746 1464.33 765.188C1627.26 708.63 1648.9 884.074 1639.02 959.757Z" stroke="#BC6CD9" stroke-width="8" stroke-dasharray="0,0,0,0,0,6879.16064453125"><animate attributeType="XML" attributeName="stroke-dasharray" repeatCount="indefinite" dur="4.147881438768704s" values="0,0,0,0,0,6879.16064453125; 0,0,0,5668.744981684195,1210.4156628470544,0; 0,0,605.2078314235272,6273.952813107723,0,0; 0,3439.580322265625,0,3439.580322265625,0,0" keyTimes="0; 0.5; 0.5879769877019301; 1" begin="0.5493320730777109s"></animate></path>
</g>
<defs>
<clipPath id="clip0_380_125296">
<rect width="1675" height="969" fill="white" stroke-dasharray="0,0,0,0,0,5288"><animate attributeType="XML" attributeName="stroke-dasharray" repeatCount="indefinite" dur="4.6803307407993024s" values="0,0,0,0,0,5288; 0,0,0,4387.052877408482,900.9471225915182,0; 0,0,450.4735612957591,4837.526438704241,0,0; 0,2644,0,2644,0,0" keyTimes="0; 0.5; 0.5851878898063084; 1" begin="0.7838890037295384s"></animate></rect>
</clipPath>
</defs>
<setting>{"type":"shift","speed":10,"random":0.8,"shift":0.5,"size":0.8,"rupture":18}</setting></svg>