<?xml version="1.0" standalone="no"?>
<svg id="L9" width="945" height="969" viewBox="0 0 945 969" fill="none" xmlns="http://www.w3.org/2000/svg" style="max-width: 100%; max-height: 100%;">
<g clip-path="url(#clip0_380_125079)">
<path opacity="0.5" d="M400.538 -210.271C399.74 -287.952 399.839 -292.582 403.626 -315.764L1074.58 -368.964C1093.44 -195.155 1092.5 239.208 990.404 397.605C888.305 556.003 749.431 515.828 688.616 477.897C556.335 381.935 627.332 193.299 667.419 71.4493C718.233 -83.0065 728.554 -154.419 676.672 -191.235C628.275 -219.31 549.359 -169.446 484.805 -135.092C420.251 -100.738 400.884 -176.475 400.538 -210.271Z" stroke="white" stroke-width="5" stroke-dasharray="0,0,0,0,0,2976.635986328125"><animate attributeType="XML" attributeName="stroke-dasharray" repeatCount="indefinite" dur="5.605719157459768s" values="0,0,0,0,0,2976.635986328125; 0,0,0,2496.242662017099,480.393324311026,0; 0,0,240.196662155513,2736.439324172612,0,0; 0,1488.3179931640625,0,1488.3179931640625,0,0" keyTimes="0; 0.5; 0.5806939992860233; 1" begin="0.6846487581750582s"></animate></path>
<path opacity="0.5" d="M64.4715 33.7097C79.4163 -80.7655 80.5333 -87.559 91.2316 -120.888L1142.29 -60.5671C1135.32 199.092 1043.39 838.075 852.145 1050.07C660.9 1262.07 454.015 1174.26 367.653 1105.88C323.675 1065.82 310.142 1024.09 301.794 992.806C248.334 792.441 288.947 758.445 419.456 503.401C530.389 286.612 561.261 183.658 488.513 118.764C419.346 67.4534 286.64 124.527 179.427 161.744C72.2133 198.962 57.9698 83.5123 64.4715 33.7097Z" stroke="#BC6CD9" stroke-width="8" stroke-dasharray="0,0,0,0,0,4526.7685546875"><animate attributeType="XML" attributeName="stroke-dasharray" repeatCount="indefinite" dur="5.367265634139674s" values="0,0,0,0,0,4526.7685546875; 0,0,0,3722.226653321212,804.5419013662878,0; 0,0,402.2709506831439,4124.497604004357,0,0; 0,2263.38427734375,0,2263.38427734375,0,0" keyTimes="0; 0.5; 0.5888649255696073; 1" begin="1.8027823202569946s"></animate></path>
</g>
<defs>
<clipPath id="clip0_380_125079">
<rect width="945" height="969" fill="white" stroke-dasharray="0,0,0,0,0,3828"><animate attributeType="XML" attributeName="stroke-dasharray" repeatCount="indefinite" dur="5.1866364578093345s" values="0,0,0,0,0,3828; 0,0,0,3123.898317641652,704.1016823583482,0; 0,0,352.0508411791741,3475.949158820826,0,0; 0,1914,0,1914,0,0" keyTimes="0; 0.5; 0.5919673043832743; 1" begin="0.24534300659887923s"></animate></rect>
</clipPath>
</defs>
<setting>{"type":"shift","speed":8,"random":0.8,"shift":0.5,"size":0.8,"rupture":20}</setting></svg>