<svg width="297" height="899" viewBox="0 0 297 899" fill="none" xmlns="http://www.w3.org/2000/svg">
<path fill-rule="evenodd" clip-rule="evenodd" d="M363.791 2224.05L367.058 2230.17L1242.25 1738.66L1238.98 1732.54L363.791 2224.05ZM338.608 2176.88L345.143 2189.12L1220.33 1697.61L1213.8 1685.37L338.608 2176.88ZM313.424 2129.71L319.959 2141.95L1195.15 1650.44L1188.62 1638.2L313.424 2129.71ZM288.241 2082.55L294.776 2094.79L1169.97 1603.28L1163.43 1591.04L288.241 2082.55ZM263.058 2035.38L269.593 2047.62L1144.78 1556.11L1138.25 1543.87L263.058 2035.38ZM237.875 1988.21L244.41 2000.45L1119.6 1508.94L1113.07 1496.7L237.875 1988.21ZM212.692 1941.04L219.227 1953.28L1094.42 1461.77L1087.88 1449.53L212.692 1941.04ZM187.508 1893.87L194.043 1906.11L1069.23 1414.6L1062.7 1402.36L187.508 1893.87ZM162.325 1846.71L168.86 1858.95L1044.05 1367.44L1037.52 1355.2L162.325 1846.71ZM137.142 1799.54L143.677 1811.78L1018.87 1320.27L1012.33 1308.03L137.142 1799.54ZM111.959 1752.37L118.494 1764.61L993.684 1273.1L987.149 1260.86L111.959 1752.37ZM86.7756 1705.2L93.3104 1717.44L968.501 1225.93L961.966 1213.69L86.7756 1705.2ZM61.5923 1658.03L68.1273 1670.27L943.318 1178.76L936.783 1166.52L61.5923 1658.03ZM36.409 1610.86L42.9442 1623.1L918.135 1131.6L911.6 1119.36L36.409 1610.86ZM11.226 1563.7L17.761 1575.94L892.952 1084.43L886.417 1072.19L11.226 1563.7ZM-13.9572 1516.53L-7.42221 1528.77L867.768 1037.26L861.233 1025.02L-13.9572 1516.53ZM-39.1405 1469.36L-32.6055 1481.6L842.585 990.091L836.05 977.851L-39.1405 1469.36ZM-64.3238 1422.19L-57.7887 1434.43L817.402 942.923L810.867 930.683L-64.3238 1422.19ZM-89.5069 1375.02L-82.9719 1387.26L792.219 895.755L785.684 883.515L-89.5069 1375.02ZM-114.69 1327.86L-108.155 1340.1L767.036 848.587L760.501 836.347L-114.69 1327.86ZM-139.873 1280.69L-133.338 1292.93L741.852 801.419L735.317 789.179L-139.873 1280.69ZM-165.056 1233.52L-158.522 1245.76L716.669 754.251L710.134 742.011L-165.056 1233.52ZM-190.24 1186.35L-183.705 1198.59L691.486 707.083L684.951 694.843L-190.24 1186.35ZM-215.423 1139.18L-208.888 1151.42L666.303 659.915L659.768 647.675L-215.423 1139.18ZM-240.606 1092.02L-234.071 1104.26L641.12 612.747L634.585 600.507L-240.606 1092.02ZM-265.789 1044.85L-259.254 1057.09L615.936 565.579L609.401 553.339L-265.789 1044.85ZM-290.973 997.68L-284.438 1009.92L590.753 518.411L584.218 506.171L-290.973 997.68ZM-316.156 950.513L-309.621 962.753L565.57 471.243L559.035 459.003L-316.156 950.513ZM-341.339 903.344L-334.804 915.584L540.387 424.074L533.852 411.835L-341.339 903.344ZM-366.522 856.176L-359.987 868.416L515.203 376.907L508.668 364.667L-366.522 856.176ZM-391.705 809.008L-385.17 821.248L490.02 329.738L483.485 317.498L-391.705 809.008ZM-416.889 761.84L-410.353 774.08L464.837 282.571L458.302 270.33L-416.889 761.84ZM-442.072 714.672L-435.537 726.912L439.654 235.402L433.119 223.162L-442.072 714.672ZM-467.255 667.504L-460.72 679.744L414.471 188.234L407.936 175.994L-467.255 667.504ZM-492.438 620.336L-485.903 632.576L389.287 141.066L382.752 128.827L-492.438 620.336ZM-517.621 573.168L-511.086 585.408L364.104 93.8983L357.569 81.6581L-517.621 573.168ZM-542.804 526L-536.27 538.24L338.921 46.7304L332.386 34.4902L-542.804 526ZM-567.988 478.832L-561.453 491.072L313.738 -0.437501L307.203 -12.6777L-567.988 478.832ZM-593.171 431.664L-586.636 443.904L288.554 -47.6059L282.02 -59.8456L-593.171 431.664ZM-618.354 384.496L-611.819 396.736L263.371 -94.7738L256.836 -107.014L-618.354 384.496ZM-640.27 343.448L-637.002 349.568L238.188 -141.942L234.921 -148.062L-640.27 343.448Z" fill="#67E6F9"/>
</svg>
