<svg width="79" height="751" viewBox="0 0 79 751" fill="none" xmlns="http://www.w3.org/2000/svg">
<path fill-rule="evenodd" clip-rule="evenodd" d="M532.442 4038.93L536.71 4050.01L1484.26 3381.72L1479.99 3370.64L532.442 4038.93ZM499.55 3953.55L508.085 3975.7L1455.64 3307.42L1447.1 3285.26L499.55 3953.55ZM466.657 3868.17L475.193 3890.32L1422.74 3222.04L1414.21 3199.88L466.657 3868.17ZM433.764 3782.79L442.3 3804.94L1389.85 3136.66L1381.32 3114.5L433.764 3782.79ZM400.872 3697.41L409.408 3719.56L1356.96 3051.28L1348.42 3029.12L400.872 3697.41ZM367.979 3612.03L376.515 3634.18L1324.07 2965.9L1315.53 2943.74L367.979 3612.03ZM335.087 3526.64L343.622 3548.8L1291.17 2880.52L1282.64 2858.36L335.087 3526.64ZM302.194 3441.26L310.73 3463.42L1258.28 2795.14L1249.75 2772.98L302.194 3441.26ZM269.302 3355.88L277.837 3378.04L1225.39 2709.76L1216.85 2687.6L269.302 3355.88ZM236.409 3270.5L244.945 3292.66L1192.5 2624.37L1183.96 2602.22L236.409 3270.5ZM203.517 3185.12L212.052 3207.28L1159.6 2538.99L1151.07 2516.84L203.517 3185.12ZM170.624 3099.74L179.16 3121.9L1126.71 2453.61L1118.18 2431.46L170.624 3099.74ZM137.732 3014.36L146.267 3036.52L1093.82 2368.23L1085.28 2346.08L137.732 3014.36ZM104.839 2928.98L113.375 2951.14L1060.93 2282.85L1052.39 2260.7L104.839 2928.98ZM71.9467 2843.6L80.4824 2865.76L1028.03 2197.47L1019.5 2175.32L71.9467 2843.6ZM39.0543 2758.22L47.5898 2780.38L995.141 2112.09L986.605 2089.94L39.0543 2758.22ZM6.16171 2672.84L14.6972 2695L962.248 2026.71L953.713 2004.56L6.16171 2672.84ZM-26.7309 2587.46L-18.1952 2609.62L929.356 1941.33L920.82 1919.18L-26.7309 2587.46ZM-59.6234 2502.08L-51.0877 2524.24L896.463 1855.95L887.928 1833.79L-59.6234 2502.08ZM-92.5158 2416.7L-83.9804 2438.86L863.571 1770.57L855.035 1748.41L-92.5158 2416.7ZM-125.408 2331.32L-116.873 2353.47L830.678 1685.19L822.143 1663.03L-125.408 2331.32ZM-158.301 2245.94L-149.765 2268.09L797.786 1599.81L789.25 1577.65L-158.301 2245.94ZM-191.194 2160.56L-182.658 2182.71L764.893 1514.43L756.357 1492.27L-191.194 2160.56ZM-224.086 2075.18L-215.551 2097.33L732 1429.05L723.465 1406.89L-224.086 2075.18ZM-256.978 1989.8L-248.443 2011.95L699.108 1343.67L690.573 1321.51L-256.978 1989.8ZM-289.871 1904.42L-281.335 1926.57L666.215 1258.29L657.68 1236.13L-289.871 1904.42ZM-322.764 1819.04L-314.228 1841.19L633.323 1172.91L624.787 1150.75L-322.764 1819.04ZM-355.656 1733.66L-347.12 1755.81L600.43 1087.53L591.895 1065.37L-355.656 1733.66ZM-388.548 1648.28L-380.013 1670.43L567.538 1002.15L559.002 979.991L-388.548 1648.28ZM-421.441 1562.9L-412.906 1585.05L534.645 916.766L526.11 894.61L-421.441 1562.9ZM-454.334 1477.51L-445.798 1499.67L501.753 831.386L493.217 809.23L-454.334 1477.51ZM-487.226 1392.13L-478.691 1414.29L468.86 746.006L460.325 723.85L-487.226 1392.13ZM-520.119 1306.75L-511.583 1328.91L435.968 660.625L427.432 638.469L-520.119 1306.75ZM-553.011 1221.37L-544.476 1243.53L403.075 575.245L394.54 553.089L-553.011 1221.37ZM-585.904 1135.99L-577.368 1158.15L370.183 489.865L361.647 467.709L-585.904 1135.99ZM-618.796 1050.61L-610.261 1072.77L337.29 404.484L328.755 382.328L-618.796 1050.61ZM-651.689 965.232L-643.153 987.388L304.398 319.104L295.862 296.948L-651.689 965.232ZM-684.581 879.852L-676.046 902.008L271.505 233.724L262.97 211.567L-684.581 879.852ZM-717.474 794.471L-708.938 816.628L238.613 148.343L230.077 126.187L-717.474 794.471ZM-750.366 709.091L-741.831 731.247L205.72 62.9624L197.185 40.8066L-750.366 709.091ZM-778.991 634.788L-774.723 645.867L172.828 -22.418L168.56 -33.4967L-778.991 634.788Z" fill="#67E6F9"/>
</svg>
