<svg width="83" height="475" viewBox="0 0 83 475" fill="none" xmlns="http://www.w3.org/2000/svg">
<path fill-rule="evenodd" clip-rule="evenodd" d="M253.825 1936.88L255.854 1942.14L706.294 1624.46L704.265 1619.19L253.825 1936.88ZM238.189 1896.29L242.247 1906.82L692.686 1589.14L688.629 1578.61L238.189 1896.29ZM222.553 1855.7L226.61 1866.23L677.05 1548.55L672.993 1538.02L222.553 1855.7ZM206.917 1815.11L210.974 1825.65L661.414 1507.96L657.356 1497.43L206.917 1815.11ZM191.28 1774.53L195.338 1785.06L645.778 1467.38L641.72 1456.84L191.28 1774.53ZM175.644 1733.94L179.702 1744.47L630.142 1426.79L626.084 1416.26L175.644 1733.94ZM160.008 1693.35L164.065 1703.88L614.505 1386.2L610.448 1375.67L160.008 1693.35ZM144.372 1652.76L148.429 1663.3L598.869 1345.61L594.812 1335.08L144.372 1652.76ZM128.735 1612.18L132.793 1622.71L583.233 1305.03L579.175 1294.49L128.735 1612.18ZM113.099 1571.59L117.157 1582.12L567.597 1264.44L563.539 1253.91L113.099 1571.59ZM97.463 1531L101.521 1541.53L551.961 1223.85L547.903 1213.32L97.463 1531ZM81.8268 1490.41L85.8843 1500.95L536.324 1183.26L532.267 1172.73L81.8268 1490.41ZM66.1906 1449.83L70.2482 1460.36L520.688 1142.68L516.631 1132.14L66.1906 1449.83ZM50.5544 1409.24L54.612 1419.77L505.052 1102.09L500.994 1091.56L50.5544 1409.24ZM34.9182 1368.65L38.9758 1379.18L489.416 1061.5L485.358 1050.97L34.9182 1368.65ZM19.282 1328.06L23.3395 1338.6L473.78 1020.91L469.722 1010.38L19.282 1328.06ZM3.64581 1287.48L7.70331 1298.01L458.143 980.325L454.086 969.793L3.64581 1287.48ZM-11.9904 1246.89L-7.93282 1257.42L442.507 939.738L438.45 929.205L-11.9904 1246.89ZM-27.6266 1206.3L-23.569 1216.83L426.871 899.15L422.813 888.618L-27.6266 1206.3ZM-43.2628 1165.71L-39.2053 1176.25L411.235 858.563L407.177 848.03L-43.2628 1165.71ZM-58.899 1125.13L-54.8415 1135.66L395.598 817.975L391.541 807.443L-58.899 1125.13ZM-74.5352 1084.54L-70.4777 1095.07L379.962 777.388L375.905 766.856L-74.5352 1084.54ZM-90.1715 1043.95L-86.1139 1054.48L364.326 736.8L360.268 726.268L-90.1715 1043.95ZM-105.808 1003.36L-101.75 1013.9L348.69 696.213L344.632 685.681L-105.808 1003.36ZM-121.444 962.777L-117.386 973.31L333.054 655.625L328.996 645.093L-121.444 962.777ZM-137.08 922.19L-133.023 932.722L317.417 615.038L313.36 604.506L-137.08 922.19ZM-152.716 881.602L-148.659 892.135L301.781 574.45L297.724 563.918L-152.716 881.602ZM-168.353 841.015L-164.295 851.547L286.145 533.863L282.087 523.331L-168.353 841.015ZM-183.989 800.427L-179.931 810.96L270.509 493.275L266.451 482.743L-183.989 800.427ZM-199.625 759.84L-195.567 770.372L254.873 452.688L250.815 442.156L-199.625 759.84ZM-215.261 719.252L-211.204 729.785L239.236 412.101L235.179 401.568L-215.261 719.252ZM-230.897 678.665L-226.84 689.197L223.6 371.513L219.543 360.981L-230.897 678.665ZM-246.534 638.077L-242.476 648.61L207.964 330.926L203.906 320.393L-246.534 638.077ZM-262.17 597.49L-258.112 608.022L192.328 290.338L188.27 279.806L-262.17 597.49ZM-277.806 556.902L-273.748 567.435L176.692 249.751L172.634 239.218L-277.806 556.902ZM-293.442 516.315L-289.385 526.847L161.055 209.163L156.998 198.631L-293.442 516.315ZM-309.078 475.727L-305.021 486.26L145.419 168.576L141.362 158.043L-309.078 475.727ZM-324.715 435.14L-320.657 445.672L129.783 127.988L125.725 117.456L-324.715 435.14ZM-340.351 394.552L-336.293 405.085L114.147 87.4007L110.089 76.8684L-340.351 394.552ZM-355.987 353.965L-351.929 364.497L98.5105 46.8133L94.4529 36.281L-355.987 353.965ZM-369.595 318.643L-367.566 323.91L82.8743 6.22582L80.8454 0.959276L-369.595 318.643Z" fill="#67E6F9"/>
</svg>
