<svg width="640" height="71" viewBox="0 0 640 71" fill="none" xmlns="http://www.w3.org/2000/svg">
<path d="M8.4845 24.0417C6.71383 24.0417 5.20983 23.7217 3.9725 23.0817C2.73517 22.4417 1.62583 21.503 0.6445 20.2657L3.1405 17.7697C3.75917 18.6657 4.49517 19.3697 5.3485 19.8817C6.20183 20.3723 7.28983 20.6177 8.6125 20.6177C9.84983 20.6177 10.8312 20.3617 11.5565 19.8497C12.3032 19.3377 12.6765 18.6337 12.6765 17.7377C12.6765 16.991 12.4845 16.383 12.1005 15.9137C11.7165 15.4443 11.2045 15.0603 10.5645 14.7617C9.94583 14.4417 9.2525 14.1643 8.4845 13.9297C7.73783 13.6737 6.9805 13.3963 6.2125 13.0977C5.46583 12.7777 4.7725 12.383 4.1325 11.9137C3.51383 11.4443 3.0125 10.8363 2.6285 10.0897C2.2445 9.34301 2.0525 8.39368 2.0525 7.24168C2.0525 5.91901 2.3725 4.79901 3.0125 3.88168C3.67383 2.94301 4.55917 2.22835 5.6685 1.73768C6.77783 1.24701 8.01517 1.00168 9.3805 1.00168C10.8525 1.00168 12.1645 1.28968 13.3165 1.86568C14.4898 2.44168 15.4392 3.17768 16.1645 4.07368L13.6685 6.56968C13.0285 5.84435 12.3565 5.31101 11.6525 4.96968C10.9698 4.60701 10.1805 4.42568 9.2845 4.42568C8.17517 4.42568 7.3005 4.64968 6.6605 5.09768C6.04183 5.54568 5.7325 6.17501 5.7325 6.98568C5.7325 7.66835 5.9245 8.22301 6.3085 8.64968C6.6925 9.05501 7.19383 9.40701 7.8125 9.70568C8.4525 9.98301 9.14583 10.2497 9.8925 10.5057C10.6605 10.7617 11.4178 11.0497 12.1645 11.3697C12.9325 11.6897 13.6258 12.1057 14.2445 12.6177C14.8845 13.1083 15.3965 13.7483 15.7805 14.5377C16.1645 15.327 16.3565 16.319 16.3565 17.5137C16.3565 19.519 15.6418 21.1083 14.2125 22.2817C12.8045 23.455 10.8952 24.0417 8.4845 24.0417ZM26.4943 24.0417C24.9583 24.0417 23.5716 23.7003 22.3343 23.0177C21.1183 22.3137 20.1476 21.3537 19.4223 20.1377C18.7183 18.9217 18.3663 17.5563 18.3663 16.0417C18.3663 14.527 18.7183 13.1723 19.4223 11.9777C20.1263 10.7617 21.0756 9.80168 22.2703 9.09768C23.4863 8.39368 24.8303 8.04168 26.3023 8.04168C27.7316 8.04168 28.9903 8.37235 30.0783 9.03368C31.1876 9.69501 32.0516 10.6017 32.6703 11.7537C33.3103 12.9057 33.6303 14.2177 33.6303 15.6897C33.6303 15.9457 33.6089 16.2123 33.5662 16.4897C33.5449 16.7457 33.5023 17.0337 33.4383 17.3537H20.8303V14.4737H31.6143L30.3023 15.6257C30.2596 14.687 30.0783 13.8977 29.7583 13.2577C29.4383 12.6177 28.9796 12.127 28.3823 11.7857C27.8063 11.4443 27.0916 11.2737 26.2383 11.2737C25.3423 11.2737 24.5636 11.4657 23.9023 11.8497C23.2409 12.2337 22.7289 12.7777 22.3663 13.4817C22.0036 14.1643 21.8223 14.9857 21.8223 15.9457C21.8223 16.9057 22.0143 17.7483 22.3983 18.4737C22.7823 19.199 23.3263 19.7643 24.0303 20.1697C24.7343 20.5537 25.5449 20.7457 26.4623 20.7457C27.2516 20.7457 27.9769 20.607 28.6383 20.3297C29.3209 20.0523 29.8969 19.647 30.3663 19.1137L32.6063 21.3857C31.8596 22.2603 30.9529 22.9217 29.8863 23.3697C28.8196 23.8177 27.6889 24.0417 26.4943 24.0417ZM36.452 23.7217V0.681679H39.972V23.7217H36.452ZM46.0015 23.7217V6.34568C46.0015 5.17234 46.2575 4.13768 46.7695 3.24168C47.3028 2.34568 48.0282 1.64168 48.9455 1.12968C49.8842 0.617679 50.9615 0.361679 52.1775 0.361679C53.1162 0.361679 53.9162 0.521679 54.5775 0.841679C55.2388 1.16168 55.8575 1.62034 56.4335 2.21768L54.1615 4.48968C53.9055 4.23368 53.6282 4.03101 53.3295 3.88168C53.0308 3.73235 52.6468 3.65768 52.1775 3.65768C51.3242 3.65768 50.6628 3.89235 50.1935 4.36168C49.7455 4.80968 49.5215 5.46034 49.5215 6.31368V23.7217H46.0015ZM42.3215 11.5617V8.36168H54.1615V11.5617H42.3215ZM55.2333 17.2257V13.8977H66.0813V17.2257H55.2333ZM78.2073 24.0417C77.0339 24.0417 75.9886 23.7963 75.0713 23.3057C74.1539 22.7937 73.4286 22.1003 72.8953 21.2257C72.3833 20.351 72.1273 19.359 72.1273 18.2497V13.8337C72.1273 12.7243 72.3939 11.7323 72.9273 10.8577C73.4606 9.98301 74.1859 9.30035 75.1033 8.80968C76.0206 8.29768 77.0553 8.04168 78.2073 8.04168C79.5939 8.04168 80.8419 8.40435 81.9513 9.12968C83.0819 9.83368 83.9673 10.7937 84.6073 12.0097C85.2686 13.2043 85.5993 14.559 85.5993 16.0737C85.5993 17.567 85.2686 18.9217 84.6073 20.1377C83.9673 21.3323 83.0819 22.2817 81.9513 22.9857C80.8419 23.6897 79.5939 24.0417 78.2073 24.0417ZM77.6313 20.7137C78.4846 20.7137 79.2313 20.5217 79.8713 20.1377C80.5326 19.7323 81.0446 19.1777 81.4073 18.4737C81.7913 17.7697 81.9833 16.959 81.9833 16.0417C81.9833 15.1243 81.7913 14.3137 81.4073 13.6097C81.0446 12.9057 80.5326 12.3617 79.8713 11.9777C79.2313 11.5723 78.4846 11.3697 77.6313 11.3697C76.7779 11.3697 76.0206 11.5723 75.3593 11.9777C74.6979 12.3617 74.1859 12.9057 73.8233 13.6097C73.4606 14.3137 73.2793 15.1243 73.2793 16.0417C73.2793 16.959 73.4606 17.7697 73.8233 18.4737C74.1859 19.1777 74.6979 19.7323 75.3593 20.1377C76.0206 20.5217 76.7779 20.7137 77.6313 20.7137ZM69.9833 23.7217V0.681679H73.5033V12.1377L72.8953 15.8497L73.5033 19.5937V23.7217H69.9833ZM94.9778 24.0417C93.5911 24.0417 92.3324 23.6897 91.2018 22.9857C90.0924 22.2817 89.2071 21.3323 88.5458 20.1377C87.9058 18.9217 87.5858 17.567 87.5858 16.0737C87.5858 14.559 87.9058 13.2043 88.5458 12.0097C89.2071 10.7937 90.0924 9.83368 91.2018 9.12968C92.3324 8.40435 93.5911 8.04168 94.9778 8.04168C96.1511 8.04168 97.1858 8.29768 98.0818 8.80968C98.9991 9.30035 99.7244 9.98301 100.258 10.8577C100.791 11.7323 101.058 12.7243 101.058 13.8337V18.2497C101.058 19.359 100.791 20.351 100.258 21.2257C99.7458 22.1003 99.0311 22.7937 98.1138 23.3057C97.1964 23.7963 96.1511 24.0417 94.9778 24.0417ZM95.5538 20.7137C96.8551 20.7137 97.9004 20.2763 98.6898 19.4017C99.5004 18.527 99.9058 17.407 99.9058 16.0417C99.9058 15.1243 99.7244 14.3137 99.3618 13.6097C98.9991 12.9057 98.4871 12.3617 97.8258 11.9777C97.1858 11.5723 96.4284 11.3697 95.5538 11.3697C94.7004 11.3697 93.9431 11.5723 93.2818 11.9777C92.6418 12.3617 92.1298 12.9057 91.7458 13.6097C91.3831 14.3137 91.2018 15.1243 91.2018 16.0417C91.2018 16.959 91.3831 17.7697 91.7458 18.4737C92.1298 19.1777 92.6418 19.7323 93.2818 20.1377C93.9431 20.5217 94.7004 20.7137 95.5538 20.7137ZM99.6818 23.7217V19.5937L100.29 15.8497L99.6818 12.1377V8.36168H103.202V23.7217H99.6818ZM117.636 23.7217V14.8577C117.636 13.8337 117.306 12.991 116.644 12.3297C116.004 11.6683 115.172 11.3377 114.148 11.3377C113.466 11.3377 112.858 11.487 112.324 11.7857C111.791 12.0843 111.375 12.5003 111.076 13.0337C110.778 13.567 110.628 14.175 110.628 14.8577L109.252 14.0897C109.252 12.9163 109.508 11.8817 110.02 10.9857C110.532 10.0683 111.236 9.35368 112.132 8.84168C113.05 8.30835 114.074 8.04168 115.204 8.04168C116.356 8.04168 117.38 8.34035 118.276 8.93768C119.172 9.51368 119.876 10.271 120.388 11.2097C120.9 12.127 121.156 13.087 121.156 14.0897V23.7217H117.636ZM107.108 23.7217V8.36168H110.628V23.7217H107.108ZM134.493 23.7217L127.997 15.8817L134.461 8.36168H138.653L131.229 16.8097L131.389 14.7937L138.973 23.7217H134.493ZM124.733 23.7217V0.681679H128.253V23.7217H124.733ZM152.443 23.8817L145.883 8.36168H149.755L154.235 19.7537H153.115L157.851 8.36168H161.755L154.619 23.8817H152.443ZM147.867 30.1217L152.635 20.2977L154.619 23.8817L151.771 30.1217H147.867ZM170.305 24.0417C168.811 24.0417 167.457 23.6897 166.241 22.9857C165.025 22.2603 164.054 21.2897 163.329 20.0737C162.625 18.8577 162.273 17.503 162.273 16.0097C162.273 14.5163 162.625 13.1723 163.329 11.9777C164.054 10.783 165.025 9.83368 166.241 9.12968C167.457 8.40435 168.811 8.04168 170.305 8.04168C171.819 8.04168 173.185 8.39368 174.401 9.09768C175.617 9.80168 176.577 10.7617 177.281 11.9777C178.006 13.1723 178.369 14.5163 178.369 16.0097C178.369 17.503 178.006 18.8577 177.281 20.0737C176.577 21.2897 175.617 22.2603 174.401 22.9857C173.185 23.6897 171.819 24.0417 170.305 24.0417ZM170.305 20.6497C171.179 20.6497 171.947 20.4577 172.609 20.0737C173.291 19.6683 173.814 19.1137 174.177 18.4097C174.561 17.7057 174.753 16.9057 174.753 16.0097C174.753 15.1137 174.561 14.3243 174.177 13.6417C173.793 12.959 173.27 12.4257 172.609 12.0417C171.947 11.6363 171.179 11.4337 170.305 11.4337C169.451 11.4337 168.683 11.6363 168.001 12.0417C167.339 12.4257 166.817 12.959 166.433 13.6417C166.07 14.3243 165.889 15.1137 165.889 16.0097C165.889 16.9057 166.07 17.7057 166.433 18.4097C166.817 19.1137 167.339 19.6683 168.001 20.0737C168.683 20.4577 169.451 20.6497 170.305 20.6497ZM187.6 24.0417C186.298 24.0417 185.136 23.7537 184.112 23.1777C183.109 22.6017 182.32 21.8123 181.744 20.8097C181.189 19.7857 180.912 18.6123 180.912 17.2897V8.36168H184.432V17.1297C184.432 17.8763 184.549 18.5163 184.784 19.0497C185.04 19.5617 185.402 19.9563 185.872 20.2337C186.362 20.511 186.938 20.6497 187.6 20.6497C188.624 20.6497 189.402 20.351 189.936 19.7537C190.49 19.135 190.768 18.2603 190.768 17.1297V8.36168H194.288V17.2897C194.288 18.6337 194 19.8177 193.424 20.8417C192.869 21.8443 192.09 22.6337 191.088 23.2097C190.085 23.7643 188.922 24.0417 187.6 24.0417ZM197.827 23.7217V8.36168H201.347V23.7217H197.827ZM201.347 15.1777L200.131 14.5697C200.131 12.6283 200.558 11.0603 201.411 9.86568C202.286 8.64968 203.598 8.04168 205.347 8.04168C206.115 8.04168 206.808 8.18035 207.427 8.45768C208.046 8.73501 208.622 9.18301 209.155 9.80168L206.851 12.1697C206.574 11.871 206.264 11.6577 205.923 11.5297C205.582 11.4017 205.187 11.3377 204.739 11.3377C203.758 11.3377 202.947 11.647 202.307 12.2657C201.667 12.8843 201.347 13.855 201.347 15.1777ZM215.539 24.0417C214.685 24.0417 213.864 23.935 213.075 23.7217C212.285 23.487 211.56 23.167 210.899 22.7617C210.237 22.335 209.661 21.823 209.171 21.2257L211.411 18.9857C211.944 19.6043 212.552 20.0737 213.235 20.3937C213.939 20.6923 214.728 20.8417 215.603 20.8417C216.392 20.8417 216.989 20.7243 217.395 20.4897C217.8 20.255 218.003 19.9137 218.003 19.4657C218.003 18.9963 217.811 18.6337 217.427 18.3777C217.043 18.1217 216.541 17.9083 215.923 17.7377C215.325 17.5457 214.685 17.3537 214.003 17.1617C213.341 16.9697 212.701 16.7137 212.083 16.3937C211.485 16.0523 210.995 15.5937 210.611 15.0177C210.227 14.4417 210.035 13.695 210.035 12.7777C210.035 11.7963 210.259 10.9537 210.707 10.2497C211.176 9.54568 211.827 9.00168 212.659 8.61768C213.512 8.23368 214.525 8.04168 215.699 8.04168C216.936 8.04168 218.024 8.26568 218.963 8.71368C219.923 9.14035 220.723 9.79101 221.363 10.6657L219.123 12.9057C218.675 12.351 218.163 11.935 217.587 11.6577C217.011 11.3803 216.349 11.2417 215.603 11.2417C214.899 11.2417 214.355 11.3483 213.971 11.5617C213.587 11.775 213.395 12.0843 213.395 12.4897C213.395 12.9163 213.587 13.247 213.971 13.4817C214.355 13.7163 214.845 13.919 215.443 14.0897C216.061 14.2603 216.701 14.4523 217.363 14.6657C218.045 14.8577 218.685 15.135 219.283 15.4977C219.901 15.839 220.403 16.3083 220.787 16.9057C221.171 17.4817 221.363 18.239 221.363 19.1777C221.363 20.671 220.84 21.855 219.795 22.7297C218.749 23.6043 217.331 24.0417 215.539 24.0417ZM231.401 24.0417C229.865 24.0417 228.478 23.7003 227.241 23.0177C226.025 22.3137 225.054 21.3537 224.329 20.1377C223.625 18.9217 223.273 17.5563 223.273 16.0417C223.273 14.527 223.625 13.1723 224.329 11.9777C225.033 10.7617 225.982 9.80168 227.177 9.09768C228.393 8.39368 229.737 8.04168 231.209 8.04168C232.638 8.04168 233.897 8.37235 234.985 9.03368C236.094 9.69501 236.958 10.6017 237.577 11.7537C238.217 12.9057 238.537 14.2177 238.537 15.6897C238.537 15.9457 238.515 16.2123 238.472 16.4897C238.451 16.7457 238.409 17.0337 238.345 17.3537H225.737V14.4737H236.521L235.209 15.6257C235.166 14.687 234.985 13.8977 234.665 13.2577C234.345 12.6177 233.886 12.127 233.289 11.7857C232.713 11.4443 231.998 11.2737 231.145 11.2737C230.249 11.2737 229.47 11.4657 228.809 11.8497C228.147 12.2337 227.635 12.7777 227.273 13.4817C226.91 14.1643 226.729 14.9857 226.729 15.9457C226.729 16.9057 226.921 17.7483 227.305 18.4737C227.689 19.199 228.233 19.7643 228.937 20.1697C229.641 20.5537 230.451 20.7457 231.369 20.7457C232.158 20.7457 232.883 20.607 233.545 20.3297C234.227 20.0523 234.803 19.647 235.273 19.1137L237.513 21.3857C236.766 22.2603 235.859 22.9217 234.793 23.3697C233.726 23.8177 232.595 24.0417 231.401 24.0417ZM241.358 23.7217V0.681679H244.878V23.7217H241.358ZM250.908 23.7217V6.34568C250.908 5.17234 251.164 4.13768 251.676 3.24168C252.209 2.34568 252.934 1.64168 253.852 1.12968C254.79 0.617679 255.868 0.361679 257.084 0.361679C258.022 0.361679 258.822 0.521679 259.484 0.841679C260.145 1.16168 260.764 1.62034 261.34 2.21768L259.068 4.48968C258.812 4.23368 258.534 4.03101 258.236 3.88168C257.937 3.73235 257.553 3.65768 257.084 3.65768C256.23 3.65768 255.569 3.89235 255.1 4.36168C254.652 4.80968 254.428 5.46034 254.428 6.31368V23.7217H250.908ZM247.228 11.5617V8.36168H259.068V11.5617H247.228ZM272.588 23.7217L266.412 8.36168H270.06L274.22 19.5297L273.132 19.5617L277.196 8.36168H279.244L283.308 19.5617L282.22 19.5297L286.38 8.36168H290.028L283.852 23.7217H281.804L277.644 13.0977H278.796L274.636 23.7217H272.588ZM292.015 23.7217V8.36168H295.535V23.7217H292.015ZM293.775 5.54568C293.178 5.54568 292.677 5.34301 292.271 4.93768C291.887 4.53235 291.695 4.03101 291.695 3.43368C291.695 2.83635 291.887 2.33501 292.271 1.92968C292.677 1.52434 293.178 1.32168 293.775 1.32168C294.394 1.32168 294.895 1.52434 295.279 1.92968C295.663 2.33501 295.855 2.83635 295.855 3.43368C295.855 4.03101 295.663 4.53235 295.279 4.93768C294.895 5.34301 294.394 5.54568 293.775 5.54568ZM301.819 23.7217V1.96168H305.339V23.7217H301.819ZM298.139 11.5617V8.36168H309.019V11.5617H298.139ZM322.105 23.7217V14.8577C322.105 13.8337 321.774 12.991 321.113 12.3297C320.473 11.6683 319.641 11.3377 318.617 11.3377C317.934 11.3377 317.326 11.487 316.793 11.7857C316.26 12.0843 315.844 12.5003 315.545 13.0337C315.246 13.567 315.097 14.175 315.097 14.8577L313.721 14.0897C313.721 12.9163 313.977 11.8817 314.489 10.9857C315.001 10.0683 315.705 9.35368 316.601 8.84168C317.518 8.30835 318.542 8.04168 319.673 8.04168C320.825 8.04168 321.849 8.29768 322.745 8.80968C323.641 9.32168 324.345 10.0363 324.857 10.9537C325.369 11.8497 325.625 12.895 325.625 14.0897V23.7217H322.105ZM311.577 23.7217V0.681679H315.097V23.7217H311.577ZM342.68 24.0417C341.166 24.0417 339.79 23.6897 338.552 22.9857C337.336 22.2817 336.376 21.3217 335.672 20.1057C334.968 18.8897 334.616 17.535 334.616 16.0417C334.616 14.527 334.968 13.1723 335.672 11.9777C336.376 10.7617 337.336 9.80168 338.552 9.09768C339.79 8.39368 341.166 8.04168 342.68 8.04168C343.875 8.04168 344.984 8.27635 346.008 8.74568C347.054 9.19368 347.939 9.84435 348.664 10.6977L346.36 13.0337C345.912 12.5003 345.368 12.1057 344.728 11.8497C344.11 11.5723 343.427 11.4337 342.68 11.4337C341.806 11.4337 341.027 11.6363 340.344 12.0417C339.683 12.4257 339.16 12.959 338.776 13.6417C338.414 14.3243 338.232 15.1243 338.232 16.0417C338.232 16.9377 338.414 17.7377 338.776 18.4417C339.16 19.1243 339.683 19.6683 340.344 20.0737C341.027 20.4577 341.806 20.6497 342.68 20.6497C343.427 20.6497 344.11 20.5217 344.728 20.2657C345.368 19.9883 345.912 19.583 346.36 19.0497L348.664 21.3857C347.939 22.239 347.054 22.9003 346.008 23.3697C344.984 23.8177 343.875 24.0417 342.68 24.0417ZM351.202 23.7217V8.36168H354.722V23.7217H351.202ZM354.722 15.1777L353.506 14.5697C353.506 12.6283 353.933 11.0603 354.786 9.86568C355.661 8.64968 356.973 8.04168 358.722 8.04168C359.49 8.04168 360.183 8.18035 360.802 8.45768C361.421 8.73501 361.997 9.18301 362.53 9.80168L360.226 12.1697C359.949 11.871 359.639 11.6577 359.298 11.5297C358.957 11.4017 358.562 11.3377 358.114 11.3377C357.133 11.3377 356.322 11.647 355.682 12.2657C355.042 12.8843 354.722 13.855 354.722 15.1777ZM368.975 23.8817L362.415 8.36168H366.286L370.767 19.7537H369.647L374.383 8.36168H378.287L371.151 23.8817H368.975ZM364.399 30.1217L369.167 20.2977L371.151 23.8817L368.303 30.1217H364.399ZM388.426 24.0417C387.253 24.0417 386.207 23.7963 385.29 23.3057C384.373 22.7937 383.647 22.1003 383.114 21.2257C382.602 20.351 382.346 19.359 382.346 18.2497V13.8337C382.346 12.7243 382.613 11.7323 383.146 10.8577C383.679 9.98301 384.405 9.30035 385.322 8.80968C386.239 8.29768 387.274 8.04168 388.426 8.04168C389.813 8.04168 391.061 8.40435 392.17 9.12968C393.301 9.83368 394.186 10.7937 394.826 12.0097C395.487 13.2043 395.818 14.559 395.818 16.0737C395.818 17.567 395.487 18.9217 394.826 20.1377C394.186 21.3323 393.301 22.2817 392.17 22.9857C391.061 23.6897 389.813 24.0417 388.426 24.0417ZM387.85 20.7137C388.703 20.7137 389.45 20.5217 390.09 20.1377C390.751 19.7323 391.263 19.1777 391.626 18.4737C392.01 17.7697 392.202 16.959 392.202 16.0417C392.202 15.1243 392.01 14.3137 391.626 13.6097C391.263 12.9057 390.751 12.3617 390.09 11.9777C389.45 11.5723 388.703 11.3697 387.85 11.3697C386.997 11.3697 386.239 11.5723 385.578 11.9777C384.917 12.3617 384.405 12.9057 384.042 13.6097C383.679 14.3137 383.498 15.1243 383.498 16.0417C383.498 16.959 383.679 17.7697 384.042 18.4737C384.405 19.1777 384.917 19.7323 385.578 20.1377C386.239 20.5217 386.997 20.7137 387.85 20.7137ZM380.202 30.1217V8.36168H383.722V12.4897L383.114 16.2337L383.722 19.9457V30.1217H380.202ZM400.663 23.7217V1.96168H404.183V23.7217H400.663ZM396.983 11.5617V8.36168H407.863V11.5617H396.983ZM417.023 24.0417C415.53 24.0417 414.175 23.6897 412.959 22.9857C411.743 22.2603 410.773 21.2897 410.047 20.0737C409.343 18.8577 408.991 17.503 408.991 16.0097C408.991 14.5163 409.343 13.1723 410.047 11.9777C410.773 10.783 411.743 9.83368 412.959 9.12968C414.175 8.40435 415.53 8.04168 417.023 8.04168C418.538 8.04168 419.903 8.39368 421.119 9.09768C422.335 9.80168 423.295 10.7617 423.999 11.9777C424.725 13.1723 425.087 14.5163 425.087 16.0097C425.087 17.503 424.725 18.8577 423.999 20.0737C423.295 21.2897 422.335 22.2603 421.119 22.9857C419.903 23.6897 418.538 24.0417 417.023 24.0417ZM417.023 20.6497C417.898 20.6497 418.666 20.4577 419.327 20.0737C420.01 19.6683 420.533 19.1137 420.895 18.4097C421.279 17.7057 421.471 16.9057 421.471 16.0097C421.471 15.1137 421.279 14.3243 420.895 13.6417C420.511 12.959 419.989 12.4257 419.327 12.0417C418.666 11.6363 417.898 11.4337 417.023 11.4337C416.17 11.4337 415.402 11.6363 414.719 12.0417C414.058 12.4257 413.535 12.959 413.151 13.6417C412.789 14.3243 412.607 15.1137 412.607 16.0097C412.607 16.9057 412.789 17.7057 413.151 18.4097C413.535 19.1137 414.058 19.6683 414.719 20.0737C415.402 20.4577 416.17 20.6497 417.023 20.6497ZM442.645 24.0417C441.471 24.0417 440.426 23.7963 439.509 23.3057C438.591 22.7937 437.866 22.1003 437.333 21.2257C436.821 20.351 436.565 19.359 436.565 18.2497V13.8337C436.565 12.7243 436.831 11.7323 437.365 10.8577C437.898 9.98301 438.623 9.30035 439.541 8.80968C440.458 8.29768 441.493 8.04168 442.645 8.04168C444.031 8.04168 445.279 8.40435 446.389 9.12968C447.519 9.83368 448.405 10.7937 449.045 12.0097C449.706 13.2043 450.037 14.559 450.037 16.0737C450.037 17.567 449.706 18.9217 449.045 20.1377C448.405 21.3323 447.519 22.2817 446.389 22.9857C445.279 23.6897 444.031 24.0417 442.645 24.0417ZM442.069 20.7137C442.922 20.7137 443.669 20.5217 444.309 20.1377C444.97 19.7323 445.482 19.1777 445.845 18.4737C446.229 17.7697 446.421 16.959 446.421 16.0417C446.421 15.1243 446.229 14.3137 445.845 13.6097C445.482 12.9057 444.97 12.3617 444.309 11.9777C443.669 11.5723 442.922 11.3697 442.069 11.3697C441.215 11.3697 440.458 11.5723 439.797 11.9777C439.135 12.3617 438.623 12.9057 438.261 13.6097C437.898 14.3137 437.717 15.1243 437.717 16.0417C437.717 16.959 437.898 17.7697 438.261 18.4737C438.623 19.1777 439.135 19.7323 439.797 20.1377C440.458 20.5217 441.215 20.7137 442.069 20.7137ZM434.421 30.1217V8.36168H437.941V12.4897L437.333 16.2337L437.941 19.9457V30.1217H434.421ZM459.415 24.0417C458.029 24.0417 456.77 23.6897 455.639 22.9857C454.53 22.2817 453.645 21.3323 452.983 20.1377C452.343 18.9217 452.023 17.567 452.023 16.0737C452.023 14.559 452.343 13.2043 452.983 12.0097C453.645 10.7937 454.53 9.83368 455.639 9.12968C456.77 8.40435 458.029 8.04168 459.415 8.04168C460.589 8.04168 461.623 8.29768 462.519 8.80968C463.437 9.30035 464.162 9.98301 464.695 10.8577C465.229 11.7323 465.495 12.7243 465.495 13.8337V18.2497C465.495 19.359 465.229 20.351 464.695 21.2257C464.183 22.1003 463.469 22.7937 462.551 23.3057C461.634 23.7963 460.589 24.0417 459.415 24.0417ZM459.991 20.7137C461.293 20.7137 462.338 20.2763 463.127 19.4017C463.938 18.527 464.343 17.407 464.343 16.0417C464.343 15.1243 464.162 14.3137 463.799 13.6097C463.437 12.9057 462.925 12.3617 462.263 11.9777C461.623 11.5723 460.866 11.3697 459.991 11.3697C459.138 11.3697 458.381 11.5723 457.719 11.9777C457.079 12.3617 456.567 12.9057 456.183 13.6097C455.821 14.3137 455.639 15.1243 455.639 16.0417C455.639 16.959 455.821 17.7697 456.183 18.4737C456.567 19.1777 457.079 19.7323 457.719 20.1377C458.381 20.5217 459.138 20.7137 459.991 20.7137ZM464.119 23.7217V19.5937L464.727 15.8497L464.119 12.1377V8.36168H467.639V23.7217H464.119ZM476.506 23.8817L469.946 8.36168H473.818L478.298 19.7537H477.178L481.914 8.36168H485.818L478.682 23.8817H476.506ZM471.93 30.1217L476.698 20.2977L478.682 23.8817L475.834 30.1217H471.93ZM487.733 23.7217V8.36168H491.253V23.7217H487.733ZM497.941 23.7217V14.5697C497.941 13.5457 497.621 12.7563 496.981 12.2017C496.341 11.6257 495.552 11.3377 494.613 11.3377C493.973 11.3377 493.397 11.4657 492.885 11.7217C492.395 11.9777 492 12.351 491.701 12.8417C491.403 13.311 491.253 13.887 491.253 14.5697L489.877 13.8017C489.877 12.6283 490.133 11.615 490.645 10.7617C491.157 9.90835 491.851 9.24701 492.725 8.77768C493.6 8.28701 494.581 8.04168 495.669 8.04168C496.757 8.04168 497.739 8.27635 498.613 8.74568C499.488 9.21501 500.181 9.87635 500.693 10.7297C501.205 11.583 501.461 12.607 501.461 13.8017V23.7217H497.941ZM508.149 23.7217V14.5697C508.149 13.5457 507.829 12.7563 507.189 12.2017C506.549 11.6257 505.76 11.3377 504.821 11.3377C504.203 11.3377 503.637 11.4657 503.125 11.7217C502.613 11.9777 502.208 12.351 501.909 12.8417C501.611 13.311 501.461 13.887 501.461 14.5697L499.477 13.8017C499.584 12.6283 499.925 11.615 500.501 10.7617C501.077 9.90835 501.813 9.24701 502.709 8.77768C503.627 8.28701 504.629 8.04168 505.717 8.04168C506.827 8.04168 507.829 8.27635 508.725 8.74568C509.621 9.21501 510.336 9.87635 510.869 10.7297C511.403 11.583 511.669 12.607 511.669 13.8017V23.7217H508.149ZM522.432 24.0417C520.896 24.0417 519.509 23.7003 518.272 23.0177C517.056 22.3137 516.085 21.3537 515.36 20.1377C514.656 18.9217 514.304 17.5563 514.304 16.0417C514.304 14.527 514.656 13.1723 515.36 11.9777C516.064 10.7617 517.013 9.80168 518.208 9.09768C519.424 8.39368 520.768 8.04168 522.24 8.04168C523.669 8.04168 524.928 8.37235 526.016 9.03368C527.125 9.69501 527.989 10.6017 528.608 11.7537C529.248 12.9057 529.568 14.2177 529.568 15.6897C529.568 15.9457 529.546 16.2123 529.504 16.4897C529.482 16.7457 529.44 17.0337 529.376 17.3537H516.768V14.4737H527.552L526.24 15.6257C526.197 14.687 526.016 13.8977 525.696 13.2577C525.376 12.6177 524.917 12.127 524.32 11.7857C523.744 11.4443 523.029 11.2737 522.176 11.2737C521.28 11.2737 520.501 11.4657 519.84 11.8497C519.178 12.2337 518.666 12.7777 518.304 13.4817C517.941 14.1643 517.76 14.9857 517.76 15.9457C517.76 16.9057 517.952 17.7483 518.336 18.4737C518.72 19.199 519.264 19.7643 519.968 20.1697C520.672 20.5537 521.482 20.7457 522.4 20.7457C523.189 20.7457 523.914 20.607 524.576 20.3297C525.258 20.0523 525.834 19.647 526.304 19.1137L528.544 21.3857C527.797 22.2603 526.89 22.9217 525.824 23.3697C524.757 23.8177 523.626 24.0417 522.432 24.0417ZM542.918 23.7217V14.8577C542.918 13.8337 542.587 12.991 541.926 12.3297C541.286 11.6683 540.454 11.3377 539.43 11.3377C538.747 11.3377 538.139 11.487 537.606 11.7857C537.072 12.0843 536.656 12.5003 536.358 13.0337C536.059 13.567 535.91 14.175 535.91 14.8577L534.534 14.0897C534.534 12.9163 534.79 11.8817 535.302 10.9857C535.814 10.0683 536.518 9.35368 537.414 8.84168C538.331 8.30835 539.355 8.04168 540.486 8.04168C541.638 8.04168 542.662 8.34035 543.558 8.93768C544.454 9.51368 545.158 10.271 545.67 11.2097C546.182 12.127 546.438 13.087 546.438 14.0897V23.7217H542.918ZM532.39 23.7217V8.36168H535.91V23.7217H532.39ZM552.163 23.7217V1.96168H555.683V23.7217H552.163ZM548.483 11.5617V8.36168H559.363V11.5617H548.483ZM566.632 24.0417C565.779 24.0417 564.958 23.935 564.168 23.7217C563.379 23.487 562.654 23.167 561.992 22.7617C561.331 22.335 560.755 21.823 560.264 21.2257L562.504 18.9857C563.038 19.6043 563.646 20.0737 564.328 20.3937C565.032 20.6923 565.822 20.8417 566.696 20.8417C567.486 20.8417 568.083 20.7243 568.488 20.4897C568.894 20.255 569.096 19.9137 569.096 19.4657C569.096 18.9963 568.904 18.6337 568.52 18.3777C568.136 18.1217 567.635 17.9083 567.016 17.7377C566.419 17.5457 565.779 17.3537 565.096 17.1617C564.435 16.9697 563.795 16.7137 563.176 16.3937C562.579 16.0523 562.088 15.5937 561.704 15.0177C561.32 14.4417 561.128 13.695 561.128 12.7777C561.128 11.7963 561.352 10.9537 561.8 10.2497C562.27 9.54568 562.92 9.00168 563.752 8.61768C564.606 8.23368 565.619 8.04168 566.792 8.04168C568.03 8.04168 569.118 8.26568 570.056 8.71368C571.016 9.14035 571.816 9.79101 572.456 10.6657L570.216 12.9057C569.768 12.351 569.256 11.935 568.68 11.6577C568.104 11.3803 567.443 11.2417 566.696 11.2417C565.992 11.2417 565.448 11.3483 565.064 11.5617C564.68 11.775 564.488 12.0843 564.488 12.4897C564.488 12.9163 564.68 13.247 565.064 13.4817C565.448 13.7163 565.939 13.919 566.536 14.0897C567.155 14.2603 567.795 14.4523 568.456 14.6657C569.139 14.8577 569.779 15.135 570.376 15.4977C570.995 15.839 571.496 16.3083 571.88 16.9057C572.264 17.4817 572.456 18.239 572.456 19.1777C572.456 20.671 571.934 21.855 570.888 22.7297C569.843 23.6043 568.424 24.0417 566.632 24.0417ZM584.101 23.7217V1.96168H587.621V23.7217H584.101ZM580.421 11.5617V8.36168H591.301V11.5617H580.421ZM604.386 23.7217V14.8577C604.386 13.8337 604.056 12.991 603.394 12.3297C602.754 11.6683 601.922 11.3377 600.898 11.3377C600.216 11.3377 599.608 11.487 599.074 11.7857C598.541 12.0843 598.125 12.5003 597.826 13.0337C597.528 13.567 597.378 14.175 597.378 14.8577L596.002 14.0897C596.002 12.9163 596.258 11.8817 596.77 10.9857C597.282 10.0683 597.986 9.35368 598.882 8.84168C599.8 8.30835 600.824 8.04168 601.954 8.04168C603.106 8.04168 604.13 8.29768 605.026 8.80968C605.922 9.32168 606.626 10.0363 607.138 10.9537C607.65 11.8497 607.906 12.895 607.906 14.0897V23.7217H604.386ZM593.858 23.7217V0.681679H597.378V23.7217H593.858ZM617.915 24.0417C616.529 24.0417 615.27 23.6897 614.139 22.9857C613.03 22.2817 612.145 21.3323 611.483 20.1377C610.843 18.9217 610.523 17.567 610.523 16.0737C610.523 14.559 610.843 13.2043 611.483 12.0097C612.145 10.7937 613.03 9.83368 614.139 9.12968C615.27 8.40435 616.529 8.04168 617.915 8.04168C619.089 8.04168 620.123 8.29768 621.019 8.80968C621.937 9.30035 622.662 9.98301 623.195 10.8577C623.729 11.7323 623.995 12.7243 623.995 13.8337V18.2497C623.995 19.359 623.729 20.351 623.195 21.2257C622.683 22.1003 621.969 22.7937 621.051 23.3057C620.134 23.7963 619.089 24.0417 617.915 24.0417ZM618.491 20.7137C619.793 20.7137 620.838 20.2763 621.627 19.4017C622.438 18.527 622.843 17.407 622.843 16.0417C622.843 15.1243 622.662 14.3137 622.299 13.6097C621.937 12.9057 621.425 12.3617 620.763 11.9777C620.123 11.5723 619.366 11.3697 618.491 11.3697C617.638 11.3697 616.881 11.5723 616.219 11.9777C615.579 12.3617 615.067 12.9057 614.683 13.6097C614.321 14.3137 614.139 15.1243 614.139 16.0417C614.139 16.959 614.321 17.7697 614.683 18.4737C615.067 19.1777 615.579 19.7323 616.219 20.1377C616.881 20.5217 617.638 20.7137 618.491 20.7137ZM622.619 23.7217V19.5937L623.227 15.8497L622.619 12.1377V8.36168H626.139V23.7217H622.619ZM632.382 23.7217V1.96168H635.902V23.7217H632.382ZM628.702 11.5617V8.36168H639.582V11.5617H628.702ZM67.3834 64.0417C65.8687 64.0417 64.4927 63.6897 63.2554 62.9857C62.0394 62.2817 61.0794 61.3217 60.3754 60.1057C59.6714 58.8897 59.3194 57.535 59.3194 56.0417C59.3194 54.527 59.6714 53.1723 60.3754 51.9777C61.0794 50.7617 62.0394 49.8017 63.2554 49.0977C64.4927 48.3937 65.8687 48.0417 67.3834 48.0417C68.578 48.0417 69.6874 48.2763 70.7114 48.7457C71.7567 49.1937 72.642 49.8443 73.3674 50.6977L71.0634 53.0337C70.6154 52.5003 70.0714 52.1057 69.4314 51.8497C68.8127 51.5723 68.13 51.4337 67.3834 51.4337C66.5087 51.4337 65.73 51.6363 65.0474 52.0417C64.386 52.4257 63.8634 52.959 63.4794 53.6417C63.1167 54.3243 62.9354 55.1243 62.9354 56.0417C62.9354 56.9377 63.1167 57.7377 63.4794 58.4417C63.8634 59.1243 64.386 59.6683 65.0474 60.0737C65.73 60.4577 66.5087 60.6497 67.3834 60.6497C68.13 60.6497 68.8127 60.5217 69.4314 60.2657C70.0714 59.9883 70.6154 59.583 71.0634 59.0497L73.3674 61.3857C72.642 62.239 71.7567 62.9003 70.7114 63.3697C69.6874 63.8177 68.578 64.0417 67.3834 64.0417ZM82.0246 64.0417C80.638 64.0417 79.3793 63.6897 78.2486 62.9857C77.1393 62.2817 76.254 61.3323 75.5926 60.1377C74.9526 58.9217 74.6326 57.567 74.6326 56.0737C74.6326 54.559 74.9526 53.2043 75.5926 52.0097C76.254 50.7937 77.1393 49.8337 78.2486 49.1297C79.3793 48.4043 80.638 48.0417 82.0246 48.0417C83.198 48.0417 84.2326 48.2977 85.1286 48.8097C86.046 49.3003 86.7713 49.983 87.3046 50.8577C87.838 51.7323 88.1046 52.7243 88.1046 53.8337V58.2497C88.1046 59.359 87.838 60.351 87.3046 61.2257C86.7926 62.1003 86.078 62.7937 85.1606 63.3057C84.2433 63.7963 83.198 64.0417 82.0246 64.0417ZM82.6006 60.7137C83.902 60.7137 84.9473 60.2763 85.7366 59.4017C86.5473 58.527 86.9526 57.407 86.9526 56.0417C86.9526 55.1243 86.7713 54.3137 86.4086 53.6097C86.046 52.9057 85.534 52.3617 84.8726 51.9777C84.2326 51.5723 83.4753 51.3697 82.6006 51.3697C81.7473 51.3697 80.99 51.5723 80.3286 51.9777C79.6886 52.3617 79.1766 52.9057 78.7926 53.6097C78.43 54.3137 78.2486 55.1243 78.2486 56.0417C78.2486 56.959 78.43 57.7697 78.7926 58.4737C79.1766 59.1777 79.6886 59.7323 80.3286 60.1377C80.99 60.5217 81.7473 60.7137 82.6006 60.7137ZM86.7286 63.7217V59.5937L87.3366 55.8497L86.7286 52.1377V48.3617H90.2486V63.7217H86.7286ZM104.683 63.7217V54.8577C104.683 53.8337 104.352 52.991 103.691 52.3297C103.051 51.6683 102.219 51.3377 101.195 51.3377C100.512 51.3377 99.9045 51.487 99.3711 51.7857C98.8378 52.0843 98.4218 52.5003 98.1231 53.0337C97.8245 53.567 97.6751 54.175 97.6751 54.8577L96.2991 54.0897C96.2991 52.9163 96.5551 51.8817 97.0671 50.9857C97.5791 50.0683 98.2831 49.3537 99.1791 48.8417C100.096 48.3083 101.12 48.0417 102.251 48.0417C103.403 48.0417 104.427 48.3403 105.323 48.9377C106.219 49.5137 106.923 50.271 107.435 51.2097C107.947 52.127 108.203 53.087 108.203 54.0897V63.7217H104.683ZM94.1551 63.7217V48.3617H97.6751V63.7217H94.1551ZM124.586 70.4417C122.965 70.4417 121.546 70.143 120.33 69.5457C119.114 68.9697 118.133 68.1483 117.386 67.0817L119.69 64.7777C120.309 65.5457 121.013 66.1217 121.802 66.5057C122.592 66.8897 123.541 67.0817 124.65 67.0817C126.037 67.0817 127.136 66.719 127.946 65.9937C128.757 65.2897 129.162 64.319 129.162 63.0817V59.3057L129.77 55.9137L129.162 52.4897V48.3617H132.682V63.0817C132.682 64.5537 132.341 65.8337 131.658 66.9217C130.976 68.031 130.026 68.895 128.81 69.5137C127.594 70.1323 126.186 70.4417 124.586 70.4417ZM124.426 63.4017C123.061 63.4017 121.824 63.071 120.714 62.4097C119.626 61.727 118.762 60.799 118.122 59.6257C117.504 58.4523 117.194 57.1403 117.194 55.6897C117.194 54.239 117.504 52.9377 118.122 51.7857C118.762 50.6337 119.626 49.727 120.714 49.0657C121.824 48.383 123.061 48.0417 124.426 48.0417C125.642 48.0417 126.709 48.287 127.626 48.7777C128.544 49.2683 129.258 49.951 129.77 50.8257C130.282 51.679 130.538 52.6817 130.538 53.8337V57.6097C130.538 58.7403 130.272 59.743 129.738 60.6177C129.226 61.4923 128.512 62.175 127.594 62.6657C126.677 63.1563 125.621 63.4017 124.426 63.4017ZM125.13 60.0737C125.984 60.0737 126.73 59.8923 127.37 59.5297C128.01 59.167 128.501 58.6657 128.842 58.0257C129.205 57.3643 129.386 56.5963 129.386 55.7217C129.386 54.847 129.205 54.0897 128.842 53.4497C128.501 52.7883 128.01 52.2763 127.37 51.9137C126.73 51.551 125.984 51.3697 125.13 51.3697C124.277 51.3697 123.52 51.551 122.858 51.9137C122.218 52.2763 121.717 52.7883 121.354 53.4497C120.992 54.0897 120.81 54.847 120.81 55.7217C120.81 56.575 120.992 57.3323 121.354 57.9937C121.717 58.655 122.218 59.167 122.858 59.5297C123.52 59.8923 124.277 60.0737 125.13 60.0737ZM143.633 64.0417C142.139 64.0417 140.785 63.6897 139.569 62.9857C138.353 62.2603 137.382 61.2897 136.657 60.0737C135.953 58.8577 135.601 57.503 135.601 56.0097C135.601 54.5163 135.953 53.1723 136.657 51.9777C137.382 50.783 138.353 49.8337 139.569 49.1297C140.785 48.4043 142.139 48.0417 143.633 48.0417C145.147 48.0417 146.513 48.3937 147.729 49.0977C148.945 49.8017 149.905 50.7617 150.609 51.9777C151.334 53.1723 151.697 54.5163 151.697 56.0097C151.697 57.503 151.334 58.8577 150.609 60.0737C149.905 61.2897 148.945 62.2603 147.729 62.9857C146.513 63.6897 145.147 64.0417 143.633 64.0417ZM143.633 60.6497C144.507 60.6497 145.275 60.4577 145.937 60.0737C146.619 59.6683 147.142 59.1137 147.505 58.4097C147.889 57.7057 148.081 56.9057 148.081 56.0097C148.081 55.1137 147.889 54.3243 147.505 53.6417C147.121 52.959 146.598 52.4257 145.937 52.0417C145.275 51.6363 144.507 51.4337 143.633 51.4337C142.779 51.4337 142.011 51.6363 141.329 52.0417C140.667 52.4257 140.145 52.959 139.761 53.6417C139.398 54.3243 139.217 55.1137 139.217 56.0097C139.217 56.9057 139.398 57.7057 139.761 58.4097C140.145 59.1137 140.667 59.6683 141.329 60.0737C142.011 60.4577 142.779 60.6497 143.633 60.6497ZM163.366 63.7217V41.9617H166.886V63.7217H163.366ZM159.686 51.5617V48.3617H170.566V51.5617H159.686ZM179.726 64.0417C178.233 64.0417 176.878 63.6897 175.662 62.9857C174.446 62.2603 173.476 61.2897 172.75 60.0737C172.046 58.8577 171.694 57.503 171.694 56.0097C171.694 54.5163 172.046 53.1723 172.75 51.9777C173.476 50.783 174.446 49.8337 175.662 49.1297C176.878 48.4043 178.233 48.0417 179.726 48.0417C181.241 48.0417 182.606 48.3937 183.822 49.0977C185.038 49.8017 185.998 50.7617 186.702 51.9777C187.428 53.1723 187.79 54.5163 187.79 56.0097C187.79 57.503 187.428 58.8577 186.702 60.0737C185.998 61.2897 185.038 62.2603 183.822 62.9857C182.606 63.6897 181.241 64.0417 179.726 64.0417ZM179.726 60.6497C180.601 60.6497 181.369 60.4577 182.03 60.0737C182.713 59.6683 183.236 59.1137 183.598 58.4097C183.982 57.7057 184.174 56.9057 184.174 56.0097C184.174 55.1137 183.982 54.3243 183.598 53.6417C183.214 52.959 182.692 52.4257 182.03 52.0417C181.369 51.6363 180.601 51.4337 179.726 51.4337C178.873 51.4337 178.105 51.6363 177.422 52.0417C176.761 52.4257 176.238 52.959 175.854 53.6417C175.492 54.3243 175.31 55.1137 175.31 56.0097C175.31 56.9057 175.492 57.7057 175.854 58.4097C176.238 59.1137 176.761 59.6683 177.422 60.0737C178.105 60.4577 178.873 60.6497 179.726 60.6497ZM203.556 64.0417C202.169 64.0417 200.911 63.6897 199.78 62.9857C198.671 62.2817 197.785 61.3323 197.124 60.1377C196.484 58.9217 196.164 57.567 196.164 56.0737C196.164 54.559 196.484 53.2043 197.124 52.0097C197.785 50.7937 198.671 49.8337 199.78 49.1297C200.911 48.4043 202.169 48.0417 203.556 48.0417C204.729 48.0417 205.764 48.2977 206.66 48.8097C207.577 49.3003 208.303 49.983 208.836 50.8577C209.369 51.7323 209.636 52.7243 209.636 53.8337V58.2497C209.636 59.359 209.369 60.351 208.836 61.2257C208.324 62.1003 207.609 62.7937 206.692 63.3057C205.775 63.7963 204.729 64.0417 203.556 64.0417ZM204.132 60.7137C205.433 60.7137 206.479 60.2763 207.268 59.4017C208.079 58.527 208.484 57.407 208.484 56.0417C208.484 55.1243 208.303 54.3137 207.94 53.6097C207.577 52.9057 207.065 52.3617 206.404 51.9777C205.764 51.5723 205.007 51.3697 204.132 51.3697C203.279 51.3697 202.521 51.5723 201.86 51.9777C201.22 52.3617 200.708 52.9057 200.324 53.6097C199.961 54.3137 199.78 55.1243 199.78 56.0417C199.78 56.959 199.961 57.7697 200.324 58.4737C200.708 59.1777 201.22 59.7323 201.86 60.1377C202.521 60.5217 203.279 60.7137 204.132 60.7137ZM208.26 63.7217V59.5937L208.868 55.8497L208.26 52.1377V48.3617H211.78V63.7217H208.26ZM226.214 63.7217V54.8577C226.214 53.8337 225.884 52.991 225.222 52.3297C224.582 51.6683 223.75 51.3377 222.726 51.3377C222.044 51.3377 221.436 51.487 220.902 51.7857C220.369 52.0843 219.953 52.5003 219.654 53.0337C219.356 53.567 219.206 54.175 219.206 54.8577L217.83 54.0897C217.83 52.9163 218.086 51.8817 218.598 50.9857C219.11 50.0683 219.814 49.3537 220.71 48.8417C221.628 48.3083 222.652 48.0417 223.782 48.0417C224.934 48.0417 225.958 48.3403 226.854 48.9377C227.75 49.5137 228.454 50.271 228.966 51.2097C229.478 52.127 229.734 53.087 229.734 54.0897V63.7217H226.214ZM215.686 63.7217V48.3617H219.206V63.7217H215.686ZM238.271 63.8817L231.711 48.3617H235.583L240.063 59.7537H238.943L243.679 48.3617H247.583L240.447 63.8817H238.271ZM233.695 70.1217L238.463 60.2977L240.447 63.8817L237.599 70.1217H233.695ZM256.133 64.0417C254.639 64.0417 253.285 63.6897 252.069 62.9857C250.853 62.2603 249.882 61.2897 249.157 60.0737C248.453 58.8577 248.101 57.503 248.101 56.0097C248.101 54.5163 248.453 53.1723 249.157 51.9777C249.882 50.783 250.853 49.8337 252.069 49.1297C253.285 48.4043 254.639 48.0417 256.133 48.0417C257.647 48.0417 259.013 48.3937 260.229 49.0977C261.445 49.8017 262.405 50.7617 263.109 51.9777C263.834 53.1723 264.197 54.5163 264.197 56.0097C264.197 57.503 263.834 58.8577 263.109 60.0737C262.405 61.2897 261.445 62.2603 260.229 62.9857C259.013 63.6897 257.647 64.0417 256.133 64.0417ZM256.133 60.6497C257.007 60.6497 257.775 60.4577 258.437 60.0737C259.119 59.6683 259.642 59.1137 260.005 58.4097C260.389 57.7057 260.581 56.9057 260.581 56.0097C260.581 55.1137 260.389 54.3243 260.005 53.6417C259.621 52.959 259.098 52.4257 258.437 52.0417C257.775 51.6363 257.007 51.4337 256.133 51.4337C255.279 51.4337 254.511 51.6363 253.829 52.0417C253.167 52.4257 252.645 52.959 252.261 53.6417C251.898 54.3243 251.717 55.1137 251.717 56.0097C251.717 56.9057 251.898 57.7057 252.261 58.4097C252.645 59.1137 253.167 59.6683 253.829 60.0737C254.511 60.4577 255.279 60.6497 256.133 60.6497ZM277.652 63.7217V54.8577C277.652 53.8337 277.321 52.991 276.66 52.3297C276.02 51.6683 275.188 51.3377 274.164 51.3377C273.481 51.3377 272.873 51.487 272.34 51.7857C271.807 52.0843 271.391 52.5003 271.092 53.0337C270.793 53.567 270.644 54.175 270.644 54.8577L269.268 54.0897C269.268 52.9163 269.524 51.8817 270.036 50.9857C270.548 50.0683 271.252 49.3537 272.148 48.8417C273.065 48.3083 274.089 48.0417 275.22 48.0417C276.372 48.0417 277.396 48.3403 278.292 48.9377C279.188 49.5137 279.892 50.271 280.404 51.2097C280.916 52.127 281.172 53.087 281.172 54.0897V63.7217H277.652ZM267.124 63.7217V48.3617H270.644V63.7217H267.124ZM291.885 64.0417C290.349 64.0417 288.962 63.7003 287.725 63.0177C286.509 62.3137 285.538 61.3537 284.813 60.1377C284.109 58.9217 283.757 57.5563 283.757 56.0417C283.757 54.527 284.109 53.1723 284.813 51.9777C285.517 50.7617 286.466 49.8017 287.661 49.0977C288.877 48.3937 290.221 48.0417 291.693 48.0417C293.122 48.0417 294.381 48.3723 295.469 49.0337C296.578 49.695 297.442 50.6017 298.061 51.7537C298.701 52.9057 299.021 54.2177 299.021 55.6897C299.021 55.9457 299 56.2123 298.957 56.4897C298.936 56.7457 298.893 57.0337 298.829 57.3537H286.221V54.4737H297.005L295.693 55.6257C295.65 54.687 295.469 53.8977 295.149 53.2577C294.829 52.6177 294.37 52.127 293.773 51.7857C293.197 51.4443 292.482 51.2737 291.629 51.2737C290.733 51.2737 289.954 51.4657 289.293 51.8497C288.632 52.2337 288.12 52.7777 287.757 53.4817C287.394 54.1643 287.213 54.9857 287.213 55.9457C287.213 56.9057 287.405 57.7483 287.789 58.4737C288.173 59.199 288.717 59.7643 289.421 60.1697C290.125 60.5537 290.936 60.7457 291.853 60.7457C292.642 60.7457 293.368 60.607 294.029 60.3297C294.712 60.0523 295.288 59.647 295.757 59.1137L297.997 61.3857C297.25 62.2603 296.344 62.9217 295.277 63.3697C294.21 63.8177 293.08 64.0417 291.885 64.0417ZM314.681 64.0417C313.294 64.0417 312.036 63.6897 310.905 62.9857C309.796 62.2817 308.91 61.3323 308.249 60.1377C307.609 58.9217 307.289 57.567 307.289 56.0737C307.289 54.559 307.609 53.2043 308.249 52.0097C308.91 50.7937 309.796 49.8337 310.905 49.1297C312.036 48.4043 313.294 48.0417 314.681 48.0417C315.854 48.0417 316.889 48.2977 317.785 48.8097C318.702 49.3003 319.428 49.983 319.961 50.8577C320.494 51.7323 320.761 52.7243 320.761 53.8337V58.2497C320.761 59.359 320.494 60.351 319.961 61.2257C319.449 62.1003 318.734 62.7937 317.817 63.3057C316.9 63.7963 315.854 64.0417 314.681 64.0417ZM315.257 60.7137C316.558 60.7137 317.604 60.2763 318.393 59.4017C319.204 58.527 319.609 57.407 319.609 56.0417C319.609 55.1243 319.428 54.3137 319.065 53.6097C318.702 52.9057 318.19 52.3617 317.529 51.9777C316.889 51.5723 316.132 51.3697 315.257 51.3697C314.404 51.3697 313.646 51.5723 312.985 51.9777C312.345 52.3617 311.833 52.9057 311.449 53.6097C311.086 54.3137 310.905 55.1243 310.905 56.0417C310.905 56.959 311.086 57.7697 311.449 58.4737C311.833 59.1777 312.345 59.7323 312.985 60.1377C313.646 60.5217 314.404 60.7137 315.257 60.7137ZM319.385 63.7217V59.5937L319.993 55.8497L319.385 52.1377V48.3617H322.905V63.7217H319.385ZM337.339 63.7217V54.8577C337.339 53.8337 337.009 52.991 336.347 52.3297C335.707 51.6683 334.875 51.3377 333.851 51.3377C333.169 51.3377 332.561 51.487 332.027 51.7857C331.494 52.0843 331.078 52.5003 330.779 53.0337C330.481 53.567 330.331 54.175 330.331 54.8577L328.955 54.0897C328.955 52.9163 329.211 51.8817 329.723 50.9857C330.235 50.0683 330.939 49.3537 331.835 48.8417C332.753 48.3083 333.777 48.0417 334.907 48.0417C336.059 48.0417 337.083 48.3403 337.979 48.9377C338.875 49.5137 339.579 50.271 340.091 51.2097C340.603 52.127 340.859 53.087 340.859 54.0897V63.7217H337.339ZM326.811 63.7217V48.3617H330.331V63.7217H326.811ZM349.396 63.8817L342.836 48.3617H346.708L351.188 59.7537H350.068L354.804 48.3617H358.708L351.572 63.8817H349.396ZM344.82 70.1217L349.588 60.2977L351.572 63.8817L348.724 70.1217H344.82ZM364.573 63.7217L358.397 48.3617H362.045L366.205 59.5297L365.117 59.5617L369.181 48.3617H371.229L375.293 59.5617L374.205 59.5297L378.365 48.3617H382.013L375.837 63.7217H373.789L369.629 53.0977H370.781L366.621 63.7217H364.573ZM394.746 63.7217V54.8577C394.746 53.8337 394.415 52.991 393.754 52.3297C393.114 51.6683 392.282 51.3377 391.258 51.3377C390.575 51.3377 389.967 51.487 389.434 51.7857C388.9 52.0843 388.484 52.5003 388.186 53.0337C387.887 53.567 387.738 54.175 387.738 54.8577L386.362 54.0897C386.362 52.9163 386.618 51.8817 387.13 50.9857C387.642 50.0683 388.346 49.3537 389.242 48.8417C390.159 48.3083 391.183 48.0417 392.314 48.0417C393.466 48.0417 394.49 48.2977 395.386 48.8097C396.282 49.3217 396.986 50.0363 397.498 50.9537C398.01 51.8497 398.266 52.895 398.266 54.0897V63.7217H394.746ZM384.218 63.7217V40.6817H387.738V63.7217H384.218ZM408.979 64.0417C407.443 64.0417 406.056 63.7003 404.819 63.0177C403.603 62.3137 402.632 61.3537 401.907 60.1377C401.203 58.9217 400.851 57.5563 400.851 56.0417C400.851 54.527 401.203 53.1723 401.907 51.9777C402.611 50.7617 403.56 49.8017 404.755 49.0977C405.971 48.3937 407.315 48.0417 408.787 48.0417C410.216 48.0417 411.475 48.3723 412.563 49.0337C413.672 49.695 414.536 50.6017 415.155 51.7537C415.795 52.9057 416.115 54.2177 416.115 55.6897C416.115 55.9457 416.093 56.2123 416.051 56.4897C416.029 56.7457 415.987 57.0337 415.923 57.3537H403.315V54.4737H414.099L412.787 55.6257C412.744 54.687 412.563 53.8977 412.243 53.2577C411.923 52.6177 411.464 52.127 410.867 51.7857C410.291 51.4443 409.576 51.2737 408.723 51.2737C407.827 51.2737 407.048 51.4657 406.387 51.8497C405.725 52.2337 405.213 52.7777 404.851 53.4817C404.488 54.1643 404.307 54.9857 404.307 55.9457C404.307 56.9057 404.499 57.7483 404.883 58.4737C405.267 59.199 405.811 59.7643 406.515 60.1697C407.219 60.5537 408.029 60.7457 408.947 60.7457C409.736 60.7457 410.461 60.607 411.123 60.3297C411.805 60.0523 412.381 59.647 412.851 59.1137L415.091 61.3857C414.344 62.2603 413.437 62.9217 412.371 63.3697C411.304 63.8177 410.173 64.0417 408.979 64.0417ZM418.936 63.7217V48.3617H422.456V63.7217H418.936ZM422.456 55.1777L421.24 54.5697C421.24 52.6283 421.667 51.0603 422.52 49.8657C423.395 48.6497 424.707 48.0417 426.456 48.0417C427.224 48.0417 427.918 48.1803 428.536 48.4577C429.155 48.735 429.731 49.183 430.264 49.8017L427.96 52.1697C427.683 51.871 427.374 51.6577 427.032 51.5297C426.691 51.4017 426.296 51.3377 425.848 51.3377C424.867 51.3377 424.056 51.647 423.416 52.2657C422.776 52.8843 422.456 53.855 422.456 55.1777ZM438.635 64.0417C437.099 64.0417 435.712 63.7003 434.475 63.0177C433.259 62.3137 432.288 61.3537 431.563 60.1377C430.859 58.9217 430.507 57.5563 430.507 56.0417C430.507 54.527 430.859 53.1723 431.563 51.9777C432.267 50.7617 433.216 49.8017 434.411 49.0977C435.627 48.3937 436.971 48.0417 438.443 48.0417C439.872 48.0417 441.131 48.3723 442.219 49.0337C443.328 49.695 444.192 50.6017 444.811 51.7537C445.451 52.9057 445.771 54.2177 445.771 55.6897C445.771 55.9457 445.75 56.2123 445.707 56.4897C445.686 56.7457 445.643 57.0337 445.579 57.3537H432.971V54.4737H443.755L442.443 55.6257C442.4 54.687 442.219 53.8977 441.899 53.2577C441.579 52.6177 441.12 52.127 440.523 51.7857C439.947 51.4443 439.232 51.2737 438.379 51.2737C437.483 51.2737 436.704 51.4657 436.043 51.8497C435.382 52.2337 434.87 52.7777 434.507 53.4817C434.144 54.1643 433.963 54.9857 433.963 55.9457C433.963 56.9057 434.155 57.7483 434.539 58.4737C434.923 59.199 435.467 59.7643 436.171 60.1697C436.875 60.5537 437.686 60.7457 438.603 60.7457C439.392 60.7457 440.118 60.607 440.779 60.3297C441.462 60.0523 442.038 59.647 442.507 59.1137L444.747 61.3857C444 62.2603 443.094 62.9217 442.027 63.3697C440.96 63.8177 439.83 64.0417 438.635 64.0417ZM459.959 63.8817L453.399 48.3617H457.271L461.751 59.7537H460.631L465.367 48.3617H469.271L462.135 63.8817H459.959ZM455.383 70.1217L460.151 60.2977L462.135 63.8817L459.287 70.1217H455.383ZM477.82 64.0417C476.327 64.0417 474.972 63.6897 473.756 62.9857C472.54 62.2603 471.569 61.2897 470.844 60.0737C470.14 58.8577 469.788 57.503 469.788 56.0097C469.788 54.5163 470.14 53.1723 470.844 51.9777C471.569 50.783 472.54 49.8337 473.756 49.1297C474.972 48.4043 476.327 48.0417 477.82 48.0417C479.335 48.0417 480.7 48.3937 481.916 49.0977C483.132 49.8017 484.092 50.7617 484.796 51.9777C485.521 53.1723 485.884 54.5163 485.884 56.0097C485.884 57.503 485.521 58.8577 484.796 60.0737C484.092 61.2897 483.132 62.2603 481.916 62.9857C480.7 63.6897 479.335 64.0417 477.82 64.0417ZM477.82 60.6497C478.695 60.6497 479.463 60.4577 480.124 60.0737C480.807 59.6683 481.329 59.1137 481.692 58.4097C482.076 57.7057 482.268 56.9057 482.268 56.0097C482.268 55.1137 482.076 54.3243 481.692 53.6417C481.308 52.959 480.785 52.4257 480.124 52.0417C479.463 51.6363 478.695 51.4337 477.82 51.4337C476.967 51.4337 476.199 51.6363 475.516 52.0417C474.855 52.4257 474.332 52.959 473.948 53.6417C473.585 54.3243 473.404 55.1137 473.404 56.0097C473.404 56.9057 473.585 57.7057 473.948 58.4097C474.332 59.1137 474.855 59.6683 475.516 60.0737C476.199 60.4577 476.967 60.6497 477.82 60.6497ZM495.115 64.0417C493.814 64.0417 492.651 63.7537 491.627 63.1777C490.625 62.6017 489.835 61.8123 489.259 60.8097C488.705 59.7857 488.427 58.6123 488.427 57.2897V48.3617H491.947V57.1297C491.947 57.8763 492.065 58.5163 492.299 59.0497C492.555 59.5617 492.918 59.9563 493.387 60.2337C493.878 60.511 494.454 60.6497 495.115 60.6497C496.139 60.6497 496.918 60.351 497.451 59.7537C498.006 59.135 498.283 58.2603 498.283 57.1297V48.3617H501.803V57.2897C501.803 58.6337 501.515 59.8177 500.939 60.8417C500.385 61.8443 499.606 62.6337 498.603 63.2097C497.601 63.7643 496.438 64.0417 495.115 64.0417ZM516.229 63.7217L510.053 48.3617H513.701L517.861 59.5297L516.773 59.5617L520.837 48.3617H522.885L526.949 59.5617L525.861 59.5297L530.021 48.3617H533.669L527.493 63.7217H525.445L521.285 53.0977H522.437L518.277 63.7217H516.229ZM541.931 64.0417C540.544 64.0417 539.286 63.6897 538.155 62.9857C537.046 62.2817 536.16 61.3323 535.499 60.1377C534.859 58.9217 534.539 57.567 534.539 56.0737C534.539 54.559 534.859 53.2043 535.499 52.0097C536.16 50.7937 537.046 49.8337 538.155 49.1297C539.286 48.4043 540.544 48.0417 541.931 48.0417C543.104 48.0417 544.139 48.2977 545.035 48.8097C545.952 49.3003 546.678 49.983 547.211 50.8577C547.744 51.7323 548.011 52.7243 548.011 53.8337V58.2497C548.011 59.359 547.744 60.351 547.211 61.2257C546.699 62.1003 545.984 62.7937 545.067 63.3057C544.15 63.7963 543.104 64.0417 541.931 64.0417ZM542.507 60.7137C543.808 60.7137 544.854 60.2763 545.643 59.4017C546.454 58.527 546.859 57.407 546.859 56.0417C546.859 55.1243 546.678 54.3137 546.315 53.6097C545.952 52.9057 545.44 52.3617 544.779 51.9777C544.139 51.5723 543.382 51.3697 542.507 51.3697C541.654 51.3697 540.896 51.5723 540.235 51.9777C539.595 52.3617 539.083 52.9057 538.699 53.6097C538.336 54.3137 538.155 55.1243 538.155 56.0417C538.155 56.959 538.336 57.7697 538.699 58.4737C539.083 59.1777 539.595 59.7323 540.235 60.1377C540.896 60.5217 541.654 60.7137 542.507 60.7137ZM546.635 63.7217V59.5937L547.243 55.8497L546.635 52.1377V48.3617H550.155V63.7217H546.635ZM564.589 63.7217V54.8577C564.589 53.8337 564.259 52.991 563.597 52.3297C562.957 51.6683 562.125 51.3377 561.101 51.3377C560.419 51.3377 559.811 51.487 559.277 51.7857C558.744 52.0843 558.328 52.5003 558.029 53.0337C557.731 53.567 557.581 54.175 557.581 54.8577L556.205 54.0897C556.205 52.9163 556.461 51.8817 556.973 50.9857C557.485 50.0683 558.189 49.3537 559.085 48.8417C560.003 48.3083 561.027 48.0417 562.157 48.0417C563.309 48.0417 564.333 48.3403 565.229 48.9377C566.125 49.5137 566.829 50.271 567.341 51.2097C567.853 52.127 568.109 53.087 568.109 54.0897V63.7217H564.589ZM554.061 63.7217V48.3617H557.581V63.7217H554.061ZM573.835 63.7217V41.9617H577.355V63.7217H573.835ZM570.155 51.5617V48.3617H581.035V51.5617H570.155Z" fill="white"/>
</svg>
