<svg width="906" height="111" viewBox="0 0 906 111" fill="none" xmlns="http://www.w3.org/2000/svg">
<path d="M2.10088 24V1.504H6.45288V24H2.10088ZM5.30088 24V20.16H17.7489V24H5.30088ZM5.30088 14.368V10.656H16.6289V14.368H5.30088ZM5.30088 5.344V1.504H17.5889V5.344H5.30088ZM30.5669 24L26.5029 17.728L25.6389 17.088L19.6229 8.544H24.5829L28.3269 14.208L29.1269 14.816L35.4949 24H30.5669ZM19.3029 24L25.6069 15.168L28.0069 18.016L24.0389 24H19.3029ZM29.2869 17.056L26.8229 14.24L30.5029 8.544H35.2069L29.2869 17.056ZM46.2289 24.32C45.1195 24.32 44.1169 24.096 43.2209 23.648C42.3249 23.1787 41.6102 22.5493 41.0769 21.76C40.5435 20.9707 40.2555 20.064 40.2129 19.04V13.568C40.2555 12.544 40.5435 11.6373 41.0769 10.848C41.6315 10.0373 42.3462 9.39733 43.2209 8.928C44.1169 8.45867 45.1195 8.224 46.2289 8.224C47.6582 8.224 48.9382 8.576 50.0689 9.28C51.1995 9.984 52.0849 10.944 52.7249 12.16C53.3862 13.376 53.7169 14.752 53.7169 16.288C53.7169 17.8027 53.3862 19.168 52.7249 20.384C52.0849 21.6 51.1995 22.56 50.0689 23.264C48.9382 23.968 47.6582 24.32 46.2289 24.32ZM45.4929 20.448C46.2609 20.448 46.9435 20.2773 47.5409 19.936C48.1382 19.5733 48.5969 19.0827 48.9169 18.464C49.2582 17.824 49.4289 17.088 49.4289 16.256C49.4289 15.4453 49.2582 14.7307 48.9169 14.112C48.5969 13.472 48.1382 12.9813 47.5409 12.64C46.9435 12.2773 46.2609 12.096 45.4929 12.096C44.7462 12.096 44.0742 12.2773 43.4769 12.64C42.8795 12.9813 42.4102 13.472 42.0689 14.112C41.7489 14.7307 41.5889 15.4453 41.5889 16.256C41.5889 17.088 41.7489 17.824 42.0689 18.464C42.4102 19.0827 42.8689 19.5733 43.4449 19.936C44.0422 20.2773 44.7249 20.448 45.4929 20.448ZM37.6529 30.464V8.544H41.8449V12.608L41.1409 16.352L41.8129 20.096V30.464H37.6529ZM63.8574 24.32C62.236 24.32 60.796 23.9787 59.5374 23.296C58.2787 22.592 57.276 21.632 56.5294 20.416C55.804 19.2 55.4414 17.8133 55.4414 16.256C55.4414 14.72 55.7934 13.3547 56.4974 12.16C57.2227 10.944 58.204 9.984 59.4414 9.28C60.6787 8.55467 62.0547 8.192 63.5694 8.192C65.0627 8.192 66.3747 8.53333 67.5054 9.216C68.6574 9.87733 69.5534 10.7947 70.1934 11.968C70.8547 13.12 71.1854 14.432 71.1854 15.904C71.1854 16.1813 71.164 16.4693 71.1214 16.768C71.1 17.0453 71.0467 17.3653 70.9614 17.728L57.9694 17.76V14.624L69.0094 14.592L67.3134 15.904C67.2707 14.9867 67.1 14.2187 66.8014 13.6C66.524 12.9813 66.108 12.512 65.5534 12.192C65.02 11.8507 64.3587 11.68 63.5694 11.68C62.7374 11.68 62.012 11.872 61.3934 12.256C60.7747 12.6187 60.2947 13.1413 59.9534 13.824C59.6334 14.4853 59.4734 15.2747 59.4734 16.192C59.4734 17.1307 59.644 17.952 59.9854 18.656C60.348 19.3387 60.86 19.872 61.5214 20.256C62.1827 20.6187 62.9507 20.8 63.8254 20.8C64.6147 20.8 65.3294 20.672 65.9694 20.416C66.6094 20.1387 67.164 19.7333 67.6334 19.2L70.0974 21.664C69.3507 22.5387 68.4334 23.2 67.3454 23.648C66.2787 24.096 65.116 24.32 63.8574 24.32ZM73.7779 24V8.544H77.9699V24H73.7779ZM77.9699 15.456L76.3379 14.368C76.5299 12.4693 77.0845 10.976 78.0019 9.888C78.9192 8.77867 80.2419 8.224 81.9699 8.224C82.7165 8.224 83.3885 8.352 83.9859 8.608C84.5832 8.84267 85.1272 9.23733 85.6179 9.792L82.9939 12.8C82.7592 12.544 82.4712 12.352 82.1299 12.224C81.8099 12.096 81.4365 12.032 81.0099 12.032C80.1139 12.032 79.3779 12.32 78.8019 12.896C78.2472 13.4507 77.9699 14.304 77.9699 15.456ZM87.0904 24V8.544H91.3144V24H87.0904ZM89.2024 6.048C88.5197 6.048 87.9544 5.824 87.5064 5.376C87.0584 4.90667 86.8344 4.33067 86.8344 3.648C86.8344 2.98667 87.0584 2.42133 87.5064 1.952C87.9544 1.48267 88.5197 1.248 89.2024 1.248C89.9064 1.248 90.4717 1.48267 90.8984 1.952C91.3464 2.42133 91.5704 2.98667 91.5704 3.648C91.5704 4.33067 91.3464 4.90667 90.8984 5.376C90.4717 5.824 89.9064 6.048 89.2024 6.048ZM102.42 24.32C100.799 24.32 99.3585 23.9787 98.0999 23.296C96.8412 22.592 95.8385 21.632 95.0919 20.416C94.3665 19.2 94.0039 17.8133 94.0039 16.256C94.0039 14.72 94.3559 13.3547 95.0599 12.16C95.7852 10.944 96.7665 9.984 98.0039 9.28C99.2412 8.55467 100.617 8.192 102.132 8.192C103.625 8.192 104.937 8.53333 106.068 9.216C107.22 9.87733 108.116 10.7947 108.756 11.968C109.417 13.12 109.748 14.432 109.748 15.904C109.748 16.1813 109.727 16.4693 109.684 16.768C109.663 17.0453 109.609 17.3653 109.524 17.728L96.5319 17.76V14.624L107.572 14.592L105.876 15.904C105.833 14.9867 105.663 14.2187 105.364 13.6C105.087 12.9813 104.671 12.512 104.116 12.192C103.583 11.8507 102.921 11.68 102.132 11.68C101.3 11.68 100.575 11.872 99.9559 12.256C99.3372 12.6187 98.8572 13.1413 98.5159 13.824C98.1959 14.4853 98.0359 15.2747 98.0359 16.192C98.0359 17.1307 98.2065 17.952 98.5479 18.656C98.9105 19.3387 99.4225 19.872 100.084 20.256C100.745 20.6187 101.513 20.8 102.388 20.8C103.177 20.8 103.892 20.672 104.532 20.416C105.172 20.1387 105.727 19.7333 106.196 19.2L108.66 21.664C107.913 22.5387 106.996 23.2 105.908 23.648C104.841 24.096 103.679 24.32 102.42 24.32ZM122.74 24V15.136C122.74 14.2187 122.452 13.472 121.876 12.896C121.3 12.32 120.554 12.032 119.636 12.032C119.039 12.032 118.506 12.16 118.036 12.416C117.567 12.672 117.194 13.0347 116.916 13.504C116.66 13.9733 116.532 14.5173 116.532 15.136L114.9 14.304C114.9 13.088 115.156 12.032 115.668 11.136C116.202 10.2187 116.927 9.504 117.844 8.992C118.783 8.48 119.839 8.224 121.012 8.224C122.143 8.224 123.156 8.512 124.052 9.088C124.948 9.64267 125.652 10.3787 126.164 11.296C126.676 12.192 126.932 13.1627 126.932 14.208V24H122.74ZM112.34 24V8.544H116.532V24H112.34ZM137.605 24.32C136.026 24.32 134.608 23.968 133.349 23.264C132.09 22.56 131.098 21.6 130.373 20.384C129.648 19.168 129.285 17.8027 129.285 16.288C129.285 14.752 129.648 13.376 130.373 12.16C131.098 10.944 132.09 9.984 133.349 9.28C134.629 8.55467 136.048 8.192 137.605 8.192C138.821 8.192 139.941 8.416 140.965 8.864C141.989 9.312 142.874 9.952 143.621 10.784L140.933 13.504C140.528 13.056 140.037 12.7147 139.461 12.48C138.906 12.2453 138.288 12.128 137.605 12.128C136.837 12.128 136.144 12.3093 135.525 12.672C134.928 13.0133 134.448 13.4933 134.085 14.112C133.744 14.7093 133.573 15.424 133.573 16.256C133.573 17.0667 133.744 17.792 134.085 18.432C134.448 19.0507 134.928 19.5413 135.525 19.904C136.144 20.2453 136.837 20.416 137.605 20.416C138.309 20.416 138.938 20.2987 139.493 20.064C140.069 19.808 140.56 19.4453 140.965 18.976L143.685 21.696C142.896 22.5493 141.989 23.2 140.965 23.648C139.941 24.096 138.821 24.32 137.605 24.32ZM153.107 24.32C151.486 24.32 150.046 23.9787 148.787 23.296C147.529 22.592 146.526 21.632 145.779 20.416C145.054 19.2 144.691 17.8133 144.691 16.256C144.691 14.72 145.043 13.3547 145.747 12.16C146.473 10.944 147.454 9.984 148.691 9.28C149.929 8.55467 151.305 8.192 152.819 8.192C154.313 8.192 155.625 8.53333 156.755 9.216C157.907 9.87733 158.803 10.7947 159.443 11.968C160.105 13.12 160.435 14.432 160.435 15.904C160.435 16.1813 160.414 16.4693 160.371 16.768C160.35 17.0453 160.297 17.3653 160.211 17.728L147.219 17.76V14.624L158.259 14.592L156.563 15.904C156.521 14.9867 156.35 14.2187 156.051 13.6C155.774 12.9813 155.358 12.512 154.803 12.192C154.27 11.8507 153.609 11.68 152.819 11.68C151.987 11.68 151.262 11.872 150.643 12.256C150.025 12.6187 149.545 13.1413 149.203 13.824C148.883 14.4853 148.723 15.2747 148.723 16.192C148.723 17.1307 148.894 17.952 149.235 18.656C149.598 19.3387 150.11 19.872 150.771 20.256C151.433 20.6187 152.201 20.8 153.075 20.8C153.865 20.8 154.579 20.672 155.219 20.416C155.859 20.1387 156.414 19.7333 156.883 19.2L159.347 21.664C158.601 22.5387 157.683 23.2 156.595 23.648C155.529 24.096 154.366 24.32 153.107 24.32ZM177.854 24.32C176.745 24.32 175.742 24.0853 174.846 23.616C173.95 23.1467 173.235 22.5067 172.702 21.696C172.169 20.8853 171.881 19.9787 171.838 18.976V13.472C171.881 12.4693 172.169 11.5733 172.702 10.784C173.257 9.97333 173.982 9.344 174.878 8.896C175.774 8.448 176.766 8.224 177.854 8.224C179.283 8.224 180.563 8.576 181.694 9.28C182.825 9.984 183.71 10.944 184.35 12.16C185.011 13.376 185.342 14.752 185.342 16.288C185.342 17.8027 185.011 19.168 184.35 20.384C183.71 21.6 182.825 22.56 181.694 23.264C180.563 23.968 179.283 24.32 177.854 24.32ZM177.15 20.448C177.918 20.448 178.59 20.2773 179.166 19.936C179.763 19.5733 180.222 19.0827 180.542 18.464C180.883 17.824 181.054 17.088 181.054 16.256C181.054 15.4453 180.883 14.7307 180.542 14.112C180.222 13.472 179.763 12.9813 179.166 12.64C178.569 12.2773 177.886 12.096 177.118 12.096C176.35 12.096 175.667 12.2773 175.07 12.64C174.494 12.9813 174.035 13.472 173.694 14.112C173.374 14.7307 173.214 15.4453 173.214 16.256C173.214 17.088 173.374 17.824 173.694 18.464C174.035 19.0827 174.505 19.5733 175.102 19.936C175.699 20.2773 176.382 20.448 177.15 20.448ZM169.278 24V0.863998H173.47V12.352L172.766 16.064L173.438 19.84V24H169.278ZM195.354 24.32C193.797 24.32 192.389 23.968 191.13 23.264C189.893 22.5387 188.901 21.568 188.154 20.352C187.429 19.1147 187.066 17.7387 187.066 16.224C187.066 14.7093 187.429 13.3547 188.154 12.16C188.88 10.944 189.872 9.984 191.13 9.28C192.389 8.55467 193.786 8.192 195.322 8.192C196.901 8.192 198.309 8.55467 199.546 9.28C200.805 9.984 201.797 10.944 202.522 12.16C203.248 13.3547 203.61 14.7093 203.61 16.224C203.61 17.7387 203.248 19.1147 202.522 20.352C201.797 21.568 200.805 22.5387 199.546 23.264C198.309 23.968 196.912 24.32 195.354 24.32ZM195.322 20.416C196.112 20.416 196.805 20.2453 197.402 19.904C198.021 19.5413 198.49 19.0507 198.81 18.432C199.152 17.792 199.322 17.0667 199.322 16.256C199.322 15.4453 199.152 14.7307 198.81 14.112C198.469 13.4933 198 13.0133 197.402 12.672C196.805 12.3093 196.112 12.128 195.322 12.128C194.554 12.128 193.872 12.3093 193.274 12.672C192.677 13.0133 192.208 13.4933 191.866 14.112C191.525 14.7307 191.354 15.4453 191.354 16.256C191.354 17.0667 191.525 17.792 191.866 18.432C192.208 19.0507 192.677 19.5413 193.274 19.904C193.872 20.2453 194.554 20.416 195.322 20.416ZM212.901 24.32C211.536 24.32 210.32 24.032 209.253 23.456C208.208 22.88 207.386 22.08 206.789 21.056C206.192 20.032 205.893 18.848 205.893 17.504V8.544H210.117V17.408C210.117 18.048 210.224 18.6027 210.437 19.072C210.65 19.52 210.97 19.8613 211.397 20.096C211.824 20.3307 212.325 20.448 212.901 20.448C213.776 20.448 214.458 20.1813 214.949 19.648C215.44 19.1147 215.685 18.368 215.685 17.408V8.544H219.877V17.504C219.877 18.8693 219.578 20.064 218.981 21.088C218.405 22.112 217.584 22.912 216.517 23.488C215.472 24.0427 214.266 24.32 212.901 24.32ZM233.615 24V15.136C233.615 14.2187 233.327 13.472 232.751 12.896C232.175 12.32 231.429 12.032 230.511 12.032C229.914 12.032 229.381 12.16 228.911 12.416C228.442 12.672 228.069 13.0347 227.791 13.504C227.535 13.9733 227.407 14.5173 227.407 15.136L225.775 14.304C225.775 13.088 226.031 12.032 226.543 11.136C227.077 10.2187 227.802 9.504 228.719 8.992C229.658 8.48 230.714 8.224 231.887 8.224C233.018 8.224 234.031 8.512 234.927 9.088C235.823 9.64267 236.527 10.3787 237.039 11.296C237.551 12.192 237.807 13.1627 237.807 14.208V24H233.615ZM223.215 24V8.544H227.407V24H223.215ZM247.712 24.32C246.283 24.32 245.003 23.968 243.872 23.264C242.741 22.56 241.845 21.6 241.184 20.384C240.544 19.168 240.224 17.8027 240.224 16.288C240.224 14.752 240.544 13.376 241.184 12.16C241.845 10.944 242.731 9.984 243.84 9.28C244.971 8.576 246.261 8.224 247.712 8.224C248.821 8.224 249.813 8.448 250.688 8.896C251.584 9.344 252.299 9.97333 252.832 10.784C253.387 11.5733 253.685 12.4693 253.728 13.472V18.976C253.685 19.9787 253.397 20.8853 252.864 21.696C252.331 22.5067 251.616 23.1467 250.72 23.616C249.824 24.0853 248.821 24.32 247.712 24.32ZM248.416 20.448C249.205 20.448 249.888 20.2773 250.464 19.936C251.061 19.5733 251.52 19.0827 251.84 18.464C252.181 17.824 252.352 17.088 252.352 16.256C252.352 15.4453 252.181 14.7307 251.84 14.112C251.52 13.472 251.061 12.9813 250.464 12.64C249.888 12.2773 249.216 12.096 248.448 12.096C247.659 12.096 246.965 12.2773 246.368 12.64C245.792 13.0027 245.333 13.4933 244.992 14.112C244.672 14.7307 244.512 15.4453 244.512 16.256C244.512 17.088 244.672 17.824 244.992 18.464C245.333 19.0827 245.803 19.5733 246.4 19.936C246.997 20.2773 247.669 20.448 248.416 20.448ZM256.288 24H252.128V19.84L252.8 16.064L252.096 12.352V0.863998H256.288V24ZM259.997 24V0.863998H264.189V24H259.997ZM275.295 24.32C273.674 24.32 272.234 23.9787 270.975 23.296C269.716 22.592 268.714 21.632 267.967 20.416C267.242 19.2 266.879 17.8133 266.879 16.256C266.879 14.72 267.231 13.3547 267.935 12.16C268.66 10.944 269.642 9.984 270.879 9.28C272.116 8.55467 273.492 8.192 275.007 8.192C276.5 8.192 277.812 8.53333 278.943 9.216C280.095 9.87733 280.991 10.7947 281.631 11.968C282.292 13.12 282.623 14.432 282.623 15.904C282.623 16.1813 282.602 16.4693 282.559 16.768C282.538 17.0453 282.484 17.3653 282.399 17.728L269.407 17.76V14.624L280.447 14.592L278.751 15.904C278.708 14.9867 278.538 14.2187 278.239 13.6C277.962 12.9813 277.546 12.512 276.991 12.192C276.458 11.8507 275.796 11.68 275.007 11.68C274.175 11.68 273.45 11.872 272.831 12.256C272.212 12.6187 271.732 13.1413 271.391 13.824C271.071 14.4853 270.911 15.2747 270.911 16.192C270.911 17.1307 271.082 17.952 271.423 18.656C271.786 19.3387 272.298 19.872 272.959 20.256C273.62 20.6187 274.388 20.8 275.263 20.8C276.052 20.8 276.767 20.672 277.407 20.416C278.047 20.1387 278.602 19.7333 279.071 19.2L281.535 21.664C280.788 22.5387 279.871 23.2 278.783 23.648C277.716 24.096 276.554 24.32 275.295 24.32ZM290.527 24.352C289.653 24.352 288.789 24.2347 287.935 24C287.103 23.7653 286.335 23.4453 285.631 23.04C284.927 22.6133 284.319 22.1013 283.807 21.504L286.303 18.976C286.837 19.5733 287.455 20.0213 288.159 20.32C288.863 20.6187 289.642 20.768 290.495 20.768C291.178 20.768 291.69 20.672 292.031 20.48C292.394 20.288 292.575 20 292.575 19.616C292.575 19.1893 292.383 18.8587 291.999 18.624C291.637 18.3893 291.157 18.1973 290.559 18.048C289.962 17.8773 289.333 17.696 288.671 17.504C288.031 17.2907 287.413 17.024 286.815 16.704C286.218 16.3627 285.727 15.904 285.343 15.328C284.981 14.7307 284.799 13.9627 284.799 13.024C284.799 12.0427 285.034 11.1893 285.503 10.464C285.994 9.73867 286.687 9.17333 287.583 8.768C288.479 8.36267 289.535 8.16 290.751 8.16C292.031 8.16 293.183 8.384 294.207 8.832C295.253 9.28 296.117 9.952 296.799 10.848L294.271 13.376C293.802 12.8 293.269 12.384 292.671 12.128C292.095 11.872 291.466 11.744 290.783 11.744C290.165 11.744 289.685 11.84 289.343 12.032C289.023 12.224 288.863 12.4907 288.863 12.832C288.863 13.216 289.045 13.5147 289.407 13.728C289.791 13.9413 290.282 14.1333 290.879 14.304C291.477 14.4533 292.095 14.6347 292.735 14.848C293.397 15.04 294.015 15.3173 294.591 15.68C295.189 16.0427 295.669 16.5227 296.031 17.12C296.415 17.7173 296.607 18.4853 296.607 19.424C296.607 20.9387 296.063 22.144 294.975 23.04C293.887 23.9147 292.405 24.352 290.527 24.352ZM304.746 24.352C303.871 24.352 303.007 24.2347 302.154 24C301.322 23.7653 300.554 23.4453 299.85 23.04C299.146 22.6133 298.538 22.1013 298.026 21.504L300.522 18.976C301.055 19.5733 301.674 20.0213 302.378 20.32C303.082 20.6187 303.861 20.768 304.714 20.768C305.397 20.768 305.909 20.672 306.25 20.48C306.613 20.288 306.794 20 306.794 19.616C306.794 19.1893 306.602 18.8587 306.218 18.624C305.855 18.3893 305.375 18.1973 304.778 18.048C304.181 17.8773 303.551 17.696 302.89 17.504C302.25 17.2907 301.631 17.024 301.034 16.704C300.437 16.3627 299.946 15.904 299.562 15.328C299.199 14.7307 299.018 13.9627 299.018 13.024C299.018 12.0427 299.253 11.1893 299.722 10.464C300.213 9.73867 300.906 9.17333 301.802 8.768C302.698 8.36267 303.754 8.16 304.97 8.16C306.25 8.16 307.402 8.384 308.426 8.832C309.471 9.28 310.335 9.952 311.018 10.848L308.49 13.376C308.021 12.8 307.487 12.384 306.89 12.128C306.314 11.872 305.685 11.744 305.002 11.744C304.383 11.744 303.903 11.84 303.562 12.032C303.242 12.224 303.082 12.4907 303.082 12.832C303.082 13.216 303.263 13.5147 303.626 13.728C304.01 13.9413 304.501 14.1333 305.098 14.304C305.695 14.4533 306.314 14.6347 306.954 14.848C307.615 15.04 308.234 15.3173 308.81 15.68C309.407 16.0427 309.887 16.5227 310.25 17.12C310.634 17.7173 310.826 18.4853 310.826 19.424C310.826 20.9387 310.282 22.144 309.194 23.04C308.106 23.9147 306.623 24.352 304.746 24.352ZM328.479 24.32C327.37 24.32 326.367 24.096 325.471 23.648C324.575 23.1787 323.86 22.5493 323.327 21.76C322.794 20.9707 322.506 20.064 322.463 19.04V13.568C322.506 12.544 322.794 11.6373 323.327 10.848C323.882 10.0373 324.596 9.39733 325.471 8.928C326.367 8.45867 327.37 8.224 328.479 8.224C329.908 8.224 331.188 8.576 332.319 9.28C333.45 9.984 334.335 10.944 334.975 12.16C335.636 13.376 335.967 14.752 335.967 16.288C335.967 17.8027 335.636 19.168 334.975 20.384C334.335 21.6 333.45 22.56 332.319 23.264C331.188 23.968 329.908 24.32 328.479 24.32ZM327.743 20.448C328.511 20.448 329.194 20.2773 329.791 19.936C330.388 19.5733 330.847 19.0827 331.167 18.464C331.508 17.824 331.679 17.088 331.679 16.256C331.679 15.4453 331.508 14.7307 331.167 14.112C330.847 13.472 330.388 12.9813 329.791 12.64C329.194 12.2773 328.511 12.096 327.743 12.096C326.996 12.096 326.324 12.2773 325.727 12.64C325.13 12.9813 324.66 13.472 324.319 14.112C323.999 14.7307 323.839 15.4453 323.839 16.256C323.839 17.088 323.999 17.824 324.319 18.464C324.66 19.0827 325.119 19.5733 325.695 19.936C326.292 20.2773 326.975 20.448 327.743 20.448ZM319.903 30.464V8.544H324.095V12.608L323.391 16.352L324.063 20.096V30.464H319.903ZM345.979 24.32C344.422 24.32 343.014 23.968 341.755 23.264C340.518 22.5387 339.526 21.568 338.779 20.352C338.054 19.1147 337.691 17.7387 337.691 16.224C337.691 14.7093 338.054 13.3547 338.779 12.16C339.505 10.944 340.497 9.984 341.755 9.28C343.014 8.55467 344.411 8.192 345.947 8.192C347.526 8.192 348.934 8.55467 350.171 9.28C351.43 9.984 352.422 10.944 353.147 12.16C353.873 13.3547 354.235 14.7093 354.235 16.224C354.235 17.7387 353.873 19.1147 353.147 20.352C352.422 21.568 351.43 22.5387 350.171 23.264C348.934 23.968 347.537 24.32 345.979 24.32ZM345.947 20.416C346.737 20.416 347.43 20.2453 348.027 19.904C348.646 19.5413 349.115 19.0507 349.435 18.432C349.777 17.792 349.947 17.0667 349.947 16.256C349.947 15.4453 349.777 14.7307 349.435 14.112C349.094 13.4933 348.625 13.0133 348.027 12.672C347.43 12.3093 346.737 12.128 345.947 12.128C345.179 12.128 344.497 12.3093 343.899 12.672C343.302 13.0133 342.833 13.4933 342.491 14.112C342.15 14.7307 341.979 15.4453 341.979 16.256C341.979 17.0667 342.15 17.792 342.491 18.432C342.833 19.0507 343.302 19.5413 343.899 19.904C344.497 20.2453 345.179 20.416 345.947 20.416ZM362.246 24.352C361.371 24.352 360.507 24.2347 359.654 24C358.822 23.7653 358.054 23.4453 357.35 23.04C356.646 22.6133 356.038 22.1013 355.526 21.504L358.022 18.976C358.555 19.5733 359.174 20.0213 359.878 20.32C360.582 20.6187 361.361 20.768 362.214 20.768C362.897 20.768 363.409 20.672 363.75 20.48C364.113 20.288 364.294 20 364.294 19.616C364.294 19.1893 364.102 18.8587 363.718 18.624C363.355 18.3893 362.875 18.1973 362.278 18.048C361.681 17.8773 361.051 17.696 360.39 17.504C359.75 17.2907 359.131 17.024 358.534 16.704C357.937 16.3627 357.446 15.904 357.062 15.328C356.699 14.7307 356.518 13.9627 356.518 13.024C356.518 12.0427 356.753 11.1893 357.222 10.464C357.713 9.73867 358.406 9.17333 359.302 8.768C360.198 8.36267 361.254 8.16 362.47 8.16C363.75 8.16 364.902 8.384 365.926 8.832C366.971 9.28 367.835 9.952 368.518 10.848L365.99 13.376C365.521 12.8 364.987 12.384 364.39 12.128C363.814 11.872 363.185 11.744 362.502 11.744C361.883 11.744 361.403 11.84 361.062 12.032C360.742 12.224 360.582 12.4907 360.582 12.832C360.582 13.216 360.763 13.5147 361.126 13.728C361.51 13.9413 362.001 14.1333 362.598 14.304C363.195 14.4533 363.814 14.6347 364.454 14.848C365.115 15.04 365.734 15.3173 366.31 15.68C366.907 16.0427 367.387 16.5227 367.75 17.12C368.134 17.7173 368.326 18.4853 368.326 19.424C368.326 20.9387 367.782 22.144 366.694 23.04C365.606 23.9147 364.123 24.352 362.246 24.352ZM376.465 24.352C375.59 24.352 374.726 24.2347 373.873 24C373.041 23.7653 372.273 23.4453 371.569 23.04C370.865 22.6133 370.257 22.1013 369.745 21.504L372.241 18.976C372.774 19.5733 373.393 20.0213 374.097 20.32C374.801 20.6187 375.58 20.768 376.433 20.768C377.116 20.768 377.628 20.672 377.969 20.48C378.332 20.288 378.513 20 378.513 19.616C378.513 19.1893 378.321 18.8587 377.937 18.624C377.574 18.3893 377.094 18.1973 376.497 18.048C375.9 17.8773 375.27 17.696 374.609 17.504C373.969 17.2907 373.35 17.024 372.753 16.704C372.156 16.3627 371.665 15.904 371.281 15.328C370.918 14.7307 370.737 13.9627 370.737 13.024C370.737 12.0427 370.972 11.1893 371.441 10.464C371.932 9.73867 372.625 9.17333 373.521 8.768C374.417 8.36267 375.473 8.16 376.689 8.16C377.969 8.16 379.121 8.384 380.145 8.832C381.19 9.28 382.054 9.952 382.737 10.848L380.209 13.376C379.74 12.8 379.206 12.384 378.609 12.128C378.033 11.872 377.404 11.744 376.721 11.744C376.102 11.744 375.622 11.84 375.281 12.032C374.961 12.224 374.801 12.4907 374.801 12.832C374.801 13.216 374.982 13.5147 375.345 13.728C375.729 13.9413 376.22 14.1333 376.817 14.304C377.414 14.4533 378.033 14.6347 378.673 14.848C379.334 15.04 379.953 15.3173 380.529 15.68C381.126 16.0427 381.606 16.5227 381.969 17.12C382.353 17.7173 382.545 18.4853 382.545 19.424C382.545 20.9387 382.001 22.144 380.913 23.04C379.825 23.9147 378.342 24.352 376.465 24.352ZM385.372 24V8.544H389.596V24H385.372ZM387.484 6.048C386.801 6.048 386.236 5.824 385.788 5.376C385.34 4.90667 385.116 4.33067 385.116 3.648C385.116 2.98667 385.34 2.42133 385.788 1.952C386.236 1.48267 386.801 1.248 387.484 1.248C388.188 1.248 388.753 1.48267 389.18 1.952C389.628 2.42133 389.852 2.98667 389.852 3.648C389.852 4.33067 389.628 4.90667 389.18 5.376C388.753 5.824 388.188 6.048 387.484 6.048ZM401.885 24.32C400.776 24.32 399.773 24.0853 398.877 23.616C397.981 23.1467 397.266 22.5067 396.733 21.696C396.2 20.8853 395.912 19.9787 395.869 18.976V13.472C395.912 12.4693 396.2 11.5733 396.733 10.784C397.288 9.97333 398.013 9.344 398.909 8.896C399.805 8.448 400.797 8.224 401.885 8.224C403.314 8.224 404.594 8.576 405.725 9.28C406.856 9.984 407.741 10.944 408.381 12.16C409.042 13.376 409.373 14.752 409.373 16.288C409.373 17.8027 409.042 19.168 408.381 20.384C407.741 21.6 406.856 22.56 405.725 23.264C404.594 23.968 403.314 24.32 401.885 24.32ZM401.181 20.448C401.949 20.448 402.621 20.2773 403.197 19.936C403.794 19.5733 404.253 19.0827 404.573 18.464C404.914 17.824 405.085 17.088 405.085 16.256C405.085 15.4453 404.914 14.7307 404.573 14.112C404.253 13.472 403.794 12.9813 403.197 12.64C402.6 12.2773 401.917 12.096 401.149 12.096C400.381 12.096 399.698 12.2773 399.101 12.64C398.525 12.9813 398.066 13.472 397.725 14.112C397.405 14.7307 397.245 15.4453 397.245 16.256C397.245 17.088 397.405 17.824 397.725 18.464C398.066 19.0827 398.536 19.5733 399.133 19.936C399.73 20.2773 400.413 20.448 401.181 20.448ZM393.309 24V0.863998H397.501V12.352L396.797 16.064L397.469 19.84V24H393.309ZM412.122 24V8.544H416.346V24H412.122ZM414.234 6.048C413.551 6.048 412.986 5.824 412.538 5.376C412.09 4.90667 411.866 4.33067 411.866 3.648C411.866 2.98667 412.09 2.42133 412.538 1.952C412.986 1.48267 413.551 1.248 414.234 1.248C414.938 1.248 415.503 1.48267 415.93 1.952C416.378 2.42133 416.602 2.98667 416.602 3.648C416.602 4.33067 416.378 4.90667 415.93 5.376C415.503 5.824 414.938 6.048 414.234 6.048ZM420.059 24V0.863998H424.251V24H420.059ZM427.965 24V8.544H432.189V24H427.965ZM430.077 6.048C429.395 6.048 428.829 5.824 428.381 5.376C427.933 4.90667 427.709 4.33067 427.709 3.648C427.709 2.98667 427.933 2.42133 428.381 1.952C428.829 1.48267 429.395 1.248 430.077 1.248C430.781 1.248 431.347 1.48267 431.773 1.952C432.221 2.42133 432.445 2.98667 432.445 3.648C432.445 4.33067 432.221 4.90667 431.773 5.376C431.347 5.824 430.781 6.048 430.077 6.048ZM438.175 24V2.112H442.367V24H438.175ZM434.559 12.224V8.544H445.983V12.224H434.559ZM448.34 24V8.544H452.564V24H448.34ZM450.452 6.048C449.77 6.048 449.204 5.824 448.756 5.376C448.308 4.90667 448.084 4.33067 448.084 3.648C448.084 2.98667 448.308 2.42133 448.756 1.952C449.204 1.48267 449.77 1.248 450.452 1.248C451.156 1.248 451.722 1.48267 452.148 1.952C452.596 2.42133 452.82 2.98667 452.82 3.648C452.82 4.33067 452.596 4.90667 452.148 5.376C451.722 5.824 451.156 6.048 450.452 6.048ZM463.67 24.32C462.049 24.32 460.609 23.9787 459.35 23.296C458.091 22.592 457.089 21.632 456.342 20.416C455.617 19.2 455.254 17.8133 455.254 16.256C455.254 14.72 455.606 13.3547 456.31 12.16C457.035 10.944 458.017 9.984 459.254 9.28C460.491 8.55467 461.867 8.192 463.382 8.192C464.875 8.192 466.187 8.53333 467.318 9.216C468.47 9.87733 469.366 10.7947 470.006 11.968C470.667 13.12 470.998 14.432 470.998 15.904C470.998 16.1813 470.977 16.4693 470.934 16.768C470.913 17.0453 470.859 17.3653 470.774 17.728L457.782 17.76V14.624L468.822 14.592L467.126 15.904C467.083 14.9867 466.913 14.2187 466.614 13.6C466.337 12.9813 465.921 12.512 465.366 12.192C464.833 11.8507 464.171 11.68 463.382 11.68C462.55 11.68 461.825 11.872 461.206 12.256C460.587 12.6187 460.107 13.1413 459.766 13.824C459.446 14.4853 459.286 15.2747 459.286 16.192C459.286 17.1307 459.457 17.952 459.798 18.656C460.161 19.3387 460.673 19.872 461.334 20.256C461.995 20.6187 462.763 20.8 463.638 20.8C464.427 20.8 465.142 20.672 465.782 20.416C466.422 20.1387 466.977 19.7333 467.446 19.2L469.91 21.664C469.163 22.5387 468.246 23.2 467.158 23.648C466.091 24.096 464.929 24.32 463.67 24.32ZM478.902 24.352C478.028 24.352 477.164 24.2347 476.31 24C475.478 23.7653 474.71 23.4453 474.006 23.04C473.302 22.6133 472.694 22.1013 472.182 21.504L474.678 18.976C475.212 19.5733 475.83 20.0213 476.534 20.32C477.238 20.6187 478.017 20.768 478.87 20.768C479.553 20.768 480.065 20.672 480.406 20.48C480.769 20.288 480.95 20 480.95 19.616C480.95 19.1893 480.758 18.8587 480.374 18.624C480.012 18.3893 479.532 18.1973 478.934 18.048C478.337 17.8773 477.708 17.696 477.046 17.504C476.406 17.2907 475.788 17.024 475.19 16.704C474.593 16.3627 474.102 15.904 473.718 15.328C473.356 14.7307 473.174 13.9627 473.174 13.024C473.174 12.0427 473.409 11.1893 473.878 10.464C474.369 9.73867 475.062 9.17333 475.958 8.768C476.854 8.36267 477.91 8.16 479.126 8.16C480.406 8.16 481.558 8.384 482.582 8.832C483.628 9.28 484.492 9.952 485.174 10.848L482.646 13.376C482.177 12.8 481.644 12.384 481.046 12.128C480.47 11.872 479.841 11.744 479.158 11.744C478.54 11.744 478.06 11.84 477.718 12.032C477.398 12.224 477.238 12.4907 477.238 12.832C477.238 13.216 477.42 13.5147 477.782 13.728C478.166 13.9413 478.657 14.1333 479.254 14.304C479.852 14.4533 480.47 14.6347 481.11 14.848C481.772 15.04 482.39 15.3173 482.966 15.68C483.564 16.0427 484.044 16.5227 484.406 17.12C484.79 17.7173 484.982 18.4853 484.982 19.424C484.982 20.9387 484.438 22.144 483.35 23.04C482.262 23.9147 480.78 24.352 478.902 24.352ZM498.187 24L492.395 8.544H496.619L500.395 19.776L499.115 19.808L502.987 8.544H506.027L509.899 19.808L508.619 19.776L512.395 8.544H516.619L510.859 24H507.819L503.915 13.312H505.099L501.195 24H498.187ZM518.403 24V8.544H522.627V24H518.403ZM520.515 6.048C519.832 6.048 519.267 5.824 518.819 5.376C518.371 4.90667 518.147 4.33067 518.147 3.648C518.147 2.98667 518.371 2.42133 518.819 1.952C519.267 1.48267 519.832 1.248 520.515 1.248C521.219 1.248 521.784 1.48267 522.211 1.952C522.659 2.42133 522.883 2.98667 522.883 3.648C522.883 4.33067 522.659 4.90667 522.211 5.376C521.784 5.824 521.219 6.048 520.515 6.048ZM528.612 24V2.112H532.804V24H528.612ZM524.996 12.224V8.544H536.42V12.224H524.996ZM549.178 24V15.136C549.178 14.2187 548.89 13.472 548.314 12.896C547.738 12.32 546.991 12.032 546.074 12.032C545.477 12.032 544.943 12.16 544.474 12.416C544.005 12.672 543.631 13.0347 543.354 13.504C543.098 13.9733 542.97 14.5173 542.97 15.136L541.338 14.304C541.338 13.088 541.594 12.032 542.106 11.136C542.618 10.2187 543.322 9.504 544.218 8.992C545.135 8.48 546.181 8.224 547.354 8.224C548.527 8.224 549.562 8.48 550.458 8.992C551.375 9.504 552.09 10.208 552.602 11.104C553.114 12 553.37 13.0347 553.37 14.208V24H549.178ZM538.778 24V0.863998H542.97V24H538.778ZM567.861 24.128L561.397 8.544H565.941L570.229 20.448H568.693L573.141 8.544H577.717L570.837 24.096L567.861 24.128ZM563.573 30.464L568.277 20.512L570.837 24.096L568.021 30.464H563.573ZM586.417 24.32C584.86 24.32 583.452 23.968 582.193 23.264C580.956 22.5387 579.964 21.568 579.217 20.352C578.492 19.1147 578.129 17.7387 578.129 16.224C578.129 14.7093 578.492 13.3547 579.217 12.16C579.942 10.944 580.934 9.984 582.193 9.28C583.452 8.55467 584.849 8.192 586.385 8.192C587.964 8.192 589.372 8.55467 590.609 9.28C591.868 9.984 592.86 10.944 593.585 12.16C594.31 13.3547 594.673 14.7093 594.673 16.224C594.673 17.7387 594.31 19.1147 593.585 20.352C592.86 21.568 591.868 22.5387 590.609 23.264C589.372 23.968 587.974 24.32 586.417 24.32ZM586.385 20.416C587.174 20.416 587.868 20.2453 588.465 19.904C589.084 19.5413 589.553 19.0507 589.873 18.432C590.214 17.792 590.385 17.0667 590.385 16.256C590.385 15.4453 590.214 14.7307 589.873 14.112C589.532 13.4933 589.062 13.0133 588.465 12.672C587.868 12.3093 587.174 12.128 586.385 12.128C585.617 12.128 584.934 12.3093 584.337 12.672C583.74 13.0133 583.27 13.4933 582.929 14.112C582.588 14.7307 582.417 15.4453 582.417 16.256C582.417 17.0667 582.588 17.792 582.929 18.432C583.27 19.0507 583.74 19.5413 584.337 19.904C584.934 20.2453 585.617 20.416 586.385 20.416ZM603.964 24.32C602.598 24.32 601.382 24.032 600.316 23.456C599.27 22.88 598.449 22.08 597.852 21.056C597.254 20.032 596.956 18.848 596.956 17.504V8.544H601.18V17.408C601.18 18.048 601.286 18.6027 601.5 19.072C601.713 19.52 602.033 19.8613 602.46 20.096C602.886 20.3307 603.388 20.448 603.964 20.448C604.838 20.448 605.521 20.1813 606.012 19.648C606.502 19.1147 606.748 18.368 606.748 17.408V8.544H610.94V17.504C610.94 18.8693 610.641 20.064 610.044 21.088C609.468 22.112 608.646 22.912 607.58 23.488C606.534 24.0427 605.329 24.32 603.964 24.32ZM614.278 24V8.544H618.47V24H614.278ZM618.47 15.456L616.838 14.368C617.03 12.4693 617.585 10.976 618.502 9.888C619.419 8.77867 620.742 8.224 622.47 8.224C623.217 8.224 623.889 8.352 624.486 8.608C625.083 8.84267 625.627 9.23733 626.118 9.792L623.494 12.8C623.259 12.544 622.971 12.352 622.63 12.224C622.31 12.096 621.937 12.032 621.51 12.032C620.614 12.032 619.878 12.32 619.302 12.896C618.747 13.4507 618.47 14.304 618.47 15.456ZM641.667 24.32C640.11 24.32 638.702 23.968 637.443 23.264C636.206 22.5387 635.214 21.568 634.467 20.352C633.742 19.1147 633.379 17.7387 633.379 16.224C633.379 14.7093 633.742 13.3547 634.467 12.16C635.192 10.944 636.184 9.984 637.443 9.28C638.702 8.55467 640.099 8.192 641.635 8.192C643.214 8.192 644.622 8.55467 645.859 9.28C647.118 9.984 648.11 10.944 648.835 12.16C649.56 13.3547 649.923 14.7093 649.923 16.224C649.923 17.7387 649.56 19.1147 648.835 20.352C648.11 21.568 647.118 22.5387 645.859 23.264C644.622 23.968 643.224 24.32 641.667 24.32ZM641.635 20.416C642.424 20.416 643.118 20.2453 643.715 19.904C644.334 19.5413 644.803 19.0507 645.123 18.432C645.464 17.792 645.635 17.0667 645.635 16.256C645.635 15.4453 645.464 14.7307 645.123 14.112C644.782 13.4933 644.312 13.0133 643.715 12.672C643.118 12.3093 642.424 12.128 641.635 12.128C640.867 12.128 640.184 12.3093 639.587 12.672C638.99 13.0133 638.52 13.4933 638.179 14.112C637.838 14.7307 637.667 15.4453 637.667 16.256C637.667 17.0667 637.838 17.792 638.179 18.432C638.52 19.0507 638.99 19.5413 639.587 19.904C640.184 20.2453 640.867 20.416 641.635 20.416ZM663.022 24V15.136C663.022 14.2187 662.734 13.472 662.158 12.896C661.582 12.32 660.835 12.032 659.918 12.032C659.32 12.032 658.787 12.16 658.318 12.416C657.848 12.672 657.475 13.0347 657.198 13.504C656.942 13.9733 656.814 14.5173 656.814 15.136L655.182 14.304C655.182 13.088 655.438 12.032 655.95 11.136C656.483 10.2187 657.208 9.504 658.126 8.992C659.064 8.48 660.12 8.224 661.294 8.224C662.424 8.224 663.438 8.512 664.334 9.088C665.23 9.64267 665.934 10.3787 666.446 11.296C666.958 12.192 667.214 13.1627 667.214 14.208V24H663.022ZM652.622 24V8.544H656.814V24H652.622ZM670.59 17.728V13.92H681.662V17.728H670.59ZM693.293 24.32C691.714 24.32 690.295 23.968 689.037 23.264C687.778 22.56 686.786 21.6 686.061 20.384C685.335 19.168 684.973 17.8027 684.973 16.288C684.973 14.752 685.335 13.376 686.061 12.16C686.786 10.944 687.778 9.984 689.037 9.28C690.317 8.55467 691.735 8.192 693.293 8.192C694.509 8.192 695.629 8.416 696.653 8.864C697.677 9.312 698.562 9.952 699.309 10.784L696.621 13.504C696.215 13.056 695.725 12.7147 695.149 12.48C694.594 12.2453 693.975 12.128 693.293 12.128C692.525 12.128 691.831 12.3093 691.213 12.672C690.615 13.0133 690.135 13.4933 689.773 14.112C689.431 14.7093 689.261 15.424 689.261 16.256C689.261 17.0667 689.431 17.792 689.773 18.432C690.135 19.0507 690.615 19.5413 691.213 19.904C691.831 20.2453 692.525 20.416 693.293 20.416C693.997 20.416 694.626 20.2987 695.181 20.064C695.757 19.808 696.247 19.4453 696.653 18.976L699.373 21.696C698.583 22.5493 697.677 23.2 696.653 23.648C695.629 24.096 694.509 24.32 693.293 24.32ZM712.147 24V15.136C712.147 14.2187 711.859 13.472 711.283 12.896C710.707 12.32 709.96 12.032 709.043 12.032C708.445 12.032 707.912 12.16 707.443 12.416C706.973 12.672 706.6 13.0347 706.323 13.504C706.067 13.9733 705.939 14.5173 705.939 15.136L704.307 14.304C704.307 13.088 704.563 12.032 705.075 11.136C705.587 10.2187 706.291 9.504 707.187 8.992C708.104 8.48 709.149 8.224 710.323 8.224C711.496 8.224 712.531 8.48 713.427 8.992C714.344 9.504 715.059 10.208 715.571 11.104C716.083 12 716.339 13.0347 716.339 14.208V24H712.147ZM701.747 24V0.863998H705.939V24H701.747ZM726.179 24.32C724.771 24.32 723.502 23.968 722.371 23.264C721.241 22.56 720.355 21.6 719.715 20.384C719.075 19.168 718.755 17.8027 718.755 16.288C718.755 14.752 719.075 13.376 719.715 12.16C720.355 10.944 721.241 9.984 722.371 9.28C723.502 8.576 724.771 8.224 726.179 8.224C727.289 8.224 728.281 8.448 729.155 8.896C730.03 9.344 730.723 9.97333 731.235 10.784C731.769 11.5733 732.057 12.4693 732.099 13.472V19.04C732.057 20.064 731.769 20.9707 731.235 21.76C730.723 22.5493 730.03 23.1787 729.155 23.648C728.281 24.096 727.289 24.32 726.179 24.32ZM726.947 20.448C728.121 20.448 729.07 20.064 729.795 19.296C730.521 18.5067 730.883 17.4933 730.883 16.256C730.883 15.4453 730.713 14.7307 730.371 14.112C730.051 13.472 729.593 12.9813 728.995 12.64C728.419 12.2773 727.737 12.096 726.947 12.096C726.179 12.096 725.497 12.2773 724.899 12.64C724.323 12.9813 723.865 13.472 723.523 14.112C723.203 14.7307 723.043 15.4453 723.043 16.256C723.043 17.088 723.203 17.824 723.523 18.464C723.865 19.0827 724.323 19.5733 724.899 19.936C725.497 20.2773 726.179 20.448 726.947 20.448ZM730.659 24V19.84L731.331 16.064L730.659 12.352V8.544H734.819V24H730.659ZM738.528 24V8.544H742.752V24H738.528ZM740.64 6.048C739.957 6.048 739.392 5.824 738.944 5.376C738.496 4.90667 738.272 4.33067 738.272 3.648C738.272 2.98667 738.496 2.42133 738.944 1.952C739.392 1.48267 739.957 1.248 740.64 1.248C741.344 1.248 741.909 1.48267 742.336 1.952C742.784 2.42133 743.008 2.98667 743.008 3.648C743.008 4.33067 742.784 4.90667 742.336 5.376C741.909 5.824 741.344 6.048 740.64 6.048ZM756.865 24V15.136C756.865 14.2187 756.577 13.472 756.001 12.896C755.425 12.32 754.679 12.032 753.761 12.032C753.164 12.032 752.631 12.16 752.161 12.416C751.692 12.672 751.319 13.0347 751.041 13.504C750.785 13.9733 750.657 14.5173 750.657 15.136L749.025 14.304C749.025 13.088 749.281 12.032 749.793 11.136C750.327 10.2187 751.052 9.504 751.969 8.992C752.908 8.48 753.964 8.224 755.137 8.224C756.268 8.224 757.281 8.512 758.177 9.088C759.073 9.64267 759.777 10.3787 760.289 11.296C760.801 12.192 761.057 13.1627 761.057 14.208V24H756.865ZM746.465 24V8.544H750.657V24H746.465ZM775.708 24L768.892 8.544H773.5L778.396 21.28H776.124L781.052 8.544H785.5L778.716 24H775.708ZM794.357 24.32C792.736 24.32 791.296 23.9787 790.037 23.296C788.779 22.592 787.776 21.632 787.029 20.416C786.304 19.2 785.941 17.8133 785.941 16.256C785.941 14.72 786.293 13.3547 786.997 12.16C787.723 10.944 788.704 9.984 789.941 9.28C791.179 8.55467 792.555 8.192 794.069 8.192C795.563 8.192 796.875 8.53333 798.005 9.216C799.157 9.87733 800.053 10.7947 800.693 11.968C801.355 13.12 801.685 14.432 801.685 15.904C801.685 16.1813 801.664 16.4693 801.621 16.768C801.6 17.0453 801.547 17.3653 801.461 17.728L788.469 17.76V14.624L799.509 14.592L797.813 15.904C797.771 14.9867 797.6 14.2187 797.301 13.6C797.024 12.9813 796.608 12.512 796.053 12.192C795.52 11.8507 794.859 11.68 794.069 11.68C793.237 11.68 792.512 11.872 791.893 12.256C791.275 12.6187 790.795 13.1413 790.453 13.824C790.133 14.4853 789.973 15.2747 789.973 16.192C789.973 17.1307 790.144 17.952 790.485 18.656C790.848 19.3387 791.36 19.872 792.021 20.256C792.683 20.6187 793.451 20.8 794.325 20.8C795.115 20.8 795.829 20.672 796.469 20.416C797.109 20.1387 797.664 19.7333 798.133 19.2L800.597 21.664C799.851 22.5387 798.933 23.2 797.845 23.648C796.779 24.096 795.616 24.32 794.357 24.32ZM804.278 24V8.544H808.47V24H804.278ZM808.47 15.456L806.838 14.368C807.03 12.4693 807.585 10.976 808.502 9.888C809.419 8.77867 810.742 8.224 812.47 8.224C813.217 8.224 813.889 8.352 814.486 8.608C815.083 8.84267 815.627 9.23733 816.118 9.792L813.494 12.8C813.259 12.544 812.971 12.352 812.63 12.224C812.31 12.096 811.937 12.032 811.51 12.032C810.614 12.032 809.878 12.32 809.302 12.896C808.747 13.4507 808.47 14.304 808.47 15.456ZM817.59 24V8.544H821.814V24H817.59ZM819.702 6.048C819.02 6.048 818.454 5.824 818.006 5.376C817.558 4.90667 817.334 4.33067 817.334 3.648C817.334 2.98667 817.558 2.42133 818.006 1.952C818.454 1.48267 819.02 1.248 819.702 1.248C820.406 1.248 820.972 1.48267 821.398 1.952C821.846 2.42133 822.07 2.98667 822.07 3.648C822.07 4.33067 821.846 4.90667 821.398 5.376C820.972 5.824 820.406 6.048 819.702 6.048ZM827.576 24V6.4C827.576 5.29067 827.821 4.29867 828.312 3.424C828.803 2.528 829.485 1.824 830.36 1.312C831.256 0.778666 832.312 0.511999 833.528 0.511999C834.296 0.511999 834.979 0.629332 835.576 0.863998C836.195 1.09867 836.781 1.44 837.336 1.888L834.936 4.832C834.744 4.68267 834.531 4.576 834.296 4.512C834.083 4.42667 833.827 4.384 833.528 4.384C832.973 4.384 832.536 4.55467 832.216 4.896C831.917 5.216 831.768 5.664 831.768 6.24V24H827.576ZM823.992 12.224V8.544H839.32V12.224H823.992ZM837.304 24V8.544H841.496V24H837.304ZM839.384 7.296C838.723 7.296 838.168 7.072 837.72 6.624C837.293 6.176 837.08 5.62133 837.08 4.96C837.08 4.29867 837.293 3.744 837.72 3.296C838.168 2.848 838.723 2.624 839.384 2.624C840.067 2.624 840.621 2.848 841.048 3.296C841.475 3.744 841.688 4.29867 841.688 4.96C841.688 5.62133 841.475 6.176 841.048 6.624C840.621 7.072 840.067 7.296 839.384 7.296ZM851.679 24.32C850.271 24.32 849.002 23.968 847.871 23.264C846.741 22.56 845.855 21.6 845.215 20.384C844.575 19.168 844.255 17.8027 844.255 16.288C844.255 14.752 844.575 13.376 845.215 12.16C845.855 10.944 846.741 9.984 847.871 9.28C849.002 8.576 850.271 8.224 851.679 8.224C852.789 8.224 853.781 8.448 854.655 8.896C855.53 9.344 856.223 9.97333 856.735 10.784C857.269 11.5733 857.557 12.4693 857.599 13.472V19.04C857.557 20.064 857.269 20.9707 856.735 21.76C856.223 22.5493 855.53 23.1787 854.655 23.648C853.781 24.096 852.789 24.32 851.679 24.32ZM852.447 20.448C853.621 20.448 854.57 20.064 855.295 19.296C856.021 18.5067 856.383 17.4933 856.383 16.256C856.383 15.4453 856.213 14.7307 855.871 14.112C855.551 13.472 855.093 12.9813 854.495 12.64C853.919 12.2773 853.237 12.096 852.447 12.096C851.679 12.096 850.997 12.2773 850.399 12.64C849.823 12.9813 849.365 13.472 849.023 14.112C848.703 14.7307 848.543 15.4453 848.543 16.256C848.543 17.088 848.703 17.824 849.023 18.464C849.365 19.0827 849.823 19.5733 850.399 19.936C850.997 20.2773 851.679 20.448 852.447 20.448ZM856.159 24V19.84L856.831 16.064L856.159 12.352V8.544H860.319V24H856.159ZM872.604 24.32C871.495 24.32 870.492 24.0853 869.596 23.616C868.7 23.1467 867.985 22.5067 867.452 21.696C866.919 20.8853 866.631 19.9787 866.588 18.976V13.472C866.631 12.4693 866.919 11.5733 867.452 10.784C868.007 9.97333 868.732 9.344 869.628 8.896C870.524 8.448 871.516 8.224 872.604 8.224C874.033 8.224 875.313 8.576 876.444 9.28C877.575 9.984 878.46 10.944 879.1 12.16C879.761 13.376 880.092 14.752 880.092 16.288C880.092 17.8027 879.761 19.168 879.1 20.384C878.46 21.6 877.575 22.56 876.444 23.264C875.313 23.968 874.033 24.32 872.604 24.32ZM871.9 20.448C872.668 20.448 873.34 20.2773 873.916 19.936C874.513 19.5733 874.972 19.0827 875.292 18.464C875.633 17.824 875.804 17.088 875.804 16.256C875.804 15.4453 875.633 14.7307 875.292 14.112C874.972 13.472 874.513 12.9813 873.916 12.64C873.319 12.2773 872.636 12.096 871.868 12.096C871.1 12.096 870.417 12.2773 869.82 12.64C869.244 12.9813 868.785 13.472 868.444 14.112C868.124 14.7307 867.964 15.4453 867.964 16.256C867.964 17.088 868.124 17.824 868.444 18.464C868.785 19.0827 869.255 19.5733 869.852 19.936C870.449 20.2773 871.132 20.448 871.9 20.448ZM864.028 24V0.863998H868.22V12.352L867.516 16.064L868.188 19.84V24H864.028ZM882.84 24V0.863998H887.032V24H882.84ZM898.139 24.32C896.517 24.32 895.077 23.9787 893.819 23.296C892.56 22.592 891.557 21.632 890.811 20.416C890.085 19.2 889.723 17.8133 889.723 16.256C889.723 14.72 890.075 13.3547 890.779 12.16C891.504 10.944 892.485 9.984 893.723 9.28C894.96 8.55467 896.336 8.192 897.851 8.192C899.344 8.192 900.656 8.53333 901.787 9.216C902.939 9.87733 903.835 10.7947 904.475 11.968C905.136 13.12 905.467 14.432 905.467 15.904C905.467 16.1813 905.445 16.4693 905.403 16.768C905.381 17.0453 905.328 17.3653 905.243 17.728L892.251 17.76V14.624L903.291 14.592L901.595 15.904C901.552 14.9867 901.381 14.2187 901.083 13.6C900.805 12.9813 900.389 12.512 899.835 12.192C899.301 11.8507 898.64 11.68 897.851 11.68C897.019 11.68 896.293 11.872 895.675 12.256C895.056 12.6187 894.576 13.1413 894.235 13.824C893.915 14.4853 893.755 15.2747 893.755 16.192C893.755 17.1307 893.925 17.952 894.267 18.656C894.629 19.3387 895.141 19.872 895.803 20.256C896.464 20.6187 897.232 20.8 898.107 20.8C898.896 20.8 899.611 20.672 900.251 20.416C900.891 20.1387 901.445 19.7333 901.915 19.2L904.379 21.664C903.632 22.5387 902.715 23.2 901.627 23.648C900.56 24.096 899.397 24.32 898.139 24.32ZM1.07475 64V48.544H5.29875V64H1.07475ZM3.18675 46.048C2.50408 46.048 1.93875 45.824 1.49075 45.376C1.04275 44.9067 0.81875 44.3307 0.81875 43.648C0.81875 42.9867 1.04275 42.4213 1.49075 41.952C1.93875 41.4827 2.50408 41.248 3.18675 41.248C3.89075 41.248 4.45608 41.4827 4.88275 41.952C5.33075 42.4213 5.55475 42.9867 5.55475 43.648C5.55475 44.3307 5.33075 44.9067 4.88275 45.376C4.45608 45.824 3.89075 46.048 3.18675 46.048ZM15.5403 64.32C14.1109 64.32 12.8309 63.968 11.7003 63.264C10.5696 62.56 9.67358 61.6 9.01225 60.384C8.37225 59.168 8.05225 57.8027 8.05225 56.288C8.05225 54.752 8.37225 53.376 9.01225 52.16C9.67358 50.944 10.5589 49.984 11.6683 49.28C12.7989 48.576 14.0896 48.224 15.5403 48.224C16.6496 48.224 17.6416 48.448 18.5163 48.896C19.4123 49.344 20.1269 49.9733 20.6603 50.784C21.2149 51.5733 21.5136 52.4693 21.5563 53.472V58.976C21.5136 59.9787 21.2256 60.8853 20.6923 61.696C20.1589 62.5067 19.4443 63.1467 18.5483 63.616C17.6523 64.0853 16.6496 64.32 15.5403 64.32ZM16.2443 60.448C17.0336 60.448 17.7163 60.2773 18.2923 59.936C18.8896 59.5733 19.3483 59.0827 19.6683 58.464C20.0096 57.824 20.1803 57.088 20.1803 56.256C20.1803 55.4453 20.0096 54.7307 19.6683 54.112C19.3483 53.472 18.8896 52.9813 18.2923 52.64C17.7163 52.2773 17.0443 52.096 16.2763 52.096C15.4869 52.096 14.7936 52.2773 14.1963 52.64C13.6203 53.0027 13.1616 53.4933 12.8203 54.112C12.5003 54.7307 12.3403 55.4453 12.3403 56.256C12.3403 57.088 12.5003 57.824 12.8203 58.464C13.1616 59.0827 13.6309 59.5733 14.2283 59.936C14.8256 60.2773 15.4976 60.448 16.2443 60.448ZM24.1163 64H19.9563V59.84L20.6283 56.064L19.9243 52.352V40.864H24.1163V64ZM35.2168 64.32C33.5954 64.32 32.1554 63.9787 30.8968 63.296C29.6381 62.592 28.6354 61.632 27.8888 60.416C27.1634 59.2 26.8008 57.8133 26.8008 56.256C26.8008 54.72 27.1528 53.3547 27.8568 52.16C28.5821 50.944 29.5634 49.984 30.8008 49.28C32.0381 48.5547 33.4141 48.192 34.9288 48.192C36.4221 48.192 37.7341 48.5333 38.8648 49.216C40.0168 49.8773 40.9128 50.7947 41.5528 51.968C42.2141 53.12 42.5448 54.432 42.5448 55.904C42.5448 56.1813 42.5234 56.4693 42.4808 56.768C42.4594 57.0453 42.4061 57.3653 42.3208 57.728L29.3288 57.76V54.624L40.3688 54.592L38.6728 55.904C38.6301 54.9867 38.4594 54.2187 38.1608 53.6C37.8834 52.9813 37.4674 52.512 36.9128 52.192C36.3794 51.8507 35.7181 51.68 34.9288 51.68C34.0968 51.68 33.3714 51.872 32.7528 52.256C32.1341 52.6187 31.6541 53.1413 31.3128 53.824C30.9928 54.4853 30.8328 55.2747 30.8328 56.192C30.8328 57.1307 31.0034 57.952 31.3448 58.656C31.7074 59.3387 32.2194 59.872 32.8808 60.256C33.5421 60.6187 34.3101 60.8 35.1848 60.8C35.9741 60.8 36.6888 60.672 37.3288 60.416C37.9688 60.1387 38.5234 59.7333 38.9928 59.2L41.4568 61.664C40.7101 62.5387 39.7928 63.2 38.7048 63.648C37.6381 64.096 36.4754 64.32 35.2168 64.32ZM55.5373 64V55.136C55.5373 54.2187 55.2493 53.472 54.6733 52.896C54.0973 52.32 53.3506 52.032 52.4333 52.032C51.8359 52.032 51.3026 52.16 50.8333 52.416C50.3639 52.672 49.9906 53.0347 49.7133 53.504C49.4573 53.9733 49.3293 54.5173 49.3293 55.136L47.6973 54.304C47.6973 53.088 47.9533 52.032 48.4653 51.136C48.9986 50.2187 49.7239 49.504 50.6413 48.992C51.5799 48.48 52.6359 48.224 53.8093 48.224C54.9399 48.224 55.9533 48.512 56.8493 49.088C57.7453 49.6427 58.4493 50.3787 58.9613 51.296C59.4733 52.192 59.7292 53.1627 59.7292 54.208V64H55.5373ZM45.1373 64V48.544H49.3293V64H45.1373ZM65.1905 64V42.112H69.3825V64H65.1905ZM61.5745 52.224V48.544H72.9985V52.224H61.5745ZM75.356 64V48.544H79.58V64H75.356ZM77.468 46.048C76.7853 46.048 76.22 45.824 75.772 45.376C75.324 44.9067 75.1 44.3307 75.1 43.648C75.1 42.9867 75.324 42.4213 75.772 41.952C76.22 41.4827 76.7853 41.248 77.468 41.248C78.172 41.248 78.7373 41.4827 79.164 41.952C79.612 42.4213 79.836 42.9867 79.836 43.648C79.836 44.3307 79.612 44.9067 79.164 45.376C78.7373 45.824 78.172 46.048 77.468 46.048ZM85.5655 64V42.112H89.7575V64H85.5655ZM81.9495 52.224V48.544H93.3735V52.224H81.9495ZM100.595 64.128L94.131 48.544H98.675L102.963 60.448H101.427L105.875 48.544H110.451L103.571 64.096L100.595 64.128ZM96.307 70.464L101.011 60.512L103.571 64.096L100.755 70.464H96.307ZM118.825 57.568V54.08H133.065V57.568H118.825ZM149.476 70.848C147.834 70.848 146.383 70.5493 145.124 69.952C143.866 69.376 142.863 68.5547 142.116 67.488L144.772 64.832C145.37 65.536 146.031 66.0693 146.756 66.432C147.503 66.816 148.399 67.008 149.444 67.008C150.746 67.008 151.77 66.6773 152.516 66.016C153.284 65.3547 153.668 64.4373 153.668 63.264V59.392L154.372 56L153.7 52.608V48.544H157.86V63.2C157.86 64.736 157.498 66.0693 156.772 67.2C156.068 68.352 155.087 69.248 153.828 69.888C152.57 70.528 151.119 70.848 149.476 70.848ZM149.284 63.584C147.898 63.584 146.65 63.2533 145.54 62.592C144.431 61.9093 143.556 60.9813 142.916 59.808C142.298 58.6347 141.988 57.3227 141.988 55.872C141.988 54.4213 142.298 53.12 142.916 51.968C143.556 50.816 144.431 49.9093 145.54 49.248C146.65 48.5653 147.898 48.224 149.284 48.224C150.436 48.224 151.45 48.448 152.324 48.896C153.22 49.344 153.924 49.9627 154.436 50.752C154.948 51.52 155.226 52.4267 155.268 53.472V58.336C155.226 59.36 154.938 60.2773 154.404 61.088C153.892 61.8773 153.188 62.496 152.292 62.944C151.418 63.3707 150.415 63.584 149.284 63.584ZM150.116 59.776C150.884 59.776 151.546 59.616 152.1 59.296C152.676 58.9547 153.124 58.496 153.444 57.92C153.764 57.3227 153.924 56.6507 153.924 55.904C153.924 55.136 153.764 54.464 153.444 53.888C153.124 53.312 152.676 52.864 152.1 52.544C151.546 52.2027 150.884 52.032 150.116 52.032C149.348 52.032 148.676 52.2027 148.1 52.544C147.524 52.864 147.076 53.3227 146.756 53.92C146.436 54.496 146.276 55.1573 146.276 55.904C146.276 56.6293 146.436 57.2907 146.756 57.888C147.076 58.464 147.524 58.9227 148.1 59.264C148.676 59.6053 149.348 59.776 150.116 59.776ZM168.008 64.32C166.6 64.32 165.33 63.968 164.2 63.264C163.069 62.56 162.184 61.6 161.544 60.384C160.904 59.168 160.584 57.8027 160.584 56.288C160.584 54.752 160.904 53.376 161.544 52.16C162.184 50.944 163.069 49.984 164.2 49.28C165.33 48.576 166.6 48.224 168.008 48.224C169.117 48.224 170.109 48.448 170.984 48.896C171.858 49.344 172.552 49.9733 173.064 50.784C173.597 51.5733 173.885 52.4693 173.928 53.472V59.04C173.885 60.064 173.597 60.9707 173.064 61.76C172.552 62.5493 171.858 63.1787 170.984 63.648C170.109 64.096 169.117 64.32 168.008 64.32ZM168.776 60.448C169.949 60.448 170.898 60.064 171.624 59.296C172.349 58.5067 172.712 57.4933 172.712 56.256C172.712 55.4453 172.541 54.7307 172.2 54.112C171.88 53.472 171.421 52.9813 170.824 52.64C170.248 52.2773 169.565 52.096 168.776 52.096C168.008 52.096 167.325 52.2773 166.728 52.64C166.152 52.9813 165.693 53.472 165.352 54.112C165.032 54.7307 164.872 55.4453 164.872 56.256C164.872 57.088 165.032 57.824 165.352 58.464C165.693 59.0827 166.152 59.5733 166.728 59.936C167.325 60.2773 168.008 60.448 168.776 60.448ZM172.488 64V59.84L173.16 56.064L172.488 52.352V48.544H176.648V64H172.488ZM180.356 64V48.544H184.58V64H180.356ZM182.468 46.048C181.785 46.048 181.22 45.824 180.772 45.376C180.324 44.9067 180.1 44.3307 180.1 43.648C180.1 42.9867 180.324 42.4213 180.772 41.952C181.22 41.4827 181.785 41.248 182.468 41.248C183.172 41.248 183.737 41.4827 184.164 41.952C184.612 42.4213 184.836 42.9867 184.836 43.648C184.836 44.3307 184.612 44.9067 184.164 45.376C183.737 45.824 183.172 46.048 182.468 46.048ZM198.694 64V55.136C198.694 54.2187 198.406 53.472 197.83 52.896C197.254 52.32 196.507 52.032 195.59 52.032C194.992 52.032 194.459 52.16 193.99 52.416C193.52 52.672 193.147 53.0347 192.87 53.504C192.614 53.9733 192.486 54.5173 192.486 55.136L190.854 54.304C190.854 53.088 191.11 52.032 191.622 51.136C192.155 50.2187 192.88 49.504 193.798 48.992C194.736 48.48 195.792 48.224 196.966 48.224C198.096 48.224 199.11 48.512 200.006 49.088C200.902 49.6427 201.606 50.3787 202.118 51.296C202.63 52.192 202.885 53.1627 202.885 54.208V64H198.694ZM188.294 64V48.544H192.486V64H188.294ZM219.904 64.32C218.283 64.32 216.843 63.9787 215.584 63.296C214.326 62.592 213.323 61.632 212.576 60.416C211.851 59.2 211.488 57.8133 211.488 56.256C211.488 54.72 211.84 53.3547 212.544 52.16C213.27 50.944 214.251 49.984 215.488 49.28C216.726 48.5547 218.102 48.192 219.616 48.192C221.11 48.192 222.422 48.5333 223.552 49.216C224.704 49.8773 225.6 50.7947 226.24 51.968C226.902 53.12 227.232 54.432 227.232 55.904C227.232 56.1813 227.211 56.4693 227.168 56.768C227.147 57.0453 227.094 57.3653 227.008 57.728L214.016 57.76V54.624L225.056 54.592L223.36 55.904C223.318 54.9867 223.147 54.2187 222.848 53.6C222.571 52.9813 222.155 52.512 221.6 52.192C221.067 51.8507 220.406 51.68 219.616 51.68C218.784 51.68 218.059 51.872 217.44 52.256C216.822 52.6187 216.342 53.1413 216 53.824C215.68 54.4853 215.52 55.2747 215.52 56.192C215.52 57.1307 215.691 57.952 216.032 58.656C216.395 59.3387 216.907 59.872 217.568 60.256C218.23 60.6187 218.998 60.8 219.872 60.8C220.662 60.8 221.376 60.672 222.016 60.416C222.656 60.1387 223.211 59.7333 223.68 59.2L226.144 61.664C225.398 62.5387 224.48 63.2 223.392 63.648C222.326 64.096 221.163 64.32 219.904 64.32ZM239.083 64L235.019 57.728L234.155 57.088L228.139 48.544H233.099L236.843 54.208L237.643 54.816L244.01 64H239.083ZM227.819 64L234.123 55.168L236.523 58.016L232.555 64H227.819ZM237.803 57.056L235.339 54.24L239.019 48.544H243.722L237.803 57.056ZM253.058 64.32C251.48 64.32 250.061 63.968 248.802 63.264C247.544 62.56 246.552 61.6 245.826 60.384C245.101 59.168 244.738 57.8027 244.738 56.288C244.738 54.752 245.101 53.376 245.826 52.16C246.552 50.944 247.544 49.984 248.802 49.28C250.082 48.5547 251.501 48.192 253.058 48.192C254.274 48.192 255.394 48.416 256.418 48.864C257.442 49.312 258.328 49.952 259.074 50.784L256.386 53.504C255.981 53.056 255.49 52.7147 254.914 52.48C254.36 52.2453 253.741 52.128 253.058 52.128C252.29 52.128 251.597 52.3093 250.978 52.672C250.381 53.0133 249.901 53.4933 249.538 54.112C249.197 54.7093 249.026 55.424 249.026 56.256C249.026 57.0667 249.197 57.792 249.538 58.432C249.901 59.0507 250.381 59.5413 250.978 59.904C251.597 60.2453 252.29 60.416 253.058 60.416C253.762 60.416 254.392 60.2987 254.946 60.064C255.522 59.808 256.013 59.4453 256.418 58.976L259.138 61.696C258.349 62.5493 257.442 63.2 256.418 63.648C255.394 64.096 254.274 64.32 253.058 64.32ZM261.512 64V40.864H265.704V64H261.512ZM276.01 64.32C274.645 64.32 273.429 64.032 272.363 63.456C271.317 62.88 270.496 62.08 269.899 61.056C269.301 60.032 269.003 58.848 269.003 57.504V48.544H273.227V57.408C273.227 58.048 273.333 58.6027 273.547 59.072C273.76 59.52 274.08 59.8613 274.507 60.096C274.933 60.3307 275.435 60.448 276.01 60.448C276.885 60.448 277.568 60.1813 278.059 59.648C278.549 59.1147 278.795 58.368 278.795 57.408V48.544H282.987V57.504C282.987 58.8693 282.688 60.064 282.091 61.088C281.515 62.112 280.693 62.912 279.627 63.488C278.581 64.0427 277.376 64.32 276.01 64.32ZM291.637 64.352C290.762 64.352 289.898 64.2347 289.045 64C288.213 63.7653 287.445 63.4453 286.741 63.04C286.037 62.6133 285.429 62.1013 284.917 61.504L287.413 58.976C287.946 59.5733 288.565 60.0213 289.269 60.32C289.973 60.6187 290.751 60.768 291.605 60.768C292.287 60.768 292.799 60.672 293.141 60.48C293.503 60.288 293.685 60 293.685 59.616C293.685 59.1893 293.493 58.8587 293.109 58.624C292.746 58.3893 292.266 58.1973 291.669 58.048C291.071 57.8773 290.442 57.696 289.781 57.504C289.141 57.2907 288.522 57.024 287.925 56.704C287.327 56.3627 286.837 55.904 286.453 55.328C286.09 54.7307 285.909 53.9627 285.909 53.024C285.909 52.0427 286.143 51.1893 286.613 50.464C287.103 49.7387 287.797 49.1733 288.693 48.768C289.589 48.3627 290.645 48.16 291.861 48.16C293.141 48.16 294.293 48.384 295.317 48.832C296.362 49.28 297.226 49.952 297.909 50.848L295.381 53.376C294.911 52.8 294.378 52.384 293.781 52.128C293.205 51.872 292.575 51.744 291.893 51.744C291.274 51.744 290.794 51.84 290.453 52.032C290.133 52.224 289.973 52.4907 289.973 52.832C289.973 53.216 290.154 53.5147 290.517 53.728C290.901 53.9413 291.391 54.1333 291.989 54.304C292.586 54.4533 293.205 54.6347 293.845 54.848C294.506 55.04 295.125 55.3173 295.701 55.68C296.298 56.0427 296.778 56.5227 297.141 57.12C297.525 57.7173 297.717 58.4853 297.717 59.424C297.717 60.9387 297.173 62.144 296.085 63.04C294.997 63.9147 293.514 64.352 291.637 64.352ZM300.544 64V48.544H304.768V64H300.544ZM302.656 46.048C301.973 46.048 301.408 45.824 300.96 45.376C300.512 44.9067 300.288 44.3307 300.288 43.648C300.288 42.9867 300.512 42.4213 300.96 41.952C301.408 41.4827 301.973 41.248 302.656 41.248C303.36 41.248 303.925 41.4827 304.352 41.952C304.8 42.4213 305.024 42.9867 305.024 43.648C305.024 44.3307 304.8 44.9067 304.352 45.376C303.925 45.824 303.36 46.048 302.656 46.048ZM313.505 64L306.689 48.544H311.297L316.193 61.28H313.921L318.849 48.544H323.297L316.513 64H313.505ZM332.154 64.32C330.533 64.32 329.093 63.9787 327.834 63.296C326.576 62.592 325.573 61.632 324.826 60.416C324.101 59.2 323.738 57.8133 323.738 56.256C323.738 54.72 324.09 53.3547 324.794 52.16C325.52 50.944 326.501 49.984 327.738 49.28C328.976 48.5547 330.352 48.192 331.866 48.192C333.36 48.192 334.672 48.5333 335.802 49.216C336.954 49.8773 337.85 50.7947 338.49 51.968C339.152 53.12 339.482 54.432 339.482 55.904C339.482 56.1813 339.461 56.4693 339.418 56.768C339.397 57.0453 339.344 57.3653 339.258 57.728L326.266 57.76V54.624L337.306 54.592L335.61 55.904C335.568 54.9867 335.397 54.2187 335.098 53.6C334.821 52.9813 334.405 52.512 333.85 52.192C333.317 51.8507 332.656 51.68 331.866 51.68C331.034 51.68 330.309 51.872 329.69 52.256C329.072 52.6187 328.592 53.1413 328.25 53.824C327.93 54.4853 327.77 55.2747 327.77 56.192C327.77 57.1307 327.941 57.952 328.282 58.656C328.645 59.3387 329.157 59.872 329.818 60.256C330.48 60.6187 331.248 60.8 332.122 60.8C332.912 60.8 333.626 60.672 334.266 60.416C334.906 60.1387 335.461 59.7333 335.93 59.2L338.394 61.664C337.648 62.5387 336.73 63.2 335.642 63.648C334.576 64.096 333.413 64.32 332.154 64.32ZM355.717 64.32C354.095 64.32 352.655 63.9787 351.397 63.296C350.138 62.592 349.135 61.632 348.389 60.416C347.663 59.2 347.301 57.8133 347.301 56.256C347.301 54.72 347.653 53.3547 348.357 52.16C349.082 50.944 350.063 49.984 351.301 49.28C352.538 48.5547 353.914 48.192 355.429 48.192C356.922 48.192 358.234 48.5333 359.365 49.216C360.517 49.8773 361.413 50.7947 362.053 51.968C362.714 53.12 363.045 54.432 363.045 55.904C363.045 56.1813 363.023 56.4693 362.981 56.768C362.959 57.0453 362.906 57.3653 362.821 57.728L349.829 57.76V54.624L360.869 54.592L359.173 55.904C359.13 54.9867 358.959 54.2187 358.661 53.6C358.383 52.9813 357.967 52.512 357.413 52.192C356.879 51.8507 356.218 51.68 355.429 51.68C354.597 51.68 353.871 51.872 353.253 52.256C352.634 52.6187 352.154 53.1413 351.813 53.824C351.493 54.4853 351.333 55.2747 351.333 56.192C351.333 57.1307 351.503 57.952 351.845 58.656C352.207 59.3387 352.719 59.872 353.381 60.256C354.042 60.6187 354.81 60.8 355.685 60.8C356.474 60.8 357.189 60.672 357.829 60.416C358.469 60.1387 359.023 59.7333 359.493 59.2L361.957 61.664C361.21 62.5387 360.293 63.2 359.205 63.648C358.138 64.096 356.975 64.32 355.717 64.32ZM370.411 64L363.595 48.544H368.203L373.099 61.28H370.827L375.755 48.544H380.203L373.419 64H370.411ZM389.061 64.32C387.439 64.32 385.999 63.9787 384.741 63.296C383.482 62.592 382.479 61.632 381.733 60.416C381.007 59.2 380.645 57.8133 380.645 56.256C380.645 54.72 380.997 53.3547 381.701 52.16C382.426 50.944 383.407 49.984 384.645 49.28C385.882 48.5547 387.258 48.192 388.773 48.192C390.266 48.192 391.578 48.5333 392.709 49.216C393.861 49.8773 394.757 50.7947 395.397 51.968C396.058 53.12 396.389 54.432 396.389 55.904C396.389 56.1813 396.367 56.4693 396.325 56.768C396.303 57.0453 396.25 57.3653 396.165 57.728L383.173 57.76V54.624L394.213 54.592L392.517 55.904C392.474 54.9867 392.303 54.2187 392.005 53.6C391.727 52.9813 391.311 52.512 390.757 52.192C390.223 51.8507 389.562 51.68 388.773 51.68C387.941 51.68 387.215 51.872 386.597 52.256C385.978 52.6187 385.498 53.1413 385.157 53.824C384.837 54.4853 384.677 55.2747 384.677 56.192C384.677 57.1307 384.847 57.952 385.189 58.656C385.551 59.3387 386.063 59.872 386.725 60.256C387.386 60.6187 388.154 60.8 389.029 60.8C389.818 60.8 390.533 60.672 391.173 60.416C391.813 60.1387 392.367 59.7333 392.837 59.2L395.301 61.664C394.554 62.5387 393.637 63.2 392.549 63.648C391.482 64.096 390.319 64.32 389.061 64.32ZM409.381 64V55.136C409.381 54.2187 409.093 53.472 408.517 52.896C407.941 52.32 407.194 52.032 406.277 52.032C405.68 52.032 405.146 52.16 404.677 52.416C404.208 52.672 403.834 53.0347 403.557 53.504C403.301 53.9733 403.173 54.5173 403.173 55.136L401.541 54.304C401.541 53.088 401.797 52.032 402.309 51.136C402.842 50.2187 403.568 49.504 404.485 48.992C405.424 48.48 406.48 48.224 407.653 48.224C408.784 48.224 409.797 48.512 410.693 49.088C411.589 49.6427 412.293 50.3787 412.805 51.296C413.317 52.192 413.573 53.1627 413.573 54.208V64H409.381ZM398.981 64V48.544H403.173V64H398.981ZM419.034 64V42.112H423.226V64H419.034ZM415.418 52.224V48.544H426.842V52.224H415.418ZM441.914 64.32C440.506 64.32 439.236 63.968 438.106 63.264C436.975 62.56 436.09 61.6 435.45 60.384C434.81 59.168 434.49 57.8027 434.49 56.288C434.49 54.752 434.81 53.376 435.45 52.16C436.09 50.944 436.975 49.984 438.106 49.28C439.236 48.576 440.506 48.224 441.914 48.224C443.023 48.224 444.015 48.448 444.89 48.896C445.764 49.344 446.458 49.9733 446.97 50.784C447.503 51.5733 447.791 52.4693 447.834 53.472V59.04C447.791 60.064 447.503 60.9707 446.97 61.76C446.458 62.5493 445.764 63.1787 444.89 63.648C444.015 64.096 443.023 64.32 441.914 64.32ZM442.682 60.448C443.855 60.448 444.804 60.064 445.53 59.296C446.255 58.5067 446.618 57.4933 446.618 56.256C446.618 55.4453 446.447 54.7307 446.106 54.112C445.786 53.472 445.327 52.9813 444.73 52.64C444.154 52.2773 443.471 52.096 442.682 52.096C441.914 52.096 441.231 52.2773 440.634 52.64C440.058 52.9813 439.599 53.472 439.258 54.112C438.938 54.7307 438.778 55.4453 438.778 56.256C438.778 57.088 438.938 57.824 439.258 58.464C439.599 59.0827 440.058 59.5733 440.634 59.936C441.231 60.2773 441.914 60.448 442.682 60.448ZM446.394 64V59.84L447.066 56.064L446.394 52.352V48.544H450.554V64H446.394ZM461.558 64.32C459.98 64.32 458.561 63.968 457.302 63.264C456.044 62.56 455.052 61.6 454.326 60.384C453.601 59.168 453.238 57.8027 453.238 56.288C453.238 54.752 453.601 53.376 454.326 52.16C455.052 50.944 456.044 49.984 457.302 49.28C458.582 48.5547 460.001 48.192 461.558 48.192C462.774 48.192 463.894 48.416 464.918 48.864C465.942 49.312 466.828 49.952 467.574 50.784L464.886 53.504C464.481 53.056 463.99 52.7147 463.414 52.48C462.86 52.2453 462.241 52.128 461.558 52.128C460.79 52.128 460.097 52.3093 459.478 52.672C458.881 53.0133 458.401 53.4933 458.038 54.112C457.697 54.7093 457.526 55.424 457.526 56.256C457.526 57.0667 457.697 57.792 458.038 58.432C458.401 59.0507 458.881 59.5413 459.478 59.904C460.097 60.2453 460.79 60.416 461.558 60.416C462.262 60.416 462.892 60.2987 463.446 60.064C464.022 59.808 464.513 59.4453 464.918 58.976L467.638 61.696C466.849 62.5493 465.942 63.2 464.918 63.648C463.894 64.096 462.774 64.32 461.558 64.32ZM476.965 64.32C475.386 64.32 473.967 63.968 472.709 63.264C471.45 62.56 470.458 61.6 469.733 60.384C469.007 59.168 468.645 57.8027 468.645 56.288C468.645 54.752 469.007 53.376 469.733 52.16C470.458 50.944 471.45 49.984 472.709 49.28C473.989 48.5547 475.407 48.192 476.965 48.192C478.181 48.192 479.301 48.416 480.325 48.864C481.349 49.312 482.234 49.952 482.981 50.784L480.293 53.504C479.887 53.056 479.397 52.7147 478.821 52.48C478.266 52.2453 477.647 52.128 476.965 52.128C476.197 52.128 475.503 52.3093 474.885 52.672C474.287 53.0133 473.807 53.4933 473.445 54.112C473.103 54.7093 472.933 55.424 472.933 56.256C472.933 57.0667 473.103 57.792 473.445 58.432C473.807 59.0507 474.287 59.5413 474.885 59.904C475.503 60.2453 476.197 60.416 476.965 60.416C477.669 60.416 478.298 60.2987 478.853 60.064C479.429 59.808 479.919 59.4453 480.325 58.976L483.045 61.696C482.255 62.5493 481.349 63.2 480.325 63.648C479.301 64.096 478.181 64.32 476.965 64.32ZM492.467 64.32C490.845 64.32 489.405 63.9787 488.147 63.296C486.888 62.592 485.885 61.632 485.139 60.416C484.413 59.2 484.051 57.8133 484.051 56.256C484.051 54.72 484.403 53.3547 485.107 52.16C485.832 50.944 486.813 49.984 488.051 49.28C489.288 48.5547 490.664 48.192 492.179 48.192C493.672 48.192 494.984 48.5333 496.115 49.216C497.267 49.8773 498.163 50.7947 498.803 51.968C499.464 53.12 499.795 54.432 499.795 55.904C499.795 56.1813 499.773 56.4693 499.731 56.768C499.709 57.0453 499.656 57.3653 499.571 57.728L486.579 57.76V54.624L497.619 54.592L495.923 55.904C495.88 54.9867 495.709 54.2187 495.411 53.6C495.133 52.9813 494.717 52.512 494.163 52.192C493.629 51.8507 492.968 51.68 492.179 51.68C491.347 51.68 490.621 51.872 490.003 52.256C489.384 52.6187 488.904 53.1413 488.563 53.824C488.243 54.4853 488.083 55.2747 488.083 56.192C488.083 57.1307 488.253 57.952 488.595 58.656C488.957 59.3387 489.469 59.872 490.131 60.256C490.792 60.6187 491.56 60.8 492.435 60.8C493.224 60.8 493.939 60.672 494.579 60.416C495.219 60.1387 495.773 59.7333 496.243 59.2L498.707 61.664C497.96 62.5387 497.043 63.2 495.955 63.648C494.888 64.096 493.725 64.32 492.467 64.32ZM507.699 64.352C506.825 64.352 505.961 64.2347 505.107 64C504.275 63.7653 503.507 63.4453 502.803 63.04C502.099 62.6133 501.491 62.1013 500.979 61.504L503.475 58.976C504.009 59.5733 504.627 60.0213 505.331 60.32C506.035 60.6187 506.814 60.768 507.667 60.768C508.35 60.768 508.862 60.672 509.203 60.48C509.566 60.288 509.747 60 509.747 59.616C509.747 59.1893 509.555 58.8587 509.171 58.624C508.809 58.3893 508.329 58.1973 507.731 58.048C507.134 57.8773 506.505 57.696 505.843 57.504C505.203 57.2907 504.585 57.024 503.987 56.704C503.39 56.3627 502.899 55.904 502.515 55.328C502.153 54.7307 501.971 53.9627 501.971 53.024C501.971 52.0427 502.206 51.1893 502.675 50.464C503.166 49.7387 503.859 49.1733 504.755 48.768C505.651 48.3627 506.707 48.16 507.923 48.16C509.203 48.16 510.355 48.384 511.379 48.832C512.425 49.28 513.289 49.952 513.971 50.848L511.443 53.376C510.974 52.8 510.441 52.384 509.843 52.128C509.267 51.872 508.638 51.744 507.955 51.744C507.337 51.744 506.857 51.84 506.515 52.032C506.195 52.224 506.035 52.4907 506.035 52.832C506.035 53.216 506.217 53.5147 506.579 53.728C506.963 53.9413 507.454 54.1333 508.051 54.304C508.649 54.4533 509.267 54.6347 509.907 54.848C510.569 55.04 511.187 55.3173 511.763 55.68C512.361 56.0427 512.841 56.5227 513.203 57.12C513.587 57.7173 513.779 58.4853 513.779 59.424C513.779 60.9387 513.235 62.144 512.147 63.04C511.059 63.9147 509.577 64.352 507.699 64.352ZM521.918 64.352C521.043 64.352 520.179 64.2347 519.326 64C518.494 63.7653 517.726 63.4453 517.022 63.04C516.318 62.6133 515.71 62.1013 515.198 61.504L517.694 58.976C518.227 59.5733 518.846 60.0213 519.55 60.32C520.254 60.6187 521.033 60.768 521.886 60.768C522.569 60.768 523.081 60.672 523.422 60.48C523.785 60.288 523.966 60 523.966 59.616C523.966 59.1893 523.774 58.8587 523.39 58.624C523.027 58.3893 522.547 58.1973 521.95 58.048C521.353 57.8773 520.723 57.696 520.062 57.504C519.422 57.2907 518.803 57.024 518.206 56.704C517.609 56.3627 517.118 55.904 516.734 55.328C516.371 54.7307 516.19 53.9627 516.19 53.024C516.19 52.0427 516.425 51.1893 516.894 50.464C517.385 49.7387 518.078 49.1733 518.974 48.768C519.87 48.3627 520.926 48.16 522.142 48.16C523.422 48.16 524.574 48.384 525.598 48.832C526.643 49.28 527.507 49.952 528.19 50.848L525.662 53.376C525.193 52.8 524.659 52.384 524.062 52.128C523.486 51.872 522.857 51.744 522.174 51.744C521.555 51.744 521.075 51.84 520.734 52.032C520.414 52.224 520.254 52.4907 520.254 52.832C520.254 53.216 520.435 53.5147 520.798 53.728C521.182 53.9413 521.673 54.1333 522.27 54.304C522.867 54.4533 523.486 54.6347 524.126 54.848C524.787 55.04 525.406 55.3173 525.982 55.68C526.579 56.0427 527.059 56.5227 527.422 57.12C527.806 57.7173 527.998 58.4853 527.998 59.424C527.998 60.9387 527.454 62.144 526.366 63.04C525.278 63.9147 523.795 64.352 521.918 64.352ZM530.793 67.808L533.065 63.584L534.377 63.232C534.227 63.5093 534.057 63.744 533.865 63.936C533.673 64.128 533.449 64.224 533.193 64.224C532.659 64.224 532.158 63.9893 531.689 63.52C531.219 63.0507 530.985 62.464 530.985 61.76C530.985 60.992 531.241 60.3413 531.753 59.808C532.265 59.2747 532.905 59.008 533.673 59.008C534.377 59.008 534.995 59.2747 535.529 59.808C536.062 60.3413 536.329 60.992 536.329 61.76C536.329 62.0587 536.265 62.4213 536.137 62.848C536.009 63.2533 535.774 63.776 535.433 64.416L532.969 68.96L530.793 67.808ZM553.436 64.32C551.814 64.32 550.374 63.9787 549.116 63.296C547.857 62.592 546.854 61.632 546.108 60.416C545.382 59.2 545.02 57.8133 545.02 56.256C545.02 54.72 545.372 53.3547 546.076 52.16C546.801 50.944 547.782 49.984 549.02 49.28C550.257 48.5547 551.633 48.192 553.148 48.192C554.641 48.192 555.953 48.5333 557.084 49.216C558.236 49.8773 559.132 50.7947 559.772 51.968C560.433 53.12 560.764 54.432 560.764 55.904C560.764 56.1813 560.742 56.4693 560.7 56.768C560.678 57.0453 560.625 57.3653 560.54 57.728L547.548 57.76V54.624L558.588 54.592L556.892 55.904C556.849 54.9867 556.678 54.2187 556.38 53.6C556.102 52.9813 555.686 52.512 555.132 52.192C554.598 51.8507 553.937 51.68 553.148 51.68C552.316 51.68 551.59 51.872 550.972 52.256C550.353 52.6187 549.873 53.1413 549.532 53.824C549.212 54.4853 549.052 55.2747 549.052 56.192C549.052 57.1307 549.222 57.952 549.564 58.656C549.926 59.3387 550.438 59.872 551.1 60.256C551.761 60.6187 552.529 60.8 553.404 60.8C554.193 60.8 554.908 60.672 555.548 60.416C556.188 60.1387 556.742 59.7333 557.212 59.2L559.676 61.664C558.929 62.5387 558.012 63.2 556.924 63.648C555.857 64.096 554.694 64.32 553.436 64.32ZM572.614 64L568.55 57.728L567.686 57.088L561.67 48.544H566.63L570.374 54.208L571.174 54.816L577.542 64H572.614ZM561.35 64L567.654 55.168L570.054 58.016L566.086 64H561.35ZM571.334 57.056L568.87 54.24L572.55 48.544H577.254L571.334 57.056ZM586.59 64.32C585.011 64.32 583.592 63.968 582.334 63.264C581.075 62.56 580.083 61.6 579.358 60.384C578.632 59.168 578.27 57.8027 578.27 56.288C578.27 54.752 578.632 53.376 579.358 52.16C580.083 50.944 581.075 49.984 582.334 49.28C583.614 48.5547 585.032 48.192 586.59 48.192C587.806 48.192 588.926 48.416 589.95 48.864C590.974 49.312 591.859 49.952 592.606 50.784L589.918 53.504C589.512 53.056 589.022 52.7147 588.446 52.48C587.891 52.2453 587.272 52.128 586.59 52.128C585.822 52.128 585.128 52.3093 584.51 52.672C583.912 53.0133 583.432 53.4933 583.07 54.112C582.728 54.7093 582.558 55.424 582.558 56.256C582.558 57.0667 582.728 57.792 583.07 58.432C583.432 59.0507 583.912 59.5413 584.51 59.904C585.128 60.2453 585.822 60.416 586.59 60.416C587.294 60.416 587.923 60.2987 588.478 60.064C589.054 59.808 589.544 59.4453 589.95 58.976L592.67 61.696C591.88 62.5493 590.974 63.2 589.95 63.648C588.926 64.096 587.806 64.32 586.59 64.32ZM595.044 64V48.544H599.268V64H595.044ZM597.156 46.048C596.473 46.048 595.908 45.824 595.46 45.376C595.012 44.9067 594.788 44.3307 594.788 43.648C594.788 42.9867 595.012 42.4213 595.46 41.952C595.908 41.4827 596.473 41.248 597.156 41.248C597.86 41.248 598.425 41.4827 598.852 41.952C599.3 42.4213 599.524 42.9867 599.524 43.648C599.524 44.3307 599.3 44.9067 598.852 45.376C598.425 45.824 597.86 46.048 597.156 46.048ZM605.253 64V42.112H609.445V64H605.253ZM601.637 52.224V48.544H613.061V52.224H601.637ZM615.419 64V48.544H619.643V64H615.419ZM617.531 46.048C616.848 46.048 616.283 45.824 615.835 45.376C615.387 44.9067 615.163 44.3307 615.163 43.648C615.163 42.9867 615.387 42.4213 615.835 41.952C616.283 41.4827 616.848 41.248 617.531 41.248C618.235 41.248 618.8 41.4827 619.227 41.952C619.675 42.4213 619.899 42.9867 619.899 43.648C619.899 44.3307 619.675 44.9067 619.227 45.376C618.8 45.824 618.235 46.048 617.531 46.048ZM633.756 64V55.136C633.756 54.2187 633.468 53.472 632.892 52.896C632.316 52.32 631.569 52.032 630.652 52.032C630.055 52.032 629.521 52.16 629.052 52.416C628.583 52.672 628.209 53.0347 627.932 53.504C627.676 53.9733 627.548 54.5173 627.548 55.136L625.916 54.304C625.916 53.088 626.172 52.032 626.684 51.136C627.217 50.2187 627.943 49.504 628.86 48.992C629.799 48.48 630.855 48.224 632.028 48.224C633.159 48.224 634.172 48.512 635.068 49.088C635.964 49.6427 636.668 50.3787 637.18 51.296C637.692 52.192 637.948 53.1627 637.948 54.208V64H633.756ZM623.356 64V48.544H627.548V64H623.356ZM647.789 70.848C646.146 70.848 644.695 70.5493 643.437 69.952C642.178 69.376 641.175 68.5547 640.429 67.488L643.085 64.832C643.682 65.536 644.343 66.0693 645.069 66.432C645.815 66.816 646.711 67.008 647.757 67.008C649.058 67.008 650.082 66.6773 650.829 66.016C651.597 65.3547 651.981 64.4373 651.981 63.264V59.392L652.685 56L652.013 52.608V48.544H656.173V63.2C656.173 64.736 655.81 66.0693 655.085 67.2C654.381 68.352 653.399 69.248 652.141 69.888C650.882 70.528 649.431 70.848 647.789 70.848ZM647.597 63.584C646.21 63.584 644.962 63.2533 643.853 62.592C642.743 61.9093 641.869 60.9813 641.229 59.808C640.61 58.6347 640.301 57.3227 640.301 55.872C640.301 54.4213 640.61 53.12 641.229 51.968C641.869 50.816 642.743 49.9093 643.853 49.248C644.962 48.5653 646.21 48.224 647.597 48.224C648.749 48.224 649.762 48.448 650.637 48.896C651.533 49.344 652.237 49.9627 652.749 50.752C653.261 51.52 653.538 52.4267 653.581 53.472V58.336C653.538 59.36 653.25 60.2773 652.717 61.088C652.205 61.8773 651.501 62.496 650.605 62.944C649.73 63.3707 648.727 63.584 647.597 63.584ZM648.429 59.776C649.197 59.776 649.858 59.616 650.413 59.296C650.989 58.9547 651.437 58.496 651.757 57.92C652.077 57.3227 652.237 56.6507 652.237 55.904C652.237 55.136 652.077 54.464 651.757 53.888C651.437 53.312 650.989 52.864 650.413 52.544C649.858 52.2027 649.197 52.032 648.429 52.032C647.661 52.032 646.989 52.2027 646.413 52.544C645.837 52.864 645.389 53.3227 645.069 53.92C644.749 54.496 644.589 55.1573 644.589 55.904C644.589 56.6293 644.749 57.2907 645.069 57.888C645.389 58.464 645.837 58.9227 646.413 59.264C646.989 59.6053 647.661 59.776 648.429 59.776ZM672.57 64.32C671.162 64.32 669.893 63.968 668.762 63.264C667.631 62.56 666.746 61.6 666.106 60.384C665.466 59.168 665.146 57.8027 665.146 56.288C665.146 54.752 665.466 53.376 666.106 52.16C666.746 50.944 667.631 49.984 668.762 49.28C669.893 48.576 671.162 48.224 672.57 48.224C673.679 48.224 674.671 48.448 675.546 48.896C676.421 49.344 677.114 49.9733 677.626 50.784C678.159 51.5733 678.447 52.4693 678.49 53.472V59.04C678.447 60.064 678.159 60.9707 677.626 61.76C677.114 62.5493 676.421 63.1787 675.546 63.648C674.671 64.096 673.679 64.32 672.57 64.32ZM673.338 60.448C674.511 60.448 675.461 60.064 676.186 59.296C676.911 58.5067 677.274 57.4933 677.274 56.256C677.274 55.4453 677.103 54.7307 676.762 54.112C676.442 53.472 675.983 52.9813 675.386 52.64C674.81 52.2773 674.127 52.096 673.338 52.096C672.57 52.096 671.887 52.2773 671.29 52.64C670.714 52.9813 670.255 53.472 669.914 54.112C669.594 54.7307 669.434 55.4453 669.434 56.256C669.434 57.088 669.594 57.824 669.914 58.464C670.255 59.0827 670.714 59.5733 671.29 59.936C671.887 60.2773 672.57 60.448 673.338 60.448ZM677.05 64V59.84L677.722 56.064L677.05 52.352V48.544H681.21V64H677.05ZM684.919 64V48.544H689.143V64H684.919ZM687.031 46.048C686.348 46.048 685.783 45.824 685.335 45.376C684.887 44.9067 684.663 44.3307 684.663 43.648C684.663 42.9867 684.887 42.4213 685.335 41.952C685.783 41.4827 686.348 41.248 687.031 41.248C687.735 41.248 688.3 41.4827 688.727 41.952C689.175 42.4213 689.399 42.9867 689.399 43.648C689.399 44.3307 689.175 44.9067 688.727 45.376C688.3 45.824 687.735 46.048 687.031 46.048ZM692.856 64V48.544H697.048V64H692.856ZM697.048 55.456L695.416 54.368C695.608 52.4693 696.163 50.976 697.08 49.888C697.997 48.7787 699.32 48.224 701.048 48.224C701.795 48.224 702.467 48.352 703.064 48.608C703.661 48.8427 704.205 49.2373 704.696 49.792L702.072 52.8C701.837 52.544 701.549 52.352 701.208 52.224C700.888 52.096 700.515 52.032 700.088 52.032C699.192 52.032 698.456 52.32 697.88 52.896C697.325 53.4507 697.048 54.304 697.048 55.456ZM712.259 64.32C710.83 64.32 709.55 63.968 708.419 63.264C707.288 62.56 706.392 61.6 705.731 60.384C705.091 59.168 704.771 57.8027 704.771 56.288C704.771 54.752 705.091 53.376 705.731 52.16C706.392 50.944 707.278 49.984 708.387 49.28C709.518 48.576 710.808 48.224 712.259 48.224C713.368 48.224 714.36 48.448 715.235 48.896C716.131 49.344 716.846 49.9733 717.379 50.784C717.934 51.5733 718.232 52.4693 718.275 53.472V58.976C718.232 59.9787 717.944 60.8853 717.411 61.696C716.878 62.5067 716.163 63.1467 715.267 63.616C714.371 64.0853 713.368 64.32 712.259 64.32ZM712.963 60.448C713.752 60.448 714.435 60.2773 715.011 59.936C715.608 59.5733 716.067 59.0827 716.387 58.464C716.728 57.824 716.899 57.088 716.899 56.256C716.899 55.4453 716.728 54.7307 716.387 54.112C716.067 53.472 715.608 52.9813 715.011 52.64C714.435 52.2773 713.763 52.096 712.995 52.096C712.206 52.096 711.512 52.2773 710.915 52.64C710.339 53.0027 709.88 53.4933 709.539 54.112C709.219 54.7307 709.059 55.4453 709.059 56.256C709.059 57.088 709.219 57.824 709.539 58.464C709.88 59.0827 710.35 59.5733 710.947 59.936C711.544 60.2773 712.216 60.448 712.963 60.448ZM720.835 64H716.675V59.84L717.347 56.064L716.643 52.352V40.864H720.835V64ZM724.544 64V48.544H728.736V64H724.544ZM728.736 55.456L727.104 54.368C727.296 52.4693 727.85 50.976 728.768 49.888C729.685 48.7787 731.008 48.224 732.736 48.224C733.482 48.224 734.154 48.352 734.752 48.608C735.349 48.8427 735.893 49.2373 736.384 49.792L733.76 52.8C733.525 52.544 733.237 52.352 732.896 52.224C732.576 52.096 732.202 52.032 731.776 52.032C730.88 52.032 730.144 52.32 729.568 52.896C729.013 53.4507 728.736 54.304 728.736 55.456ZM744.683 64.32C743.125 64.32 741.717 63.968 740.459 63.264C739.221 62.5387 738.229 61.568 737.483 60.352C736.757 59.1147 736.395 57.7387 736.395 56.224C736.395 54.7093 736.757 53.3547 737.483 52.16C738.208 50.944 739.2 49.984 740.459 49.28C741.717 48.5547 743.115 48.192 744.651 48.192C746.229 48.192 747.637 48.5547 748.875 49.28C750.133 49.984 751.125 50.944 751.851 52.16C752.576 53.3547 752.939 54.7093 752.939 56.224C752.939 57.7387 752.576 59.1147 751.851 60.352C751.125 61.568 750.133 62.5387 748.875 63.264C747.637 63.968 746.24 64.32 744.683 64.32ZM744.651 60.416C745.44 60.416 746.133 60.2453 746.731 59.904C747.349 59.5413 747.819 59.0507 748.139 58.432C748.48 57.792 748.651 57.0667 748.651 56.256C748.651 55.4453 748.48 54.7307 748.139 54.112C747.797 53.4933 747.328 53.0133 746.731 52.672C746.133 52.3093 745.44 52.128 744.651 52.128C743.883 52.128 743.2 52.3093 742.603 52.672C742.005 53.0133 741.536 53.4933 741.195 54.112C740.853 54.7307 740.683 55.4453 740.683 56.256C740.683 57.0667 740.853 57.792 741.195 58.432C741.536 59.0507 742.005 59.5413 742.603 59.904C743.2 60.2453 743.883 60.416 744.651 60.416ZM764.213 64.32C763.104 64.32 762.101 64.096 761.205 63.648C760.309 63.1787 759.595 62.5493 759.061 61.76C758.528 60.9707 758.24 60.064 758.197 59.04V53.568C758.24 52.544 758.528 51.6373 759.061 50.848C759.616 50.0373 760.331 49.3973 761.205 48.928C762.101 48.4587 763.104 48.224 764.213 48.224C765.643 48.224 766.923 48.576 768.053 49.28C769.184 49.984 770.069 50.944 770.709 52.16C771.371 53.376 771.701 54.752 771.701 56.288C771.701 57.8027 771.371 59.168 770.709 60.384C770.069 61.6 769.184 62.56 768.053 63.264C766.923 63.968 765.643 64.32 764.213 64.32ZM763.477 60.448C764.245 60.448 764.928 60.2773 765.525 59.936C766.123 59.5733 766.581 59.0827 766.901 58.464C767.243 57.824 767.413 57.088 767.413 56.256C767.413 55.4453 767.243 54.7307 766.901 54.112C766.581 53.472 766.123 52.9813 765.525 52.64C764.928 52.2773 764.245 52.096 763.477 52.096C762.731 52.096 762.059 52.2773 761.461 52.64C760.864 52.9813 760.395 53.472 760.053 54.112C759.733 54.7307 759.573 55.4453 759.573 56.256C759.573 57.088 759.733 57.824 760.053 58.464C760.395 59.0827 760.853 59.5733 761.429 59.936C762.027 60.2773 762.709 60.448 763.477 60.448ZM755.637 70.464V48.544H759.829V52.608L759.125 56.352L759.797 60.096V70.464H755.637ZM780.7 64V48.544H784.892V64H780.7ZM784.892 55.456L783.26 54.368C783.452 52.4693 784.006 50.976 784.924 49.888C785.841 48.7787 787.164 48.224 788.892 48.224C789.638 48.224 790.31 48.352 790.908 48.608C791.505 48.8427 792.049 49.2373 792.54 49.792L789.916 52.8C789.681 52.544 789.393 52.352 789.052 52.224C788.732 52.096 788.358 52.032 787.932 52.032C787.036 52.032 786.3 52.32 785.724 52.896C785.169 53.4507 784.892 54.304 784.892 55.456ZM800.967 64.32C799.345 64.32 797.905 63.9787 796.647 63.296C795.388 62.592 794.385 61.632 793.639 60.416C792.913 59.2 792.551 57.8133 792.551 56.256C792.551 54.72 792.903 53.3547 793.607 52.16C794.332 50.944 795.313 49.984 796.551 49.28C797.788 48.5547 799.164 48.192 800.679 48.192C802.172 48.192 803.484 48.5333 804.615 49.216C805.767 49.8773 806.663 50.7947 807.303 51.968C807.964 53.12 808.295 54.432 808.295 55.904C808.295 56.1813 808.273 56.4693 808.231 56.768C808.209 57.0453 808.156 57.3653 808.071 57.728L795.079 57.76V54.624L806.119 54.592L804.423 55.904C804.38 54.9867 804.209 54.2187 803.911 53.6C803.633 52.9813 803.217 52.512 802.663 52.192C802.129 51.8507 801.468 51.68 800.679 51.68C799.847 51.68 799.121 51.872 798.503 52.256C797.884 52.6187 797.404 53.1413 797.063 53.824C796.743 54.4853 796.583 55.2747 796.583 56.192C796.583 57.1307 796.753 57.952 797.095 58.656C797.457 59.3387 797.969 59.872 798.631 60.256C799.292 60.6187 800.06 60.8 800.935 60.8C801.724 60.8 802.439 60.672 803.079 60.416C803.719 60.1387 804.273 59.7333 804.743 59.2L807.207 61.664C806.46 62.5387 805.543 63.2 804.455 63.648C803.388 64.096 802.225 64.32 800.967 64.32ZM814.828 64L809.036 48.544H813.26L817.036 59.776L815.756 59.808L819.628 48.544H822.668L826.54 59.808L825.26 59.776L829.036 48.544H833.26L827.5 64H824.46L820.556 53.312H821.74L817.836 64H814.828ZM841.414 64.32C840.006 64.32 838.736 63.968 837.606 63.264C836.475 62.56 835.59 61.6 834.95 60.384C834.31 59.168 833.99 57.8027 833.99 56.288C833.99 54.752 834.31 53.376 834.95 52.16C835.59 50.944 836.475 49.984 837.606 49.28C838.736 48.576 840.006 48.224 841.414 48.224C842.523 48.224 843.515 48.448 844.39 48.896C845.264 49.344 845.958 49.9733 846.47 50.784C847.003 51.5733 847.291 52.4693 847.334 53.472V59.04C847.291 60.064 847.003 60.9707 846.47 61.76C845.958 62.5493 845.264 63.1787 844.39 63.648C843.515 64.096 842.523 64.32 841.414 64.32ZM842.182 60.448C843.355 60.448 844.304 60.064 845.03 59.296C845.755 58.5067 846.118 57.4933 846.118 56.256C846.118 55.4453 845.947 54.7307 845.606 54.112C845.286 53.472 844.827 52.9813 844.23 52.64C843.654 52.2773 842.971 52.096 842.182 52.096C841.414 52.096 840.731 52.2773 840.134 52.64C839.558 52.9813 839.099 53.472 838.758 54.112C838.438 54.7307 838.278 55.4453 838.278 56.256C838.278 57.088 838.438 57.824 838.758 58.464C839.099 59.0827 839.558 59.5733 840.134 59.936C840.731 60.2773 841.414 60.448 842.182 60.448ZM845.894 64V59.84L846.566 56.064L845.894 52.352V48.544H850.054V64H845.894ZM853.762 64V48.544H857.954V64H853.762ZM857.954 55.456L856.322 54.368C856.514 52.4693 857.069 50.976 857.986 49.888C858.904 48.7787 860.226 48.224 861.954 48.224C862.701 48.224 863.373 48.352 863.97 48.608C864.568 48.8427 865.112 49.2373 865.602 49.792L862.978 52.8C862.744 52.544 862.456 52.352 862.114 52.224C861.794 52.096 861.421 52.032 860.994 52.032C860.098 52.032 859.362 52.32 858.786 52.896C858.232 53.4507 857.954 54.304 857.954 55.456ZM873.165 64.32C871.736 64.32 870.456 63.968 869.325 63.264C868.195 62.56 867.299 61.6 866.637 60.384C865.997 59.168 865.677 57.8027 865.677 56.288C865.677 54.752 865.997 53.376 866.637 52.16C867.299 50.944 868.184 49.984 869.293 49.28C870.424 48.576 871.715 48.224 873.165 48.224C874.275 48.224 875.267 48.448 876.141 48.896C877.037 49.344 877.752 49.9733 878.285 50.784C878.84 51.5733 879.139 52.4693 879.181 53.472V58.976C879.139 59.9787 878.851 60.8853 878.317 61.696C877.784 62.5067 877.069 63.1467 876.173 63.616C875.277 64.0853 874.275 64.32 873.165 64.32ZM873.869 60.448C874.659 60.448 875.341 60.2773 875.917 59.936C876.515 59.5733 876.973 59.0827 877.293 58.464C877.635 57.824 877.805 57.088 877.805 56.256C877.805 55.4453 877.635 54.7307 877.293 54.112C876.973 53.472 876.515 52.9813 875.917 52.64C875.341 52.2773 874.669 52.096 873.901 52.096C873.112 52.096 872.419 52.2773 871.821 52.64C871.245 53.0027 870.787 53.4933 870.445 54.112C870.125 54.7307 869.965 55.4453 869.965 56.256C869.965 57.088 870.125 57.824 870.445 58.464C870.787 59.0827 871.256 59.5733 871.853 59.936C872.451 60.2773 873.123 60.448 873.869 60.448ZM881.741 64H877.581V59.84L878.253 56.064L877.549 52.352V40.864H881.741V64ZM890.762 64.352C889.887 64.352 889.023 64.2347 888.17 64C887.338 63.7653 886.57 63.4453 885.866 63.04C885.162 62.6133 884.554 62.1013 884.042 61.504L886.538 58.976C887.071 59.5733 887.69 60.0213 888.394 60.32C889.098 60.6187 889.876 60.768 890.73 60.768C891.412 60.768 891.924 60.672 892.266 60.48C892.628 60.288 892.81 60 892.81 59.616C892.81 59.1893 892.618 58.8587 892.234 58.624C891.871 58.3893 891.391 58.1973 890.794 58.048C890.196 57.8773 889.567 57.696 888.906 57.504C888.266 57.2907 887.647 57.024 887.05 56.704C886.452 56.3627 885.962 55.904 885.578 55.328C885.215 54.7307 885.034 53.9627 885.034 53.024C885.034 52.0427 885.268 51.1893 885.738 50.464C886.228 49.7387 886.922 49.1733 887.818 48.768C888.714 48.3627 889.77 48.16 890.986 48.16C892.266 48.16 893.418 48.384 894.442 48.832C895.487 49.28 896.351 49.952 897.034 50.848L894.506 53.376C894.036 52.8 893.503 52.384 892.906 52.128C892.33 51.872 891.7 51.744 891.018 51.744C890.399 51.744 889.919 51.84 889.578 52.032C889.258 52.224 889.098 52.4907 889.098 52.832C889.098 53.216 889.279 53.5147 889.642 53.728C890.026 53.9413 890.516 54.1333 891.114 54.304C891.711 54.4533 892.33 54.6347 892.97 54.848C893.631 55.04 894.25 55.3173 894.826 55.68C895.423 56.0427 895.903 56.5227 896.266 57.12C896.65 57.7173 896.842 58.4853 896.842 59.424C896.842 60.9387 896.298 62.144 895.21 63.04C894.122 63.9147 892.639 64.352 890.762 64.352ZM899.637 67.808L901.909 63.584L903.221 63.232C903.071 63.5093 902.901 63.744 902.709 63.936C902.517 64.128 902.293 64.224 902.036 64.224C901.503 64.224 901.002 63.9893 900.533 63.52C900.063 63.0507 899.829 62.464 899.829 61.76C899.829 60.992 900.085 60.3413 900.597 59.808C901.109 59.2747 901.749 59.008 902.516 59.008C903.221 59.008 903.839 59.2747 904.373 59.808C904.906 60.3413 905.173 60.992 905.173 61.76C905.173 62.0587 905.109 62.4213 904.981 62.848C904.853 63.2533 904.618 63.776 904.277 64.416L901.812 68.96L899.637 67.808ZM334.179 104.32C332.771 104.32 331.502 103.968 330.371 103.264C329.241 102.56 328.355 101.6 327.715 100.384C327.075 99.168 326.755 97.8027 326.755 96.288C326.755 94.752 327.075 93.376 327.715 92.16C328.355 90.944 329.241 89.984 330.371 89.28C331.502 88.576 332.771 88.224 334.179 88.224C335.289 88.224 336.281 88.448 337.155 88.896C338.03 89.344 338.723 89.9733 339.235 90.784C339.769 91.5733 340.057 92.4693 340.099 93.472V99.04C340.057 100.064 339.769 100.971 339.235 101.76C338.723 102.549 338.03 103.179 337.155 103.648C336.281 104.096 335.289 104.32 334.179 104.32ZM334.947 100.448C336.121 100.448 337.07 100.064 337.795 99.296C338.521 98.5067 338.883 97.4933 338.883 96.256C338.883 95.4453 338.713 94.7307 338.371 94.112C338.051 93.472 337.593 92.9813 336.995 92.64C336.419 92.2773 335.737 92.096 334.947 92.096C334.179 92.096 333.497 92.2773 332.899 92.64C332.323 92.9813 331.865 93.472 331.523 94.112C331.203 94.7307 331.043 95.4453 331.043 96.256C331.043 97.088 331.203 97.824 331.523 98.464C331.865 99.0827 332.323 99.5733 332.899 99.936C333.497 100.277 334.179 100.448 334.947 100.448ZM338.659 104V99.84L339.331 96.064L338.659 92.352V88.544H342.819V104H338.659ZM356.928 104V95.136C356.928 94.2187 356.64 93.472 356.064 92.896C355.488 92.32 354.741 92.032 353.824 92.032C353.227 92.032 352.693 92.16 352.224 92.416C351.755 92.672 351.381 93.0347 351.104 93.504C350.848 93.9733 350.72 94.5173 350.72 95.136L349.088 94.304C349.088 93.088 349.344 92.032 349.856 91.136C350.389 90.2187 351.115 89.504 352.032 88.992C352.971 88.48 354.027 88.224 355.2 88.224C356.331 88.224 357.344 88.512 358.24 89.088C359.136 89.6427 359.84 90.3787 360.352 91.296C360.864 92.192 361.12 93.1627 361.12 94.208V104H356.928ZM346.528 104V88.544H350.72V104H346.528ZM371.025 104.32C369.595 104.32 368.315 103.968 367.185 103.264C366.054 102.56 365.158 101.6 364.497 100.384C363.857 99.168 363.537 97.8027 363.537 96.288C363.537 94.752 363.857 93.376 364.497 92.16C365.158 90.944 366.043 89.984 367.153 89.28C368.283 88.576 369.574 88.224 371.025 88.224C372.134 88.224 373.126 88.448 374.001 88.896C374.897 89.344 375.611 89.9733 376.145 90.784C376.699 91.5733 376.998 92.4693 377.041 93.472V98.976C376.998 99.9787 376.71 100.885 376.177 101.696C375.643 102.507 374.929 103.147 374.033 103.616C373.137 104.085 372.134 104.32 371.025 104.32ZM371.729 100.448C372.518 100.448 373.201 100.277 373.777 99.936C374.374 99.5733 374.833 99.0827 375.153 98.464C375.494 97.824 375.665 97.088 375.665 96.256C375.665 95.4453 375.494 94.7307 375.153 94.112C374.833 93.472 374.374 92.9813 373.777 92.64C373.201 92.2773 372.529 92.096 371.761 92.096C370.971 92.096 370.278 92.2773 369.681 92.64C369.105 93.0027 368.646 93.4933 368.305 94.112C367.985 94.7307 367.825 95.4453 367.825 96.256C367.825 97.088 367.985 97.824 368.305 98.464C368.646 99.0827 369.115 99.5733 369.713 99.936C370.31 100.277 370.982 100.448 371.729 100.448ZM379.601 104H375.441V99.84L376.113 96.064L375.409 92.352V80.864H379.601V104ZM389.559 104V88.544H393.783V104H389.559ZM391.671 86.048C390.988 86.048 390.423 85.824 389.975 85.376C389.527 84.9067 389.303 84.3307 389.303 83.648C389.303 82.9867 389.527 82.4213 389.975 81.952C390.423 81.4827 390.988 81.248 391.671 81.248C392.375 81.248 392.94 81.4827 393.367 81.952C393.815 82.4213 394.039 82.9867 394.039 83.648C394.039 84.3307 393.815 84.9067 393.367 85.376C392.94 85.824 392.375 86.048 391.671 86.048ZM407.897 104V95.136C407.897 94.2187 407.609 93.472 407.033 92.896C406.457 92.32 405.71 92.032 404.793 92.032C404.195 92.032 403.662 92.16 403.193 92.416C402.723 92.672 402.35 93.0347 402.073 93.504C401.817 93.9733 401.689 94.5173 401.689 95.136L400.057 94.304C400.057 93.088 400.313 92.032 400.825 91.136C401.358 90.2187 402.083 89.504 403.001 88.992C403.939 88.48 404.995 88.224 406.169 88.224C407.299 88.224 408.313 88.512 409.209 89.088C410.105 89.6427 410.809 90.3787 411.321 91.296C411.833 92.192 412.089 93.1627 412.089 94.208V104H407.897ZM397.497 104V88.544H401.689V104H397.497ZM415.465 97.728V93.92H426.537V97.728H415.465ZM437.336 104.32C435.928 104.32 434.658 103.968 433.528 103.264C432.397 102.56 431.512 101.6 430.872 100.384C430.232 99.168 429.912 97.8027 429.912 96.288C429.912 94.752 430.232 93.376 430.872 92.16C431.512 90.944 432.397 89.984 433.528 89.28C434.658 88.576 435.928 88.224 437.336 88.224C438.445 88.224 439.437 88.448 440.312 88.896C441.186 89.344 441.88 89.9733 442.392 90.784C442.925 91.5733 443.213 92.4693 443.256 93.472V99.04C443.213 100.064 442.925 100.971 442.392 101.76C441.88 102.549 441.186 103.179 440.312 103.648C439.437 104.096 438.445 104.32 437.336 104.32ZM438.104 100.448C439.277 100.448 440.226 100.064 440.952 99.296C441.677 98.5067 442.04 97.4933 442.04 96.256C442.04 95.4453 441.869 94.7307 441.528 94.112C441.208 93.472 440.749 92.9813 440.152 92.64C439.576 92.2773 438.893 92.096 438.104 92.096C437.336 92.096 436.653 92.2773 436.056 92.64C435.48 92.9813 435.021 93.472 434.68 94.112C434.36 94.7307 434.2 95.4453 434.2 96.256C434.2 97.088 434.36 97.824 434.68 98.464C435.021 99.0827 435.48 99.5733 436.056 99.936C436.653 100.277 437.336 100.448 438.104 100.448ZM441.816 104V99.84L442.488 96.064L441.816 92.352V88.544H445.976V104H441.816ZM458.26 104.32C457.151 104.32 456.148 104.096 455.252 103.648C454.356 103.179 453.641 102.549 453.108 101.76C452.575 100.971 452.287 100.064 452.244 99.04V93.568C452.287 92.544 452.575 91.6373 453.108 90.848C453.663 90.0373 454.377 89.3973 455.252 88.928C456.148 88.4587 457.151 88.224 458.26 88.224C459.689 88.224 460.969 88.576 462.1 89.28C463.231 89.984 464.116 90.944 464.756 92.16C465.417 93.376 465.748 94.752 465.748 96.288C465.748 97.8027 465.417 99.168 464.756 100.384C464.116 101.6 463.231 102.56 462.1 103.264C460.969 103.968 459.689 104.32 458.26 104.32ZM457.524 100.448C458.292 100.448 458.975 100.277 459.572 99.936C460.169 99.5733 460.628 99.0827 460.948 98.464C461.289 97.824 461.46 97.088 461.46 96.256C461.46 95.4453 461.289 94.7307 460.948 94.112C460.628 93.472 460.169 92.9813 459.572 92.64C458.975 92.2773 458.292 92.096 457.524 92.096C456.777 92.096 456.105 92.2773 455.508 92.64C454.911 92.9813 454.441 93.472 454.1 94.112C453.78 94.7307 453.62 95.4453 453.62 96.256C453.62 97.088 453.78 97.824 454.1 98.464C454.441 99.0827 454.9 99.5733 455.476 99.936C456.073 100.277 456.756 100.448 457.524 100.448ZM449.684 110.464V88.544H453.876V92.608L453.172 96.352L453.844 100.096V110.464H449.684ZM477.073 104.32C475.963 104.32 474.961 104.096 474.065 103.648C473.169 103.179 472.454 102.549 471.921 101.76C471.387 100.971 471.099 100.064 471.057 99.04V93.568C471.099 92.544 471.387 91.6373 471.921 90.848C472.475 90.0373 473.19 89.3973 474.065 88.928C474.961 88.4587 475.963 88.224 477.073 88.224C478.502 88.224 479.782 88.576 480.913 89.28C482.043 89.984 482.929 90.944 483.569 92.16C484.23 93.376 484.561 94.752 484.561 96.288C484.561 97.8027 484.23 99.168 483.569 100.384C482.929 101.6 482.043 102.56 480.913 103.264C479.782 103.968 478.502 104.32 477.073 104.32ZM476.337 100.448C477.105 100.448 477.787 100.277 478.385 99.936C478.982 99.5733 479.441 99.0827 479.761 98.464C480.102 97.824 480.273 97.088 480.273 96.256C480.273 95.4453 480.102 94.7307 479.761 94.112C479.441 93.472 478.982 92.9813 478.385 92.64C477.787 92.2773 477.105 92.096 476.337 92.096C475.59 92.096 474.918 92.2773 474.321 92.64C473.723 92.9813 473.254 93.472 472.913 94.112C472.593 94.7307 472.433 95.4453 472.433 96.256C472.433 97.088 472.593 97.824 472.913 98.464C473.254 99.0827 473.713 99.5733 474.289 99.936C474.886 100.277 475.569 100.448 476.337 100.448ZM468.497 110.464V88.544H472.689V92.608L471.985 96.352L472.657 100.096V110.464H468.497ZM502.135 104.32C501.026 104.32 500.023 104.096 499.127 103.648C498.231 103.179 497.516 102.549 496.983 101.76C496.45 100.971 496.162 100.064 496.119 99.04V93.568C496.162 92.544 496.45 91.6373 496.983 90.848C497.538 90.0373 498.252 89.3973 499.127 88.928C500.023 88.4587 501.026 88.224 502.135 88.224C503.564 88.224 504.844 88.576 505.975 89.28C507.106 89.984 507.991 90.944 508.631 92.16C509.292 93.376 509.623 94.752 509.623 96.288C509.623 97.8027 509.292 99.168 508.631 100.384C507.991 101.6 507.106 102.56 505.975 103.264C504.844 103.968 503.564 104.32 502.135 104.32ZM501.399 100.448C502.167 100.448 502.85 100.277 503.447 99.936C504.044 99.5733 504.503 99.0827 504.823 98.464C505.164 97.824 505.335 97.088 505.335 96.256C505.335 95.4453 505.164 94.7307 504.823 94.112C504.503 93.472 504.044 92.9813 503.447 92.64C502.85 92.2773 502.167 92.096 501.399 92.096C500.652 92.096 499.98 92.2773 499.383 92.64C498.786 92.9813 498.316 93.472 497.975 94.112C497.655 94.7307 497.495 95.4453 497.495 96.256C497.495 97.088 497.655 97.824 497.975 98.464C498.316 99.0827 498.775 99.5733 499.351 99.936C499.948 100.277 500.631 100.448 501.399 100.448ZM493.559 110.464V88.544H497.751V92.608L497.047 96.352L497.719 100.096V110.464H493.559ZM519.764 104.32C518.142 104.32 516.702 103.979 515.444 103.296C514.185 102.592 513.182 101.632 512.436 100.416C511.71 99.2 511.348 97.8133 511.348 96.256C511.348 94.72 511.7 93.3547 512.404 92.16C513.129 90.944 514.11 89.984 515.348 89.28C516.585 88.5547 517.961 88.192 519.476 88.192C520.969 88.192 522.281 88.5333 523.412 89.216C524.564 89.8773 525.46 90.7947 526.1 91.968C526.761 93.12 527.092 94.432 527.092 95.904C527.092 96.1813 527.07 96.4693 527.028 96.768C527.006 97.0453 526.953 97.3653 526.868 97.728L513.876 97.76V94.624L524.916 94.592L523.22 95.904C523.177 94.9867 523.006 94.2187 522.708 93.6C522.43 92.9813 522.014 92.512 521.46 92.192C520.926 91.8507 520.265 91.68 519.476 91.68C518.644 91.68 517.918 91.872 517.3 92.256C516.681 92.6187 516.201 93.1413 515.86 93.824C515.54 94.4853 515.38 95.2747 515.38 96.192C515.38 97.1307 515.55 97.952 515.892 98.656C516.254 99.3387 516.766 99.872 517.428 100.256C518.089 100.619 518.857 100.8 519.732 100.8C520.521 100.8 521.236 100.672 521.876 100.416C522.516 100.139 523.07 99.7333 523.54 99.2L526.004 101.664C525.257 102.539 524.34 103.2 523.252 103.648C522.185 104.096 521.022 104.32 519.764 104.32ZM529.684 104V88.544H533.876V104H529.684ZM533.876 95.456L532.244 94.368C532.436 92.4693 532.991 90.976 533.908 89.888C534.825 88.7787 536.148 88.224 537.876 88.224C538.623 88.224 539.295 88.352 539.892 88.608C540.489 88.8427 541.033 89.2373 541.524 89.792L538.9 92.8C538.665 92.544 538.377 92.352 538.036 92.224C537.716 92.096 537.343 92.032 536.916 92.032C536.02 92.032 535.284 92.32 534.708 92.896C534.153 93.4507 533.876 94.304 533.876 95.456ZM552.853 104L546.869 96.032L552.821 88.544H557.653L550.677 96.992L550.837 94.944L557.973 104H552.853ZM542.997 104V80.864H547.189V104H542.997ZM564.309 104.352C563.434 104.352 562.57 104.235 561.717 104C560.885 103.765 560.117 103.445 559.413 103.04C558.709 102.613 558.101 102.101 557.589 101.504L560.085 98.976C560.618 99.5733 561.237 100.021 561.941 100.32C562.645 100.619 563.423 100.768 564.277 100.768C564.959 100.768 565.471 100.672 565.813 100.48C566.175 100.288 566.357 100 566.357 99.616C566.357 99.1893 566.165 98.8587 565.781 98.624C565.418 98.3893 564.938 98.1973 564.341 98.048C563.743 97.8773 563.114 97.696 562.453 97.504C561.813 97.2907 561.194 97.024 560.597 96.704C559.999 96.3627 559.509 95.904 559.125 95.328C558.762 94.7307 558.581 93.9627 558.581 93.024C558.581 92.0427 558.815 91.1893 559.285 90.464C559.775 89.7387 560.469 89.1733 561.365 88.768C562.261 88.3627 563.317 88.16 564.533 88.16C565.813 88.16 566.965 88.384 567.989 88.832C569.034 89.28 569.898 89.952 570.581 90.848L568.053 93.376C567.583 92.8 567.05 92.384 566.453 92.128C565.877 91.872 565.247 91.744 564.565 91.744C563.946 91.744 563.466 91.84 563.125 92.032C562.805 92.224 562.645 92.4907 562.645 92.832C562.645 93.216 562.826 93.5147 563.189 93.728C563.573 93.9413 564.063 94.1333 564.661 94.304C565.258 94.4533 565.877 94.6347 566.517 94.848C567.178 95.04 567.797 95.3173 568.373 95.68C568.97 96.0427 569.45 96.5227 569.813 97.12C570.197 97.7173 570.389 98.4853 570.389 99.424C570.389 100.939 569.845 102.144 568.757 103.04C567.669 103.915 566.186 104.352 564.309 104.352ZM574.047 96.16L573.407 80.864H577.887L577.247 96.16H574.047ZM575.647 104.32C574.879 104.32 574.25 104.064 573.759 103.552C573.269 103.04 573.023 102.411 573.023 101.664C573.023 100.917 573.269 100.288 573.759 99.776C574.25 99.264 574.879 99.008 575.647 99.008C576.415 99.008 577.045 99.264 577.535 99.776C578.026 100.288 578.271 100.917 578.271 101.664C578.271 102.411 578.026 103.04 577.535 103.552C577.045 104.064 576.415 104.32 575.647 104.32Z" fill="white"/>
</svg>
