<svg width="693" height="71" viewBox="0 0 693 71" fill="none" xmlns="http://www.w3.org/2000/svg">
<path d="M2.69438 24V20.64H8.58238C10.1184 20.64 11.4624 20.3093 12.6144 19.648C13.7877 18.9867 14.6944 18.0693 15.3344 16.896C15.9957 15.7013 16.3264 14.3253 16.3264 12.768C16.3264 11.232 15.9957 9.87733 15.3344 8.704C14.673 7.53067 13.7557 6.61333 12.5824 5.952C11.4304 5.29067 10.097 4.96 8.58238 4.96H2.69438V1.6H8.67838C10.2997 1.6 11.8037 1.888 13.1904 2.464C14.577 3.01867 15.7824 3.808 16.8064 4.832C17.8517 5.83467 18.6624 7.01867 19.2384 8.384C19.8144 9.728 20.1024 11.2 20.1024 12.8C20.1024 14.3787 19.8144 15.8507 19.2384 17.216C18.6624 18.5813 17.8624 19.776 16.8384 20.8C15.8144 21.8027 14.609 22.592 13.2224 23.168C11.8357 23.7227 10.3424 24 8.74238 24H2.69438ZM0.166375 24V1.6H3.84638V24H0.166375ZM23.4059 24V8.64H26.9259V24H23.4059ZM25.1659 5.824C24.5685 5.824 24.0672 5.62133 23.6619 5.216C23.2779 4.81067 23.0859 4.30933 23.0859 3.712C23.0859 3.11467 23.2779 2.61333 23.6619 2.208C24.0672 1.80267 24.5685 1.6 25.1659 1.6C25.7845 1.6 26.2859 1.80267 26.6699 2.208C27.0539 2.61333 27.2459 3.11467 27.2459 3.712C27.2459 4.30933 27.0539 4.81067 26.6699 5.216C26.2859 5.62133 25.7845 5.824 25.1659 5.824ZM35.8979 24.32C35.0445 24.32 34.2232 24.2133 33.4339 24C32.6445 23.7653 31.9192 23.4453 31.2579 23.04C30.5965 22.6133 30.0205 22.1013 29.5299 21.504L31.7699 19.264C32.3032 19.8827 32.9112 20.352 33.5939 20.672C34.2979 20.9707 35.0872 21.12 35.9619 21.12C36.7512 21.12 37.3485 21.0027 37.7539 20.768C38.1592 20.5333 38.3619 20.192 38.3619 19.744C38.3619 19.2747 38.1699 18.912 37.7859 18.656C37.4019 18.4 36.9005 18.1867 36.2819 18.016C35.6845 17.824 35.0445 17.632 34.3619 17.44C33.7005 17.248 33.0605 16.992 32.4419 16.672C31.8445 16.3307 31.3539 15.872 30.9699 15.296C30.5859 14.72 30.3939 13.9733 30.3939 13.056C30.3939 12.0747 30.6179 11.232 31.0659 10.528C31.5352 9.824 32.1859 9.28 33.0179 8.896C33.8712 8.512 34.8845 8.32 36.0579 8.32C37.2952 8.32 38.3832 8.544 39.3219 8.992C40.2819 9.41867 41.0819 10.0693 41.7219 10.944L39.4819 13.184C39.0339 12.6293 38.5219 12.2133 37.9459 11.936C37.3699 11.6587 36.7085 11.52 35.9619 11.52C35.2579 11.52 34.7139 11.6267 34.3299 11.84C33.9459 12.0533 33.7539 12.3627 33.7539 12.768C33.7539 13.1947 33.9459 13.5253 34.3299 13.76C34.7139 13.9947 35.2045 14.1973 35.8019 14.368C36.4205 14.5387 37.0605 14.7307 37.7219 14.944C38.4045 15.136 39.0445 15.4133 39.6419 15.776C40.2605 16.1173 40.7619 16.5867 41.1459 17.184C41.5299 17.76 41.7219 18.5173 41.7219 19.456C41.7219 20.9493 41.1992 22.1333 40.1539 23.008C39.1085 23.8827 37.6899 24.32 35.8979 24.32ZM51.6959 24.32C50.1812 24.32 48.8052 23.968 47.5679 23.264C46.3519 22.56 45.3919 21.6 44.6879 20.384C43.9839 19.168 43.6319 17.8133 43.6319 16.32C43.6319 14.8053 43.9839 13.4507 44.6879 12.256C45.3919 11.04 46.3519 10.08 47.5679 9.376C48.8052 8.672 50.1812 8.32 51.6959 8.32C52.8905 8.32 53.9999 8.55467 55.0239 9.024C56.0692 9.472 56.9545 10.1227 57.6799 10.976L55.3759 13.312C54.9279 12.7787 54.3839 12.384 53.7439 12.128C53.1252 11.8507 52.4425 11.712 51.6959 11.712C50.8212 11.712 50.0425 11.9147 49.3599 12.32C48.6985 12.704 48.1759 13.2373 47.7919 13.92C47.4292 14.6027 47.2479 15.4027 47.2479 16.32C47.2479 17.216 47.4292 18.016 47.7919 18.72C48.1759 19.4027 48.6985 19.9467 49.3599 20.352C50.0425 20.736 50.8212 20.928 51.6959 20.928C52.4425 20.928 53.1252 20.8 53.7439 20.544C54.3839 20.2667 54.9279 19.8613 55.3759 19.328L57.6799 21.664C56.9545 22.5173 56.0692 23.1787 55.0239 23.648C53.9999 24.096 52.8905 24.32 51.6959 24.32ZM66.9451 24.32C65.4518 24.32 64.0971 23.968 62.8811 23.264C61.6651 22.5387 60.6945 21.568 59.9691 20.352C59.2651 19.136 58.9131 17.7813 58.9131 16.288C58.9131 14.7947 59.2651 13.4507 59.9691 12.256C60.6945 11.0613 61.6651 10.112 62.8811 9.408C64.0971 8.68267 65.4518 8.32 66.9451 8.32C68.4598 8.32 69.8251 8.672 71.0411 9.376C72.2571 10.08 73.2171 11.04 73.9211 12.256C74.6465 13.4507 75.0091 14.7947 75.0091 16.288C75.0091 17.7813 74.6465 19.136 73.9211 20.352C73.2171 21.568 72.2571 22.5387 71.0411 23.264C69.8251 23.968 68.4598 24.32 66.9451 24.32ZM66.9451 20.928C67.8198 20.928 68.5878 20.736 69.2491 20.352C69.9318 19.9467 70.4545 19.392 70.8171 18.688C71.2011 17.984 71.3931 17.184 71.3931 16.288C71.3931 15.392 71.2011 14.6027 70.8171 13.92C70.4331 13.2373 69.9105 12.704 69.2491 12.32C68.5878 11.9147 67.8198 11.712 66.9451 11.712C66.0918 11.712 65.3238 11.9147 64.6411 12.32C63.9798 12.704 63.4571 13.2373 63.0731 13.92C62.7105 14.6027 62.5291 15.392 62.5291 16.288C62.5291 17.184 62.7105 17.984 63.0731 18.688C63.4571 19.392 63.9798 19.9467 64.6411 20.352C65.3238 20.736 66.0918 20.928 66.9451 20.928ZM82.5891 24L75.5811 8.64H79.4851L84.8291 21.152H82.5251L87.9011 8.64H91.6451L84.6371 24H82.5891ZM100.322 24.32C98.7864 24.32 97.3997 23.9787 96.1624 23.296C94.9464 22.592 93.9757 21.632 93.2504 20.416C92.5464 19.2 92.1944 17.8347 92.1944 16.32C92.1944 14.8053 92.5464 13.4507 93.2504 12.256C93.9544 11.04 94.9037 10.08 96.0984 9.376C97.3144 8.672 98.6584 8.32 100.13 8.32C101.56 8.32 102.818 8.65067 103.906 9.312C105.016 9.97333 105.88 10.88 106.498 12.032C107.138 13.184 107.458 14.496 107.458 15.968C107.458 16.224 107.437 16.4907 107.394 16.768C107.373 17.024 107.33 17.312 107.266 17.632H94.6584V14.752H105.442L104.13 15.904C104.088 14.9653 103.906 14.176 103.586 13.536C103.266 12.896 102.808 12.4053 102.21 12.064C101.634 11.7227 100.92 11.552 100.066 11.552C99.1704 11.552 98.3917 11.744 97.7304 12.128C97.069 12.512 96.557 13.056 96.1944 13.76C95.8317 14.4427 95.6504 15.264 95.6504 16.224C95.6504 17.184 95.8424 18.0267 96.2264 18.752C96.6104 19.4773 97.1544 20.0427 97.8584 20.448C98.5624 20.832 99.373 21.024 100.29 21.024C101.08 21.024 101.805 20.8853 102.466 20.608C103.149 20.3307 103.725 19.9253 104.194 19.392L106.434 21.664C105.688 22.5387 104.781 23.2 103.714 23.648C102.648 24.096 101.517 24.32 100.322 24.32ZM110.28 24V8.64H113.8V24H110.28ZM113.8 15.456L112.584 14.848C112.584 12.9067 113.011 11.3387 113.864 10.144C114.739 8.928 116.051 8.32 117.8 8.32C118.568 8.32 119.261 8.45867 119.88 8.736C120.499 9.01333 121.075 9.46133 121.608 10.08L119.304 12.448C119.027 12.1493 118.717 11.936 118.376 11.808C118.035 11.68 117.64 11.616 117.192 11.616C116.211 11.616 115.4 11.9253 114.76 12.544C114.12 13.1627 113.8 14.1333 113.8 15.456ZM140.808 24V15.136C140.808 14.112 140.477 13.2693 139.816 12.608C139.176 11.9467 138.344 11.616 137.32 11.616C136.637 11.616 136.029 11.7653 135.496 12.064C134.963 12.3627 134.547 12.7787 134.248 13.312C133.949 13.8453 133.8 14.4533 133.8 15.136L132.424 14.368C132.424 13.1947 132.68 12.16 133.192 11.264C133.704 10.3467 134.408 9.632 135.304 9.12C136.221 8.58667 137.245 8.32 138.376 8.32C139.528 8.32 140.552 8.61867 141.448 9.216C142.344 9.792 143.048 10.5493 143.56 11.488C144.072 12.4053 144.328 13.3653 144.328 14.368V24H140.808ZM130.28 24V8.64H133.8V24H130.28ZM155.041 24.32C153.505 24.32 152.118 23.9787 150.881 23.296C149.665 22.592 148.694 21.632 147.969 20.416C147.265 19.2 146.913 17.8347 146.913 16.32C146.913 14.8053 147.265 13.4507 147.969 12.256C148.673 11.04 149.622 10.08 150.817 9.376C152.033 8.672 153.377 8.32 154.849 8.32C156.278 8.32 157.537 8.65067 158.625 9.312C159.734 9.97333 160.598 10.88 161.217 12.032C161.857 13.184 162.177 14.496 162.177 15.968C162.177 16.224 162.156 16.4907 162.113 16.768C162.092 17.024 162.049 17.312 161.985 17.632H149.377V14.752H160.161L158.849 15.904C158.806 14.9653 158.625 14.176 158.305 13.536C157.985 12.896 157.526 12.4053 156.929 12.064C156.353 11.7227 155.638 11.552 154.785 11.552C153.889 11.552 153.11 11.744 152.449 12.128C151.788 12.512 151.276 13.056 150.913 13.76C150.55 14.4427 150.369 15.264 150.369 16.224C150.369 17.184 150.561 18.0267 150.945 18.752C151.329 19.4773 151.873 20.0427 152.577 20.448C153.281 20.832 154.092 21.024 155.009 21.024C155.798 21.024 156.524 20.8853 157.185 20.608C157.868 20.3307 158.444 19.9253 158.913 19.392L161.153 21.664C160.406 22.5387 159.5 23.2 158.433 23.648C157.366 24.096 156.236 24.32 155.041 24.32ZM169.291 24L163.115 8.64H166.763L170.923 19.808L169.835 19.84L173.899 8.64H175.947L180.011 19.84L178.923 19.808L183.083 8.64H186.731L180.555 24H178.507L174.347 13.376H175.499L171.339 24H169.291ZM197.455 24V6.624C197.455 5.45067 197.711 4.416 198.223 3.52C198.756 2.624 199.481 1.92 200.399 1.408C201.337 0.895999 202.415 0.639999 203.631 0.639999C204.569 0.639999 205.369 0.799999 206.031 1.12C206.692 1.44 207.311 1.89867 207.887 2.496L205.615 4.768C205.359 4.512 205.081 4.30933 204.783 4.16C204.484 4.01067 204.1 3.936 203.631 3.936C202.777 3.936 202.116 4.17067 201.647 4.64C201.199 5.088 200.975 5.73867 200.975 6.592V24H197.455ZM193.775 11.84V8.64H205.615V11.84H193.775ZM207.686 24V8.64H211.206V24H207.686ZM211.206 15.456L209.99 14.848C209.99 12.9067 210.417 11.3387 211.27 10.144C212.145 8.928 213.457 8.32 215.206 8.32C215.974 8.32 216.668 8.45867 217.286 8.736C217.905 9.01333 218.481 9.46133 219.014 10.08L216.71 12.448C216.433 12.1493 216.124 11.936 215.782 11.808C215.441 11.68 215.046 11.616 214.598 11.616C213.617 11.616 212.806 11.9253 212.166 12.544C211.526 13.1627 211.206 14.1333 211.206 15.456ZM220.75 24V8.64H224.27V24H220.75ZM222.51 5.824C221.912 5.824 221.411 5.62133 221.006 5.216C220.622 4.81067 220.43 4.30933 220.43 3.712C220.43 3.11467 220.622 2.61333 221.006 2.208C221.411 1.80267 221.912 1.6 222.51 1.6C223.128 1.6 223.63 1.80267 224.014 2.208C224.398 2.61333 224.59 3.11467 224.59 3.712C224.59 4.30933 224.398 4.81067 224.014 5.216C223.63 5.62133 223.128 5.824 222.51 5.824ZM235.354 24.32C233.818 24.32 232.431 23.9787 231.194 23.296C229.978 22.592 229.007 21.632 228.282 20.416C227.578 19.2 227.226 17.8347 227.226 16.32C227.226 14.8053 227.578 13.4507 228.282 12.256C228.986 11.04 229.935 10.08 231.13 9.376C232.346 8.672 233.69 8.32 235.162 8.32C236.591 8.32 237.85 8.65067 238.938 9.312C240.047 9.97333 240.911 10.88 241.53 12.032C242.17 13.184 242.49 14.496 242.49 15.968C242.49 16.224 242.468 16.4907 242.426 16.768C242.404 17.024 242.362 17.312 242.298 17.632H229.69V14.752H240.474L239.162 15.904C239.119 14.9653 238.938 14.176 238.618 13.536C238.298 12.896 237.839 12.4053 237.242 12.064C236.666 11.7227 235.951 11.552 235.098 11.552C234.202 11.552 233.423 11.744 232.762 12.128C232.1 12.512 231.588 13.056 231.226 13.76C230.863 14.4427 230.682 15.264 230.682 16.224C230.682 17.184 230.874 18.0267 231.258 18.752C231.642 19.4773 232.186 20.0427 232.89 20.448C233.594 20.832 234.404 21.024 235.322 21.024C236.111 21.024 236.836 20.8853 237.498 20.608C238.18 20.3307 238.756 19.9253 239.226 19.392L241.466 21.664C240.719 22.5387 239.812 23.2 238.746 23.648C237.679 24.096 236.548 24.32 235.354 24.32ZM255.839 24V15.136C255.839 14.112 255.509 13.2693 254.847 12.608C254.207 11.9467 253.375 11.616 252.351 11.616C251.669 11.616 251.061 11.7653 250.527 12.064C249.994 12.3627 249.578 12.7787 249.279 13.312C248.981 13.8453 248.831 14.4533 248.831 15.136L247.455 14.368C247.455 13.1947 247.711 12.16 248.223 11.264C248.735 10.3467 249.439 9.632 250.335 9.12C251.253 8.58667 252.277 8.32 253.407 8.32C254.559 8.32 255.583 8.61867 256.479 9.216C257.375 9.792 258.079 10.5493 258.591 11.488C259.103 12.4053 259.359 13.3653 259.359 14.368V24H255.839ZM245.311 24V8.64H248.831V24H245.311ZM269.368 24.32C267.982 24.32 266.723 23.968 265.592 23.264C264.483 22.56 263.598 21.6107 262.936 20.416C262.296 19.2 261.976 17.8453 261.976 16.352C261.976 14.8373 262.296 13.4827 262.936 12.288C263.598 11.072 264.483 10.112 265.592 9.408C266.723 8.68267 267.982 8.32 269.368 8.32C270.542 8.32 271.576 8.576 272.472 9.088C273.39 9.57867 274.115 10.2613 274.648 11.136C275.182 12.0107 275.448 13.0027 275.448 14.112V18.528C275.448 19.6373 275.182 20.6293 274.648 21.504C274.136 22.3787 273.422 23.072 272.504 23.584C271.587 24.0747 270.542 24.32 269.368 24.32ZM269.944 20.992C270.819 20.992 271.576 20.8 272.216 20.416C272.878 20.0107 273.39 19.456 273.752 18.752C274.115 18.048 274.296 17.2373 274.296 16.32C274.296 15.4027 274.115 14.592 273.752 13.888C273.39 13.184 272.878 12.64 272.216 12.256C271.576 11.8507 270.819 11.648 269.944 11.648C269.091 11.648 268.334 11.8507 267.672 12.256C267.032 12.64 266.52 13.184 266.136 13.888C265.774 14.592 265.592 15.4027 265.592 16.32C265.592 17.2373 265.774 18.048 266.136 18.752C266.52 19.456 267.032 20.0107 267.672 20.416C268.334 20.8 269.091 20.992 269.944 20.992ZM277.592 24H274.072V19.872L274.68 16.128L274.072 12.416V0.959999H277.592V24ZM286.523 24.32C285.67 24.32 284.848 24.2133 284.059 24C283.27 23.7653 282.544 23.4453 281.883 23.04C281.222 22.6133 280.646 22.1013 280.155 21.504L282.395 19.264C282.928 19.8827 283.536 20.352 284.219 20.672C284.923 20.9707 285.712 21.12 286.587 21.12C287.376 21.12 287.974 21.0027 288.379 20.768C288.784 20.5333 288.987 20.192 288.987 19.744C288.987 19.2747 288.795 18.912 288.411 18.656C288.027 18.4 287.526 18.1867 286.907 18.016C286.31 17.824 285.67 17.632 284.987 17.44C284.326 17.248 283.686 16.992 283.067 16.672C282.47 16.3307 281.979 15.872 281.595 15.296C281.211 14.72 281.019 13.9733 281.019 13.056C281.019 12.0747 281.243 11.232 281.691 10.528C282.16 9.824 282.811 9.28 283.643 8.896C284.496 8.512 285.51 8.32 286.683 8.32C287.92 8.32 289.008 8.544 289.947 8.992C290.907 9.41867 291.707 10.0693 292.347 10.944L290.107 13.184C289.659 12.6293 289.147 12.2133 288.571 11.936C287.995 11.6587 287.334 11.52 286.587 11.52C285.883 11.52 285.339 11.6267 284.955 11.84C284.571 12.0533 284.379 12.3627 284.379 12.768C284.379 13.1947 284.571 13.5253 284.955 13.76C285.339 13.9947 285.83 14.1973 286.427 14.368C287.046 14.5387 287.686 14.7307 288.347 14.944C289.03 15.136 289.67 15.4133 290.267 15.776C290.886 16.1173 291.387 16.5867 291.771 17.184C292.155 17.76 292.347 18.5173 292.347 19.456C292.347 20.9493 291.824 22.1333 290.779 23.008C289.734 23.8827 288.315 24.32 286.523 24.32ZM295.249 27.744L297.425 23.68L298.609 23.36C298.481 23.616 298.332 23.8293 298.161 24C297.99 24.1707 297.788 24.256 297.553 24.256C297.062 24.256 296.604 24.0533 296.177 23.648C295.772 23.2213 295.569 22.688 295.569 22.048C295.569 21.3653 295.793 20.7893 296.241 20.32C296.71 19.8293 297.286 19.584 297.969 19.584C298.609 19.584 299.164 19.8293 299.633 20.32C300.124 20.7893 300.369 21.3653 300.369 22.048C300.369 22.3253 300.305 22.656 300.177 23.04C300.07 23.4027 299.868 23.872 299.569 24.448L297.201 28.8L295.249 27.744ZM317.571 24.32C316.056 24.32 314.68 23.968 313.443 23.264C312.227 22.56 311.267 21.6 310.563 20.384C309.859 19.168 309.507 17.8133 309.507 16.32C309.507 14.8053 309.859 13.4507 310.563 12.256C311.267 11.04 312.227 10.08 313.443 9.376C314.68 8.672 316.056 8.32 317.571 8.32C318.766 8.32 319.875 8.55467 320.899 9.024C321.944 9.472 322.83 10.1227 323.555 10.976L321.251 13.312C320.803 12.7787 320.259 12.384 319.619 12.128C319 11.8507 318.318 11.712 317.571 11.712C316.696 11.712 315.918 11.9147 315.235 12.32C314.574 12.704 314.051 13.2373 313.667 13.92C313.304 14.6027 313.123 15.4027 313.123 16.32C313.123 17.216 313.304 18.016 313.667 18.72C314.051 19.4027 314.574 19.9467 315.235 20.352C315.918 20.736 316.696 20.928 317.571 20.928C318.318 20.928 319 20.8 319.619 20.544C320.259 20.2667 320.803 19.8613 321.251 19.328L323.555 21.664C322.83 22.5173 321.944 23.1787 320.899 23.648C319.875 24.096 318.766 24.32 317.571 24.32ZM332.82 24.32C331.327 24.32 329.972 23.968 328.756 23.264C327.54 22.5387 326.569 21.568 325.844 20.352C325.14 19.136 324.788 17.7813 324.788 16.288C324.788 14.7947 325.14 13.4507 325.844 12.256C326.569 11.0613 327.54 10.112 328.756 9.408C329.972 8.68267 331.327 8.32 332.82 8.32C334.335 8.32 335.7 8.672 336.916 9.376C338.132 10.08 339.092 11.04 339.796 12.256C340.521 13.4507 340.884 14.7947 340.884 16.288C340.884 17.7813 340.521 19.136 339.796 20.352C339.092 21.568 338.132 22.5387 336.916 23.264C335.7 23.968 334.335 24.32 332.82 24.32ZM332.82 20.928C333.695 20.928 334.463 20.736 335.124 20.352C335.807 19.9467 336.329 19.392 336.692 18.688C337.076 17.984 337.268 17.184 337.268 16.288C337.268 15.392 337.076 14.6027 336.692 13.92C336.308 13.2373 335.785 12.704 335.124 12.32C334.463 11.9147 333.695 11.712 332.82 11.712C331.967 11.712 331.199 11.9147 330.516 12.32C329.855 12.704 329.332 13.2373 328.948 13.92C328.585 14.6027 328.404 15.392 328.404 16.288C328.404 17.184 328.585 17.984 328.948 18.688C329.332 19.392 329.855 19.9467 330.516 20.352C331.199 20.736 331.967 20.928 332.82 20.928ZM343.811 24V8.64H347.331V24H343.811ZM354.019 24V14.848C354.019 13.824 353.699 13.0347 353.059 12.48C352.419 11.904 351.63 11.616 350.691 11.616C350.051 11.616 349.475 11.744 348.963 12C348.473 12.256 348.078 12.6293 347.779 13.12C347.481 13.5893 347.331 14.1653 347.331 14.848L345.955 14.08C345.955 12.9067 346.211 11.8933 346.723 11.04C347.235 10.1867 347.929 9.52533 348.803 9.056C349.678 8.56533 350.659 8.32 351.747 8.32C352.835 8.32 353.817 8.55467 354.691 9.024C355.566 9.49333 356.259 10.1547 356.771 11.008C357.283 11.8613 357.539 12.8853 357.539 14.08V24H354.019ZM364.227 24V14.848C364.227 13.824 363.907 13.0347 363.267 12.48C362.627 11.904 361.838 11.616 360.899 11.616C360.281 11.616 359.715 11.744 359.203 12C358.691 12.256 358.286 12.6293 357.987 13.12C357.689 13.5893 357.539 14.1653 357.539 14.848L355.555 14.08C355.662 12.9067 356.003 11.8933 356.579 11.04C357.155 10.1867 357.891 9.52533 358.787 9.056C359.705 8.56533 360.707 8.32 361.795 8.32C362.905 8.32 363.907 8.55467 364.803 9.024C365.699 9.49333 366.414 10.1547 366.947 11.008C367.481 11.8613 367.747 12.8853 367.747 14.08V24H364.227ZM371.374 24V8.64H374.894V24H371.374ZM381.582 24V14.848C381.582 13.824 381.262 13.0347 380.622 12.48C379.982 11.904 379.193 11.616 378.254 11.616C377.614 11.616 377.038 11.744 376.526 12C376.035 12.256 375.641 12.6293 375.342 13.12C375.043 13.5893 374.894 14.1653 374.894 14.848L373.518 14.08C373.518 12.9067 373.774 11.8933 374.286 11.04C374.798 10.1867 375.491 9.52533 376.366 9.056C377.241 8.56533 378.222 8.32 379.31 8.32C380.398 8.32 381.379 8.55467 382.254 9.024C383.129 9.49333 383.822 10.1547 384.334 11.008C384.846 11.8613 385.102 12.8853 385.102 14.08V24H381.582ZM391.79 24V14.848C391.79 13.824 391.47 13.0347 390.83 12.48C390.19 11.904 389.401 11.616 388.462 11.616C387.843 11.616 387.278 11.744 386.766 12C386.254 12.256 385.849 12.6293 385.55 13.12C385.251 13.5893 385.102 14.1653 385.102 14.848L383.118 14.08C383.225 12.9067 383.566 11.8933 384.142 11.04C384.718 10.1867 385.454 9.52533 386.35 9.056C387.267 8.56533 388.27 8.32 389.358 8.32C390.467 8.32 391.47 8.55467 392.366 9.024C393.262 9.49333 393.977 10.1547 394.51 11.008C395.043 11.8613 395.31 12.8853 395.31 14.08V24H391.79ZM405.24 24.32C403.939 24.32 402.776 24.032 401.752 23.456C400.75 22.88 399.96 22.0907 399.384 21.088C398.83 20.064 398.552 18.8907 398.552 17.568V8.64H402.072V17.408C402.072 18.1547 402.19 18.7947 402.424 19.328C402.68 19.84 403.043 20.2347 403.512 20.512C404.003 20.7893 404.579 20.928 405.24 20.928C406.264 20.928 407.043 20.6293 407.576 20.032C408.131 19.4133 408.408 18.5387 408.408 17.408V8.64H411.928V17.568C411.928 18.912 411.64 20.096 411.064 21.12C410.51 22.1227 409.731 22.912 408.728 23.488C407.726 24.0427 406.563 24.32 405.24 24.32ZM425.996 24V15.136C425.996 14.112 425.665 13.2693 425.004 12.608C424.364 11.9467 423.532 11.616 422.508 11.616C421.825 11.616 421.217 11.7653 420.684 12.064C420.15 12.3627 419.734 12.7787 419.436 13.312C419.137 13.8453 418.988 14.4533 418.988 15.136L417.612 14.368C417.612 13.1947 417.868 12.16 418.38 11.264C418.892 10.3467 419.596 9.632 420.492 9.12C421.409 8.58667 422.433 8.32 423.564 8.32C424.716 8.32 425.74 8.61867 426.636 9.216C427.532 9.792 428.236 10.5493 428.748 11.488C429.26 12.4053 429.516 13.3653 429.516 14.368V24H425.996ZM415.468 24V8.64H418.988V24H415.468ZM433.125 24V8.64H436.645V24H433.125ZM434.885 5.824C434.287 5.824 433.786 5.62133 433.381 5.216C432.997 4.81067 432.805 4.30933 432.805 3.712C432.805 3.11467 432.997 2.61333 433.381 2.208C433.786 1.80267 434.287 1.6 434.885 1.6C435.503 1.6 436.005 1.80267 436.389 2.208C436.773 2.61333 436.965 3.11467 436.965 3.712C436.965 4.30933 436.773 4.81067 436.389 5.216C436.005 5.62133 435.503 5.824 434.885 5.824ZM442.929 24V2.24H446.449V24H442.929ZM439.249 11.84V8.64H450.129V11.84H439.249ZM452.718 24V8.64H456.238V24H452.718ZM454.478 5.824C453.881 5.824 453.38 5.62133 452.974 5.216C452.59 4.81067 452.398 4.30933 452.398 3.712C452.398 3.11467 452.59 2.61333 452.974 2.208C453.38 1.80267 453.881 1.6 454.478 1.6C455.097 1.6 455.598 1.80267 455.982 2.208C456.366 2.61333 456.558 3.11467 456.558 3.712C456.558 4.30933 456.366 4.81067 455.982 5.216C455.598 5.62133 455.097 5.824 454.478 5.824ZM467.322 24.32C465.786 24.32 464.4 23.9787 463.162 23.296C461.946 22.592 460.976 21.632 460.25 20.416C459.546 19.2 459.194 17.8347 459.194 16.32C459.194 14.8053 459.546 13.4507 460.25 12.256C460.954 11.04 461.904 10.08 463.098 9.376C464.314 8.672 465.658 8.32 467.13 8.32C468.56 8.32 469.818 8.65067 470.906 9.312C472.016 9.97333 472.88 10.88 473.498 12.032C474.138 13.184 474.458 14.496 474.458 15.968C474.458 16.224 474.437 16.4907 474.394 16.768C474.373 17.024 474.33 17.312 474.266 17.632H461.658V14.752H472.442L471.13 15.904C471.088 14.9653 470.906 14.176 470.586 13.536C470.266 12.896 469.808 12.4053 469.21 12.064C468.634 11.7227 467.92 11.552 467.066 11.552C466.17 11.552 465.392 11.744 464.73 12.128C464.069 12.512 463.557 13.056 463.194 13.76C462.832 14.4427 462.65 15.264 462.65 16.224C462.65 17.184 462.842 18.0267 463.226 18.752C463.61 19.4773 464.154 20.0427 464.858 20.448C465.562 20.832 466.373 21.024 467.29 21.024C468.08 21.024 468.805 20.8853 469.466 20.608C470.149 20.3307 470.725 19.9253 471.194 19.392L473.434 21.664C472.688 22.5387 471.781 23.2 470.714 23.648C469.648 24.096 468.517 24.32 467.322 24.32ZM482.304 24.32C481.451 24.32 480.629 24.2133 479.84 24C479.051 23.7653 478.325 23.4453 477.664 23.04C477.003 22.6133 476.427 22.1013 475.936 21.504L478.176 19.264C478.709 19.8827 479.317 20.352 480 20.672C480.704 20.9707 481.493 21.12 482.368 21.12C483.157 21.12 483.755 21.0027 484.16 20.768C484.565 20.5333 484.768 20.192 484.768 19.744C484.768 19.2747 484.576 18.912 484.192 18.656C483.808 18.4 483.307 18.1867 482.688 18.016C482.091 17.824 481.451 17.632 480.768 17.44C480.107 17.248 479.467 16.992 478.848 16.672C478.251 16.3307 477.76 15.872 477.376 15.296C476.992 14.72 476.8 13.9733 476.8 13.056C476.8 12.0747 477.024 11.232 477.472 10.528C477.941 9.824 478.592 9.28 479.424 8.896C480.277 8.512 481.291 8.32 482.464 8.32C483.701 8.32 484.789 8.544 485.728 8.992C486.688 9.41867 487.488 10.0693 488.128 10.944L485.888 13.184C485.44 12.6293 484.928 12.2133 484.352 11.936C483.776 11.6587 483.115 11.52 482.368 11.52C481.664 11.52 481.12 11.6267 480.736 11.84C480.352 12.0533 480.16 12.3627 480.16 12.768C480.16 13.1947 480.352 13.5253 480.736 13.76C481.12 13.9947 481.611 14.1973 482.208 14.368C482.827 14.5387 483.467 14.7307 484.128 14.944C484.811 15.136 485.451 15.4133 486.048 15.776C486.667 16.1173 487.168 16.5867 487.552 17.184C487.936 17.76 488.128 18.5173 488.128 19.456C488.128 20.9493 487.605 22.1333 486.56 23.008C485.515 23.8827 484.096 24.32 482.304 24.32ZM491.03 27.744L493.206 23.68L494.39 23.36C494.262 23.616 494.113 23.8293 493.942 24C493.771 24.1707 493.569 24.256 493.334 24.256C492.843 24.256 492.385 24.0533 491.958 23.648C491.553 23.2213 491.35 22.688 491.35 22.048C491.35 21.3653 491.574 20.7893 492.022 20.32C492.491 19.8293 493.067 19.584 493.75 19.584C494.39 19.584 494.945 19.8293 495.414 20.32C495.905 20.7893 496.15 21.3653 496.15 22.048C496.15 22.3253 496.086 22.656 495.958 23.04C495.851 23.4027 495.649 23.872 495.35 24.448L492.982 28.8L491.03 27.744ZM513.352 24.32C511.837 24.32 510.461 23.968 509.224 23.264C508.008 22.56 507.048 21.6 506.344 20.384C505.64 19.168 505.288 17.8133 505.288 16.32C505.288 14.8053 505.64 13.4507 506.344 12.256C507.048 11.04 508.008 10.08 509.224 9.376C510.461 8.672 511.837 8.32 513.352 8.32C514.547 8.32 515.656 8.55467 516.68 9.024C517.725 9.472 518.611 10.1227 519.336 10.976L517.032 13.312C516.584 12.7787 516.04 12.384 515.4 12.128C514.781 11.8507 514.099 11.712 513.352 11.712C512.477 11.712 511.699 11.9147 511.016 12.32C510.355 12.704 509.832 13.2373 509.448 13.92C509.085 14.6027 508.904 15.4027 508.904 16.32C508.904 17.216 509.085 18.016 509.448 18.72C509.832 19.4027 510.355 19.9467 511.016 20.352C511.699 20.736 512.477 20.928 513.352 20.928C514.099 20.928 514.781 20.8 515.4 20.544C516.04 20.2667 516.584 19.8613 517.032 19.328L519.336 21.664C518.611 22.5173 517.725 23.1787 516.68 23.648C515.656 24.096 514.547 24.32 513.352 24.32ZM521.874 24V8.64H525.394V24H521.874ZM525.394 15.456L524.178 14.848C524.178 12.9067 524.605 11.3387 525.458 10.144C526.333 8.928 527.645 8.32 529.394 8.32C530.162 8.32 530.855 8.45867 531.474 8.736C532.093 9.01333 532.669 9.46133 533.202 10.08L530.898 12.448C530.621 12.1493 530.311 11.936 529.97 11.808C529.629 11.68 529.234 11.616 528.786 11.616C527.805 11.616 526.994 11.9253 526.354 12.544C525.714 13.1627 525.394 14.1333 525.394 15.456ZM541.572 24.32C540.036 24.32 538.65 23.9787 537.412 23.296C536.196 22.592 535.226 21.632 534.5 20.416C533.796 19.2 533.444 17.8347 533.444 16.32C533.444 14.8053 533.796 13.4507 534.5 12.256C535.204 11.04 536.154 10.08 537.348 9.376C538.564 8.672 539.908 8.32 541.38 8.32C542.81 8.32 544.068 8.65067 545.156 9.312C546.266 9.97333 547.13 10.88 547.748 12.032C548.388 13.184 548.708 14.496 548.708 15.968C548.708 16.224 548.687 16.4907 548.644 16.768C548.623 17.024 548.58 17.312 548.516 17.632H535.908V14.752H546.692L545.38 15.904C545.338 14.9653 545.156 14.176 544.836 13.536C544.516 12.896 544.058 12.4053 543.46 12.064C542.884 11.7227 542.17 11.552 541.316 11.552C540.42 11.552 539.642 11.744 538.98 12.128C538.319 12.512 537.807 13.056 537.444 13.76C537.082 14.4427 536.9 15.264 536.9 16.224C536.9 17.184 537.092 18.0267 537.476 18.752C537.86 19.4773 538.404 20.0427 539.108 20.448C539.812 20.832 540.623 21.024 541.54 21.024C542.33 21.024 543.055 20.8853 543.716 20.608C544.399 20.3307 544.975 19.9253 545.444 19.392L547.684 21.664C546.938 22.5387 546.031 23.2 544.964 23.648C543.898 24.096 542.767 24.32 541.572 24.32ZM557.962 24.32C556.575 24.32 555.317 23.968 554.186 23.264C553.077 22.56 552.191 21.6107 551.53 20.416C550.89 19.2 550.57 17.8453 550.57 16.352C550.57 14.8373 550.89 13.4827 551.53 12.288C552.191 11.072 553.077 10.112 554.186 9.408C555.317 8.68267 556.575 8.32 557.962 8.32C559.135 8.32 560.17 8.576 561.066 9.088C561.983 9.57867 562.709 10.2613 563.242 11.136C563.775 12.0107 564.042 13.0027 564.042 14.112V18.528C564.042 19.6373 563.775 20.6293 563.242 21.504C562.73 22.3787 562.015 23.072 561.098 23.584C560.181 24.0747 559.135 24.32 557.962 24.32ZM558.538 20.992C559.839 20.992 560.885 20.5547 561.674 19.68C562.485 18.8053 562.89 17.6853 562.89 16.32C562.89 15.4027 562.709 14.592 562.346 13.888C561.983 13.184 561.471 12.64 560.81 12.256C560.17 11.8507 559.413 11.648 558.538 11.648C557.685 11.648 556.927 11.8507 556.266 12.256C555.626 12.64 555.114 13.184 554.73 13.888C554.367 14.592 554.186 15.4027 554.186 16.32C554.186 17.2373 554.367 18.048 554.73 18.752C555.114 19.456 555.626 20.0107 556.266 20.416C556.927 20.8 557.685 20.992 558.538 20.992ZM562.666 24V19.872L563.274 16.128L562.666 12.416V8.64H566.186V24H562.666ZM572.429 24V2.24H575.949V24H572.429ZM568.749 11.84V8.64H579.629V11.84H568.749ZM588.789 24.32C587.296 24.32 585.941 23.968 584.725 23.264C583.509 22.5387 582.538 21.568 581.813 20.352C581.109 19.136 580.757 17.7813 580.757 16.288C580.757 14.7947 581.109 13.4507 581.813 12.256C582.538 11.0613 583.509 10.112 584.725 9.408C585.941 8.68267 587.296 8.32 588.789 8.32C590.304 8.32 591.669 8.672 592.885 9.376C594.101 10.08 595.061 11.04 595.765 12.256C596.49 13.4507 596.853 14.7947 596.853 16.288C596.853 17.7813 596.49 19.136 595.765 20.352C595.061 21.568 594.101 22.5387 592.885 23.264C591.669 23.968 590.304 24.32 588.789 24.32ZM588.789 20.928C589.664 20.928 590.432 20.736 591.093 20.352C591.776 19.9467 592.298 19.392 592.661 18.688C593.045 17.984 593.237 17.184 593.237 16.288C593.237 15.392 593.045 14.6027 592.661 13.92C592.277 13.2373 591.754 12.704 591.093 12.32C590.432 11.9147 589.664 11.712 588.789 11.712C587.936 11.712 587.168 11.9147 586.485 12.32C585.824 12.704 585.301 13.2373 584.917 13.92C584.554 14.6027 584.373 15.392 584.373 16.288C584.373 17.184 584.554 17.984 584.917 18.688C585.301 19.392 585.824 19.9467 586.485 20.352C587.168 20.736 587.936 20.928 588.789 20.928ZM599.78 24V8.64H603.3V24H599.78ZM603.3 15.456L602.084 14.848C602.084 12.9067 602.511 11.3387 603.364 10.144C604.239 8.928 605.551 8.32 607.3 8.32C608.068 8.32 608.761 8.45867 609.38 8.736C609.999 9.01333 610.575 9.46133 611.108 10.08L608.804 12.448C608.527 12.1493 608.217 11.936 607.876 11.808C607.535 11.68 607.14 11.616 606.692 11.616C605.711 11.616 604.9 11.9253 604.26 12.544C603.62 13.1627 603.3 14.1333 603.3 15.456ZM617.492 24.32C616.638 24.32 615.817 24.2133 615.028 24C614.238 23.7653 613.513 23.4453 612.852 23.04C612.19 22.6133 611.614 22.1013 611.124 21.504L613.364 19.264C613.897 19.8827 614.505 20.352 615.188 20.672C615.892 20.9707 616.681 21.12 617.556 21.12C618.345 21.12 618.942 21.0027 619.348 20.768C619.753 20.5333 619.956 20.192 619.956 19.744C619.956 19.2747 619.764 18.912 619.38 18.656C618.996 18.4 618.494 18.1867 617.876 18.016C617.278 17.824 616.638 17.632 615.956 17.44C615.294 17.248 614.654 16.992 614.036 16.672C613.438 16.3307 612.948 15.872 612.564 15.296C612.18 14.72 611.988 13.9733 611.988 13.056C611.988 12.0747 612.212 11.232 612.66 10.528C613.129 9.824 613.78 9.28 614.612 8.896C615.465 8.512 616.478 8.32 617.652 8.32C618.889 8.32 619.977 8.544 620.916 8.992C621.876 9.41867 622.676 10.0693 623.316 10.944L621.076 13.184C620.628 12.6293 620.116 12.2133 619.54 11.936C618.964 11.6587 618.302 11.52 617.556 11.52C616.852 11.52 616.308 11.6267 615.924 11.84C615.54 12.0533 615.348 12.3627 615.348 12.768C615.348 13.1947 615.54 13.5253 615.924 13.76C616.308 13.9947 616.798 14.1973 617.396 14.368C618.014 14.5387 618.654 14.7307 619.316 14.944C619.998 15.136 620.638 15.4133 621.236 15.776C621.854 16.1173 622.356 16.5867 622.74 17.184C623.124 17.76 623.316 18.5173 623.316 19.456C623.316 20.9493 622.793 22.1333 621.748 23.008C620.702 23.8827 619.284 24.32 617.492 24.32ZM626.218 27.744L628.394 23.68L629.578 23.36C629.45 23.616 629.3 23.8293 629.13 24C628.959 24.1707 628.756 24.256 628.522 24.256C628.031 24.256 627.572 24.0533 627.146 23.648C626.74 23.2213 626.538 22.688 626.538 22.048C626.538 21.3653 626.762 20.7893 627.21 20.32C627.679 19.8293 628.255 19.584 628.938 19.584C629.578 19.584 630.132 19.8293 630.602 20.32C631.092 20.7893 631.338 21.3653 631.338 22.048C631.338 22.3253 631.274 22.656 631.146 23.04C631.039 23.4027 630.836 23.872 630.538 24.448L628.17 28.8L626.218 27.744ZM647.9 24.32C646.513 24.32 645.254 23.968 644.124 23.264C643.014 22.56 642.129 21.6107 641.468 20.416C640.828 19.2 640.508 17.8453 640.508 16.352C640.508 14.8373 640.828 13.4827 641.468 12.288C642.129 11.072 643.014 10.112 644.124 9.408C645.254 8.68267 646.513 8.32 647.9 8.32C649.073 8.32 650.108 8.576 651.004 9.088C651.921 9.57867 652.646 10.2613 653.18 11.136C653.713 12.0107 653.98 13.0027 653.98 14.112V18.528C653.98 19.6373 653.713 20.6293 653.18 21.504C652.668 22.3787 651.953 23.072 651.036 23.584C650.118 24.0747 649.073 24.32 647.9 24.32ZM648.476 20.992C649.777 20.992 650.822 20.5547 651.612 19.68C652.422 18.8053 652.828 17.6853 652.828 16.32C652.828 15.4027 652.646 14.592 652.284 13.888C651.921 13.184 651.409 12.64 650.748 12.256C650.108 11.8507 649.35 11.648 648.476 11.648C647.622 11.648 646.865 11.8507 646.204 12.256C645.564 12.64 645.052 13.184 644.668 13.888C644.305 14.592 644.124 15.4027 644.124 16.32C644.124 17.2373 644.305 18.048 644.668 18.752C645.052 19.456 645.564 20.0107 646.204 20.416C646.865 20.8 647.622 20.992 648.476 20.992ZM652.604 24V19.872L653.212 16.128L652.604 12.416V8.64H656.124V24H652.604ZM670.558 24V15.136C670.558 14.112 670.227 13.2693 669.566 12.608C668.926 11.9467 668.094 11.616 667.07 11.616C666.387 11.616 665.779 11.7653 665.246 12.064C664.713 12.3627 664.297 12.7787 663.998 13.312C663.699 13.8453 663.55 14.4533 663.55 15.136L662.174 14.368C662.174 13.1947 662.43 12.16 662.942 11.264C663.454 10.3467 664.158 9.632 665.054 9.12C665.971 8.58667 666.995 8.32 668.126 8.32C669.278 8.32 670.302 8.61867 671.198 9.216C672.094 9.792 672.798 10.5493 673.31 11.488C673.822 12.4053 674.078 13.3653 674.078 14.368V24H670.558ZM660.03 24V8.64H663.55V24H660.03ZM684.087 24.32C682.7 24.32 681.442 23.968 680.311 23.264C679.202 22.56 678.316 21.6107 677.655 20.416C677.015 19.2 676.695 17.8453 676.695 16.352C676.695 14.8373 677.015 13.4827 677.655 12.288C678.316 11.072 679.202 10.112 680.311 9.408C681.442 8.68267 682.7 8.32 684.087 8.32C685.26 8.32 686.295 8.576 687.191 9.088C688.108 9.57867 688.834 10.2613 689.367 11.136C689.9 12.0107 690.167 13.0027 690.167 14.112V18.528C690.167 19.6373 689.9 20.6293 689.367 21.504C688.855 22.3787 688.14 23.072 687.223 23.584C686.306 24.0747 685.26 24.32 684.087 24.32ZM684.663 20.992C685.538 20.992 686.295 20.8 686.935 20.416C687.596 20.0107 688.108 19.456 688.471 18.752C688.834 18.048 689.015 17.2373 689.015 16.32C689.015 15.4027 688.834 14.592 688.471 13.888C688.108 13.184 687.596 12.64 686.935 12.256C686.295 11.8507 685.538 11.648 684.663 11.648C683.81 11.648 683.052 11.8507 682.391 12.256C681.751 12.64 681.239 13.184 680.855 13.888C680.492 14.592 680.311 15.4027 680.311 16.32C680.311 17.2373 680.492 18.048 680.855 18.752C681.239 19.456 681.751 20.0107 682.391 20.416C683.052 20.8 683.81 20.992 684.663 20.992ZM692.311 24H688.791V19.872L689.399 16.128L688.791 12.416V0.959999H692.311V24ZM77.2733 64.32C75.7799 64.32 74.4253 63.968 73.2093 63.264C71.9933 62.5387 71.0226 61.568 70.2973 60.352C69.5933 59.136 69.2413 57.7813 69.2413 56.288C69.2413 54.7947 69.5933 53.4507 70.2973 52.256C71.0226 51.0613 71.9933 50.112 73.2093 49.408C74.4253 48.6827 75.7799 48.32 77.2733 48.32C78.7879 48.32 80.1533 48.672 81.3693 49.376C82.5853 50.08 83.5453 51.04 84.2493 52.256C84.9746 53.4507 85.3373 54.7947 85.3373 56.288C85.3373 57.7813 84.9746 59.136 84.2493 60.352C83.5453 61.568 82.5853 62.5387 81.3693 63.264C80.1533 63.968 78.7879 64.32 77.2733 64.32ZM77.2733 60.928C78.1479 60.928 78.9159 60.736 79.5773 60.352C80.2599 59.9467 80.7826 59.392 81.1453 58.688C81.5293 57.984 81.7213 57.184 81.7213 56.288C81.7213 55.392 81.5293 54.6027 81.1453 53.92C80.7613 53.2373 80.2386 52.704 79.5773 52.32C78.9159 51.9147 78.1479 51.712 77.2733 51.712C76.4199 51.712 75.6519 51.9147 74.9693 52.32C74.3079 52.704 73.7853 53.2373 73.4013 53.92C73.0386 54.6027 72.8573 55.392 72.8573 56.288C72.8573 57.184 73.0386 57.984 73.4013 58.688C73.7853 59.392 74.3079 59.9467 74.9693 60.352C75.6519 60.736 76.4199 60.928 77.2733 60.928ZM98.7925 64V55.136C98.7925 54.112 98.4618 53.2693 97.8005 52.608C97.1605 51.9467 96.3285 51.616 95.3045 51.616C94.6218 51.616 94.0138 51.7653 93.4805 52.064C92.9472 52.3627 92.5312 52.7787 92.2325 53.312C91.9338 53.8453 91.7845 54.4533 91.7845 55.136L90.4085 54.368C90.4085 53.1947 90.6645 52.16 91.1765 51.264C91.6885 50.3467 92.3925 49.632 93.2885 49.12C94.2058 48.5867 95.2298 48.32 96.3605 48.32C97.5125 48.32 98.5365 48.6187 99.4325 49.216C100.329 49.792 101.033 50.5493 101.545 51.488C102.057 52.4053 102.312 53.3653 102.312 54.368V64H98.7925ZM88.2645 64V48.64H91.7845V64H88.2645ZM105.89 57.504V54.176H116.738V57.504H105.89ZM128.274 64.32C126.759 64.32 125.383 63.968 124.146 63.264C122.93 62.56 121.97 61.6 121.266 60.384C120.562 59.168 120.21 57.8133 120.21 56.32C120.21 54.8053 120.562 53.4507 121.266 52.256C121.97 51.04 122.93 50.08 124.146 49.376C125.383 48.672 126.759 48.32 128.274 48.32C129.469 48.32 130.578 48.5547 131.602 49.024C132.647 49.472 133.533 50.1227 134.258 50.976L131.954 53.312C131.506 52.7787 130.962 52.384 130.322 52.128C129.703 51.8507 129.021 51.712 128.274 51.712C127.399 51.712 126.621 51.9147 125.938 52.32C125.277 52.704 124.754 53.2373 124.37 53.92C124.007 54.6027 123.826 55.4027 123.826 56.32C123.826 57.216 124.007 58.016 124.37 58.72C124.754 59.4027 125.277 59.9467 125.938 60.352C126.621 60.736 127.399 60.928 128.274 60.928C129.021 60.928 129.703 60.8 130.322 60.544C130.962 60.2667 131.506 59.8613 131.954 59.328L134.258 61.664C133.533 62.5173 132.647 63.1787 131.602 63.648C130.578 64.096 129.469 64.32 128.274 64.32ZM147.324 64V55.136C147.324 54.112 146.993 53.2693 146.332 52.608C145.692 51.9467 144.86 51.616 143.836 51.616C143.153 51.616 142.545 51.7653 142.012 52.064C141.478 52.3627 141.062 52.7787 140.764 53.312C140.465 53.8453 140.316 54.4533 140.316 55.136L138.94 54.368C138.94 53.1947 139.196 52.16 139.708 51.264C140.22 50.3467 140.924 49.632 141.82 49.12C142.737 48.5867 143.761 48.32 144.892 48.32C146.044 48.32 147.068 48.576 147.964 49.088C148.86 49.6 149.564 50.3147 150.076 51.232C150.588 52.128 150.844 53.1733 150.844 54.368V64H147.324ZM136.796 64V40.96H140.316V64H136.796ZM160.853 64.32C159.466 64.32 158.207 63.968 157.077 63.264C155.967 62.56 155.082 61.6107 154.421 60.416C153.781 59.2 153.461 57.8453 153.461 56.352C153.461 54.8373 153.781 53.4827 154.421 52.288C155.082 51.072 155.967 50.112 157.077 49.408C158.207 48.6827 159.466 48.32 160.853 48.32C162.026 48.32 163.061 48.576 163.957 49.088C164.874 49.5787 165.599 50.2613 166.133 51.136C166.666 52.0107 166.933 53.0027 166.933 54.112V58.528C166.933 59.6373 166.666 60.6293 166.133 61.504C165.621 62.3787 164.906 63.072 163.989 63.584C163.071 64.0747 162.026 64.32 160.853 64.32ZM161.429 60.992C162.73 60.992 163.775 60.5547 164.565 59.68C165.375 58.8053 165.781 57.6853 165.781 56.32C165.781 55.4027 165.599 54.592 165.237 53.888C164.874 53.184 164.362 52.64 163.701 52.256C163.061 51.8507 162.303 51.648 161.429 51.648C160.575 51.648 159.818 51.8507 159.157 52.256C158.517 52.64 158.005 53.184 157.621 53.888C157.258 54.592 157.077 55.4027 157.077 56.32C157.077 57.2373 157.258 58.048 157.621 58.752C158.005 59.456 158.517 60.0107 159.157 60.416C159.818 60.8 160.575 60.992 161.429 60.992ZM165.557 64V59.872L166.165 56.128L165.557 52.416V48.64H169.077V64H165.557ZM173.015 64V48.64H176.535V64H173.015ZM174.775 45.824C174.178 45.824 173.677 45.6213 173.271 45.216C172.887 44.8107 172.695 44.3093 172.695 43.712C172.695 43.1147 172.887 42.6133 173.271 42.208C173.677 41.8027 174.178 41.6 174.775 41.6C175.394 41.6 175.895 41.8027 176.279 42.208C176.663 42.6133 176.855 43.1147 176.855 43.712C176.855 44.3093 176.663 44.8107 176.279 45.216C175.895 45.6213 175.394 45.824 174.775 45.824ZM191.011 64V55.136C191.011 54.112 190.681 53.2693 190.019 52.608C189.379 51.9467 188.547 51.616 187.523 51.616C186.841 51.616 186.233 51.7653 185.699 52.064C185.166 52.3627 184.75 52.7787 184.451 53.312C184.153 53.8453 184.003 54.4533 184.003 55.136L182.627 54.368C182.627 53.1947 182.883 52.16 183.395 51.264C183.907 50.3467 184.611 49.632 185.507 49.12C186.425 48.5867 187.449 48.32 188.579 48.32C189.731 48.32 190.755 48.6187 191.651 49.216C192.547 49.792 193.251 50.5493 193.763 51.488C194.275 52.4053 194.531 53.3653 194.531 54.368V64H191.011ZM180.483 64V48.64H184.003V64H180.483ZM210.915 70.72C209.293 70.72 207.875 70.4213 206.659 69.824C205.443 69.248 204.461 68.4267 203.715 67.36L206.019 65.056C206.637 65.824 207.341 66.4 208.131 66.784C208.92 67.168 209.869 67.36 210.979 67.36C212.365 67.36 213.464 66.9973 214.275 66.272C215.085 65.568 215.491 64.5973 215.491 63.36V59.584L216.099 56.192L215.491 52.768V48.64H219.01V63.36C219.01 64.832 218.669 66.112 217.987 67.2C217.304 68.3093 216.355 69.1733 215.139 69.792C213.923 70.4107 212.515 70.72 210.915 70.72ZM210.755 63.68C209.389 63.68 208.152 63.3493 207.043 62.688C205.955 62.0053 205.091 61.0773 204.451 59.904C203.832 58.7307 203.523 57.4187 203.523 55.968C203.523 54.5173 203.832 53.216 204.451 52.064C205.091 50.912 205.955 50.0053 207.043 49.344C208.152 48.6613 209.389 48.32 210.755 48.32C211.971 48.32 213.037 48.5653 213.955 49.056C214.872 49.5467 215.587 50.2293 216.099 51.104C216.611 51.9573 216.867 52.96 216.867 54.112V57.888C216.867 59.0187 216.6 60.0213 216.067 60.896C215.555 61.7707 214.84 62.4533 213.923 62.944C213.005 63.4347 211.949 63.68 210.755 63.68ZM211.459 60.352C212.312 60.352 213.059 60.1707 213.699 59.808C214.339 59.4453 214.829 58.944 215.171 58.304C215.533 57.6427 215.715 56.8747 215.715 56C215.715 55.1253 215.533 54.368 215.171 53.728C214.829 53.0667 214.339 52.5547 213.699 52.192C213.059 51.8293 212.312 51.648 211.459 51.648C210.605 51.648 209.848 51.8293 209.187 52.192C208.547 52.5547 208.045 53.0667 207.683 53.728C207.32 54.368 207.139 55.1253 207.139 56C207.139 56.8533 207.32 57.6107 207.683 58.272C208.045 58.9333 208.547 59.4453 209.187 59.808C209.848 60.1707 210.605 60.352 211.459 60.352ZM229.961 64.32C228.467 64.32 227.113 63.968 225.897 63.264C224.681 62.5387 223.71 61.568 222.985 60.352C222.281 59.136 221.929 57.7813 221.929 56.288C221.929 54.7947 222.281 53.4507 222.985 52.256C223.71 51.0613 224.681 50.112 225.897 49.408C227.113 48.6827 228.467 48.32 229.961 48.32C231.475 48.32 232.841 48.672 234.057 49.376C235.273 50.08 236.233 51.04 236.937 52.256C237.662 53.4507 238.025 54.7947 238.025 56.288C238.025 57.7813 237.662 59.136 236.937 60.352C236.233 61.568 235.273 62.5387 234.057 63.264C232.841 63.968 231.475 64.32 229.961 64.32ZM229.961 60.928C230.835 60.928 231.603 60.736 232.265 60.352C232.947 59.9467 233.47 59.392 233.833 58.688C234.217 57.984 234.409 57.184 234.409 56.288C234.409 55.392 234.217 54.6027 233.833 53.92C233.449 53.2373 232.926 52.704 232.265 52.32C231.603 51.9147 230.835 51.712 229.961 51.712C229.107 51.712 228.339 51.9147 227.657 52.32C226.995 52.704 226.473 53.2373 226.089 53.92C225.726 54.6027 225.545 55.392 225.545 56.288C225.545 57.184 225.726 57.984 226.089 58.688C226.473 59.392 226.995 59.9467 227.657 60.352C228.339 60.736 229.107 60.928 229.961 60.928ZM247.992 64.32C246.499 64.32 245.144 63.968 243.928 63.264C242.712 62.5387 241.741 61.568 241.016 60.352C240.312 59.136 239.96 57.7813 239.96 56.288C239.96 54.7947 240.312 53.4507 241.016 52.256C241.741 51.0613 242.712 50.112 243.928 49.408C245.144 48.6827 246.499 48.32 247.992 48.32C249.507 48.32 250.872 48.672 252.088 49.376C253.304 50.08 254.264 51.04 254.968 52.256C255.693 53.4507 256.056 54.7947 256.056 56.288C256.056 57.7813 255.693 59.136 254.968 60.352C254.264 61.568 253.304 62.5387 252.088 63.264C250.872 63.968 249.507 64.32 247.992 64.32ZM247.992 60.928C248.867 60.928 249.635 60.736 250.296 60.352C250.979 59.9467 251.501 59.392 251.864 58.688C252.248 57.984 252.44 57.184 252.44 56.288C252.44 55.392 252.248 54.6027 251.864 53.92C251.48 53.2373 250.957 52.704 250.296 52.32C249.635 51.9147 248.867 51.712 247.992 51.712C247.139 51.712 246.371 51.9147 245.688 52.32C245.027 52.704 244.504 53.2373 244.12 53.92C243.757 54.6027 243.576 55.392 243.576 56.288C243.576 57.184 243.757 57.984 244.12 58.688C244.504 59.392 245.027 59.9467 245.688 60.352C246.371 60.736 247.139 60.928 247.992 60.928ZM265.415 64.32C264.029 64.32 262.77 63.968 261.639 63.264C260.53 62.56 259.645 61.6107 258.983 60.416C258.343 59.2 258.023 57.8453 258.023 56.352C258.023 54.8373 258.343 53.4827 258.983 52.288C259.645 51.072 260.53 50.112 261.639 49.408C262.77 48.6827 264.029 48.32 265.415 48.32C266.589 48.32 267.623 48.576 268.519 49.088C269.437 49.5787 270.162 50.2613 270.695 51.136C271.229 52.0107 271.495 53.0027 271.495 54.112V58.528C271.495 59.6373 271.229 60.6293 270.695 61.504C270.183 62.3787 269.469 63.072 268.551 63.584C267.634 64.0747 266.589 64.32 265.415 64.32ZM265.991 60.992C266.866 60.992 267.623 60.8 268.263 60.416C268.925 60.0107 269.437 59.456 269.799 58.752C270.162 58.048 270.343 57.2373 270.343 56.32C270.343 55.4027 270.162 54.592 269.799 53.888C269.437 53.184 268.925 52.64 268.263 52.256C267.623 51.8507 266.866 51.648 265.991 51.648C265.138 51.648 264.381 51.8507 263.719 52.256C263.079 52.64 262.567 53.184 262.183 53.888C261.821 54.592 261.639 55.4027 261.639 56.32C261.639 57.2373 261.821 58.048 262.183 58.752C262.567 59.456 263.079 60.0107 263.719 60.416C264.381 60.8 265.138 60.992 265.991 60.992ZM273.639 64H270.119V59.872L270.727 56.128L270.119 52.416V40.96H273.639V64ZM282.57 64.32C281.716 64.32 280.895 64.2133 280.106 64C279.316 63.7653 278.591 63.4453 277.93 63.04C277.268 62.6133 276.692 62.1013 276.202 61.504L278.442 59.264C278.975 59.8827 279.583 60.352 280.266 60.672C280.97 60.9707 281.759 61.12 282.634 61.12C283.423 61.12 284.02 61.0027 284.426 60.768C284.831 60.5333 285.034 60.192 285.034 59.744C285.034 59.2747 284.842 58.912 284.458 58.656C284.074 58.4 283.572 58.1867 282.954 58.016C282.356 57.824 281.716 57.632 281.034 57.44C280.372 57.248 279.732 56.992 279.114 56.672C278.516 56.3307 278.026 55.872 277.642 55.296C277.258 54.72 277.066 53.9733 277.066 53.056C277.066 52.0747 277.29 51.232 277.738 50.528C278.207 49.824 278.858 49.28 279.69 48.896C280.543 48.512 281.556 48.32 282.73 48.32C283.967 48.32 285.055 48.544 285.994 48.992C286.954 49.4187 287.754 50.0693 288.394 50.944L286.154 53.184C285.706 52.6293 285.194 52.2133 284.618 51.936C284.042 51.6587 283.38 51.52 282.634 51.52C281.93 51.52 281.386 51.6267 281.002 51.84C280.618 52.0533 280.426 52.3627 280.426 52.768C280.426 53.1947 280.618 53.5253 281.002 53.76C281.386 53.9947 281.876 54.1973 282.474 54.368C283.092 54.5387 283.732 54.7307 284.394 54.944C285.076 55.136 285.716 55.4133 286.314 55.776C286.932 56.1173 287.434 56.5867 287.818 57.184C288.202 57.76 288.394 58.5173 288.394 59.456C288.394 60.9493 287.871 62.1333 286.826 63.008C285.78 63.8827 284.362 64.32 282.57 64.32ZM305.926 64.32C304.753 64.32 303.707 64.0747 302.79 63.584C301.873 63.072 301.147 62.3787 300.614 61.504C300.102 60.6293 299.846 59.6373 299.846 58.528V54.112C299.846 53.0027 300.113 52.0107 300.646 51.136C301.179 50.2613 301.905 49.5787 302.822 49.088C303.739 48.576 304.774 48.32 305.926 48.32C307.313 48.32 308.561 48.6827 309.67 49.408C310.801 50.112 311.686 51.072 312.326 52.288C312.987 53.4827 313.318 54.8373 313.318 56.352C313.318 57.8453 312.987 59.2 312.326 60.416C311.686 61.6107 310.801 62.56 309.67 63.264C308.561 63.968 307.313 64.32 305.926 64.32ZM305.35 60.992C306.203 60.992 306.95 60.8 307.59 60.416C308.251 60.0107 308.763 59.456 309.126 58.752C309.51 58.048 309.702 57.2373 309.702 56.32C309.702 55.4027 309.51 54.592 309.126 53.888C308.763 53.184 308.251 52.64 307.59 52.256C306.95 51.8507 306.203 51.648 305.35 51.648C304.497 51.648 303.739 51.8507 303.078 52.256C302.417 52.64 301.905 53.184 301.542 53.888C301.179 54.592 300.998 55.4027 300.998 56.32C300.998 57.2373 301.179 58.048 301.542 58.752C301.905 59.456 302.417 60.0107 303.078 60.416C303.739 60.8 304.497 60.992 305.35 60.992ZM297.702 64V40.96H301.222V52.416L300.614 56.128L301.222 59.872V64H297.702ZM322.697 64.32C321.31 64.32 320.051 63.968 318.921 63.264C317.811 62.56 316.926 61.6107 316.265 60.416C315.625 59.2 315.305 57.8453 315.305 56.352C315.305 54.8373 315.625 53.4827 316.265 52.288C316.926 51.072 317.811 50.112 318.921 49.408C320.051 48.6827 321.31 48.32 322.697 48.32C323.87 48.32 324.905 48.576 325.801 49.088C326.718 49.5787 327.443 50.2613 327.977 51.136C328.51 52.0107 328.777 53.0027 328.777 54.112V58.528C328.777 59.6373 328.51 60.6293 327.977 61.504C327.465 62.3787 326.75 63.072 325.833 63.584C324.915 64.0747 323.87 64.32 322.697 64.32ZM323.273 60.992C324.574 60.992 325.619 60.5547 326.409 59.68C327.219 58.8053 327.625 57.6853 327.625 56.32C327.625 55.4027 327.443 54.592 327.081 53.888C326.718 53.184 326.206 52.64 325.545 52.256C324.905 51.8507 324.147 51.648 323.273 51.648C322.419 51.648 321.662 51.8507 321.001 52.256C320.361 52.64 319.849 53.184 319.465 53.888C319.102 54.592 318.921 55.4027 318.921 56.32C318.921 57.2373 319.102 58.048 319.465 58.752C319.849 59.456 320.361 60.0107 321.001 60.416C321.662 60.8 322.419 60.992 323.273 60.992ZM327.401 64V59.872L328.009 56.128L327.401 52.416V48.64H330.921V64H327.401ZM339.851 64.32C338.998 64.32 338.176 64.2133 337.387 64C336.598 63.7653 335.872 63.4453 335.211 63.04C334.55 62.6133 333.974 62.1013 333.483 61.504L335.723 59.264C336.256 59.8827 336.864 60.352 337.547 60.672C338.251 60.9707 339.04 61.12 339.915 61.12C340.704 61.12 341.302 61.0027 341.707 60.768C342.112 60.5333 342.315 60.192 342.315 59.744C342.315 59.2747 342.123 58.912 341.739 58.656C341.355 58.4 340.854 58.1867 340.235 58.016C339.638 57.824 338.998 57.632 338.315 57.44C337.654 57.248 337.014 56.992 336.395 56.672C335.798 56.3307 335.307 55.872 334.923 55.296C334.539 54.72 334.347 53.9733 334.347 53.056C334.347 52.0747 334.571 51.232 335.019 50.528C335.488 49.824 336.139 49.28 336.971 48.896C337.824 48.512 338.838 48.32 340.011 48.32C341.248 48.32 342.336 48.544 343.275 48.992C344.235 49.4187 345.035 50.0693 345.675 50.944L343.435 53.184C342.987 52.6293 342.475 52.2133 341.899 51.936C341.323 51.6587 340.662 51.52 339.915 51.52C339.211 51.52 338.667 51.6267 338.283 51.84C337.899 52.0533 337.707 52.3627 337.707 52.768C337.707 53.1947 337.899 53.5253 338.283 53.76C338.667 53.9947 339.158 54.1973 339.755 54.368C340.374 54.5387 341.014 54.7307 341.675 54.944C342.358 55.136 342.998 55.4133 343.595 55.776C344.214 56.1173 344.715 56.5867 345.099 57.184C345.483 57.76 345.675 58.5173 345.675 59.456C345.675 60.9493 345.152 62.1333 344.107 63.008C343.062 63.8827 341.643 64.32 339.851 64.32ZM355.713 64.32C354.177 64.32 352.79 63.9787 351.553 63.296C350.337 62.592 349.366 61.632 348.641 60.416C347.937 59.2 347.585 57.8347 347.585 56.32C347.585 54.8053 347.937 53.4507 348.641 52.256C349.345 51.04 350.294 50.08 351.489 49.376C352.705 48.672 354.049 48.32 355.521 48.32C356.95 48.32 358.209 48.6507 359.297 49.312C360.406 49.9733 361.27 50.88 361.889 52.032C362.529 53.184 362.849 54.496 362.849 55.968C362.849 56.224 362.828 56.4907 362.785 56.768C362.764 57.024 362.721 57.312 362.657 57.632H350.049V54.752H360.833L359.521 55.904C359.478 54.9653 359.297 54.176 358.977 53.536C358.657 52.896 358.198 52.4053 357.601 52.064C357.025 51.7227 356.31 51.552 355.457 51.552C354.561 51.552 353.782 51.744 353.121 52.128C352.46 52.512 351.948 53.056 351.585 53.76C351.222 54.4427 351.041 55.264 351.041 56.224C351.041 57.184 351.233 58.0267 351.617 58.752C352.001 59.4773 352.545 60.0427 353.249 60.448C353.953 60.832 354.764 61.024 355.681 61.024C356.47 61.024 357.196 60.8853 357.857 60.608C358.54 60.3307 359.116 59.9253 359.585 59.392L361.825 61.664C361.078 62.5387 360.172 63.2 359.105 63.648C358.038 64.096 356.908 64.32 355.713 64.32ZM372.103 64.32C370.716 64.32 369.457 63.968 368.327 63.264C367.217 62.56 366.332 61.6107 365.671 60.416C365.031 59.2 364.711 57.8453 364.711 56.352C364.711 54.8373 365.031 53.4827 365.671 52.288C366.332 51.072 367.217 50.112 368.327 49.408C369.457 48.6827 370.716 48.32 372.103 48.32C373.276 48.32 374.311 48.576 375.207 49.088C376.124 49.5787 376.849 50.2613 377.383 51.136C377.916 52.0107 378.183 53.0027 378.183 54.112V58.528C378.183 59.6373 377.916 60.6293 377.383 61.504C376.871 62.3787 376.156 63.072 375.239 63.584C374.321 64.0747 373.276 64.32 372.103 64.32ZM372.679 60.992C373.553 60.992 374.311 60.8 374.951 60.416C375.612 60.0107 376.124 59.456 376.487 58.752C376.849 58.048 377.031 57.2373 377.031 56.32C377.031 55.4027 376.849 54.592 376.487 53.888C376.124 53.184 375.612 52.64 374.951 52.256C374.311 51.8507 373.553 51.648 372.679 51.648C371.825 51.648 371.068 51.8507 370.407 52.256C369.767 52.64 369.255 53.184 368.871 53.888C368.508 54.592 368.327 55.4027 368.327 56.32C368.327 57.2373 368.508 58.048 368.871 58.752C369.255 59.456 369.767 60.0107 370.407 60.416C371.068 60.8 371.825 60.992 372.679 60.992ZM380.327 64H376.807V59.872L377.415 56.128L376.807 52.416V40.96H380.327V64ZM397.68 64.32C396.186 64.32 394.832 63.968 393.616 63.264C392.4 62.5387 391.429 61.568 390.704 60.352C390 59.136 389.648 57.7813 389.648 56.288C389.648 54.7947 390 53.4507 390.704 52.256C391.429 51.0613 392.4 50.112 393.616 49.408C394.832 48.6827 396.186 48.32 397.68 48.32C399.194 48.32 400.56 48.672 401.776 49.376C402.992 50.08 403.952 51.04 404.656 52.256C405.381 53.4507 405.744 54.7947 405.744 56.288C405.744 57.7813 405.381 59.136 404.656 60.352C403.952 61.568 402.992 62.5387 401.776 63.264C400.56 63.968 399.194 64.32 397.68 64.32ZM397.68 60.928C398.554 60.928 399.322 60.736 399.984 60.352C400.666 59.9467 401.189 59.392 401.552 58.688C401.936 57.984 402.128 57.184 402.128 56.288C402.128 55.392 401.936 54.6027 401.552 53.92C401.168 53.2373 400.645 52.704 399.984 52.32C399.322 51.9147 398.554 51.712 397.68 51.712C396.826 51.712 396.058 51.9147 395.376 52.32C394.714 52.704 394.192 53.2373 393.808 53.92C393.445 54.6027 393.264 55.392 393.264 56.288C393.264 57.184 393.445 57.984 393.808 58.688C394.192 59.392 394.714 59.9467 395.376 60.352C396.058 60.736 396.826 60.928 397.68 60.928ZM419.199 64V55.136C419.199 54.112 418.868 53.2693 418.207 52.608C417.567 51.9467 416.735 51.616 415.711 51.616C415.028 51.616 414.42 51.7653 413.887 52.064C413.353 52.3627 412.937 52.7787 412.639 53.312C412.34 53.8453 412.191 54.4533 412.191 55.136L410.815 54.368C410.815 53.1947 411.071 52.16 411.583 51.264C412.095 50.3467 412.799 49.632 413.695 49.12C414.612 48.5867 415.636 48.32 416.767 48.32C417.919 48.32 418.943 48.6187 419.839 49.216C420.735 49.792 421.439 50.5493 421.951 51.488C422.463 52.4053 422.719 53.3653 422.719 54.368V64H419.199ZM408.671 64V48.64H412.191V64H408.671ZM437.662 64.16L431.102 48.64H434.974L439.454 60.032H438.334L443.07 48.64H446.974L439.838 64.16H437.662ZM433.086 70.4L437.854 60.576L439.838 64.16L436.99 70.4H433.086ZM455.523 64.32C454.03 64.32 452.675 63.968 451.459 63.264C450.243 62.5387 449.273 61.568 448.547 60.352C447.843 59.136 447.491 57.7813 447.491 56.288C447.491 54.7947 447.843 53.4507 448.547 52.256C449.273 51.0613 450.243 50.112 451.459 49.408C452.675 48.6827 454.03 48.32 455.523 48.32C457.038 48.32 458.403 48.672 459.619 49.376C460.835 50.08 461.795 51.04 462.499 52.256C463.225 53.4507 463.587 54.7947 463.587 56.288C463.587 57.7813 463.225 59.136 462.499 60.352C461.795 61.568 460.835 62.5387 459.619 63.264C458.403 63.968 457.038 64.32 455.523 64.32ZM455.523 60.928C456.398 60.928 457.166 60.736 457.827 60.352C458.51 59.9467 459.033 59.392 459.395 58.688C459.779 57.984 459.971 57.184 459.971 56.288C459.971 55.392 459.779 54.6027 459.395 53.92C459.011 53.2373 458.489 52.704 457.827 52.32C457.166 51.9147 456.398 51.712 455.523 51.712C454.67 51.712 453.902 51.9147 453.219 52.32C452.558 52.704 452.035 53.2373 451.651 53.92C451.289 54.6027 451.107 55.392 451.107 56.288C451.107 57.184 451.289 57.984 451.651 58.688C452.035 59.392 452.558 59.9467 453.219 60.352C453.902 60.736 454.67 60.928 455.523 60.928ZM472.819 64.32C471.517 64.32 470.355 64.032 469.331 63.456C468.328 62.88 467.539 62.0907 466.963 61.088C466.408 60.064 466.131 58.8907 466.131 57.568V48.64H469.651V57.408C469.651 58.1547 469.768 58.7947 470.003 59.328C470.259 59.84 470.621 60.2347 471.091 60.512C471.581 60.7893 472.157 60.928 472.819 60.928C473.843 60.928 474.621 60.6293 475.155 60.032C475.709 59.4133 475.987 58.5387 475.987 57.408V48.64H479.507V57.568C479.507 58.912 479.219 60.096 478.643 61.12C478.088 62.1227 477.309 62.912 476.307 63.488C475.304 64.0427 474.141 64.32 472.819 64.32ZM483.046 64V48.64H486.566V64H483.046ZM486.566 55.456L485.35 54.848C485.35 52.9067 485.776 51.3387 486.63 50.144C487.504 48.928 488.816 48.32 490.566 48.32C491.334 48.32 492.027 48.4587 492.646 48.736C493.264 49.0133 493.84 49.4613 494.374 50.08L492.07 52.448C491.792 52.1493 491.483 51.936 491.142 51.808C490.8 51.68 490.406 51.616 489.958 51.616C488.976 51.616 488.166 51.9253 487.526 52.544C486.886 53.1627 486.566 54.1333 486.566 55.456ZM503.078 64V48.64H506.598V64H503.078ZM504.838 45.824C504.24 45.824 503.739 45.6213 503.334 45.216C502.95 44.8107 502.758 44.3093 502.758 43.712C502.758 43.1147 502.95 42.6133 503.334 42.208C503.739 41.8027 504.24 41.6 504.838 41.6C505.456 41.6 505.958 41.8027 506.342 42.208C506.726 42.6133 506.918 43.1147 506.918 43.712C506.918 44.3093 506.726 44.8107 506.342 45.216C505.958 45.6213 505.456 45.824 504.838 45.824ZM521.074 64V55.136C521.074 54.112 520.743 53.2693 520.082 52.608C519.442 51.9467 518.61 51.616 517.586 51.616C516.903 51.616 516.295 51.7653 515.762 52.064C515.228 52.3627 514.812 52.7787 514.514 53.312C514.215 53.8453 514.066 54.4533 514.066 55.136L512.69 54.368C512.69 53.1947 512.946 52.16 513.458 51.264C513.97 50.3467 514.674 49.632 515.57 49.12C516.487 48.5867 517.511 48.32 518.642 48.32C519.794 48.32 520.818 48.6187 521.714 49.216C522.61 49.792 523.314 50.5493 523.826 51.488C524.338 52.4053 524.594 53.3653 524.594 54.368V64H521.074ZM510.546 64V48.64H514.066V64H510.546ZM530.319 64V42.24H533.839V64H530.319ZM526.639 51.84V48.64H537.519V51.84H526.639ZM546.776 64.32C545.24 64.32 543.853 63.9787 542.616 63.296C541.4 62.592 540.429 61.632 539.704 60.416C539 59.2 538.648 57.8347 538.648 56.32C538.648 54.8053 539 53.4507 539.704 52.256C540.408 51.04 541.357 50.08 542.552 49.376C543.768 48.672 545.112 48.32 546.584 48.32C548.013 48.32 549.272 48.6507 550.36 49.312C551.469 49.9733 552.333 50.88 552.952 52.032C553.592 53.184 553.912 54.496 553.912 55.968C553.912 56.224 553.89 56.4907 553.847 56.768C553.826 57.024 553.784 57.312 553.72 57.632H541.112V54.752H551.896L550.584 55.904C550.541 54.9653 550.36 54.176 550.04 53.536C549.72 52.896 549.261 52.4053 548.664 52.064C548.088 51.7227 547.373 51.552 546.52 51.552C545.624 51.552 544.845 51.744 544.184 52.128C543.522 52.512 543.01 53.056 542.648 53.76C542.285 54.4427 542.104 55.264 542.104 56.224C542.104 57.184 542.296 58.0267 542.68 58.752C543.064 59.4773 543.608 60.0427 544.312 60.448C545.016 60.832 545.826 61.024 546.744 61.024C547.533 61.024 548.258 60.8853 548.92 60.608C549.602 60.3307 550.178 59.9253 550.648 59.392L552.888 61.664C552.141 62.5387 551.234 63.2 550.168 63.648C549.101 64.096 547.97 64.32 546.776 64.32ZM556.733 64V48.64H560.253V64H556.733ZM560.253 55.456L559.037 54.848C559.037 52.9067 559.464 51.3387 560.317 50.144C561.192 48.928 562.504 48.32 564.253 48.32C565.021 48.32 565.715 48.4587 566.333 48.736C566.952 49.0133 567.528 49.4613 568.061 50.08L565.757 52.448C565.48 52.1493 565.171 51.936 564.829 51.808C564.488 51.68 564.093 51.616 563.645 51.616C562.664 51.616 561.853 51.9253 561.213 52.544C560.573 53.1627 560.253 54.1333 560.253 55.456ZM576.432 64.32C574.896 64.32 573.509 63.9787 572.272 63.296C571.056 62.592 570.085 61.632 569.36 60.416C568.656 59.2 568.304 57.8347 568.304 56.32C568.304 54.8053 568.656 53.4507 569.36 52.256C570.064 51.04 571.013 50.08 572.208 49.376C573.424 48.672 574.768 48.32 576.24 48.32C577.669 48.32 578.928 48.6507 580.016 49.312C581.125 49.9733 581.989 50.88 582.608 52.032C583.248 53.184 583.568 54.496 583.568 55.968C583.568 56.224 583.546 56.4907 583.504 56.768C583.482 57.024 583.44 57.312 583.376 57.632H570.768V54.752H581.552L580.24 55.904C580.197 54.9653 580.016 54.176 579.696 53.536C579.376 52.896 578.917 52.4053 578.32 52.064C577.744 51.7227 577.029 51.552 576.176 51.552C575.28 51.552 574.501 51.744 573.84 52.128C573.178 52.512 572.666 53.056 572.304 53.76C571.941 54.4427 571.76 55.264 571.76 56.224C571.76 57.184 571.952 58.0267 572.336 58.752C572.72 59.4773 573.264 60.0427 573.968 60.448C574.672 60.832 575.482 61.024 576.4 61.024C577.189 61.024 577.914 60.8853 578.576 60.608C579.258 60.3307 579.834 59.9253 580.304 59.392L582.544 61.664C581.797 62.5387 580.89 63.2 579.824 63.648C578.757 64.096 577.626 64.32 576.432 64.32ZM591.414 64.32C590.56 64.32 589.739 64.2133 588.95 64C588.16 63.7653 587.435 63.4453 586.774 63.04C586.112 62.6133 585.536 62.1013 585.046 61.504L587.286 59.264C587.819 59.8827 588.427 60.352 589.11 60.672C589.814 60.9707 590.603 61.12 591.478 61.12C592.267 61.12 592.864 61.0027 593.27 60.768C593.675 60.5333 593.878 60.192 593.878 59.744C593.878 59.2747 593.686 58.912 593.302 58.656C592.918 58.4 592.416 58.1867 591.798 58.016C591.2 57.824 590.56 57.632 589.878 57.44C589.216 57.248 588.576 56.992 587.958 56.672C587.36 56.3307 586.87 55.872 586.486 55.296C586.102 54.72 585.91 53.9733 585.91 53.056C585.91 52.0747 586.134 51.232 586.582 50.528C587.051 49.824 587.702 49.28 588.534 48.896C589.387 48.512 590.4 48.32 591.574 48.32C592.811 48.32 593.899 48.544 594.838 48.992C595.798 49.4187 596.598 50.0693 597.238 50.944L594.998 53.184C594.55 52.6293 594.038 52.2133 593.462 51.936C592.886 51.6587 592.224 51.52 591.478 51.52C590.774 51.52 590.23 51.6267 589.846 51.84C589.462 52.0533 589.27 52.3627 589.27 52.768C589.27 53.1947 589.462 53.5253 589.846 53.76C590.23 53.9947 590.72 54.1973 591.318 54.368C591.936 54.5387 592.576 54.7307 593.238 54.944C593.92 55.136 594.56 55.4133 595.158 55.776C595.776 56.1173 596.278 56.5867 596.662 57.184C597.046 57.76 597.238 58.5173 597.238 59.456C597.238 60.9493 596.715 62.1333 595.67 63.008C594.624 63.8827 593.206 64.32 591.414 64.32ZM602.476 64V42.24H605.996V64H602.476ZM598.796 51.84V48.64H609.676V51.84H598.796ZM616.945 64.32C616.091 64.32 615.27 64.2133 614.481 64C613.691 63.7653 612.966 63.4453 612.305 63.04C611.643 62.6133 611.067 62.1013 610.577 61.504L612.817 59.264C613.35 59.8827 613.958 60.352 614.641 60.672C615.345 60.9707 616.134 61.12 617.009 61.12C617.798 61.12 618.395 61.0027 618.801 60.768C619.206 60.5333 619.409 60.192 619.409 59.744C619.409 59.2747 619.217 58.912 618.833 58.656C618.449 58.4 617.947 58.1867 617.329 58.016C616.731 57.824 616.091 57.632 615.409 57.44C614.747 57.248 614.107 56.992 613.489 56.672C612.891 56.3307 612.401 55.872 612.017 55.296C611.633 54.72 611.441 53.9733 611.441 53.056C611.441 52.0747 611.665 51.232 612.113 50.528C612.582 49.824 613.233 49.28 614.065 48.896C614.918 48.512 615.931 48.32 617.105 48.32C618.342 48.32 619.43 48.544 620.369 48.992C621.329 49.4187 622.129 50.0693 622.769 50.944L620.529 53.184C620.081 52.6293 619.569 52.2133 618.993 51.936C618.417 51.6587 617.755 51.52 617.009 51.52C616.305 51.52 615.761 51.6267 615.377 51.84C614.993 52.0533 614.801 52.3627 614.801 52.768C614.801 53.1947 614.993 53.5253 615.377 53.76C615.761 53.9947 616.251 54.1973 616.849 54.368C617.467 54.5387 618.107 54.7307 618.769 54.944C619.451 55.136 620.091 55.4133 620.689 55.776C621.307 56.1173 621.809 56.5867 622.193 57.184C622.577 57.76 622.769 58.5173 622.769 59.456C622.769 60.9493 622.246 62.1333 621.201 63.008C620.155 63.8827 618.737 64.32 616.945 64.32Z" fill="white"/>
</svg>
