<svg width="1409" height="156" viewBox="0 0 1409 156" fill="none" xmlns="http://www.w3.org/2000/svg">
<path opacity="0.4" d="M18.8307 117.17L18.3341 117.953L18.3408 117.957L18.8307 117.17ZM5.01055 102.185L4.19042 102.616L4.19646 102.627L5.01055 102.185ZM5.01055 58.8928L4.19639 58.45L4.1905 58.4612L5.01055 58.8928ZM18.8307 43.9072L18.3408 43.1205L18.3341 43.1247L18.8307 43.9072ZM53.4642 41.5761L53.0583 42.4092L53.0665 42.4131L53.4642 41.5761ZM64.2871 50.4009L63.5405 50.95L63.5485 50.9605L64.2871 50.4009ZM68.9493 63.0555H69.876V63.0232L69.8738 62.991L68.9493 63.0555ZM68.9493 98.022L69.8738 98.0865L69.876 98.0543V98.022H68.9493ZM64.2871 110.843L63.5405 110.294L63.5377 110.298L64.2871 110.843ZM53.6307 119.501L53.2331 118.664L53.6307 119.501ZM57.1273 94.3588L57.8034 94.9927L57.8082 94.9875L57.813 94.9822L57.1273 94.3588ZM59.7914 70.5483L58.9626 70.9628L58.9688 70.9753L58.9755 70.9877L59.7914 70.5483ZM53.4642 63.888L52.973 64.6739L52.9919 64.6857L53.0114 64.6966L53.4642 63.888ZM34.6488 63.888L35.1158 64.6886L35.1256 64.6827L34.6488 63.888ZM28.1551 70.5483L27.3524 70.0852L27.3456 70.097L27.3391 70.109L28.1551 70.5483ZM28.1551 90.3627L27.3391 90.802H27.3391L28.1551 90.3627ZM61.1235 121H60.1968V121.927H61.1235V121ZM61.1235 99.1876L60.2139 99.0103L60.1968 99.0981V99.1876H61.1235ZM64.9532 79.5397L65.8627 79.717L65.8973 79.5397L65.8627 79.3624L64.9532 79.5397ZM61.1235 59.8919H60.1968V59.9813L60.2139 60.0691L61.1235 59.8919ZM61.1235 40.0775V39.1508H60.1968V40.0775H61.1235ZM86.0996 40.0775H87.0263V39.1508H86.0996V40.0775ZM86.0996 121V121.927H87.0263V121H86.0996ZM38.8115 121.738C31.5342 121.738 25.0459 119.949 19.3205 116.384L18.3408 117.957C24.3819 121.718 31.2142 123.592 38.8115 123.592V121.738ZM19.3272 116.388C13.6951 112.814 9.19471 107.939 5.82465 101.742L4.19646 102.627C7.70869 109.085 12.4217 114.201 18.3341 117.953L19.3272 116.388ZM5.83061 101.753C2.57938 95.5757 0.942039 88.512 0.942039 80.5387H-0.911364C-0.911364 88.7722 0.781444 96.1391 4.1905 102.616L5.83061 101.753ZM0.942039 80.5387C0.942039 72.5655 2.57938 65.5018 5.83061 59.3244L4.1905 58.4612C0.781444 64.9384 -0.911364 72.3053 -0.911364 80.5387H0.942039ZM5.82465 59.3356C9.19471 53.139 13.6951 48.2638 19.3272 44.6896L18.3341 43.1247C12.4217 46.8768 7.70869 51.9921 4.19646 58.4501L5.82465 59.3356ZM19.3205 44.6938C25.0459 41.1289 31.5342 39.3391 38.8115 39.3391V37.4857C31.2142 37.4857 24.3819 39.3591 18.3408 43.1205L19.3205 44.6938ZM38.8115 39.3391C44.1284 39.3391 48.871 40.3692 53.0583 42.4092L53.87 40.743C49.3989 38.5647 44.3731 37.4857 38.8115 37.4857V39.3391ZM53.0665 42.4131C57.3754 44.4599 60.8607 47.3053 63.5405 50.9499L65.0337 49.852C62.1633 45.9483 58.4332 42.9104 53.8618 40.739L53.0665 42.4131ZM63.5485 50.9605C66.2103 54.4741 67.7038 58.5186 68.0249 63.12L69.8738 62.991C69.5288 58.046 67.9142 53.6541 65.0258 49.8413L63.5485 50.9605ZM68.0226 63.0555V98.022H69.876V63.0555H68.0226ZM68.0249 97.9575C67.7038 102.56 66.2094 106.664 63.5405 110.294L65.0337 111.392C67.9151 107.473 69.5288 103.031 69.8738 98.0865L68.0249 97.9575ZM63.5377 110.298C60.9722 113.825 57.5456 116.616 53.2331 118.664L54.0283 120.339C58.5961 118.169 62.2738 115.187 65.0366 111.388L63.5377 110.298ZM53.2331 118.664C48.9298 120.708 44.128 121.738 38.8115 121.738V123.592C44.3735 123.592 49.4511 122.513 54.0283 120.339L53.2331 118.664ZM43.9732 100.614C49.6355 100.614 54.2766 98.7546 57.8034 94.9927L56.4512 93.725C53.3177 97.0674 49.1895 98.7604 43.9732 98.7604V100.614ZM57.813 94.9822C61.3173 91.1275 63.0492 86.2894 63.0492 80.5387H61.1958C61.1958 85.8885 59.5976 90.2639 56.4416 93.7355L57.813 94.9822ZM63.0492 80.5387C63.0492 76.6346 62.2445 73.1493 60.6074 70.109L58.9755 70.9877C60.4465 73.7196 61.1958 76.8945 61.1958 80.5387H63.0492ZM60.6203 70.1339C59.0955 67.0842 56.8566 64.7257 53.9169 63.0795L53.0114 64.6966C55.622 66.1585 57.6013 68.2401 58.9626 70.9628L60.6203 70.1339ZM53.9553 63.1022C51.1253 61.3335 47.8423 60.4637 44.1397 60.4637V62.3171C47.5415 62.3171 50.4748 63.1125 52.973 64.6739L53.9553 63.1022ZM44.1397 60.4637C40.4365 60.4637 37.105 61.3336 34.1721 63.0934L35.1256 64.6827C37.7429 63.1123 40.7386 62.3171 44.1397 62.3171V60.4637ZM34.1819 63.0876C31.3673 64.7294 29.0914 67.0709 27.3524 70.0852L28.9578 71.0114C30.5489 68.2535 32.6022 66.1548 35.1158 64.6885L34.1819 63.0876ZM27.3391 70.109C25.702 73.1493 24.8973 76.6346 24.8973 80.5387H26.7507C26.7507 76.8945 27.5 73.7196 28.971 70.9877L27.3391 70.109ZM24.8973 80.5387C24.8973 84.3369 25.7041 87.7656 27.3391 90.802L28.971 89.9233C27.4978 87.1875 26.7507 84.0669 26.7507 80.5387H24.8973ZM27.3391 90.802C28.9712 93.8329 31.2521 96.2321 34.1721 97.9841L35.1256 96.3948C32.4954 94.8167 30.4471 92.6647 28.971 89.9233L27.3391 90.802ZM34.1721 97.9841C37.1004 99.7411 40.3752 100.614 43.9732 100.614V98.7604C40.689 98.7604 37.7475 97.968 35.1256 96.3948L34.1721 97.9841ZM62.0502 121V99.1876H60.1968V121H62.0502ZM62.0331 99.3649L65.8627 79.717L64.0436 79.3624L60.2139 99.0103L62.0331 99.3649ZM65.8627 79.3624L62.0331 59.7146L60.2139 60.0691L64.0436 79.717L65.8627 79.3624ZM62.0502 59.8919V40.0775H60.1968V59.8919H62.0502ZM61.1235 41.0042H86.0996V39.1508H61.1235V41.0042ZM85.1729 40.0775V121H87.0263V40.0775H85.1729ZM86.0996 120.073H61.1235V121.927H86.0996V120.073ZM157.486 121H156.559V121.927H157.486V121ZM153.489 64.7206L152.82 65.3617L152.834 65.376L152.848 65.3896L153.489 64.7206ZM136.339 62.556L136.771 63.376L136.787 63.3673L136.804 63.358L136.339 62.556ZM131.344 67.5512L132.146 68.0155L132.151 68.0067L132.156 67.9978L131.344 67.5512ZM129.512 74.8775L129.104 75.7092L130.439 76.3656V74.8775H129.512ZM119.688 70.0488H118.762V70.6259L119.28 70.8805L119.688 70.0488ZM135.34 42.4086L135.769 43.2299L135.776 43.2263L135.34 42.4086ZM167.976 42.7416L167.479 43.5242L167.49 43.5312L167.502 43.5379L167.976 42.7416ZM178.965 53.8976L178.16 54.3574L178.965 53.8976ZM182.961 121V121.927H183.888V121H182.961ZM104.037 121H103.11V121.927H104.037V121ZM104.037 40.0775V39.1508H103.11V40.0775H104.037ZM129.512 40.0775H130.439V39.1508H129.512V40.0775ZM129.512 121V121.927H130.439V121H129.512ZM158.412 121V74.8775H156.559V121H158.412ZM158.412 74.8775C158.412 70.4463 157.004 66.805 154.131 64.0515L152.848 65.3896C155.303 67.7424 156.559 70.8724 156.559 74.8775H158.412ZM154.159 64.0794C151.415 61.2167 147.891 59.7977 143.666 59.7977V61.6511C147.432 61.6511 150.458 62.8962 152.82 65.3617L154.159 64.0794ZM143.666 59.7977C140.75 59.7977 138.144 60.4404 135.875 61.754L136.804 63.358C138.753 62.2294 141.03 61.6511 143.666 61.6511V59.7977ZM135.908 61.7359C133.628 62.9359 131.835 64.736 130.532 67.1046L132.156 67.9978C133.295 65.9262 134.833 64.3961 136.771 63.376L135.908 61.7359ZM130.542 67.0869C129.228 69.3557 128.586 71.9623 128.586 74.8775H130.439C130.439 72.2424 131.017 69.9648 132.146 68.0155L130.542 67.0869ZM129.921 74.0458L120.097 69.2171L119.28 70.8805L129.104 75.7092L129.921 74.0458ZM120.615 70.0488C120.615 63.8609 121.971 58.476 124.652 53.8639L123.05 52.9323C120.181 57.8665 118.762 63.5822 118.762 70.0488H120.615ZM124.652 53.8639C127.34 49.2416 131.041 45.7018 135.769 43.2299L134.911 41.5873C129.871 44.2216 125.913 48.0082 123.05 52.9323L124.652 53.8639ZM135.776 43.2263C140.624 40.6406 146.078 39.3391 152.157 39.3391V37.4857C145.804 37.4857 140.046 38.8484 134.904 41.5909L135.776 43.2263ZM152.157 39.3391C157.996 39.3391 163.093 40.7426 167.479 43.5242L168.472 41.959C163.756 38.9684 158.307 37.4857 152.157 37.4857V39.3391ZM167.502 43.5379C172.028 46.2322 175.577 49.8355 178.16 54.3574L179.77 53.4378C177.025 48.6353 173.248 44.8013 168.45 41.9453L167.502 43.5379ZM178.16 54.3574C180.742 58.8747 182.035 63.8216 182.035 69.2163H183.888C183.888 63.5104 182.517 58.2449 179.77 53.4378L178.16 54.3574ZM182.035 69.2163V121H183.888V69.2163H182.035ZM182.961 120.073H157.486V121.927H182.961V120.073ZM104.964 121V40.0775H103.11V121H104.964ZM104.037 41.0042H129.512V39.1508H104.037V41.0042ZM128.586 40.0775V121H130.439V40.0775H128.586ZM129.512 120.073H104.037V121.927H129.512V120.073ZM224.299 121.333L223.442 121.684L223.678 122.26H224.299V121.333ZM190.998 40.0775V39.1508H189.616L190.14 40.4289L190.998 40.0775ZM218.471 40.0775L219.352 39.7885L219.143 39.1508H218.471V40.0775ZM239.618 104.516V105.442H240.897L240.498 104.227L239.618 104.516ZM229.461 104.516L228.582 104.221L228.172 105.442H229.461V104.516ZM251.107 40.0775V39.1508H250.441L250.228 39.7824L251.107 40.0775ZM278.581 40.0775L279.433 40.4408L279.983 39.1508H278.581V40.0775ZM243.947 121.333V122.26H244.559L244.8 121.696L243.947 121.333ZM203.486 155.134L202.645 154.744L202.035 156.061H203.486V155.134ZM227.796 102.684L228.496 102.078L227.558 100.994L226.955 102.295L227.796 102.684ZM243.947 121.333L244.8 121.695L245.026 121.163L244.648 120.726L243.947 121.333ZM229.627 155.134V156.061H230.241L230.481 155.495L229.627 155.134ZM225.157 120.982L191.855 39.7261L190.14 40.4289L223.442 121.684L225.157 120.982ZM190.998 41.0042H218.471V39.1508H190.998V41.0042ZM217.591 40.3664L238.737 104.805L240.498 104.227L219.352 39.7885L217.591 40.3664ZM239.618 103.589H229.461V105.442H239.618V103.589ZM230.339 104.811L251.985 40.3726L250.228 39.7824L228.582 104.221L230.339 104.811ZM251.107 41.0042H278.581V39.1508H251.107V41.0042ZM277.728 39.7141L243.095 120.97L244.8 121.696L279.433 40.4408L277.728 39.7141ZM243.947 120.406H224.299V122.26H243.947V120.406ZM204.327 155.524L228.637 103.074L226.955 102.295L202.645 154.744L204.327 155.524ZM227.095 103.291L243.247 121.94L244.648 120.726L228.496 102.078L227.095 103.291ZM243.094 120.972L228.774 154.772L230.481 155.495L244.8 121.695L243.094 120.972ZM229.627 154.207H203.486V156.061H229.627V154.207ZM298.456 121H297.529V121.927H298.456V121ZM298.456 6.60955V5.68285H297.529V6.60955H298.456ZM323.932 6.60955H324.858V5.68285H323.932V6.60955ZM323.932 121V121.927H324.858V121H323.932ZM280.14 61.7234H279.214V62.6501H280.14V61.7234ZM280.14 40.0775V39.1508H279.214V40.0775H280.14ZM342.247 40.0775H343.174V39.1508H342.247V40.0775ZM342.247 61.7234V62.6501H343.174V61.7234H342.247ZM299.383 121V6.60955H297.529V121H299.383ZM298.456 7.53625H323.932V5.68285H298.456V7.53625ZM323.005 6.60955V121H324.858V6.60955H323.005ZM323.932 120.073H298.456V121.927H323.932V120.073ZM281.067 61.7234V40.0775H279.214V61.7234H281.067ZM280.14 41.0042H342.247V39.1508H280.14V41.0042ZM341.321 40.0775V61.7234H343.174V40.0775H341.321ZM342.247 60.7967H280.14V62.6501H342.247V60.7967ZM353.472 121H352.546V121.927H353.472V121ZM353.472 40.0775V39.1508H352.546V40.0775H353.472ZM378.948 40.0775H379.875V39.1508H378.948V40.0775ZM378.948 121V121.927H379.875V121H378.948ZM356.303 24.9253L355.621 25.5528L355.634 25.567L355.648 25.5806L356.303 24.9253ZM356.303 4.94448L355.648 4.2892L355.641 4.29617L355.634 4.30329L356.303 4.94448ZM376.117 24.9253L376.786 25.5665L376.793 25.5597L376.799 25.5528L376.117 24.9253ZM354.399 121V40.0775H352.546V121H354.399ZM353.472 41.0042H378.948V39.1508H353.472V41.0042ZM378.021 40.0775V121H379.875V40.0775H378.021ZM378.948 120.073H353.472V121.927H378.948V120.073ZM366.293 27.9948C362.527 27.9948 359.437 26.749 356.958 24.2701L355.648 25.5806C358.497 28.4299 362.068 29.8482 366.293 29.8482V27.9948ZM356.985 24.2979C354.594 21.6995 353.4 18.5954 353.4 14.9349H351.547C351.547 19.0447 352.905 22.601 355.621 25.5528L356.985 24.2979ZM353.4 14.9349C353.4 11.1559 354.599 8.06218 356.972 5.58567L355.634 4.30329C352.901 7.155 351.547 10.7215 351.547 14.9349H353.4ZM356.958 5.59975C359.437 3.12079 362.527 1.87501 366.293 1.87501V0.0216026C362.068 0.0216026 358.497 1.43993 355.648 4.2892L356.958 5.59975ZM366.293 1.87501C370.06 1.87501 373.085 3.12009 375.448 5.58567L376.786 4.30329C374.043 1.44063 370.519 0.0216026 366.293 0.0216026V1.87501ZM375.448 5.58567C377.822 8.06218 379.02 11.1559 379.02 14.9349H380.874C380.874 10.7215 379.519 7.155 376.786 4.30329L375.448 5.58567ZM379.02 14.9349C379.02 18.5954 377.826 21.6995 375.435 24.2979L376.799 25.5528C379.515 22.601 380.874 19.0447 380.874 14.9349H379.02ZM375.448 24.2841C373.085 26.7497 370.06 27.9948 366.293 27.9948V29.8482C370.519 29.8482 374.043 28.4292 376.786 25.5665L375.448 24.2841ZM396.888 121H395.961V121.927H396.888V121ZM396.888 40.0775V39.1508H395.961V40.0775H396.888ZM422.363 40.0775H423.29V39.1508H422.363V40.0775ZM422.363 121V121.927H423.29V121H422.363ZM448.672 121H447.745V121.927H448.672V121ZM444.842 64.221L444.202 64.8914L444.218 64.9062L444.234 64.9203L444.842 64.221ZM428.857 62.3895L429.272 63.2183L429.29 63.2093L429.307 63.1995L428.857 62.3895ZM424.029 66.7187L423.25 66.2152L423.24 66.2318L423.23 66.2488L424.029 66.7187ZM422.363 73.712L421.99 74.56L423.29 75.133V73.712H422.363ZM412.54 69.3828H411.613V69.9871L412.166 70.2308L412.54 69.3828ZM416.702 52.8986L417.493 53.381L417.499 53.3725L416.702 52.8986ZM428.025 42.2421L428.447 43.0671L428.454 43.0632L428.462 43.0592L428.025 42.2421ZM459.328 42.2421L458.866 43.0455L458.875 43.0503L459.328 42.2421ZM470.151 52.8986L469.351 53.3667V53.3667L470.151 52.8986ZM474.147 121V121.927H475.074V121H474.147ZM500.455 121H499.529V121.927H500.455V121ZM496.626 64.221L495.986 64.8914L496.001 64.9062L496.018 64.9203L496.626 64.221ZM480.641 62.3895L481.055 63.2183L481.073 63.2093L481.091 63.1995L480.641 62.3895ZM475.812 66.7187L475.034 66.2152L475.023 66.2318L475.013 66.2488L475.812 66.7187ZM474.147 73.712L474.022 74.6302L475.074 74.7736V73.712H474.147ZM459.495 71.7139L458.568 71.684L458.541 72.5192L459.369 72.6321L459.495 71.7139ZM464.323 54.0641L463.536 53.5745L463.533 53.5794L464.323 54.0641ZM476.478 42.5751L476.914 43.3928L476.921 43.3893L476.478 42.5751ZM510.113 42.4086L509.661 43.2178L509.672 43.224L509.683 43.2299L510.113 42.4086ZM521.602 53.5646L520.796 54.0224L520.802 54.0333L520.809 54.0441L521.602 53.5646ZM525.931 121V121.927H526.858V121H525.931ZM397.815 121V40.0775H395.961V121H397.815ZM396.888 41.0042H422.363V39.1508H396.888V41.0042ZM421.437 40.0775V121H423.29V40.0775H421.437ZM422.363 120.073H396.888V121.927H422.363V120.073ZM449.598 121V73.712H447.745V121H449.598ZM449.598 73.712C449.598 69.3992 448.248 65.9551 445.45 63.5217L444.234 64.9203C446.542 66.9271 447.745 69.8104 447.745 73.712H449.598ZM445.482 63.5507C442.852 61.0403 439.563 59.7977 435.684 59.7977V61.6511C439.131 61.6511 441.948 62.7395 444.202 64.8914L445.482 63.5507ZM435.684 59.7977C432.992 59.7977 430.558 60.3842 428.407 61.5794L429.307 63.1995C431.152 62.1746 433.27 61.6511 435.684 61.6511V59.7977ZM428.443 61.5606C426.296 62.6342 424.561 64.19 423.25 66.2152L424.807 67.2221C425.938 65.4731 427.423 64.1428 429.272 63.2183L428.443 61.5606ZM423.23 66.2488C422.016 68.3116 421.437 70.8152 421.437 73.712H423.29C423.29 71.0585 423.821 68.8998 424.827 67.1885L423.23 66.2488ZM422.737 72.8639L412.913 68.5348L412.166 70.2308L421.99 74.56L422.737 72.8639ZM413.466 69.3828C413.466 63.0792 414.824 57.7593 417.493 53.381L415.911 52.4161C413.03 57.1402 411.613 62.8098 411.613 69.3828H413.466ZM417.499 53.3725C420.186 48.8583 423.831 45.4287 428.447 43.0671L427.603 41.4171C422.672 43.9396 418.769 47.6144 415.906 52.4246L417.499 53.3725ZM428.462 43.0592C433.087 40.5855 438.317 39.3391 444.176 39.3391V37.4857C438.046 37.4857 432.509 38.7924 427.588 41.4249L428.462 43.0592ZM444.176 39.3391C449.693 39.3391 454.581 40.5815 458.866 43.0455L459.79 41.4387C455.195 38.7965 449.982 37.4857 444.176 37.4857V39.3391ZM458.875 43.0503C463.281 45.522 466.769 48.956 469.351 53.3667L470.951 52.4304C468.204 47.7387 464.478 44.0684 459.781 41.4339L458.875 43.0503ZM469.351 53.3667C471.917 57.7499 473.22 63.0206 473.22 69.2163H475.074C475.074 62.7574 473.713 57.1496 470.951 52.4304L469.351 53.3667ZM473.22 69.2163V121H475.074V69.2163H473.22ZM474.147 120.073H448.672V121.927H474.147V120.073ZM501.382 121V73.712H499.529V121H501.382ZM501.382 73.712C501.382 69.3992 500.032 65.9551 497.234 63.5217L496.018 64.9203C498.325 66.9271 499.529 69.8104 499.529 73.712H501.382ZM497.266 63.5507C494.636 61.0403 491.347 59.7977 487.468 59.7977V61.6511C490.915 61.6511 493.732 62.7395 495.986 64.8914L497.266 63.5507ZM487.468 59.7977C484.776 59.7977 482.342 60.3842 480.191 61.5794L481.091 63.1995C482.936 62.1746 485.053 61.6511 487.468 61.6511V59.7977ZM480.227 61.5606C478.079 62.6342 476.345 64.19 475.034 66.2152L476.59 67.2221C477.722 65.4731 479.206 64.1428 481.055 63.2183L480.227 61.5606ZM475.013 66.2488C473.8 68.3116 473.22 70.8152 473.22 73.712H475.074C475.074 71.0585 475.604 68.8998 476.611 67.1885L475.013 66.2488ZM474.272 72.7937L459.62 70.7957L459.369 72.6321L474.022 74.6302L474.272 72.7937ZM460.421 71.7437C460.639 64.9899 462.216 59.2706 465.113 54.5488L463.533 53.5794C460.437 58.626 458.794 64.6732 458.568 71.684L460.421 71.7437ZM465.11 54.5537C468.136 49.6911 472.069 45.9772 476.914 43.3928L476.042 41.7574C470.897 44.5013 466.727 48.4467 463.536 53.5745L465.11 54.5537ZM476.921 43.3893C481.879 40.6945 487.442 39.3391 493.629 39.3391V37.4857C487.161 37.4857 481.29 38.9055 476.036 41.7609L476.921 43.3893ZM493.629 39.3391C499.709 39.3391 505.044 40.6408 509.661 43.2178L510.564 41.5994C505.635 38.8482 499.981 37.4857 493.629 37.4857V39.3391ZM509.683 43.2299C514.407 45.6988 518.107 49.2898 520.796 54.0224L522.407 53.1068C519.546 48.0709 515.587 44.2246 510.542 41.5873L509.683 43.2299ZM520.809 54.0441C523.59 58.6445 525.004 64.2429 525.004 70.8813H526.858C526.858 63.9772 525.385 58.0311 522.395 53.0851L520.809 54.0441ZM525.004 70.8813V121H526.858V70.8813H525.004ZM525.931 120.073H500.455V121.927H525.931V120.073ZM558.741 117.503L558.3 118.318L558.308 118.323L558.316 118.327L558.741 117.503ZM542.756 102.351L543.549 101.872L542.756 102.351ZM542.589 58.8928L541.796 58.414L541.794 58.4181L542.589 58.8928ZM558.241 43.7407L557.789 42.9319L558.241 43.7407ZM615.853 57.7273L615.045 58.1823L615.052 58.1933L615.853 57.7273ZM620.848 83.3694L619.929 83.2469L619.926 83.275L619.924 83.3033L620.848 83.3694ZM620.015 88.8641L620.018 89.7908L620.768 89.789L620.922 89.055L620.015 88.8641ZM550.249 89.0306H549.322V89.9595L550.251 89.9573L550.249 89.0306ZM550.249 71.5474L550.246 70.6207L549.322 70.6233V71.5474H550.249ZM609.192 71.3809L609.706 72.1519L612.266 70.4455L609.19 70.4542L609.192 71.3809ZM598.203 78.7072L597.276 78.7292L597.317 80.4118L598.717 79.4782L598.203 78.7072ZM596.038 67.2182L595.186 67.5833L595.191 67.5945L596.038 67.2182ZM590.044 60.2249L589.538 61.0011L589.557 61.0137L589.577 61.0253L590.044 60.2249ZM570.063 60.5579L570.549 61.3472L570.557 61.3421L570.063 60.5579ZM563.236 68.2172L562.408 67.8028L562.402 67.814L562.397 67.8253L563.236 68.2172ZM563.403 92.6938L562.569 93.0974L562.577 93.1138L562.585 93.1299L563.403 92.6938ZM570.729 100.52L570.248 101.312L570.265 101.322L570.282 101.331L570.729 100.52ZM592.875 101.186L593.229 102.042L593.241 102.037L593.254 102.031L592.875 101.186ZM601.367 94.8584L602.022 94.2031L601.323 93.5047L600.671 94.2462L601.367 94.8584ZM615.353 108.845L616.057 109.448L616.615 108.797L616.008 108.19L615.353 108.845ZM600.867 119.335L600.514 118.478L600.867 119.335ZM582.218 121.905C573.577 121.905 565.9 120.156 559.166 116.68L558.316 118.327C565.346 121.955 573.321 123.758 582.218 123.758V121.905ZM559.182 116.688C552.552 113.102 547.347 108.166 543.549 101.872L541.963 102.83C545.935 109.413 551.387 114.579 558.3 118.318L559.182 116.688ZM543.549 101.872C539.758 95.5898 537.855 88.4869 537.855 80.5387H536.002C536.002 88.7973 537.983 96.236 541.963 102.83L543.549 101.872ZM537.855 80.5387C537.855 72.5853 539.705 65.5372 543.385 59.3675L541.794 58.4181C537.925 64.903 536.002 72.2855 536.002 80.5387H537.855ZM543.383 59.3716C547.185 53.0708 552.285 48.1339 558.694 44.5494L557.789 42.9319C551.099 46.6737 545.764 51.8383 541.796 58.414L543.383 59.3716ZM558.694 44.5494C565.092 40.9708 572.315 39.1726 580.387 39.1726V37.3192C572.029 37.3192 564.489 39.1842 557.789 42.9319L558.694 44.5494ZM580.387 39.1726C588.242 39.1726 595.13 40.8625 601.078 44.2149L601.988 42.6003C595.725 39.0705 588.516 37.3192 580.387 37.3192V39.1726ZM601.078 44.2149C607.036 47.573 611.687 52.2244 615.045 58.1823L616.66 57.2722C613.136 51.0196 608.241 46.1246 601.988 42.6003L601.078 44.2149ZM615.052 58.1933C618.512 64.1412 620.254 70.9701 620.254 78.7072H622.108C622.108 70.6815 620.297 63.5239 616.654 57.2612L615.052 58.1933ZM620.254 78.7072C620.254 80.1033 620.147 81.616 619.929 83.2469L621.766 83.4919C621.993 81.7926 622.108 80.1972 622.108 78.7072H620.254ZM619.924 83.3033C619.816 84.803 619.547 86.5909 619.109 88.6732L620.922 89.055C621.372 86.9191 621.657 85.0439 621.772 83.4354L619.924 83.3033ZM620.013 87.9374L550.247 88.1039L550.251 89.9573L620.018 89.7908L620.013 87.9374ZM551.176 89.0306V71.5474H549.322V89.0306H551.176ZM550.251 72.4741L609.195 72.3075L609.19 70.4542L550.246 70.6207L550.251 72.4741ZM608.678 70.6098L597.689 77.9361L598.717 79.4782L609.706 72.1519L608.678 70.6098ZM599.129 78.6851C599.017 73.9483 598.283 69.9872 596.885 66.8418L595.191 67.5945C596.458 70.4434 597.167 74.1416 597.276 78.7292L599.129 78.6851ZM596.89 66.8531C595.488 63.5809 593.363 61.0883 590.511 59.4244L589.577 61.0253C592.053 62.4696 593.925 64.6392 595.187 67.5832L596.89 66.8531ZM590.55 59.4487C587.814 57.6643 584.464 56.8006 580.553 56.8006V58.654C584.19 58.654 587.168 59.4553 589.538 61.0011L590.55 59.4487ZM580.553 56.8006C576.405 56.8006 572.733 57.7819 569.569 59.7737L570.557 61.3421C573.388 59.5597 576.709 58.654 580.553 58.654V56.8006ZM569.578 59.7687C566.53 61.6441 564.142 64.3339 562.408 67.8028L564.065 68.6317C565.661 65.4402 567.824 63.0239 570.549 61.3471L569.578 59.7687ZM562.397 67.8253C560.771 71.3091 559.979 75.5025 559.979 80.3722H561.832C561.832 75.6956 562.594 71.7856 564.076 68.6091L562.397 67.8253ZM559.979 80.3722C559.979 85.2514 560.83 89.5031 562.569 93.0974L564.237 92.2901C562.646 89.0022 561.832 85.0395 561.832 80.3722H559.979ZM562.585 93.1299C564.436 96.6009 566.992 99.335 570.248 101.312L571.21 99.7275C568.25 97.9301 565.922 95.4469 564.221 92.2577L562.585 93.1299ZM570.282 101.331C573.66 103.195 577.594 104.11 582.052 104.11V102.257C577.851 102.257 574.236 101.396 571.177 99.7082L570.282 101.331ZM582.052 104.11C586.152 104.11 589.882 103.427 593.229 102.042L592.52 100.329C589.429 101.609 585.944 102.257 582.052 102.257V104.11ZM593.254 102.031C596.6 100.531 599.537 98.3404 602.062 95.4706L600.671 94.2462C598.312 96.9266 595.588 98.9538 592.496 100.34L593.254 102.031ZM600.711 95.5136L614.698 109.5L616.008 108.19L602.022 94.2031L600.711 95.5136ZM614.65 108.242C610.748 112.793 606.04 116.203 600.514 118.478L601.22 120.192C607.017 117.805 611.966 114.221 616.057 109.448L614.65 108.242ZM600.514 118.478C594.976 120.758 588.881 121.905 582.218 121.905V123.758C589.098 123.758 595.435 122.574 601.22 120.192L600.514 118.478ZM679.006 117.17L678.509 117.953L678.516 117.957L679.006 117.17ZM665.186 102.185L664.365 102.616L664.372 102.627L665.186 102.185ZM665.186 58.8928L664.371 58.45L664.366 58.4612L665.186 58.8928ZM679.006 43.9072L678.516 43.1205L678.509 43.1247L679.006 43.9072ZM713.639 41.5761L713.233 42.4092L713.242 42.4131L713.639 41.5761ZM724.462 50.4009L723.716 50.95L723.724 50.9605L724.462 50.4009ZM729.124 63.0555H730.051V63.0232L730.049 62.991L729.124 63.0555ZM729.124 98.022L730.049 98.0865L730.051 98.0543V98.022H729.124ZM724.462 110.843L723.716 110.294L723.713 110.298L724.462 110.843ZM713.806 119.501L713.408 118.664L713.806 119.501ZM717.302 94.3588L717.978 94.9927L717.983 94.9875L717.988 94.9822L717.302 94.3588ZM719.966 70.5483L719.138 70.9628L719.144 70.9753L719.151 70.9877L719.966 70.5483ZM713.639 63.888L713.148 64.6739L713.167 64.6857L713.186 64.6966L713.639 63.888ZM694.824 63.888L695.291 64.6886L695.301 64.6827L694.824 63.888ZM688.33 70.5483L687.527 70.0852L687.521 70.097L687.514 70.109L688.33 70.5483ZM688.33 90.3627L687.514 90.802L688.33 90.3627ZM721.299 121H720.372V121.927H721.299V121ZM721.299 99.1876L720.389 99.0103L720.372 99.0981V99.1876H721.299ZM725.128 79.5397L726.038 79.717L726.072 79.5397L726.038 79.3624L725.128 79.5397ZM721.299 59.8919H720.372V59.9813L720.389 60.0691L721.299 59.8919ZM721.299 40.0775V39.1508H720.372V40.0775H721.299ZM746.275 40.0775H747.201V39.1508H746.275V40.0775ZM746.275 121V121.927H747.201V121H746.275ZM698.987 121.738C691.709 121.738 685.221 119.949 679.496 116.384L678.516 117.957C684.557 121.718 691.389 123.592 698.987 123.592V121.738ZM679.502 116.388C673.87 112.814 669.37 107.939 666 101.742L664.372 102.627C667.884 109.085 672.597 114.201 678.509 117.953L679.502 116.388ZM666.006 101.753C662.754 95.5757 661.117 88.512 661.117 80.5387H659.264C659.264 88.7722 660.956 96.1391 664.366 102.616L666.006 101.753ZM661.117 80.5387C661.117 72.5655 662.754 65.5018 666.006 59.3244L664.366 58.4612C660.956 64.9384 659.264 72.3053 659.264 80.5387H661.117ZM666 59.3356C669.37 53.139 673.87 48.2638 679.502 44.6896L678.509 43.1247C672.597 46.8768 667.884 51.9921 664.372 58.4501L666 59.3356ZM679.496 44.6938C685.221 41.1289 691.709 39.3391 698.987 39.3391V37.4857C691.389 37.4857 684.557 39.3591 678.516 43.1205L679.496 44.6938ZM698.987 39.3391C704.303 39.3391 709.046 40.3692 713.233 42.4092L714.045 40.743C709.574 38.5647 704.548 37.4857 698.987 37.4857V39.3391ZM713.242 42.4131C717.55 44.4599 721.036 47.3053 723.716 50.9499L725.209 49.852C722.338 45.9483 718.608 42.9104 714.037 40.739L713.242 42.4131ZM723.724 50.9605C726.385 54.4741 727.879 58.5186 728.2 63.12L730.049 62.991C729.704 58.046 728.089 53.6541 725.201 49.8413L723.724 50.9605ZM728.198 63.0555V98.022H730.051V63.0555H728.198ZM728.2 97.9575C727.879 102.56 726.384 106.664 723.716 110.294L725.209 111.392C728.09 107.473 729.704 103.031 730.049 98.0865L728.2 97.9575ZM723.713 110.298C721.147 113.825 717.721 116.616 713.408 118.664L714.203 120.339C718.771 118.169 722.449 115.187 725.212 111.388L723.713 110.298ZM713.408 118.664C709.105 120.708 704.303 121.738 698.987 121.738V123.592C704.549 123.592 709.626 122.513 714.203 120.339L713.408 118.664ZM704.148 100.614C709.811 100.614 714.452 98.7546 717.978 94.9927L716.626 93.725C713.493 97.0674 709.365 98.7604 704.148 98.7604V100.614ZM717.988 94.9822C721.492 91.1275 723.224 86.2894 723.224 80.5387H721.371C721.371 85.8885 719.773 90.2639 716.617 93.7355L717.988 94.9822ZM723.224 80.5387C723.224 76.6346 722.419 73.1493 720.782 70.109L719.151 70.9877C720.622 73.7196 721.371 76.8945 721.371 80.5387H723.224ZM720.795 70.1339C719.271 67.0842 717.032 64.7257 714.092 63.0795L713.186 64.6966C715.797 66.1585 717.776 68.2401 719.138 70.9628L720.795 70.1339ZM714.13 63.1022C711.3 61.3335 708.017 60.4637 704.315 60.4637V62.3171C707.717 62.3171 710.65 63.1125 713.148 64.6739L714.13 63.1022ZM704.315 60.4637C700.612 60.4637 697.28 61.3336 694.347 63.0934L695.301 64.6827C697.918 63.1123 700.914 62.3171 704.315 62.3171V60.4637ZM694.357 63.0876C691.542 64.7294 689.266 67.0709 687.527 70.0852L689.133 71.0114C690.724 68.2535 692.777 66.1548 695.291 64.6885L694.357 63.0876ZM687.514 70.109C685.877 73.1493 685.072 76.6346 685.072 80.5387H686.926C686.926 76.8945 687.675 73.7196 689.146 70.9877L687.514 70.109ZM685.072 80.5387C685.072 84.3369 685.879 87.7656 687.514 90.802L689.146 89.9233C687.673 87.1875 686.926 84.0669 686.926 80.5387H685.072ZM687.514 90.802C689.146 93.8329 691.427 96.2321 694.347 97.9841L695.301 96.3948C692.67 94.8167 690.622 92.6647 689.146 89.9233L687.514 90.802ZM694.347 97.9841C697.275 99.7411 700.55 100.614 704.148 100.614V98.7604C700.864 98.7604 697.923 97.968 695.301 96.3948L694.347 97.9841ZM722.225 121V99.1876H720.372V121H722.225ZM722.208 99.3649L726.038 79.717L724.219 79.3624L720.389 99.0103L722.208 99.3649ZM726.038 79.3624L722.208 59.7146L720.389 60.0691L724.219 79.717L726.038 79.3624ZM722.225 59.8919V40.0775H720.372V59.8919H722.225ZM721.299 41.0042H746.275V39.1508H721.299V41.0042ZM745.348 40.0775V121H747.201V40.0775H745.348ZM746.275 120.073H721.299V121.927H746.275V120.073ZM817.661 121H816.734V121.927H817.661V121ZM813.664 64.7206L812.995 65.3617L813.009 65.376L813.023 65.3896L813.664 64.7206ZM796.514 62.556L796.946 63.376L796.962 63.3673L796.979 63.358L796.514 62.556ZM791.519 67.5512L792.321 68.0155L792.326 68.0067L792.331 67.9978L791.519 67.5512ZM789.687 74.8775L789.279 75.7092L790.614 76.3656V74.8775H789.687ZM779.864 70.0488H778.937V70.6259L779.455 70.8805L779.864 70.0488ZM795.515 42.4086L795.945 43.2299L795.951 43.2263L795.515 42.4086ZM828.151 42.7416L827.654 43.5242L827.665 43.5312L827.677 43.5379L828.151 42.7416ZM839.14 53.8976L838.336 54.3574L839.14 53.8976ZM843.136 121V121.927H844.063V121H843.136ZM764.212 121H763.285V121.927H764.212V121ZM764.212 40.0775V39.1508H763.285V40.0775H764.212ZM789.687 40.0775H790.614V39.1508H789.687V40.0775ZM789.687 121V121.927H790.614V121H789.687ZM818.587 121V74.8775H816.734V121H818.587ZM818.587 74.8775C818.587 70.4463 817.179 66.805 814.306 64.0515L813.023 65.3896C815.478 67.7424 816.734 70.8724 816.734 74.8775H818.587ZM814.334 64.0794C811.59 61.2167 808.066 59.7977 803.841 59.7977V61.6511C807.607 61.6511 810.633 62.8962 812.995 65.3617L814.334 64.0794ZM803.841 59.7977C800.925 59.7977 798.319 60.4404 796.05 61.754L796.979 63.358C798.928 62.2294 801.206 61.6511 803.841 61.6511V59.7977ZM796.083 61.7359C793.803 62.9359 792.01 64.736 790.707 67.1046L792.331 67.9978C793.47 65.9262 795.008 64.3961 796.946 63.376L796.083 61.7359ZM790.717 67.0869C789.404 69.3557 788.761 71.9623 788.761 74.8775H790.614C790.614 72.2424 791.192 69.9648 792.321 68.0155L790.717 67.0869ZM790.096 74.0458L780.272 69.2171L779.455 70.8805L789.279 75.7092L790.096 74.0458ZM780.79 70.0488C780.79 63.8609 782.146 58.476 784.827 53.8639L783.225 52.9323C780.356 57.8665 778.937 63.5822 778.937 70.0488H780.79ZM784.827 53.8639C787.515 49.2416 791.216 45.7018 795.945 43.2299L795.086 41.5873C790.046 44.2216 786.088 48.0082 783.225 52.9323L784.827 53.8639ZM795.951 43.2263C800.799 40.6406 806.253 39.3391 812.332 39.3391V37.4857C805.979 37.4857 800.221 38.8484 795.079 41.5909L795.951 43.2263ZM812.332 39.3391C818.171 39.3391 823.268 40.7426 827.654 43.5242L828.647 41.959C823.931 38.9684 818.482 37.4857 812.332 37.4857V39.3391ZM827.677 43.5379C832.203 46.2322 835.752 49.8355 838.336 54.3574L839.945 53.4378C837.2 48.6353 833.423 44.8013 828.625 41.9453L827.677 43.5379ZM838.336 54.3574C840.917 58.8747 842.21 63.8216 842.21 69.2163H844.063C844.063 63.5104 842.692 58.2449 839.945 53.4378L838.336 54.3574ZM842.21 69.2163V121H844.063V69.2163H842.21ZM843.136 120.073H817.661V121.927H843.136V120.073ZM765.139 121V40.0775H763.285V121H765.139ZM764.212 41.0042H789.687V39.1508H764.212V41.0042ZM788.761 40.0775V121H790.614V40.0775H788.761ZM789.687 120.073H764.212V121.927H789.687V120.073ZM884.474 121.333L883.617 121.684L883.853 122.26H884.474V121.333ZM851.173 40.0775V39.1508H849.792L850.315 40.4289L851.173 40.0775ZM878.646 40.0775L879.527 39.7885L879.318 39.1508H878.646V40.0775ZM899.793 104.516V105.442H901.072L900.673 104.227L899.793 104.516ZM889.636 104.516L888.758 104.221L888.347 105.442H889.636V104.516ZM911.282 40.0775V39.1508H910.616L910.403 39.7824L911.282 40.0775ZM938.756 40.0775L939.608 40.4408L940.158 39.1508H938.756V40.0775ZM904.122 121.333V122.26H904.734L904.975 121.696L904.122 121.333ZM863.661 155.134L862.82 154.744L862.21 156.061H863.661V155.134ZM887.971 102.684L888.671 102.078L887.733 100.994L887.13 102.295L887.971 102.684ZM904.122 121.333L904.975 121.695L905.201 121.163L904.823 120.726L904.122 121.333ZM889.802 155.134V156.061H890.416L890.656 155.495L889.802 155.134ZM885.332 120.982L852.03 39.7261L850.315 40.4289L883.617 121.684L885.332 120.982ZM851.173 41.0042H878.646V39.1508H851.173V41.0042ZM877.766 40.3664L898.912 104.805L900.673 104.227L879.527 39.7885L877.766 40.3664ZM899.793 103.589H889.636V105.442H899.793V103.589ZM890.514 104.811L912.16 40.3726L910.403 39.7824L888.758 104.221L890.514 104.811ZM911.282 41.0042H938.756V39.1508H911.282V41.0042ZM937.903 39.7141L903.27 120.97L904.975 121.696L939.608 40.4408L937.903 39.7141ZM904.122 120.406H884.474V122.26H904.122V120.406ZM864.502 155.524L888.812 103.074L887.13 102.295L862.82 154.744L864.502 155.524ZM887.27 103.291L903.422 121.94L904.823 120.726L888.671 102.078L887.27 103.291ZM903.269 120.972L888.949 154.772L890.656 155.495L904.975 121.695L903.269 120.972ZM889.802 154.207H863.661V156.061H889.802V154.207ZM963.542 121L962.666 121.303L962.882 121.927H963.542V121ZM935.569 40.0775V39.1508H934.268L934.693 40.3803L935.569 40.0775ZM960.545 40.0775L961.434 39.8156L961.238 39.1508H960.545V40.0775ZM977.861 98.8545L977.882 99.781L979.092 99.7535L978.75 98.5927L977.861 98.8545ZM970.535 99.021L969.654 98.7347L969.25 99.9772L970.556 99.9475L970.535 99.021ZM989.683 40.0775V39.1508H989.01L988.802 39.7912L989.683 40.0775ZM1010.33 40.0775L1011.21 39.7889L1011 39.1508H1010.33V40.0775ZM1029.65 99.021L1029.62 99.9475L1030.93 99.9766L1030.53 98.7325L1029.65 99.021ZM1022.15 98.8545L1021.26 98.5903L1020.92 99.754L1022.13 99.781L1022.15 98.8545ZM1039.64 40.0775V39.1508H1038.94L1038.75 39.8133L1039.64 40.0775ZM1064.61 40.0775L1065.49 40.3803L1065.91 39.1508H1064.61V40.0775ZM1036.64 121V121.927H1037.3L1037.51 121.303L1036.64 121ZM1015.83 121L1014.95 121.295L1015.16 121.927H1015.83V121ZM997.01 65.0536V64.1269H995.72L996.131 65.349L997.01 65.0536ZM1003.34 65.0536L1004.21 65.3537L1004.63 64.1269H1003.34V65.0536ZM984.189 121V121.927H984.851L985.065 121.3L984.189 121ZM964.418 120.697L936.444 39.7747L934.693 40.3803L962.666 121.303L964.418 120.697ZM935.569 41.0042H960.545V39.1508H935.569V41.0042ZM959.656 40.3394L976.972 99.1164L978.75 98.5927L961.434 39.8156L959.656 40.3394ZM977.84 97.9281L970.514 98.0946L970.556 99.9475L977.882 99.781L977.84 97.9281ZM971.416 99.3074L990.565 40.3638L988.802 39.7912L969.654 98.7347L971.416 99.3074ZM989.683 41.0042H1010.33V39.1508H989.683V41.0042ZM1009.45 40.3661L1028.76 99.3096L1030.53 98.7325L1011.21 39.7889L1009.45 40.3661ZM1029.67 98.0946L1022.17 97.9281L1022.13 99.781L1029.62 99.9475L1029.67 98.0946ZM1023.04 99.1187L1040.52 40.3417L1038.75 39.8133L1021.26 98.5903L1023.04 99.1187ZM1039.64 41.0042H1064.61V39.1508H1039.64V41.0042ZM1063.74 39.7747L1035.76 120.697L1037.51 121.303L1065.49 40.3803L1063.74 39.7747ZM1036.64 120.073H1015.83V121.927H1036.64V120.073ZM1016.7 120.705L997.888 64.7582L996.131 65.349L1014.95 121.295L1016.7 120.705ZM997.01 65.9803H1003.34V64.1269H997.01V65.9803ZM1002.46 64.7535L983.312 120.7L985.065 121.3L1004.21 65.3537L1002.46 64.7535ZM984.189 120.073H963.542V121.927H984.189V120.073ZM1127.91 121H1126.98V121.927H1127.91V121ZM1123.91 64.7206L1123.25 65.3617L1123.26 65.376L1123.27 65.3896L1123.91 64.7206ZM1106.76 62.556L1107.2 63.376L1107.21 63.3673L1107.23 63.358L1106.76 62.556ZM1101.77 67.5512L1102.57 68.0155L1102.58 68.0067L1102.58 67.9978L1101.77 67.5512ZM1099.94 74.8775L1099.53 75.7092L1100.86 76.3656V74.8775H1099.94ZM1090.11 70.0488H1089.19V70.6259L1089.7 70.8805L1090.11 70.0488ZM1105.27 42.4086L1105.7 43.2257L1105.71 43.2218L1105.72 43.2178L1105.27 42.4086ZM1138.4 42.4086L1137.95 43.2178L1137.96 43.2218L1137.96 43.2257L1138.4 42.4086ZM1149.39 53.2316L1148.58 53.6767L1148.58 53.6883L1148.59 53.6997L1149.39 53.2316ZM1153.39 121V121.927H1154.31V121H1153.39ZM1074.46 121H1073.53V121.927H1074.46V121ZM1074.46 0.115768V-0.810932H1073.53V0.115768H1074.46ZM1099.94 0.115768H1100.86V-0.810932H1099.94V0.115768ZM1099.94 121V121.927H1100.86V121H1099.94ZM1128.84 121V74.8775H1126.98V121H1128.84ZM1128.84 74.8775C1128.84 70.4463 1127.43 66.805 1124.56 64.0515L1123.27 65.3896C1125.73 67.7424 1126.98 70.8724 1126.98 74.8775H1128.84ZM1124.58 64.0794C1121.84 61.2167 1118.32 59.7977 1114.09 59.7977V61.6511C1117.86 61.6511 1120.88 62.8962 1123.25 65.3617L1124.58 64.0794ZM1114.09 59.7977C1111.18 59.7977 1108.57 60.4404 1106.3 61.754L1107.23 63.358C1109.18 62.2294 1111.46 61.6511 1114.09 61.6511V59.7977ZM1106.33 61.7359C1104.05 62.9359 1102.26 64.736 1100.96 67.1046L1102.58 67.9978C1103.72 65.9262 1105.26 64.3961 1107.2 63.376L1106.33 61.7359ZM1100.97 67.0869C1099.65 69.3557 1099.01 71.9623 1099.01 74.8775H1100.86C1100.86 72.2424 1101.44 69.9648 1102.57 68.0155L1100.97 67.0869ZM1100.35 74.0458L1090.52 69.2171L1089.7 70.8805L1099.53 75.7092L1100.35 74.0458ZM1091.04 70.0488C1091.04 63.8545 1092.34 58.4645 1094.92 53.8497L1093.3 52.9464C1090.55 57.8781 1089.19 63.5885 1089.19 70.0488H1091.04ZM1094.92 53.8497C1097.5 49.2298 1101.09 45.6943 1105.7 43.2257L1104.83 41.5914C1099.9 44.2291 1096.05 48.0199 1093.3 52.9464L1094.92 53.8497ZM1105.72 43.2178C1110.33 40.6408 1115.67 39.3391 1121.75 39.3391V37.4857C1115.4 37.4857 1109.74 38.8482 1104.81 41.5994L1105.72 43.2178ZM1121.75 39.3391C1127.94 39.3391 1133.33 40.6421 1137.95 43.2178L1138.85 41.5994C1133.92 38.8468 1128.21 37.4857 1121.75 37.4857V39.3391ZM1137.96 43.2257C1142.58 45.6956 1146.11 49.1754 1148.58 53.6767L1150.2 52.7865C1147.56 47.9633 1143.77 44.2278 1138.84 41.5914L1137.96 43.2257ZM1148.59 53.6997C1151.16 58.0878 1152.46 63.2493 1152.46 69.2163H1154.31C1154.31 62.9727 1152.95 57.4777 1150.19 52.7634L1148.59 53.6997ZM1152.46 69.2163V121H1154.31V69.2163H1152.46ZM1153.39 120.073H1127.91V121.927H1153.39V120.073ZM1075.39 121V0.115768H1073.53V121H1075.39ZM1074.46 1.04247H1099.94V-0.810932H1074.46V1.04247ZM1099.01 0.115768V121H1100.86V0.115768H1099.01ZM1099.94 120.073H1074.46V121.927H1099.94V120.073ZM1186.23 117.503L1185.79 118.318L1185.8 118.323L1185.81 118.327L1186.23 117.503ZM1170.25 102.351L1171.04 101.872L1170.25 102.351ZM1170.08 58.8928L1169.29 58.414L1169.29 58.4181L1170.08 58.8928ZM1185.73 43.7407L1185.28 42.9319L1185.73 43.7407ZM1243.34 57.7273L1242.54 58.1823L1242.54 58.1933L1243.34 57.7273ZM1248.34 83.3694L1247.42 83.2469L1247.42 83.275L1247.42 83.3033L1248.34 83.3694ZM1247.51 88.8641L1247.51 89.7908L1248.26 89.789L1248.41 89.055L1247.51 88.8641ZM1177.74 89.0306H1176.81V89.9595L1177.74 89.9573L1177.74 89.0306ZM1177.74 71.5474L1177.74 70.6207L1176.81 70.6233V71.5474H1177.74ZM1236.68 71.3809L1237.2 72.1519L1239.76 70.4455L1236.68 70.4542L1236.68 71.3809ZM1225.69 78.7072L1224.77 78.7292L1224.81 80.4118L1226.21 79.4782L1225.69 78.7072ZM1223.53 67.2182L1222.68 67.5833L1222.68 67.5945L1223.53 67.2182ZM1217.54 60.2249L1217.03 61.0011L1217.05 61.0137L1217.07 61.0253L1217.54 60.2249ZM1197.55 60.5579L1198.04 61.3472L1198.05 61.3421L1197.55 60.5579ZM1190.73 68.2172L1189.9 67.8028L1189.89 67.814L1189.89 67.8253L1190.73 68.2172ZM1190.89 92.6938L1190.06 93.0974L1190.07 93.1138L1190.08 93.1299L1190.89 92.6938ZM1198.22 100.52L1197.74 101.312L1197.76 101.322L1197.77 101.331L1198.22 100.52ZM1220.37 101.186L1220.72 102.042L1220.73 102.037L1220.75 102.031L1220.37 101.186ZM1228.86 94.8584L1229.51 94.2031L1228.81 93.5047L1228.16 94.2462L1228.86 94.8584ZM1242.84 108.845L1243.55 109.448L1244.11 108.797L1243.5 108.19L1242.84 108.845ZM1228.36 119.335L1228.01 118.478L1228.36 119.335ZM1209.71 121.905C1201.07 121.905 1193.39 120.156 1186.66 116.68L1185.81 118.327C1192.84 121.955 1200.81 123.758 1209.71 123.758V121.905ZM1186.67 116.688C1180.04 113.102 1174.84 108.166 1171.04 101.872L1169.45 102.83C1173.43 109.413 1178.88 114.579 1185.79 118.318L1186.67 116.688ZM1171.04 101.872C1167.25 95.5898 1165.35 88.4869 1165.35 80.5387H1163.49C1163.49 88.7973 1165.47 96.236 1169.45 102.83L1171.04 101.872ZM1165.35 80.5387C1165.35 72.5853 1167.2 65.5372 1170.88 59.3675L1169.29 58.4181C1165.42 64.903 1163.49 72.2855 1163.49 80.5387H1165.35ZM1170.87 59.3716C1174.68 53.0708 1179.78 48.1339 1186.19 44.5494L1185.28 42.9319C1178.59 46.6737 1173.26 51.8383 1169.29 58.414L1170.87 59.3716ZM1186.19 44.5494C1192.58 40.9708 1199.81 39.1726 1207.88 39.1726V37.3192C1199.52 37.3192 1191.98 39.1842 1185.28 42.9319L1186.19 44.5494ZM1207.88 39.1726C1215.73 39.1726 1222.62 40.8625 1228.57 44.2149L1229.48 42.6003C1223.22 39.0705 1216.01 37.3192 1207.88 37.3192V39.1726ZM1228.57 44.2149C1234.53 47.573 1239.18 52.2244 1242.54 58.1823L1244.15 57.2722C1240.63 51.0196 1235.73 46.1246 1229.48 42.6003L1228.57 44.2149ZM1242.54 58.1933C1246 64.1412 1247.75 70.9701 1247.75 78.7072H1249.6C1249.6 70.6815 1247.79 63.5239 1244.15 57.2612L1242.54 58.1933ZM1247.75 78.7072C1247.75 80.1033 1247.64 81.616 1247.42 83.2469L1249.26 83.4919C1249.48 81.7926 1249.6 80.1972 1249.6 78.7072H1247.75ZM1247.42 83.3033C1247.31 84.803 1247.04 86.5909 1246.6 88.6732L1248.41 89.055C1248.86 86.9191 1249.15 85.0439 1249.26 83.4354L1247.42 83.3033ZM1247.5 87.9374L1177.74 88.1039L1177.74 89.9573L1247.51 89.7908L1247.5 87.9374ZM1178.67 89.0306V71.5474H1176.81V89.0306H1178.67ZM1177.74 72.4741L1236.69 72.3075L1236.68 70.4542L1177.74 70.6207L1177.74 72.4741ZM1236.17 70.6098L1225.18 77.9361L1226.21 79.4782L1237.2 72.1519L1236.17 70.6098ZM1226.62 78.6851C1226.51 73.9483 1225.77 69.9872 1224.38 66.8418L1222.68 67.5945C1223.95 70.4434 1224.66 74.1416 1224.77 78.7292L1226.62 78.6851ZM1224.38 66.8531C1222.98 63.5809 1220.85 61.0883 1218 59.4244L1217.07 61.0253C1219.54 62.4696 1221.42 64.6392 1222.68 67.5832L1224.38 66.8531ZM1218.04 59.4487C1215.31 57.6643 1211.96 56.8006 1208.04 56.8006V58.654C1211.68 58.654 1214.66 59.4553 1217.03 61.0011L1218.04 59.4487ZM1208.04 56.8006C1203.9 56.8006 1200.22 57.7819 1197.06 59.7737L1198.05 61.3421C1200.88 59.5597 1204.2 58.654 1208.04 58.654V56.8006ZM1197.07 59.7687C1194.02 61.6441 1191.63 64.3339 1189.9 67.8028L1191.56 68.6317C1193.15 65.4402 1195.32 63.0239 1198.04 61.3471L1197.07 59.7687ZM1189.89 67.8253C1188.26 71.3091 1187.47 75.5025 1187.47 80.3722H1189.32C1189.32 75.6956 1190.09 71.7856 1191.57 68.6091L1189.89 67.8253ZM1187.47 80.3722C1187.47 85.2514 1188.32 89.5031 1190.06 93.0974L1191.73 92.2901C1190.14 89.0022 1189.32 85.0395 1189.32 80.3722H1187.47ZM1190.08 93.1299C1191.93 96.6009 1194.48 99.335 1197.74 101.312L1198.7 99.7275C1195.74 97.9301 1193.41 95.4469 1191.71 92.2577L1190.08 93.1299ZM1197.77 101.331C1201.15 103.195 1205.09 104.11 1209.54 104.11V102.257C1205.34 102.257 1201.73 101.396 1198.67 99.7082L1197.77 101.331ZM1209.54 104.11C1213.64 104.11 1217.37 103.427 1220.72 102.042L1220.01 100.329C1216.92 101.609 1213.44 102.257 1209.54 102.257V104.11ZM1220.75 102.031C1224.09 100.531 1227.03 98.3404 1229.55 95.4706L1228.16 94.2462C1225.8 96.9266 1223.08 98.9538 1219.99 100.34L1220.75 102.031ZM1228.2 95.5136L1242.19 109.5L1243.5 108.19L1229.51 94.2031L1228.2 95.5136ZM1242.14 108.242C1238.24 112.793 1233.53 116.203 1228.01 118.478L1228.71 120.192C1234.51 117.805 1239.46 114.221 1243.55 109.448L1242.14 108.242ZM1228.01 118.478C1222.47 120.758 1216.37 121.905 1209.71 121.905V123.758C1216.59 123.758 1222.93 122.574 1228.71 120.192L1228.01 118.478ZM1260.97 121H1260.04V121.927H1260.97V121ZM1260.97 40.0775V39.1508H1260.04V40.0775H1260.97ZM1286.44 40.0775H1287.37V39.1508H1286.44V40.0775ZM1286.44 121V121.927H1287.37V121H1286.44ZM1286.44 76.5426L1285.87 77.2728L1287.37 78.4425V76.5426H1286.44ZM1275.79 68.2172L1274.88 68.0151L1274.76 68.5868L1275.22 68.9475L1275.79 68.2172ZM1286.44 46.2383L1287.11 46.8791L1286.44 46.2383ZM1317.42 40.244L1317.05 41.0975L1317.07 41.1057L1317.09 41.113L1317.42 40.244ZM1325.24 45.5722L1325.97 46.1473L1326.46 45.5307L1325.93 44.9489L1325.24 45.5722ZM1310.09 64.7206L1309.4 65.3439L1310.14 66.1521L1310.82 65.2956L1310.09 64.7206ZM1305.93 61.8899L1305.58 62.7504L1305.93 61.8899ZM1290.11 64.8871L1289.44 64.2459L1289.44 64.2465L1290.11 64.8871ZM1261.9 121V40.0775H1260.04V121H1261.9ZM1260.97 41.0042H1286.44V39.1508H1260.97V41.0042ZM1285.52 40.0775V121H1287.37V40.0775H1285.52ZM1286.44 120.073H1260.97V121.927H1286.44V120.073ZM1287.02 75.8123L1276.36 67.487L1275.22 68.9475L1285.87 77.2728L1287.02 75.8123ZM1276.69 68.4194C1278.78 59.0948 1282.27 51.9396 1287.11 46.8791L1285.78 45.5974C1280.63 50.9713 1277.02 58.4688 1274.88 68.0151L1276.69 68.4194ZM1287.11 46.8791C1291.9 41.8849 1298.57 39.3391 1307.26 39.3391V37.4857C1298.19 37.4857 1290.98 40.1572 1285.78 45.5974L1287.11 46.8791ZM1307.26 39.3391C1311.05 39.3391 1314.31 39.9348 1317.05 41.0975L1317.78 39.3905C1314.75 38.1111 1311.24 37.4857 1307.26 37.4857V39.3391ZM1317.09 41.113C1319.95 42.1698 1322.43 43.8596 1324.56 46.1956L1325.93 44.9489C1323.61 42.4006 1320.88 40.5383 1317.74 39.375L1317.09 41.113ZM1324.51 44.9972L1309.36 64.1455L1310.82 65.2956L1325.97 46.1473L1324.51 44.9972ZM1310.77 64.0972C1309.56 62.7635 1308.05 61.7431 1306.27 61.0295L1305.58 62.7504C1307.13 63.3689 1308.4 64.2355 1309.4 65.3439L1310.77 64.0972ZM1306.27 61.0295C1304.48 60.3127 1302.47 59.9642 1300.26 59.9642V61.8176C1302.28 61.8176 1304.04 62.1351 1305.58 62.7504L1306.27 61.0295ZM1300.26 59.9642C1295.83 59.9642 1292.19 61.3727 1289.44 64.2459L1290.78 65.5283C1293.13 63.0732 1296.26 61.8176 1300.26 61.8176V59.9642ZM1289.44 64.2465C1286.77 67.039 1285.52 71.1991 1285.52 76.5426H1287.37C1287.37 71.4516 1288.56 67.8413 1290.78 65.5276L1289.44 64.2465ZM1346.24 117.503L1345.79 118.318L1345.8 118.323L1345.81 118.327L1346.24 117.503ZM1330.25 102.351L1331.04 101.872L1330.25 102.351ZM1330.08 58.8928L1329.29 58.414L1329.29 58.4181L1330.08 58.8928ZM1345.74 43.7407L1345.28 42.9319L1345.74 43.7407ZM1403.35 57.7273L1402.54 58.1823L1402.55 58.1933L1403.35 57.7273ZM1408.34 83.3694L1407.42 83.2469L1407.42 83.275L1407.42 83.3033L1408.34 83.3694ZM1407.51 88.8641L1407.51 89.7908L1408.26 89.789L1408.42 89.055L1407.51 88.8641ZM1337.74 89.0306H1336.82V89.9595L1337.75 89.9573L1337.74 89.0306ZM1337.74 71.5474L1337.74 70.6207L1336.82 70.6233V71.5474H1337.74ZM1396.69 71.3809L1397.2 72.1519L1399.76 70.4455L1396.68 70.4542L1396.69 71.3809ZM1385.7 78.7072L1384.77 78.7292L1384.81 80.4118L1386.21 79.4782L1385.7 78.7072ZM1383.53 67.2182L1382.68 67.5833L1382.69 67.5945L1383.53 67.2182ZM1377.54 60.2249L1377.03 61.0011L1377.05 61.0137L1377.07 61.0253L1377.54 60.2249ZM1357.56 60.5579L1358.04 61.3472L1358.05 61.3421L1357.56 60.5579ZM1350.73 68.2172L1349.9 67.8028L1349.9 67.814L1349.89 67.8253L1350.73 68.2172ZM1350.9 92.6938L1350.06 93.0974L1350.07 93.1138L1350.08 93.1299L1350.9 92.6938ZM1358.22 100.52L1357.74 101.312L1357.76 101.322L1357.78 101.331L1358.22 100.52ZM1380.37 101.186L1380.72 102.042L1380.74 102.037L1380.75 102.031L1380.37 101.186ZM1388.86 94.8584L1389.52 94.2031L1388.82 93.5047L1388.17 94.2462L1388.86 94.8584ZM1402.85 108.845L1403.55 109.448L1404.11 108.797L1403.5 108.19L1402.85 108.845ZM1388.36 119.335L1388.01 118.478L1388.36 119.335ZM1369.71 121.905C1361.07 121.905 1353.39 120.156 1346.66 116.68L1345.81 118.327C1352.84 121.955 1360.82 123.758 1369.71 123.758V121.905ZM1346.68 116.688C1340.05 113.102 1334.84 108.166 1331.04 101.872L1329.46 102.83C1333.43 109.413 1338.88 114.579 1345.79 118.318L1346.68 116.688ZM1331.04 101.872C1327.25 95.5898 1325.35 88.4869 1325.35 80.5387H1323.5C1323.5 88.7973 1325.48 96.236 1329.46 102.83L1331.04 101.872ZM1325.35 80.5387C1325.35 72.5853 1327.2 65.5372 1330.88 59.3675L1329.29 58.4181C1325.42 64.903 1323.5 72.2855 1323.5 80.5387H1325.35ZM1330.88 59.3716C1334.68 53.0708 1339.78 48.1339 1346.19 44.5494L1345.28 42.9319C1338.59 46.6737 1333.26 51.8383 1329.29 58.414L1330.88 59.3716ZM1346.19 44.5494C1352.59 40.9708 1359.81 39.1726 1367.88 39.1726V37.3192C1359.52 37.3192 1351.98 39.1842 1345.28 42.9319L1346.19 44.5494ZM1367.88 39.1726C1375.74 39.1726 1382.62 40.8625 1388.57 44.2149L1389.48 42.6003C1383.22 39.0705 1376.01 37.3192 1367.88 37.3192V39.1726ZM1388.57 44.2149C1394.53 47.573 1399.18 52.2244 1402.54 58.1823L1404.15 57.2722C1400.63 51.0196 1395.74 46.1246 1389.48 42.6003L1388.57 44.2149ZM1402.55 58.1933C1406.01 64.1412 1407.75 70.9701 1407.75 78.7072H1409.6C1409.6 70.6815 1407.79 63.5239 1404.15 57.2612L1402.55 58.1933ZM1407.75 78.7072C1407.75 80.1033 1407.64 81.616 1407.42 83.2469L1409.26 83.4919C1409.49 81.7926 1409.6 80.1972 1409.6 78.7072H1407.75ZM1407.42 83.3033C1407.31 84.803 1407.04 86.5909 1406.6 88.6732L1408.42 89.055C1408.87 86.9191 1409.15 85.0439 1409.27 83.4354L1407.42 83.3033ZM1407.51 87.9374L1337.74 88.1039L1337.75 89.9573L1407.51 89.7908L1407.51 87.9374ZM1338.67 89.0306V71.5474H1336.82V89.0306H1338.67ZM1337.75 72.4741L1396.69 72.3075L1396.68 70.4542L1337.74 70.6207L1337.75 72.4741ZM1396.17 70.6098L1385.18 77.9361L1386.21 79.4782L1397.2 72.1519L1396.17 70.6098ZM1386.62 78.6851C1386.51 73.9483 1385.78 69.9872 1384.38 66.8418L1382.69 67.5945C1383.95 70.4434 1384.66 74.1416 1384.77 78.7292L1386.62 78.6851ZM1384.38 66.8531C1382.98 63.5809 1380.86 61.0883 1378.01 59.4244L1377.07 61.0253C1379.55 62.4696 1381.42 64.6392 1382.68 67.5832L1384.38 66.8531ZM1378.04 59.4487C1375.31 57.6643 1371.96 56.8006 1368.05 56.8006V58.654C1371.68 58.654 1374.66 59.4553 1377.03 61.0011L1378.04 59.4487ZM1368.05 56.8006C1363.9 56.8006 1360.23 57.7819 1357.06 59.7737L1358.05 61.3421C1360.88 59.5597 1364.2 58.654 1368.05 58.654V56.8006ZM1357.07 59.7687C1354.02 61.6441 1351.64 64.3339 1349.9 67.8028L1351.56 68.6317C1353.16 65.4402 1355.32 63.0239 1358.04 61.3471L1357.07 59.7687ZM1349.89 67.8253C1348.27 71.3091 1347.47 75.5025 1347.47 80.3722H1349.33C1349.33 75.6956 1350.09 71.7856 1351.57 68.6091L1349.89 67.8253ZM1347.47 80.3722C1347.47 85.2514 1348.32 89.5031 1350.06 93.0974L1351.73 92.2901C1350.14 89.0022 1349.33 85.0395 1349.33 80.3722H1347.47ZM1350.08 93.1299C1351.93 96.6009 1354.49 99.335 1357.74 101.312L1358.7 99.7275C1355.74 97.9301 1353.42 95.4469 1351.71 92.2577L1350.08 93.1299ZM1357.78 101.331C1361.15 103.195 1365.09 104.11 1369.55 104.11V102.257C1365.35 102.257 1361.73 101.396 1358.67 99.7082L1357.78 101.331ZM1369.55 104.11C1373.65 104.11 1377.38 103.427 1380.72 102.042L1380.01 100.329C1376.92 101.609 1373.44 102.257 1369.55 102.257V104.11ZM1380.75 102.031C1384.09 100.531 1387.03 98.3404 1389.56 95.4706L1388.17 94.2462C1385.81 96.9266 1383.08 98.9538 1379.99 100.34L1380.75 102.031ZM1388.21 95.5136L1402.19 109.5L1403.5 108.19L1389.52 94.2031L1388.21 95.5136ZM1402.14 108.242C1398.24 112.793 1393.53 116.203 1388.01 118.478L1388.71 120.192C1394.51 117.805 1399.46 114.221 1403.55 109.448L1402.14 108.242ZM1388.01 118.478C1382.47 120.758 1376.38 121.905 1369.71 121.905V123.758C1376.59 123.758 1382.93 122.574 1388.71 120.192L1388.01 118.478Z" fill="white"/>
</svg>
