<svg width="1290" height="156" viewBox="0 0 1290 156" fill="none" xmlns="http://www.w3.org/2000/svg">
<path opacity="0.4" d="M-77.8958 118.336L-78.2532 119.191L-78.2487 119.193L-77.8958 118.336ZM-97.5437 105.348L-96.8949 104.687L-97.5437 105.348ZM-110.698 86.0335L-111.553 86.3908L-111.551 86.3954L-110.698 86.0335ZM-110.698 38.0794L-111.551 37.7175L-110.698 38.0794ZM-97.7102 18.9311L-97.0615 19.593L-97.0549 19.5864L-97.7102 18.9311ZM-78.2288 6.11002L-77.8824 6.96958L-77.876 6.96692L-78.2288 6.11002ZM-29.2757 6.11002L-29.633 6.96506L-29.6254 6.96825L-29.6177 6.97131L-29.2757 6.11002ZM-9.62786 18.9311L-10.2831 19.5864L-10.2766 19.5929L-10.2699 19.5993L-9.62786 18.9311ZM3.52621 38.2459L2.67116 38.6033L2.6731 38.6078L3.52621 38.2459ZM3.52621 86.2L4.37933 86.5619L4.38125 86.5573L3.52621 86.2ZM-9.46135 105.515L-8.8127 106.177L-8.80608 106.17L-9.46135 105.515ZM-29.1092 118.336L-29.4621 117.479L-29.4665 117.481L-29.1092 118.336ZM-35.27 94.5254L-35.7369 93.7249L-35.7443 93.7292L-35.27 94.5254ZM-22.9484 81.5378L-22.1262 81.9653L-22.1228 81.9587L-22.9484 81.5378ZM-21.1169 47.0708L-21.9872 47.3892L-21.9846 47.3962L-21.1169 47.0708ZM-28.2767 35.4153L-28.9541 36.0476L-28.9488 36.0533L-28.9433 36.059L-28.2767 35.4153ZM-39.4326 27.9225L-39.7923 28.7766L-39.7789 28.7822L-39.7653 28.7874L-39.4326 27.9225ZM-72.0681 29.9206L-71.6064 30.7241L-71.6011 30.721L-72.0681 29.9206ZM-84.2231 42.7416L-83.4045 43.176L-83.4009 43.1691L-84.2231 42.7416ZM-86.0547 77.2086L-86.925 77.527L-86.0547 77.2086ZM-79.0614 89.0306L-79.7502 89.6505L-79.7393 89.6626L-79.728 89.6743L-79.0614 89.0306ZM-67.9054 96.5234L-68.2571 97.3808L-67.9054 96.5234ZM-53.2527 122.071C-62.0228 122.071 -70.1161 120.537 -77.543 117.479L-78.2487 119.193C-70.5789 122.351 -62.2435 123.925 -53.2527 123.925V122.071ZM-77.5385 117.481C-84.8691 114.417 -91.3191 110.153 -96.8949 104.687L-98.1924 106.01C-92.4458 111.644 -85.7971 116.038 -78.2532 119.191L-77.5385 117.481ZM-96.8949 104.687C-102.469 99.2222 -106.784 92.8859 -109.845 85.6716L-111.551 86.3954C-108.395 93.8337 -103.941 100.374 -98.1924 106.01L-96.8949 104.687ZM-109.843 85.6762C-112.901 78.3588 -114.433 70.4887 -114.433 62.0564H-116.287C-116.287 70.719 -114.711 78.8336 -111.553 86.3908L-109.843 85.6762ZM-114.433 62.0564C-114.433 53.5114 -112.9 45.6434 -109.845 38.4413L-111.551 37.7175C-114.712 45.168 -116.287 53.2847 -116.287 62.0564H-114.433ZM-109.845 38.4413C-106.783 31.2247 -102.522 24.9446 -97.0616 19.5929L-98.3588 18.2692C-103.998 23.7961 -108.396 30.2815 -111.551 37.7175L-109.845 38.4413ZM-97.0549 19.5864C-91.5948 14.1262 -85.2067 9.92111 -77.8825 6.96955L-78.5752 5.25049C-86.1256 8.2932 -92.7251 12.6355 -98.3655 18.2758L-97.0549 19.5864ZM-77.876 6.96692C-70.4491 3.90878 -62.3558 2.37452 -53.5858 2.37452V0.521118C-62.5765 0.521118 -70.9119 2.09499 -78.5817 5.25312L-77.876 6.96692ZM-53.5858 2.37452C-44.9282 2.37452 -36.9476 3.90825 -29.633 6.96506L-28.9184 5.25498C-36.4785 2.09553 -44.7046 0.521118 -53.5858 0.521118V2.37452ZM-29.6177 6.97131C-22.1826 9.92349 -15.741 14.1285 -10.2831 19.5864L-8.97258 18.2758C-14.6152 12.6331 -21.2722 8.29081 -28.9337 5.24873L-29.6177 6.97131ZM-10.2699 19.5993C-4.70268 24.9482 -0.389351 31.2799 2.67117 38.6032L4.38125 37.8886C1.2255 30.3373 -3.23055 23.7924 -8.98582 18.2628L-10.2699 19.5993ZM2.6731 38.6078C5.72855 45.8099 7.2617 53.6779 7.2617 62.223H9.11511C9.11511 53.4512 7.54015 45.3345 4.37932 37.884L2.6731 38.6078ZM7.2617 62.223C7.2617 70.6552 5.72919 78.5253 2.67117 85.8427L4.38125 86.5573C7.53951 79.0001 9.11511 70.8855 9.11511 62.223H7.2617ZM2.6731 85.8381C-0.389198 93.0564 -4.65175 99.3947 -10.1166 104.86L-8.80608 106.17C-3.17047 100.535 1.22535 93.9963 4.37932 86.5619L2.6731 85.8381ZM-10.11 104.853C-15.5708 110.205 -22.0183 114.414 -29.4621 117.479L-28.7564 119.193C-21.1035 116.042 -14.4524 111.704 -8.81273 106.177L-10.11 104.853ZM-29.4665 117.481C-36.7825 120.538 -44.7079 122.071 -53.2527 122.071V123.925C-44.4809 123.925 -36.3106 122.35 -28.7519 119.191L-29.4665 117.481ZM-53.5858 100.114C-46.4512 100.114 -40.1769 98.5273 -34.7957 95.3215L-35.7443 93.7292C-40.7974 96.7396 -46.7337 98.2608 -53.5858 98.2608V100.114ZM-34.803 95.3258C-29.3213 92.1281 -25.092 87.6686 -22.1263 81.9653L-23.7706 81.1103C-26.5772 86.5074 -30.5622 90.7063 -35.7369 93.7249L-34.803 95.3258ZM-22.1228 81.9587C-19.1608 76.1485 -17.6926 69.5066 -17.6926 62.0564H-19.546C-19.546 69.2589 -20.9639 75.6046 -23.774 81.1169L-22.1228 81.9587ZM-17.6926 62.0564C-17.6926 56.4137 -18.539 51.3057 -20.2492 46.7454L-21.9846 47.3962C-20.3645 51.7162 -19.546 56.5988 -19.546 62.0564H-17.6926ZM-20.2466 46.7524C-21.9523 42.09 -24.4048 38.0913 -27.61 34.7716L-28.9433 36.059C-25.9323 39.1776 -23.6115 42.9492 -21.9871 47.3892L-20.2466 46.7524ZM-27.5992 34.783C-30.805 31.3483 -34.6422 28.7721 -39.1 27.0575L-39.7653 28.7874C-35.5647 30.403 -31.9647 32.822 -28.9541 36.0476L-27.5992 34.783ZM-39.073 27.0684C-43.4199 25.2381 -48.2622 24.3316 -53.5858 24.3316V26.1851C-48.4749 26.1851 -43.8818 27.0546 -39.7923 28.7766L-39.073 27.0684ZM-53.5858 24.3316C-60.7208 24.3316 -67.0469 25.9187 -72.535 29.1201L-71.6011 30.721C-66.4328 27.7061 -60.4374 26.1851 -53.5858 26.1851V24.3316ZM-72.5297 29.117C-77.9069 32.206 -82.0808 36.6132 -85.0453 42.3141L-83.4009 43.1691C-80.5931 37.7696 -76.6637 33.6293 -71.6065 30.7241L-72.5297 29.117ZM-85.0417 42.3073C-88.0121 47.9054 -89.479 54.4989 -89.479 62.0564H-87.6256C-87.6256 54.7393 -86.2063 48.4563 -83.4045 43.176L-85.0417 42.3073ZM-89.479 62.0564C-89.479 67.6997 -88.6323 72.8601 -86.925 77.527L-85.1844 76.8902C-86.8071 72.4547 -87.6256 67.5136 -87.6256 62.0564H-89.479ZM-86.925 77.527C-85.2226 82.1802 -82.8328 86.2254 -79.7502 89.6505L-78.3726 88.4107C-81.2842 85.1755 -83.5566 81.3394 -85.1844 76.8902L-86.925 77.527ZM-79.728 89.6743C-76.5268 92.9899 -72.6994 95.5583 -68.2571 97.3808L-67.5537 95.6661C-71.7697 93.9364 -75.3797 91.5096 -78.3947 88.3869L-79.728 89.6743ZM-68.2571 97.3808C-63.8042 99.2076 -58.9098 100.114 -53.5858 100.114V98.2608C-58.6962 98.2608 -63.3482 97.3914 -67.5537 95.6661L-68.2571 97.3808ZM42.2664 121L41.3906 121.303L41.6063 121.927H42.2664V121ZM14.2932 40.0775V39.1508H12.9924L13.4174 40.3803L14.2932 40.0775ZM39.2693 40.0775L40.1582 39.8156L39.9624 39.1508H39.2693V40.0775ZM56.5861 98.8545L56.6071 99.781L57.817 99.7535L57.475 98.5927L56.5861 98.8545ZM49.2597 99.021L48.3784 98.7347L47.9748 99.9772L49.2808 99.9475L49.2597 99.021ZM68.4081 40.0775V39.1508H67.7347L67.5267 39.7912L68.4081 40.0775ZM89.055 40.0775L89.9356 39.7889L89.7265 39.1508H89.055V40.0775ZM108.37 99.021L108.349 99.9475L109.658 99.9766L109.25 98.7325L108.37 99.021ZM100.877 98.8545L99.9887 98.5903L99.6426 99.754L100.856 99.781L100.877 98.8545ZM118.36 40.0775V39.1508H117.669L117.472 39.8133L118.36 40.0775ZM143.336 40.0775L144.212 40.3803L144.637 39.1508H143.336V40.0775ZM115.363 121V121.927H116.023L116.239 121.303L115.363 121ZM94.5497 121L93.6713 121.295L93.8837 121.927H94.5497V121ZM75.7344 65.0536V64.1269H74.445L74.856 65.349L75.7344 65.0536ZM82.0617 65.0536L82.9384 65.3537L83.3583 64.1269H82.0617V65.0536ZM62.9133 121V121.927H63.5756L63.7901 121.3L62.9133 121ZM43.1423 120.697L15.1691 39.7747L13.4174 40.3803L41.3906 121.303L43.1423 120.697ZM14.2932 41.0042H39.2693V39.1508H14.2932V41.0042ZM38.3804 40.3394L55.6971 99.1164L57.475 98.5927L40.1582 39.8156L38.3804 40.3394ZM56.565 97.9281L49.2387 98.0946L49.2808 99.9475L56.6071 99.781L56.565 97.9281ZM50.1411 99.3074L69.2894 40.3638L67.5267 39.7912L48.3784 98.7347L50.1411 99.3074ZM68.4081 41.0042H89.055V39.1508H68.4081V41.0042ZM88.1743 40.3661L107.489 99.3096L109.25 98.7325L89.9356 39.7889L88.1743 40.3661ZM108.39 98.0946L100.898 97.9281L100.856 99.781L108.349 99.9475L108.39 98.0946ZM101.765 99.1187L119.248 40.3417L117.472 39.8133L99.9887 98.5903L101.765 99.1187ZM118.36 41.0042H143.336V39.1508H118.36V41.0042ZM142.46 39.7747L114.487 120.697L116.239 121.303L144.212 40.3803L142.46 39.7747ZM115.363 120.073H94.5497V121.927H115.363V120.073ZM95.4281 120.705L76.6127 64.7582L74.856 65.349L93.6713 121.295L95.4281 120.705ZM75.7344 65.9803H82.0617V64.1269H75.7344V65.9803ZM81.1849 64.7535L62.0366 120.7L63.7901 121.3L82.9384 65.3537L81.1849 64.7535ZM62.9133 120.073H42.2664V121.927H62.9133V120.073ZM206.635 121H205.708V121.927H206.635V121ZM202.639 64.7206L201.97 65.3617L201.983 65.376L201.998 65.3896L202.639 64.7206ZM185.489 62.556L185.92 63.376L185.937 63.3673L185.953 63.358L185.489 62.556ZM180.493 67.5512L181.295 68.0155L181.301 68.0067L181.305 67.9978L180.493 67.5512ZM178.662 74.8775L178.253 75.7092L179.589 76.3656V74.8775H178.662ZM168.838 70.0488H167.911V70.6259L168.429 70.8805L168.838 70.0488ZM184.49 42.4086L184.919 43.2299L184.926 43.2263L184.49 42.4086ZM217.125 42.7416L216.629 43.5242L216.64 43.5312L216.651 43.5379L217.125 42.7416ZM228.115 53.8976L227.31 54.3574L228.115 53.8976ZM232.111 121V121.927H233.037V121H232.111ZM153.186 121H152.26V121.927H153.186V121ZM153.186 40.0775V39.1508H152.26V40.0775H153.186ZM178.662 40.0775H179.589V39.1508H178.662V40.0775ZM178.662 121V121.927H179.589V121H178.662ZM207.562 121V74.8775H205.708V121H207.562ZM207.562 74.8775C207.562 70.4463 206.153 66.805 203.28 64.0515L201.998 65.3896C204.453 67.7424 205.708 70.8724 205.708 74.8775H207.562ZM203.308 64.0794C200.565 61.2167 197.04 59.7977 192.815 59.7977V61.6511C196.582 61.6511 199.607 62.8962 201.97 65.3617L203.308 64.0794ZM192.815 59.7977C189.9 59.7977 187.293 60.4404 185.024 61.754L185.953 63.358C187.902 62.2294 190.18 61.6511 192.815 61.6511V59.7977ZM185.057 61.7359C182.777 62.9359 180.984 64.736 179.681 67.1046L181.305 67.9978C182.445 65.9262 183.982 64.3961 185.92 63.376L185.057 61.7359ZM179.691 67.0869C178.378 69.3557 177.735 71.9623 177.735 74.8775H179.589C179.589 72.2424 180.167 69.9648 181.295 68.0155L179.691 67.0869ZM179.071 74.0458L169.247 69.2171L168.429 70.8805L178.253 75.7092L179.071 74.0458ZM169.765 70.0488C169.765 63.8609 171.12 58.476 173.802 53.8639L172.199 52.9323C169.331 57.8665 167.911 63.5822 167.911 70.0488H169.765ZM173.802 53.8639C176.489 49.2416 180.19 45.7018 184.919 43.2299L184.06 41.5873C179.021 44.2216 175.062 48.0082 172.199 52.9323L173.802 53.8639ZM184.926 43.2263C189.774 40.6406 195.227 39.3391 201.307 39.3391V37.4857C194.954 37.4857 189.196 38.8484 184.054 41.5909L184.926 43.2263ZM201.307 39.3391C207.146 39.3391 212.242 40.7426 216.629 43.5242L217.621 41.959C212.905 38.9684 207.456 37.4857 201.307 37.4857V39.3391ZM216.651 43.5379C221.177 46.2322 224.726 49.8355 227.31 54.3574L228.919 53.4378C226.175 48.6353 222.397 44.8013 217.599 41.9453L216.651 43.5379ZM227.31 54.3574C229.891 58.8747 231.184 63.8216 231.184 69.2163H233.037C233.037 63.5104 231.666 58.2449 228.919 53.4378L227.31 54.3574ZM231.184 69.2163V121H233.037V69.2163H231.184ZM232.111 120.073H206.635V121.927H232.111V120.073ZM154.113 121V40.0775H152.26V121H154.113ZM153.186 41.0042H178.662V39.1508H153.186V41.0042ZM177.735 40.0775V121H179.589V40.0775H177.735ZM178.662 120.073H153.186V121.927H178.662V120.073ZM248.473 140.981L247.656 140.543L247.224 141.348L248.023 141.791L248.473 140.981ZM260.628 118.336L260.37 117.446L259.996 117.554L259.811 117.898L260.628 118.336ZM268.12 116.171L268.96 116.563L269.823 114.715L267.863 115.281L268.12 116.171ZM265.29 120.334L265.91 121.023L265.928 121.006L265.945 120.989L265.29 120.334ZM252.635 117.836L251.98 118.492L252.635 117.836ZM252.968 96.6899L252.301 96.0467L252.295 96.053L252.289 96.0594L252.968 96.6899ZM274.614 96.6899L273.947 97.3332L273.959 97.3453L273.971 97.357L274.614 96.6899ZM278.277 114.007L277.386 113.752L278.277 114.007ZM274.281 123.165L275.094 123.61L275.1 123.598L274.281 123.165ZM260.794 147.808L260.345 148.618L261.16 149.07L261.607 148.253L260.794 147.808ZM249.289 141.419L261.444 118.774L259.811 117.898L247.656 140.543L249.289 141.419ZM260.885 119.226L268.378 117.062L267.863 115.281L260.37 117.446L260.885 119.226ZM267.281 115.779C266.542 117.363 265.656 118.657 264.635 119.679L265.945 120.989C267.143 119.791 268.145 118.31 268.96 116.563L267.281 115.779ZM264.67 119.645C263.723 120.497 262.666 120.906 261.46 120.906V122.759C263.141 122.759 264.636 122.169 265.91 121.023L264.67 119.645ZM261.46 120.906C258.529 120.906 255.813 119.703 253.291 117.181L251.98 118.492C254.786 121.298 257.953 122.759 261.46 122.759V120.906ZM253.291 117.181C250.812 114.702 249.566 111.613 249.566 107.846H247.712C247.712 112.071 249.131 115.642 251.98 118.492L253.291 117.181ZM249.566 107.846C249.566 103.745 250.924 100.253 253.647 97.3205L252.289 96.0594C249.24 99.3428 247.712 103.288 247.712 107.846H249.566ZM253.635 97.3332C256.457 94.4067 259.879 92.9545 263.958 92.9545V91.101C259.378 91.101 255.474 92.7569 252.301 96.0467L253.635 97.3332ZM263.958 92.9545C267.799 92.9545 271.115 94.3958 273.947 97.3332L275.281 96.0467C272.12 92.7678 268.331 91.101 263.958 91.101V92.9545ZM273.971 97.357C276.892 100.174 278.35 103.649 278.35 107.846H280.203C280.203 103.162 278.552 99.2001 275.257 96.0229L273.971 97.357ZM278.35 107.846C278.35 109.511 278.037 111.476 277.386 113.752L279.168 114.261C279.85 111.875 280.203 109.733 280.203 107.846H278.35ZM277.386 113.752C276.747 115.991 275.449 118.978 273.462 122.731L275.1 123.598C277.109 119.803 278.476 116.684 279.168 114.261L277.386 113.752ZM273.468 122.72L259.981 147.363L261.607 148.253L275.094 123.609L273.468 122.72ZM261.243 146.997L248.922 140.17L248.023 141.791L260.345 148.618L261.243 146.997ZM342.655 121.167L342.414 122.062L342.42 122.063L342.655 121.167ZM329.833 116.005L329.357 116.799L329.37 116.807L329.383 116.815L329.833 116.005ZM319.843 108.012L319.184 107.361L318.561 107.991L319.163 108.642L319.843 108.012ZM334.329 93.3598L335.01 92.7312L334.352 92.0184L333.67 92.7083L334.329 93.3598ZM343.82 100.187L343.437 101.03L343.447 101.035L343.458 101.04L343.82 100.187ZM362.635 101.186L362.199 100.368L362.187 100.374L362.176 100.381L362.635 101.186ZM362.136 93.0268L361.666 93.8255L361.693 93.8415L361.721 93.8557L362.136 93.0268ZM354.81 90.1962L354.546 91.0847L354.562 91.0892L354.577 91.0932L354.81 90.1962ZM335.828 83.2029L336.3 82.4056L335.828 83.2029ZM328.501 75.8765L327.702 76.3452L327.706 76.3514L327.709 76.3575L328.501 75.8765ZM329.667 50.2344L330.424 50.7689L330.431 50.7585L329.667 50.2344ZM340.989 41.0765L340.606 40.2329L340.989 41.0765ZM377.122 41.4096L376.76 42.263L376.77 42.2672L376.78 42.2711L377.122 41.4096ZM391.441 51.8995L392.1 52.551L392.675 51.9697L392.17 51.327L391.441 51.8995ZM376.955 66.5521L376.25 67.1531L376.904 67.9216L377.614 67.2037L376.955 66.5521ZM368.297 60.2249L367.958 61.0875L367.968 61.0913L368.297 60.2249ZM352.645 59.7253L353.084 60.5413L353.108 60.5286L353.131 60.5146L352.645 59.7253ZM360.637 69.8823L360.405 70.7793L360.637 69.8823ZM370.128 72.7129L370.421 71.8338L370.128 72.7129ZM379.619 77.2086L380.113 76.4244L379.619 77.2086ZM386.945 84.8679L386.146 85.3366L386.15 85.3428L386.153 85.3489L386.945 84.8679ZM380.785 116.005L380.216 115.273L380.209 115.278L380.785 116.005ZM356.808 122.071C352.114 122.071 347.476 121.471 342.889 120.27L342.42 122.063C347.158 123.304 351.954 123.925 356.808 123.925V122.071ZM342.895 120.271C338.414 119.069 334.211 117.377 330.284 115.195L329.383 116.815C333.448 119.073 337.792 120.821 342.414 122.062L342.895 120.271ZM330.31 115.21C326.492 112.919 323.232 110.309 320.523 107.383L319.163 108.642C322.004 111.71 325.404 114.428 329.357 116.799L330.31 115.21ZM320.502 108.664L334.988 94.0113L333.67 92.7083L319.184 107.361L320.502 108.664ZM333.648 93.9884C336.398 96.9675 339.664 99.3153 343.437 101.03L344.204 99.343C340.65 97.7278 337.588 95.5243 335.01 92.7312L333.648 93.9884ZM343.458 101.04C347.246 102.646 351.366 103.444 355.809 103.444V101.591C351.593 101.591 347.721 100.835 344.182 99.3335L343.458 101.04ZM355.809 103.444C358.871 103.444 361.336 102.995 363.095 101.99L362.176 100.381C360.826 101.152 358.741 101.591 355.809 101.591V103.444ZM363.072 102.003C364.961 100.995 366.06 99.4983 366.06 97.5225H364.206C364.206 98.6548 363.64 99.5998 362.199 100.368L363.072 102.003ZM366.06 97.5225C366.06 96.3613 365.767 95.3039 365.155 94.386C364.547 93.4738 363.659 92.7524 362.55 92.1979L361.721 93.8557C362.611 94.3002 363.222 94.8276 363.613 95.414C364 95.9947 364.206 96.6856 364.206 97.5225H366.06ZM362.606 92.228C360.621 91.0605 358.091 90.0896 355.042 89.2991L354.577 91.0932C357.522 91.8568 359.877 92.773 361.666 93.8255L362.606 92.228ZM355.073 89.3076C352.077 88.4199 348.914 87.4767 345.585 86.4779L345.052 88.2532C348.383 89.2525 351.548 90.1963 354.546 91.0847L355.073 89.3076ZM345.585 86.4779C342.327 85.5006 339.233 84.1434 336.3 82.4056L335.355 84.0001C338.417 85.8145 341.65 87.2324 345.052 88.2532L345.585 86.4779ZM336.3 82.4056C333.44 80.7106 331.105 78.3795 329.294 75.3956L327.709 76.3575C329.672 79.5898 332.221 82.143 335.355 84.0001L336.3 82.4056ZM329.301 75.4079C327.519 72.3683 326.598 68.4906 326.598 63.7215H324.744C324.744 68.7209 325.71 72.9465 327.702 76.3452L329.301 75.4079ZM326.598 63.7215C326.598 58.6699 327.884 54.3669 330.424 50.7689L328.91 49.7C326.121 53.6503 324.744 58.3387 324.744 63.7215H326.598ZM330.431 50.7585C332.987 47.0311 336.621 44.0803 341.373 41.9202L340.606 40.2329C335.59 42.5129 331.675 45.6675 328.903 49.7104L330.431 50.7585ZM341.373 41.9202C346.113 39.7655 351.694 38.6731 358.14 38.6731V36.8197C351.487 36.8197 345.634 37.9474 340.606 40.2329L341.373 41.9202ZM358.14 38.6731C364.91 38.6731 371.113 39.8738 376.76 42.263L377.483 40.5561C371.585 38.0611 365.134 36.8197 358.14 36.8197V38.6731ZM376.78 42.2711C382.522 44.546 387.157 47.9474 390.712 52.472L392.17 51.327C388.399 46.5272 383.488 42.9353 377.463 40.548L376.78 42.2711ZM390.782 51.248L376.296 65.9006L377.614 67.2037L392.1 52.551L390.782 51.248ZM377.66 65.9512C375.021 62.8525 372.01 60.6423 368.625 59.3584L367.968 61.0913C371.021 62.2495 373.783 64.2575 376.25 67.1531L377.66 65.9512ZM368.635 59.3623C365.432 58.1037 362.264 57.4666 359.139 57.4666V59.32C362.007 59.32 364.945 59.9039 367.958 61.0874L368.635 59.3623ZM359.139 57.4666C356.188 57.4666 353.818 57.9152 352.159 58.9361L353.131 60.5146C354.358 59.7594 356.318 59.32 359.139 59.32V57.4666ZM352.206 58.9094C351.369 59.3598 350.695 59.949 350.234 60.6945C349.77 61.4427 349.554 62.2962 349.554 63.222H351.407C351.407 62.5937 351.551 62.0874 351.809 61.6701C352.069 61.2501 352.478 60.8679 353.084 60.5413L352.206 58.9094ZM349.554 63.222C349.554 65.3308 350.787 66.9307 352.877 68.0372L353.745 66.3992C352.06 65.5075 351.407 64.4433 351.407 63.222H349.554ZM352.877 68.0372C354.85 69.0813 357.366 69.9915 360.405 70.7793L360.87 68.9852C357.914 68.219 355.546 67.3531 353.745 66.3992L352.877 68.0372ZM360.405 70.7793C363.379 71.5504 366.522 72.4878 369.835 73.5921L370.421 71.8338C367.074 70.7179 363.89 69.7682 360.87 68.9852L360.405 70.7793ZM369.835 73.5921C373.094 74.6784 376.191 76.145 379.125 77.9928L380.113 76.4244C377.053 74.4981 373.823 72.9675 370.421 71.8338L369.835 73.5921ZM379.125 77.9928C381.99 79.7965 384.33 82.2385 386.146 85.3366L387.745 84.3993C385.787 81.0591 383.243 78.3949 380.113 76.4244L379.125 77.9928ZM386.153 85.3489C387.924 88.2648 388.849 92.1875 388.849 97.1895H390.703C390.703 91.979 389.741 87.6873 387.738 84.387L386.153 85.3489ZM388.849 97.1895C388.849 104.797 385.975 110.794 380.216 115.273L381.354 116.736C387.583 111.891 390.703 105.344 390.703 97.1895H388.849ZM380.209 115.278C374.538 119.772 366.772 122.071 356.808 122.071V123.925C367.046 123.925 375.265 121.562 381.36 116.731L380.209 115.278ZM435.234 119.501L435.623 118.661L435.234 119.501ZM424.078 110.843L423.342 111.406L423.35 111.417L424.078 110.843ZM419.083 98.022H418.156V98.065L418.16 98.1078L419.083 98.022ZM419.083 63.888L418.16 63.8022L418.156 63.845V63.888H419.083ZM424.078 50.9005L423.334 50.3478L424.078 50.9005ZM435.234 41.7426L435.64 42.5755L435.234 41.7426ZM470.533 43.9072L470.044 44.6939L470.05 44.6979L470.533 43.9072ZM484.52 58.8928L483.7 59.3245L483.706 59.3356L484.52 58.8928ZM484.52 102.185L483.706 101.742L483.7 101.753L484.52 102.185ZM470.533 117.17L470.05 116.38L470.044 116.384L470.533 117.17ZM455.048 97.1895L454.571 96.3948L454.564 96.3992L454.557 96.4036L455.048 97.1895ZM461.542 90.3627L460.726 89.9233L461.542 90.3627ZM461.542 70.5483L460.726 70.9877L461.542 70.5483ZM455.048 63.888L454.557 64.6739L454.576 64.6857L454.595 64.6966L455.048 63.888ZM436.233 63.888L436.7 64.6886L436.71 64.6827L436.233 63.888ZM429.906 70.5483L430.722 70.9877L429.906 70.5483ZM429.739 90.3627L428.91 90.7771L428.917 90.7897L428.923 90.802L429.739 90.3627ZM436.233 97.1895L435.756 97.9841L436.233 97.1895ZM403.597 155.134H402.671V156.061H403.597V155.134ZM403.597 40.0775V39.1508H402.671V40.0775H403.597ZM429.073 40.0775H430V39.1508H429.073V40.0775ZM429.073 60.8909L429.98 61.083L430 60.988V60.8909H429.073ZM424.91 80.5387L424.004 80.3467L423.965 80.5311L424.001 80.716L424.91 80.5387ZM428.74 100.187H429.667V100.097L429.65 100.009L428.74 100.187ZM428.74 155.134V156.061H429.667V155.134H428.74ZM450.219 121.738C444.903 121.738 440.043 120.708 435.623 118.661L434.844 120.342C439.528 122.513 444.657 123.592 450.219 123.592V121.738ZM435.623 118.661C431.194 116.608 427.595 113.81 424.806 110.27L423.35 111.417C426.333 115.203 430.171 118.177 434.844 120.342L435.623 118.661ZM424.814 110.28C422.035 106.646 420.433 102.538 420.005 97.9362L418.16 98.1078C418.62 103.053 420.349 107.492 423.342 111.406L424.814 110.28ZM420.009 98.022V63.888H418.156V98.022H420.009ZM420.005 63.9739C420.433 59.3714 422.036 55.2034 424.822 51.4531L423.334 50.3478C420.348 54.3679 418.62 58.8582 418.16 63.8022L420.005 63.9739ZM424.822 51.4531C427.615 47.6926 431.216 44.7336 435.64 42.5755L434.828 40.9097C430.149 43.1917 426.313 46.338 423.334 50.3478L424.822 51.4531ZM435.64 42.5755C440.056 40.4216 444.91 39.3391 450.219 39.3391V37.4857C444.65 37.4857 439.515 38.6233 434.828 40.9097L435.64 42.5755ZM450.219 39.3391C457.724 39.3391 464.322 41.1317 470.044 44.6938L471.023 43.1205C464.978 39.3564 458.033 37.4857 450.219 37.4857V39.3391ZM470.05 44.6979C475.899 48.2723 480.446 53.1423 483.7 59.3244L485.34 58.4612C481.934 51.9888 477.156 46.8683 471.017 43.1164L470.05 44.6979ZM483.706 59.3356C487.064 65.5107 488.755 72.5704 488.755 80.5387H490.608C490.608 72.3004 488.858 64.9295 485.334 58.4501L483.706 59.3356ZM488.755 80.5387C488.755 88.5071 487.064 95.5668 483.706 101.742L485.334 102.627C488.858 96.148 490.608 88.7771 490.608 80.5387H488.755ZM483.7 101.753C480.446 107.935 475.899 112.805 470.05 116.38L471.017 117.961C477.156 114.209 481.934 109.089 485.34 102.616L483.7 101.753ZM470.044 116.384C464.322 119.946 457.724 121.738 450.219 121.738V123.592C458.033 123.592 464.978 121.721 471.023 117.957L470.044 116.384ZM445.557 100.614C449.365 100.614 452.705 99.7468 455.539 97.9753L454.557 96.4036C452.063 97.9622 449.076 98.7604 445.557 98.7604V100.614ZM455.525 97.9841C458.445 96.2321 460.726 93.8329 462.358 90.802L460.726 89.9233C459.25 92.6647 457.202 94.8167 454.571 96.3948L455.525 97.9841ZM462.358 90.802C463.993 87.7656 464.8 84.3369 464.8 80.5387H462.946C462.946 84.0669 462.199 87.1875 460.726 89.9233L462.358 90.802ZM464.8 80.5387C464.8 76.6346 463.995 73.1493 462.358 70.109L460.726 70.9877C462.197 73.7196 462.946 76.8945 462.946 80.5387H464.8ZM462.358 70.109C460.723 67.0728 458.435 64.7223 455.501 63.0795L454.595 64.6966C457.212 66.1618 459.253 68.2516 460.726 70.9877L462.358 70.109ZM455.539 63.1022C452.709 61.3335 449.426 60.4637 445.724 60.4637V62.3171C449.126 62.3171 452.059 63.1125 454.557 64.6739L455.539 63.1022ZM445.724 60.4637C442.021 60.4637 438.689 61.3336 435.756 63.0934L436.71 64.6827C439.327 63.1123 442.323 62.3171 445.724 62.3171V60.4637ZM435.766 63.0876C432.945 64.733 430.719 67.0825 429.09 70.109L430.722 70.9877C432.2 68.2419 434.192 66.1511 436.7 64.6885L435.766 63.0876ZM429.09 70.109C427.453 73.1493 426.648 76.6346 426.648 80.5387H428.501C428.501 76.8945 429.251 73.7196 430.722 70.9877L429.09 70.109ZM426.648 80.5387C426.648 84.3262 427.395 87.7459 428.91 90.7771L430.568 89.9482C429.197 87.2072 428.501 84.0776 428.501 80.5387H426.648ZM428.923 90.802C430.555 93.8329 432.836 96.2321 435.756 97.9841L436.71 96.3948C434.079 94.8167 432.031 92.6647 430.555 89.9233L428.923 90.802ZM435.756 97.9841C438.684 99.7411 441.959 100.614 445.557 100.614V98.7604C442.273 98.7604 439.332 97.968 436.71 96.3948L435.756 97.9841ZM404.524 155.134V40.0775H402.671V155.134H404.524ZM403.597 41.0042H429.073V39.1508H403.597V41.0042ZM428.146 40.0775V60.8909H430V40.0775H428.146ZM428.167 60.6988L424.004 80.3467L425.817 80.7308L429.98 61.083L428.167 60.6988ZM424.001 80.716L427.83 100.364L429.65 100.009L425.82 80.3615L424.001 80.716ZM427.813 100.187V155.134H429.667V100.187H427.813ZM428.74 154.207H403.597V156.061H428.74V154.207ZM519.108 117.503L518.667 118.318L518.675 118.323L518.683 118.327L519.108 117.503ZM503.123 102.351L503.917 101.872L503.123 102.351ZM502.957 58.8928L502.163 58.414L502.161 58.4181L502.957 58.8928ZM518.608 43.7407L518.156 42.9319L518.608 43.7407ZM576.22 57.7273L575.413 58.1823L575.419 58.1933L576.22 57.7273ZM581.215 83.3694L580.297 83.2469L580.293 83.275L580.291 83.3033L581.215 83.3694ZM580.383 88.8641L580.385 89.7908L581.135 89.789L581.289 89.055L580.383 88.8641ZM510.616 89.0306H509.689V89.9595L510.618 89.9573L510.616 89.0306ZM510.616 71.5474L510.613 70.6207L509.689 70.6233V71.5474H510.616ZM569.56 71.3809L570.074 72.1519L572.633 70.4455L569.557 70.4542L569.56 71.3809ZM558.57 78.7072L557.644 78.7292L557.684 80.4118L559.084 79.4782L558.57 78.7072ZM556.406 67.2182L555.554 67.5833L555.559 67.5945L556.406 67.2182ZM550.411 60.2249L549.905 61.0011L549.924 61.0137L549.944 61.0253L550.411 60.2249ZM530.43 60.5579L530.916 61.3472L530.924 61.3421L530.43 60.5579ZM523.604 68.2172L522.775 67.8028L522.769 67.814L522.764 67.8253L523.604 68.2172ZM523.77 92.6938L522.936 93.0974L522.944 93.1138L522.952 93.1299L523.77 92.6938ZM531.096 100.52L530.615 101.312L530.632 101.322L530.649 101.331L531.096 100.52ZM553.242 101.186L553.596 102.042L553.609 102.037L553.621 102.031L553.242 101.186ZM561.734 94.8584L562.389 94.2031L561.691 93.5047L561.038 94.2462L561.734 94.8584ZM575.72 108.845L576.424 109.448L576.982 108.797L576.376 108.19L575.72 108.845ZM561.234 119.335L560.881 118.478L561.234 119.335ZM542.585 121.905C533.944 121.905 526.267 120.156 519.533 116.68L518.683 118.327C525.713 121.955 533.688 123.758 542.585 123.758V121.905ZM519.549 116.688C512.919 113.102 507.714 108.166 503.917 101.872L502.33 102.83C506.302 109.413 511.754 114.579 518.667 118.318L519.549 116.688ZM503.917 101.872C500.125 95.5898 498.222 88.4869 498.222 80.5387H496.369C496.369 88.7973 498.351 96.236 502.33 102.83L503.917 101.872ZM498.222 80.5387C498.222 72.5853 500.072 65.5372 503.753 59.3675L502.161 58.4181C498.293 64.903 496.369 72.2855 496.369 80.5387H498.222ZM503.75 59.3716C507.552 53.0708 512.652 48.1339 519.061 44.5494L518.156 42.9319C511.466 46.6737 506.131 51.8383 502.163 58.414L503.75 59.3716ZM519.061 44.5494C525.459 40.9708 532.682 39.1726 540.754 39.1726V37.3192C532.396 37.3192 524.856 39.1842 518.156 42.9319L519.061 44.5494ZM540.754 39.1726C548.609 39.1726 555.497 40.8625 561.445 44.2149L562.355 42.6003C556.093 39.0705 548.883 37.3192 540.754 37.3192V39.1726ZM561.445 44.2149C567.403 47.573 572.055 52.2244 575.413 58.1823L577.027 57.2722C573.503 51.0196 568.608 46.1246 562.355 42.6003L561.445 44.2149ZM575.419 58.1933C578.879 64.1412 580.621 70.9701 580.621 78.7072H582.475C582.475 70.6815 580.665 63.5239 577.021 57.2612L575.419 58.1933ZM580.621 78.7072C580.621 80.1033 580.514 81.616 580.297 83.2469L582.134 83.4919C582.36 81.7926 582.475 80.1972 582.475 78.7072H580.621ZM580.291 83.3033C580.184 84.803 579.914 86.5909 579.476 88.6732L581.289 89.055C581.739 86.9191 582.025 85.0439 582.139 83.4354L580.291 83.3033ZM580.38 87.9374L510.614 88.1039L510.618 89.9573L580.385 89.7908L580.38 87.9374ZM511.543 89.0306V71.5474H509.689V89.0306H511.543ZM510.619 72.4741L569.562 72.3075L569.557 70.4542L510.613 70.6207L510.619 72.4741ZM569.046 70.6098L558.056 77.9361L559.084 79.4782L570.074 72.1519L569.046 70.6098ZM559.497 78.6851C559.384 73.9483 558.65 69.9872 557.252 66.8418L555.559 67.5945C556.825 70.4434 557.534 74.1416 557.644 78.7292L559.497 78.6851ZM557.257 66.8531C555.855 63.5809 553.731 61.0883 550.878 59.4244L549.944 61.0253C552.42 62.4696 554.292 64.6392 555.554 67.5832L557.257 66.8531ZM550.918 59.4487C548.182 57.6643 544.831 56.8006 540.92 56.8006V58.654C544.558 58.654 547.535 59.4553 549.905 61.0011L550.918 59.4487ZM540.92 56.8006C536.773 56.8006 533.1 57.7819 529.937 59.7737L530.924 61.3421C533.755 59.5597 537.076 58.654 540.92 58.654V56.8006ZM529.945 59.7687C526.897 61.6441 524.509 64.3339 522.775 67.8028L524.432 68.6317C526.028 65.4402 528.191 63.0239 530.916 61.3471L529.945 59.7687ZM522.764 67.8253C521.138 71.3091 520.346 75.5025 520.346 80.3722H522.199C522.199 75.6956 522.961 71.7856 524.443 68.6091L522.764 67.8253ZM520.346 80.3722C520.346 85.2514 521.197 89.5031 522.936 93.0974L524.604 92.2901C523.013 89.0022 522.199 85.0395 522.199 80.3722H520.346ZM522.952 93.1299C524.804 96.6009 527.36 99.335 530.615 101.312L531.577 99.7275C528.617 97.9301 526.289 95.4469 524.588 92.2577L522.952 93.1299ZM530.649 101.331C534.028 103.195 537.961 104.11 542.419 104.11V102.257C538.218 102.257 534.604 101.396 531.544 99.7082L530.649 101.331ZM542.419 104.11C546.519 104.11 550.249 103.427 553.596 102.042L552.888 100.329C549.796 101.609 546.311 102.257 542.419 102.257V104.11ZM553.621 102.031C556.967 100.531 559.904 98.3404 562.429 95.4706L561.038 94.2462C558.679 96.9266 555.955 98.9538 552.863 100.34L553.621 102.031ZM561.078 95.5136L575.065 109.5L576.376 108.19L562.389 94.2031L561.078 95.5136ZM575.017 108.242C571.116 112.793 566.407 116.203 560.881 118.478L561.587 120.192C567.384 117.805 572.333 114.221 576.424 109.448L575.017 108.242ZM560.881 118.478C555.343 120.758 549.249 121.905 542.585 121.905V123.758C549.465 123.758 555.803 122.574 561.587 120.192L560.881 118.478ZM647.294 121H646.367V121.927H647.294V121ZM643.298 64.7206L642.629 65.3617L642.642 65.376L642.656 65.3896L643.298 64.7206ZM626.147 62.556L626.579 63.376L626.596 63.3673L626.612 63.358L626.147 62.556ZM621.152 67.5512L621.954 68.0155L621.959 68.0067L621.964 67.9978L621.152 67.5512ZM619.321 74.8775L618.912 75.7092L620.247 76.3656V74.8775H619.321ZM609.497 70.0488H608.57V70.6259L609.088 70.8805L609.497 70.0488ZM625.148 42.4086L625.578 43.2299L625.584 43.2263L625.148 42.4086ZM657.784 42.7416L657.287 43.5242L657.299 43.5312L657.31 43.5379L657.784 42.7416ZM668.773 53.8976L667.969 54.3574L668.773 53.8976ZM672.769 121V121.927H673.696V121H672.769ZM593.845 121H592.918V121.927H593.845V121ZM593.845 40.0775V39.1508H592.918V40.0775H593.845ZM619.321 40.0775H620.247V39.1508H619.321V40.0775ZM619.321 121V121.927H620.247V121H619.321ZM648.22 121V74.8775H646.367V121H648.22ZM648.22 74.8775C648.22 70.4463 646.812 66.805 643.939 64.0515L642.656 65.3896C645.111 67.7424 646.367 70.8724 646.367 74.8775H648.22ZM643.967 64.0794C641.223 61.2167 637.699 59.7977 633.474 59.7977V61.6511C637.241 61.6511 640.266 62.8962 642.629 65.3617L643.967 64.0794ZM633.474 59.7977C630.559 59.7977 627.952 60.4404 625.683 61.754L626.612 63.358C628.561 62.2294 630.839 61.6511 633.474 61.6511V59.7977ZM625.716 61.7359C623.436 62.9359 621.643 64.736 620.34 67.1046L621.964 67.9978C623.104 65.9262 624.641 64.3961 626.579 63.376L625.716 61.7359ZM620.35 67.0869C619.037 69.3557 618.394 71.9623 618.394 74.8775H620.247C620.247 72.2424 620.826 69.9648 621.954 68.0155L620.35 67.0869ZM619.729 74.0458L609.905 69.2171L609.088 70.8805L618.912 75.7092L619.729 74.0458ZM610.423 70.0488C610.423 63.8609 611.779 58.476 614.46 53.8639L612.858 52.9323C609.989 57.8665 608.57 63.5822 608.57 70.0488H610.423ZM614.46 53.8639C617.148 49.2416 620.849 45.7018 625.578 43.2299L624.719 41.5873C619.68 44.2216 615.721 48.0082 612.858 52.9323L614.46 53.8639ZM625.584 43.2263C630.433 40.6406 635.886 39.3391 641.966 39.3391V37.4857C635.612 37.4857 629.854 38.8484 624.712 41.5909L625.584 43.2263ZM641.966 39.3391C647.804 39.3391 652.901 40.7426 657.287 43.5242L658.28 41.959C653.564 38.9684 648.115 37.4857 641.966 37.4857V39.3391ZM657.31 43.5379C661.836 46.2322 665.385 49.8355 667.969 54.3574L669.578 53.4378C666.833 48.6353 663.056 44.8013 658.258 41.9453L657.31 43.5379ZM667.969 54.3574C670.55 58.8747 671.843 63.8216 671.843 69.2163H673.696C673.696 63.5104 672.325 58.2449 669.578 53.4378L667.969 54.3574ZM671.843 69.2163V121H673.696V69.2163H671.843ZM672.769 120.073H647.294V121.927H672.769V120.073ZM594.772 121V40.0775H592.918V121H594.772ZM593.845 41.0042H619.321V39.1508H593.845V41.0042ZM618.394 40.0775V121H620.247V40.0775H618.394ZM619.321 120.073H593.845V121.927H619.321V120.073ZM703.118 117.17L702.628 117.957L702.635 117.961L703.118 117.17ZM689.131 102.185L688.311 102.616L688.317 102.627L689.131 102.185ZM689.131 58.8928L688.317 58.45L688.311 58.4612L689.131 58.8928ZM703.118 43.9072L702.635 43.1164L702.628 43.1205L703.118 43.9072ZM738.584 41.5761L738.186 42.4132L738.194 42.4169L738.584 41.5761ZM749.74 50.4009L749.004 50.9639L749.013 50.976L749.023 50.9878L749.74 50.4009ZM754.735 63.0555H755.662V63.0232L755.66 62.991L754.735 63.0555ZM754.735 97.1895L755.66 97.254L755.662 97.2218V97.1895H754.735ZM749.906 110.177L750.643 110.74L750.65 110.73L749.906 110.177ZM738.75 119.335L739.157 120.168L739.165 120.164L739.173 120.16L738.75 119.335ZM737.585 97.356L738.052 98.1564L738.064 98.1493L738.076 98.1418L737.585 97.356ZM743.912 90.5292L743.096 90.0898L743.912 90.5292ZM743.912 70.7148L743.083 71.1293L743.093 71.1487L743.104 71.1676L743.912 70.7148ZM737.585 63.888L737.094 64.6739L737.101 64.6783L737.108 64.6827L737.585 63.888ZM718.77 63.888L718.293 63.0934L718.286 63.0977L718.278 63.1022L718.77 63.888ZM712.276 70.7148L711.473 70.2517L711.466 70.2635L711.46 70.2755L712.276 70.7148ZM712.276 90.3627L711.46 90.802L712.276 90.3627ZM770.22 121V121.927H771.147V121H770.22ZM745.244 121H744.318V121.927H745.244V121ZM745.244 99.1876L744.335 99.0103L744.318 99.0981V99.1876H745.244ZM749.074 79.5397L749.983 79.717L750.02 79.5282L749.979 79.3403L749.074 79.5397ZM744.745 59.8919H743.818V59.9927L743.84 60.0913L744.745 59.8919ZM744.745 0.115768V-0.810932H743.818V0.115768H744.745ZM770.22 0.115768H771.147V-0.810932H770.22V0.115768ZM723.598 121.738C716.094 121.738 709.437 119.946 703.601 116.38L702.635 117.961C708.787 121.721 715.784 123.592 723.598 123.592V121.738ZM703.608 116.384C697.866 112.809 693.313 107.934 689.945 101.742L688.317 102.627C691.832 109.09 696.603 114.206 702.628 117.957L703.608 116.384ZM689.951 101.753C686.7 95.5757 685.063 88.512 685.063 80.5387H683.209C683.209 88.7722 684.902 96.1391 688.311 102.616L689.951 101.753ZM685.063 80.5387C685.063 72.5655 686.7 65.5018 689.951 59.3244L688.311 58.4612C684.902 64.9384 683.209 72.3053 683.209 80.5387H685.063ZM689.945 59.3356C693.313 53.1433 697.866 48.2689 703.608 44.6938L702.628 43.1205C696.603 46.8717 691.832 51.9878 688.317 58.4501L689.945 59.3356ZM703.601 44.6979C709.437 41.1316 716.094 39.3391 723.598 39.3391V37.4857C715.784 37.4857 708.787 39.3564 702.635 43.1164L703.601 44.6979ZM723.598 39.3391C729.029 39.3391 733.885 40.3703 738.186 42.4131L738.982 40.739C734.402 38.5637 729.268 37.4857 723.598 37.4857V39.3391ZM738.194 42.4169C742.617 44.4664 746.214 47.3157 749.004 50.9639L750.476 49.838C747.494 45.9378 743.653 42.9039 738.974 40.7353L738.194 42.4169ZM749.023 50.9878C751.897 54.5007 753.491 58.5359 753.811 63.12L755.66 62.991C755.313 58.0287 753.577 53.6275 750.457 49.8141L749.023 50.9878ZM753.808 63.0555V97.1895H755.662V63.0555H753.808ZM753.811 97.125C753.49 101.719 751.944 105.88 749.163 109.624L750.65 110.73C753.641 106.704 755.314 102.206 755.66 97.254L753.811 97.125ZM749.17 109.614C746.374 113.271 742.766 116.237 738.328 118.51L739.173 120.16C743.837 117.771 747.666 114.632 750.643 110.74L749.17 109.614ZM738.344 118.502C733.931 120.655 729.021 121.738 723.598 121.738V123.592C729.276 123.592 734.467 122.455 739.157 120.168L738.344 118.502ZM728.094 100.614C731.89 100.614 735.221 99.8075 738.052 98.1564L737.118 96.5555C734.62 98.0126 731.624 98.7604 728.094 98.7604V100.614ZM738.076 98.1418C740.883 96.3876 743.101 93.99 744.728 90.9685L743.096 90.0898C741.615 92.8406 739.615 94.9942 737.094 96.5701L738.076 98.1418ZM744.728 90.9685C746.365 87.9282 747.17 84.4429 747.17 80.5387H745.317C745.317 84.183 744.567 87.3579 743.096 90.0898L744.728 90.9685ZM747.17 80.5387C747.17 76.6357 746.366 73.1992 744.721 70.262L743.104 71.1676C744.567 73.7806 745.317 76.8935 745.317 80.5387H747.17ZM744.741 70.3004C743.219 67.2561 740.987 64.8489 738.062 63.0934L737.108 64.6827C739.733 66.2573 741.719 68.4013 743.083 71.1293L744.741 70.3004ZM738.076 63.1022C735.246 61.3335 731.963 60.4637 728.26 60.4637V62.3171C731.662 62.3171 734.595 63.1125 737.094 64.6739L738.076 63.1022ZM728.26 60.4637C724.557 60.4637 721.226 61.3336 718.293 63.0934L719.246 64.6827C721.864 63.1123 724.859 62.3171 728.26 62.3171V60.4637ZM718.278 63.1022C715.478 64.8526 713.209 67.2423 711.473 70.2517L713.078 71.1779C714.672 68.4151 716.733 66.2536 719.261 64.6739L718.278 63.1022ZM711.46 70.2755C709.825 73.3119 709.018 76.7406 709.018 80.5387H710.871C710.871 77.0106 711.619 73.89 713.092 71.1542L711.46 70.2755ZM709.018 80.5387C709.018 84.3369 709.825 87.7656 711.46 90.802L713.092 89.9233C711.619 87.1875 710.871 84.0669 710.871 80.5387H709.018ZM711.46 90.802C713.092 93.8329 715.373 96.2321 718.293 97.9841L719.246 96.3948C716.616 94.8167 714.568 92.6647 713.092 89.9233L711.46 90.802ZM718.293 97.9841C721.221 99.7411 724.496 100.614 728.094 100.614V98.7604C724.81 98.7604 721.868 97.968 719.246 96.3948L718.293 97.9841ZM770.22 120.073H745.244V121.927H770.22V120.073ZM746.171 121V99.1876H744.318V121H746.171ZM746.154 99.3649L749.983 79.717L748.164 79.3624L744.335 99.0103L746.154 99.3649ZM749.979 79.3403L745.65 59.6925L743.84 60.0913L748.169 79.7391L749.979 79.3403ZM745.671 59.8919V0.115768H743.818V59.8919H745.671ZM744.745 1.04247H770.22V-0.810932H744.745V1.04247ZM769.294 0.115768V121H771.147V0.115768H769.294ZM788.158 140.981L787.341 140.543L786.909 141.348L787.708 141.791L788.158 140.981ZM800.313 118.336L800.055 117.446L799.681 117.554L799.496 117.898L800.313 118.336ZM807.805 116.171L808.645 116.563L809.508 114.715L807.548 115.281L807.805 116.171ZM804.975 120.334L805.595 121.023L805.613 121.006L805.63 120.989L804.975 120.334ZM792.32 117.836L791.665 118.492L792.32 117.836ZM792.653 96.6899L791.986 96.0467L791.98 96.053L791.974 96.0594L792.653 96.6899ZM814.299 96.6899L813.632 97.3332L813.644 97.3453L813.656 97.357L814.299 96.6899ZM817.962 114.007L817.071 113.752L817.962 114.007ZM813.966 123.165L814.779 123.61L814.785 123.598L813.966 123.165ZM800.479 147.808L800.03 148.618L800.845 149.07L801.292 148.253L800.479 147.808ZM788.974 141.419L801.129 118.774L799.496 117.898L787.341 140.543L788.974 141.419ZM800.57 119.226L808.063 117.062L807.548 115.281L800.055 117.446L800.57 119.226ZM806.966 115.779C806.227 117.363 805.341 118.657 804.32 119.679L805.63 120.989C806.828 119.791 807.83 118.31 808.645 116.563L806.966 115.779ZM804.355 119.645C803.408 120.497 802.351 120.906 801.145 120.906V122.759C802.826 122.759 804.321 122.169 805.595 121.023L804.355 119.645ZM801.145 120.906C798.214 120.906 795.498 119.703 792.976 117.181L791.665 118.492C794.471 121.298 797.638 122.759 801.145 122.759V120.906ZM792.976 117.181C790.497 114.702 789.251 111.613 789.251 107.846H787.397C787.397 112.071 788.816 115.642 791.665 118.492L792.976 117.181ZM789.251 107.846C789.251 103.745 790.609 100.253 793.332 97.3205L791.974 96.0594C788.925 99.3428 787.397 103.288 787.397 107.846H789.251ZM793.32 97.3332C796.142 94.4067 799.564 92.9545 803.643 92.9545V91.101C799.063 91.101 795.159 92.7569 791.986 96.0467L793.32 97.3332ZM803.643 92.9545C807.484 92.9545 810.8 94.3958 813.632 97.3332L814.966 96.0467C811.805 92.7678 808.016 91.101 803.643 91.101V92.9545ZM813.656 97.357C816.577 100.174 818.035 103.649 818.035 107.846H819.888C819.888 103.162 818.237 99.2001 814.943 96.0229L813.656 97.357ZM818.035 107.846C818.035 109.511 817.722 111.476 817.071 113.752L818.853 114.261C819.535 111.875 819.888 109.733 819.888 107.846H818.035ZM817.071 113.752C816.432 115.991 815.134 118.978 813.147 122.731L814.785 123.598C816.794 119.803 818.161 116.684 818.853 114.261L817.071 113.752ZM813.153 122.72L799.666 147.363L801.292 148.253L814.779 123.609L813.153 122.72ZM800.928 146.997L788.607 140.17L787.708 141.791L800.03 148.618L800.928 146.997ZM882.339 121.167L882.099 122.062L882.105 122.063L882.339 121.167ZM869.518 116.005L869.042 116.799L869.055 116.807L869.068 116.815L869.518 116.005ZM859.528 108.012L858.869 107.361L858.246 107.991L858.848 108.642L859.528 108.012ZM874.014 93.3598L874.695 92.7312L874.037 92.0184L873.355 92.7083L874.014 93.3598ZM883.505 100.187L883.122 101.03L883.132 101.035L883.143 101.04L883.505 100.187ZM902.32 101.186L901.884 100.368L901.872 100.374L901.861 100.381L902.32 101.186ZM901.821 93.0268L901.351 93.8255L901.378 93.8415L901.406 93.8557L901.821 93.0268ZM894.495 90.1962L894.231 91.0847L894.247 91.0892L894.262 91.0932L894.495 90.1962ZM875.513 83.2029L875.985 82.4056L875.513 83.2029ZM868.186 75.8765L867.387 76.3452L867.391 76.3514L867.394 76.3575L868.186 75.8765ZM869.352 50.2344L870.109 50.7689L870.116 50.7585L869.352 50.2344ZM880.674 41.0765L880.291 40.2329L880.674 41.0765ZM916.807 41.4096L916.445 42.263L916.455 42.2672L916.465 42.2711L916.807 41.4096ZM931.126 51.8995L931.785 52.551L932.36 51.9697L931.855 51.327L931.126 51.8995ZM916.64 66.5521L915.935 67.1531L916.589 67.9216L917.299 67.2037L916.64 66.5521ZM907.982 60.2249L907.643 61.0875L907.653 61.0913L907.982 60.2249ZM892.33 59.7253L892.769 60.5413L892.793 60.5286L892.816 60.5146L892.33 59.7253ZM900.322 69.8823L900.09 70.7793L900.322 69.8823ZM909.813 72.7129L910.106 71.8338L909.813 72.7129ZM919.304 77.2086L919.798 76.4244L919.304 77.2086ZM926.63 84.8679L925.831 85.3366L925.835 85.3428L925.838 85.3489L926.63 84.8679ZM920.47 116.005L919.901 115.273L919.894 115.278L920.47 116.005ZM896.493 122.071C891.799 122.071 887.161 121.471 882.574 120.27L882.105 122.063C886.843 123.304 891.639 123.925 896.493 123.925V122.071ZM882.58 120.271C878.099 119.069 873.896 117.377 869.968 115.195L869.068 116.815C873.133 119.073 877.477 120.821 882.099 122.062L882.58 120.271ZM869.995 115.21C866.177 112.919 862.917 110.309 860.208 107.383L858.848 108.642C861.689 111.71 865.089 114.428 869.042 116.799L869.995 115.21ZM860.187 108.664L874.673 94.0113L873.355 92.7083L858.869 107.361L860.187 108.664ZM873.333 93.9884C876.083 96.9675 879.349 99.3153 883.122 101.03L883.888 99.343C880.335 97.7278 877.273 95.5243 874.695 92.7312L873.333 93.9884ZM883.143 101.04C886.93 102.646 891.051 103.444 895.494 103.444V101.591C891.278 101.591 887.406 100.835 883.867 99.3335L883.143 101.04ZM895.494 103.444C898.556 103.444 901.021 102.995 902.78 101.99L901.861 100.381C900.511 101.152 898.426 101.591 895.494 101.591V103.444ZM902.756 102.003C904.646 100.995 905.745 99.4983 905.745 97.5225H903.891C903.891 98.6548 903.325 99.5998 901.884 100.368L902.756 102.003ZM905.745 97.5225C905.745 96.3613 905.452 95.3039 904.84 94.386C904.232 93.4738 903.344 92.7524 902.235 92.1979L901.406 93.8557C902.295 94.3002 902.907 94.8276 903.298 95.414C903.685 95.9947 903.891 96.6856 903.891 97.5225H905.745ZM902.291 92.228C900.306 91.0605 897.776 90.0896 894.727 89.2991L894.262 91.0932C897.207 91.8568 899.562 92.773 901.351 93.8255L902.291 92.228ZM894.758 89.3076C891.762 88.4199 888.599 87.4767 885.27 86.4779L884.737 88.2532C888.068 89.2525 891.233 90.1963 894.231 91.0847L894.758 89.3076ZM885.27 86.4779C882.012 85.5006 878.918 84.1434 875.985 82.4056L875.04 84.0001C878.102 85.8145 881.335 87.2324 884.737 88.2532L885.27 86.4779ZM875.985 82.4056C873.125 80.7106 870.79 78.3795 868.979 75.3956L867.394 76.3575C869.357 79.5898 871.906 82.143 875.04 84.0001L875.985 82.4056ZM868.986 75.4079C867.204 72.3683 866.282 68.4906 866.282 63.7215H864.429C864.429 68.7209 865.395 72.9465 867.387 76.3452L868.986 75.4079ZM866.282 63.7215C866.282 58.6699 867.569 54.3669 870.109 50.7689L868.595 49.7C865.806 53.6503 864.429 58.3387 864.429 63.7215H866.282ZM870.116 50.7585C872.672 47.0311 876.306 44.0803 881.058 41.9202L880.291 40.2329C875.275 42.5129 871.36 45.6675 868.588 49.7104L870.116 50.7585ZM881.058 41.9202C885.798 39.7655 891.379 38.6731 897.825 38.6731V36.8197C891.172 36.8197 885.319 37.9474 880.291 40.2329L881.058 41.9202ZM897.825 38.6731C904.595 38.6731 910.798 39.8738 916.445 42.263L917.168 40.5561C911.27 38.0611 904.819 36.8197 897.825 36.8197V38.6731ZM916.465 42.2711C922.207 44.546 926.842 47.9474 930.397 52.472L931.855 51.327C928.083 46.5272 923.173 42.9353 917.148 40.548L916.465 42.2711ZM930.467 51.248L915.981 65.9006L917.299 67.2037L931.785 52.551L930.467 51.248ZM917.345 65.9512C914.706 62.8525 911.695 60.6423 908.31 59.3584L907.653 61.0913C910.706 62.2495 913.468 64.2575 915.935 67.1531L917.345 65.9512ZM908.32 59.3623C905.117 58.1037 901.949 57.4666 898.824 57.4666V59.32C901.692 59.32 904.63 59.9039 907.643 61.0874L908.32 59.3623ZM898.824 57.4666C895.873 57.4666 893.503 57.9152 891.844 58.9361L892.816 60.5146C894.043 59.7594 896.003 59.32 898.824 59.32V57.4666ZM891.891 58.9094C891.054 59.3598 890.38 59.949 889.919 60.6945C889.455 61.4427 889.239 62.2962 889.239 63.222H891.092C891.092 62.5937 891.236 62.0874 891.494 61.6701C891.754 61.2501 892.163 60.8679 892.769 60.5413L891.891 58.9094ZM889.239 63.222C889.239 65.3308 890.472 66.9307 892.562 68.0372L893.43 66.3992C891.745 65.5075 891.092 64.4433 891.092 63.222H889.239ZM892.562 68.0372C894.535 69.0813 897.051 69.9915 900.09 70.7793L900.555 68.9852C897.599 68.219 895.231 67.3531 893.43 66.3992L892.562 68.0372ZM900.09 70.7793C903.064 71.5504 906.207 72.4878 909.52 73.5921L910.106 71.8338C906.759 70.7179 903.575 69.7682 900.555 68.9852L900.09 70.7793ZM909.52 73.5921C912.779 74.6784 915.875 76.145 918.81 77.9928L919.798 76.4244C916.738 74.4981 913.507 72.9675 910.106 71.8338L909.52 73.5921ZM918.81 77.9928C921.675 79.7965 924.015 82.2385 925.831 85.3366L927.43 84.3993C925.472 81.0591 922.927 78.3949 919.798 76.4244L918.81 77.9928ZM925.838 85.3489C927.609 88.2648 928.534 92.1875 928.534 97.1895H930.388C930.388 91.979 929.426 87.6873 927.422 84.387L925.838 85.3489ZM928.534 97.1895C928.534 104.797 925.659 110.794 919.901 115.273L921.039 116.736C927.268 111.891 930.388 105.344 930.388 97.1895H928.534ZM919.894 115.278C914.223 119.772 906.457 122.071 896.493 122.071V123.925C906.731 123.925 914.949 121.562 921.045 116.731L919.894 115.278ZM959.6 117.337L959.143 118.143L959.151 118.148L959.159 118.152L959.6 117.337ZM943.782 102.018L944.575 101.539L943.782 102.018ZM943.782 58.8928L942.992 58.4079L943.782 58.8928ZM959.6 43.9072L960.047 44.7192L960.057 44.7134L959.6 43.9072ZM1020.71 58.8928L1019.91 59.3716L1019.92 59.3777L1020.71 58.8928ZM1020.71 102.018L1021.5 102.497L1020.71 102.018ZM1004.89 117.337L1005.34 118.149L1005.35 118.143L1004.89 117.337ZM991.902 97.356L992.355 98.1645L992.367 98.1577L992.379 98.1506L991.902 97.356ZM998.23 90.5292L997.407 90.1026L997.401 90.1147L998.23 90.5292ZM998.23 70.5483L997.414 70.9877L997.417 70.9944L997.421 71.0011L998.23 70.5483ZM991.736 63.888L991.245 64.6739L991.264 64.6857L991.283 64.6966L991.736 63.888ZM972.754 63.888L973.207 64.6966L973.219 64.6898L973.231 64.6827L972.754 63.888ZM966.26 70.5483L967.076 70.9877L966.26 70.5483ZM966.26 90.5292L965.438 90.9557L965.441 90.9622L965.444 90.9685L966.26 90.5292ZM972.754 97.356L972.277 98.1506L972.289 98.1577L972.301 98.1645L972.754 97.356ZM982.245 121.905C974.061 121.905 966.666 120.106 960.041 116.522L959.159 118.152C966.077 121.894 973.779 123.758 982.245 123.758V121.905ZM960.057 116.531C953.532 112.833 948.377 107.839 944.575 101.539L942.989 102.497C946.957 109.074 952.347 114.292 959.143 118.143L960.057 116.531ZM944.575 101.539C940.783 95.2548 938.881 88.2069 938.881 80.3722H937.027C937.027 88.5223 939.011 95.905 942.989 102.497L944.575 101.539ZM938.881 80.3722C938.881 72.5375 940.783 65.5479 944.572 59.3777L942.992 58.4079C939.011 64.8922 937.027 72.2223 937.027 80.3722H938.881ZM944.572 59.3777C948.371 53.1907 953.524 48.3068 960.047 44.7192L959.154 43.0952C952.356 46.8338 946.964 51.9403 942.992 58.4079L944.572 59.3777ZM960.057 44.7134C966.564 41.0261 973.952 39.1726 982.245 39.1726V37.3192C973.665 37.3192 965.957 39.2399 959.143 43.1009L960.057 44.7134ZM982.245 39.1726C990.543 39.1726 997.935 40.9727 1004.44 44.5526L1005.34 42.9287C998.525 39.1822 990.82 37.3192 982.245 37.3192V39.1726ZM1004.44 44.5526C1010.96 48.1381 1016.11 53.0746 1019.91 59.3716L1021.5 58.414C1017.53 51.8345 1012.14 46.6695 1005.34 42.9287L1004.44 44.5526ZM1019.92 59.3777C1023.71 65.5479 1025.61 72.5375 1025.61 80.3722H1027.46C1027.46 72.2223 1025.48 64.8922 1021.5 58.4079L1019.92 59.3777ZM1025.61 80.3722C1025.61 88.2069 1023.71 95.2548 1019.91 101.539L1021.5 102.497C1025.48 95.905 1027.46 88.5223 1027.46 80.3722H1025.61ZM1019.91 101.539C1016.11 107.839 1010.96 112.833 1004.43 116.531L1005.35 118.143C1012.14 114.292 1017.53 109.074 1021.5 102.497L1019.91 101.539ZM1004.44 116.525C997.935 120.105 990.543 121.905 982.245 121.905V123.758C990.82 123.758 998.525 121.895 1005.34 118.149L1004.44 116.525ZM982.245 100.614C986.042 100.614 989.422 99.8071 992.355 98.1645L991.45 96.5474C988.833 98.013 985.774 98.7604 982.245 98.7604V100.614ZM992.379 98.1506C995.305 96.3952 997.536 93.9879 999.059 90.9436L997.401 90.1147C996.037 92.8427 994.05 94.9867 991.426 96.5613L992.379 98.1506ZM999.052 90.9558C1000.68 87.8119 1001.49 84.2771 1001.49 80.3722H999.634C999.634 84.0157 998.885 87.2522 997.407 90.1026L999.052 90.9558ZM1001.49 80.3722C1001.49 76.4692 1000.68 73.0327 999.038 70.0955L997.421 71.0011C998.885 73.6141 999.634 76.727 999.634 80.3722H1001.49ZM999.046 70.109C997.411 67.0728 995.122 64.7223 992.189 63.0795L991.283 64.6966C993.9 66.1618 995.941 68.2516 997.414 70.9877L999.046 70.109ZM992.227 63.1022C989.393 61.3307 986.053 60.4637 982.245 60.4637V62.3171C985.764 62.3171 988.751 63.1152 991.245 64.6739L992.227 63.1022ZM982.245 60.4637C978.542 60.4637 975.21 61.3336 972.277 63.0934L973.231 64.6827C975.848 63.1123 978.844 62.3171 982.245 62.3171V60.4637ZM972.301 63.0795C969.368 64.7223 967.079 67.0728 965.444 70.109L967.076 70.9877C968.55 68.2516 970.59 66.1618 973.207 64.6966L972.301 63.0795ZM965.444 70.109C963.807 73.1493 963.003 76.6346 963.003 80.5387H964.856C964.856 76.8945 965.605 73.7196 967.076 70.9877L965.444 70.109ZM963.003 80.5387C963.003 84.3375 963.81 87.8158 965.438 90.9557L967.083 90.1026C965.603 87.2483 964.856 84.0663 964.856 80.5387H963.003ZM965.444 90.9685C967.077 93.9995 969.357 96.3986 972.277 98.1506L973.231 96.5613C970.601 94.9832 968.552 92.8312 967.076 90.0898L965.444 90.9685ZM972.301 98.1645C975.23 99.8048 978.553 100.614 982.245 100.614V98.7604C978.833 98.7604 975.828 98.0153 973.207 96.5474L972.301 98.1645ZM1055.7 117.337L1056.14 116.522L1055.7 117.337ZM1039.72 102.185L1040.51 101.706L1039.72 102.185ZM1039.72 58.8928L1038.93 58.4041L1038.93 58.4079L1039.72 58.8928ZM1055.87 43.7407L1056.31 44.5557L1055.87 43.7407ZM1096 41.5761L1095.64 42.4288L1095.65 42.4334L1095.66 42.4377L1096 41.5761ZM1110.15 51.2335L1110.81 51.8888L1111.44 51.2505L1110.82 50.5957L1110.15 51.2335ZM1093.83 67.5512L1093.14 68.1691L1093.8 68.8992L1094.49 68.2065L1093.83 67.5512ZM1087.17 62.889L1086.82 63.7467L1086.83 63.7494L1086.84 63.752L1087.17 62.889ZM1068.86 63.888L1069.31 64.6966L1069.32 64.6907L1068.86 63.888ZM1062.2 70.5483L1061.39 70.0852L1061.39 70.0955L1062.2 70.5483ZM1062.2 90.3627L1061.38 90.802L1061.39 90.814L1061.39 90.8258L1062.2 90.3627ZM1087.51 98.022L1087.88 98.8719L1087.88 98.8682L1087.89 98.8644L1087.51 98.022ZM1094.33 93.0268L1094.99 92.3749L1094.3 91.6751L1093.64 92.4089L1094.33 93.0268ZM1110.48 109.344L1111.16 109.983L1111.78 109.331L1111.14 108.693L1110.48 109.344ZM1096.16 119.501L1096.52 120.357L1096.53 120.354L1096.54 120.35L1096.16 119.501ZM1078.35 121.905C1070.16 121.905 1062.77 120.106 1056.14 116.522L1055.26 118.152C1062.18 121.894 1069.88 123.758 1078.35 123.758V121.905ZM1056.14 116.522C1049.51 112.935 1044.31 107.999 1040.51 101.706L1038.93 102.663C1042.9 109.247 1048.35 114.412 1055.26 118.152L1056.14 116.522ZM1040.51 101.706C1036.72 95.4213 1034.82 88.3734 1034.82 80.5387H1032.96C1032.96 88.6888 1034.95 96.0715 1038.93 102.663L1040.51 101.706ZM1034.82 80.5387C1034.82 72.5904 1036.72 65.5459 1040.51 59.3777L1038.93 58.4079C1034.95 64.8943 1032.96 72.2804 1032.96 80.5387H1034.82ZM1040.51 59.3815C1044.42 53.0826 1049.68 48.1434 1056.31 44.5557L1055.43 42.9256C1048.52 46.6642 1043.01 51.8265 1038.93 58.4041L1040.51 59.3815ZM1056.31 44.5557C1062.93 40.9727 1070.38 39.1726 1078.68 39.1726V37.3192C1070.11 37.3192 1062.35 39.1823 1055.43 42.9256L1056.31 44.5557ZM1078.68 39.1726C1084.9 39.1726 1090.55 40.2629 1095.64 42.4288L1096.36 40.7234C1091.02 38.4491 1085.12 37.3192 1078.68 37.3192V39.1726ZM1095.66 42.4377C1100.85 44.4951 1105.46 47.6358 1109.48 51.8713L1110.82 50.5957C1106.63 46.1728 1101.8 42.8752 1096.34 40.7144L1095.66 42.4377ZM1109.5 50.5782L1093.18 66.8959L1094.49 68.2065L1110.81 51.8888L1109.5 50.5782ZM1094.52 66.9333C1092.54 64.7196 1090.2 63.0797 1087.51 62.026L1086.84 63.752C1089.25 64.6964 1091.35 66.1646 1093.14 68.1691L1094.52 66.9333ZM1087.52 62.0313C1084.95 60.9778 1082 60.4637 1078.68 60.4637V62.3171C1081.81 62.3171 1084.51 62.802 1086.82 63.7467L1087.52 62.0313ZM1078.68 60.4637C1074.87 60.4637 1071.44 61.3311 1068.39 63.0853L1069.32 64.6907C1072.05 63.1148 1075.16 62.3171 1078.68 62.3171V60.4637ZM1068.4 63.0795C1065.48 64.719 1063.14 67.0617 1061.39 70.0852L1063 71.0114C1064.59 68.2627 1066.69 66.1651 1069.31 64.6966L1068.4 63.0795ZM1061.39 70.0955C1059.74 73.0327 1058.94 76.4692 1058.94 80.3722H1060.79C1060.79 76.727 1061.54 73.6141 1063.01 71.0011L1061.39 70.0955ZM1058.94 80.3722C1058.94 84.2764 1059.74 87.7617 1061.38 90.802L1063.01 89.9233C1061.54 87.1914 1060.79 84.0164 1060.79 80.3722H1058.94ZM1061.39 90.8258C1063.14 93.853 1065.53 96.2457 1068.56 97.9922L1069.49 96.3868C1066.74 94.8031 1064.58 92.6446 1063 89.8996L1061.39 90.8258ZM1068.56 97.9922C1071.6 99.7439 1074.98 100.614 1078.68 100.614V98.7604C1075.28 98.7604 1072.22 97.9652 1069.49 96.3868L1068.56 97.9922ZM1078.68 100.614C1082.11 100.614 1085.19 100.042 1087.88 98.8719L1087.14 97.1721C1084.72 98.2226 1081.91 98.7604 1078.68 98.7604V100.614ZM1087.89 98.8644C1090.67 97.5922 1093.05 95.8522 1095.02 93.6447L1093.64 92.4089C1091.84 94.4196 1089.67 96.0097 1087.12 97.1796L1087.89 98.8644ZM1093.67 93.6787L1109.83 109.996L1111.14 108.693L1094.99 92.3749L1093.67 93.6787ZM1109.81 108.706C1105.67 113.062 1101 116.373 1095.79 118.652L1096.54 120.35C1101.98 117.967 1106.86 114.508 1111.16 109.983L1109.81 108.706ZM1095.81 118.646C1090.61 120.813 1084.79 121.905 1078.35 121.905V123.758C1085 123.758 1091.07 122.63 1096.52 120.357L1095.81 118.646ZM1121.82 121H1120.9V121.927H1121.82V121ZM1121.82 40.0775V39.1508H1120.9V40.0775H1121.82ZM1147.3 40.0775H1148.22V39.1508H1147.3V40.0775ZM1147.3 121V121.927H1148.22V121H1147.3ZM1124.65 24.9253L1123.97 25.5528L1123.98 25.567L1124 25.5806L1124.65 24.9253ZM1124.65 4.94448L1124 4.2892L1123.99 4.29617L1123.98 4.30329L1124.65 4.94448ZM1144.47 24.9253L1145.14 25.5665L1145.14 25.5597L1145.15 25.5528L1144.47 24.9253ZM1122.75 121V40.0775H1120.9V121H1122.75ZM1121.82 41.0042H1147.3V39.1508H1121.82V41.0042ZM1146.37 40.0775V121H1148.22V40.0775H1146.37ZM1147.3 120.073H1121.82V121.927H1147.3V120.073ZM1134.64 27.9948C1130.88 27.9948 1127.79 26.749 1125.31 24.2701L1124 25.5806C1126.85 28.4299 1130.42 29.8482 1134.64 29.8482V27.9948ZM1125.34 24.2979C1122.94 21.6995 1121.75 18.5954 1121.75 14.9349H1119.9C1119.9 19.0447 1121.26 22.601 1123.97 25.5528L1125.34 24.2979ZM1121.75 14.9349C1121.75 11.1559 1122.95 8.06218 1125.32 5.58567L1123.98 4.30329C1121.25 7.155 1119.9 10.7215 1119.9 14.9349H1121.75ZM1125.31 5.59975C1127.79 3.12079 1130.88 1.87501 1134.64 1.87501V0.0216026C1130.42 0.0216026 1126.85 1.43993 1124 4.2892L1125.31 5.59975ZM1134.64 1.87501C1138.41 1.87501 1141.44 3.12009 1143.8 5.58567L1145.14 4.30329C1142.39 1.44063 1138.87 0.0216026 1134.64 0.0216026V1.87501ZM1143.8 5.58567C1146.17 8.06218 1147.37 11.1559 1147.37 14.9349H1149.22C1149.22 10.7215 1147.87 7.155 1145.14 4.30329L1143.8 5.58567ZM1147.37 14.9349C1147.37 18.5954 1146.18 21.6995 1143.79 24.2979L1145.15 25.5528C1147.87 22.601 1149.22 19.0447 1149.22 14.9349H1147.37ZM1143.8 24.2841C1141.44 26.7497 1138.41 27.9948 1134.64 27.9948V29.8482C1138.87 29.8482 1142.39 28.4292 1145.14 25.5665L1143.8 24.2841ZM1179.06 117.17L1178.56 117.953L1178.57 117.957L1179.06 117.17ZM1165.24 102.185L1164.42 102.616L1164.42 102.627L1165.24 102.185ZM1165.24 58.8928L1164.42 58.45L1164.42 58.4612L1165.24 58.8928ZM1179.06 43.9072L1178.57 43.1205L1178.56 43.1247L1179.06 43.9072ZM1213.69 41.5761L1213.29 42.4092L1213.29 42.4131L1213.69 41.5761ZM1224.51 50.4009L1223.77 50.95L1223.78 50.9605L1224.51 50.4009ZM1229.18 63.0555H1230.1V63.0232L1230.1 62.991L1229.18 63.0555ZM1229.18 98.022L1230.1 98.0865L1230.1 98.0543V98.022H1229.18ZM1224.51 110.843L1223.77 110.294L1223.76 110.298L1224.51 110.843ZM1213.86 119.501L1213.46 118.664L1213.86 119.501ZM1217.35 94.3588L1218.03 94.9927L1218.04 94.9875L1218.04 94.9822L1217.35 94.3588ZM1220.02 70.5483L1219.19 70.9628L1219.2 70.9753L1219.2 70.9877L1220.02 70.5483ZM1213.69 63.888L1213.2 64.6739L1213.22 64.6857L1213.24 64.6966L1213.69 63.888ZM1194.88 63.888L1195.34 64.6886L1195.35 64.6827L1194.88 63.888ZM1188.38 70.5483L1187.58 70.0852L1187.57 70.097L1187.57 70.109L1188.38 70.5483ZM1188.38 90.3627L1187.57 90.802L1188.38 90.3627ZM1221.35 121H1220.42V121.927H1221.35V121ZM1221.35 99.1876L1220.44 99.0103L1220.42 99.0981V99.1876H1221.35ZM1225.18 79.5397L1226.09 79.717L1226.12 79.5397L1226.09 79.3624L1225.18 79.5397ZM1221.35 59.8919H1220.42V59.9813L1220.44 60.0691L1221.35 59.8919ZM1221.35 40.0775V39.1508H1220.42V40.0775H1221.35ZM1246.33 40.0775H1247.25V39.1508H1246.33V40.0775ZM1246.33 121V121.927H1247.25V121H1246.33ZM1199.04 121.738C1191.76 121.738 1185.27 119.949 1179.55 116.384L1178.57 117.957C1184.61 121.718 1191.44 123.592 1199.04 123.592V121.738ZM1179.55 116.388C1173.92 112.814 1169.42 107.939 1166.05 101.742L1164.42 102.627C1167.94 109.085 1172.65 114.201 1178.56 117.953L1179.55 116.388ZM1166.06 101.753C1162.81 95.5757 1161.17 88.512 1161.17 80.5387H1159.32C1159.32 88.7722 1161.01 96.1391 1164.42 102.616L1166.06 101.753ZM1161.17 80.5387C1161.17 72.5655 1162.81 65.5018 1166.06 59.3244L1164.42 58.4612C1161.01 64.9384 1159.32 72.3053 1159.32 80.5387H1161.17ZM1166.05 59.3356C1169.42 53.139 1173.92 48.2638 1179.55 44.6896L1178.56 43.1247C1172.65 46.8768 1167.94 51.9921 1164.42 58.4501L1166.05 59.3356ZM1179.55 44.6938C1185.27 41.1289 1191.76 39.3391 1199.04 39.3391V37.4857C1191.44 37.4857 1184.61 39.3591 1178.57 43.1205L1179.55 44.6938ZM1199.04 39.3391C1204.36 39.3391 1209.1 40.3692 1213.29 42.4092L1214.1 40.743C1209.63 38.5647 1204.6 37.4857 1199.04 37.4857V39.3391ZM1213.29 42.4131C1217.6 44.4599 1221.09 47.3053 1223.77 50.9499L1225.26 49.852C1222.39 45.9483 1218.66 42.9104 1214.09 40.739L1213.29 42.4131ZM1223.78 50.9605C1226.44 54.4741 1227.93 58.5186 1228.25 63.12L1230.1 62.991C1229.76 58.046 1228.14 53.6541 1225.25 49.8413L1223.78 50.9605ZM1228.25 63.0555V98.022H1230.1V63.0555H1228.25ZM1228.25 97.9575C1227.93 102.56 1226.44 106.664 1223.77 110.294L1225.26 111.392C1228.14 107.473 1229.76 103.031 1230.1 98.0865L1228.25 97.9575ZM1223.76 110.298C1221.2 113.825 1217.77 116.616 1213.46 118.664L1214.26 120.339C1218.82 118.169 1222.5 115.187 1225.26 111.388L1223.76 110.298ZM1213.46 118.664C1209.16 120.708 1204.36 121.738 1199.04 121.738V123.592C1204.6 123.592 1209.68 122.513 1214.26 120.339L1213.46 118.664ZM1204.2 100.614C1209.86 100.614 1214.5 98.7546 1218.03 94.9927L1216.68 93.725C1213.54 97.0674 1209.42 98.7604 1204.2 98.7604V100.614ZM1218.04 94.9822C1221.54 91.1275 1223.28 86.2894 1223.28 80.5387H1221.42C1221.42 85.8885 1219.82 90.2639 1216.67 93.7355L1218.04 94.9822ZM1223.28 80.5387C1223.28 76.6346 1222.47 73.1493 1220.83 70.109L1219.2 70.9877C1220.67 73.7196 1221.42 76.8945 1221.42 80.5387H1223.28ZM1220.85 70.1339C1219.32 67.0842 1217.08 64.7257 1214.14 63.0795L1213.24 64.6966C1215.85 66.1585 1217.83 68.2401 1219.19 70.9628L1220.85 70.1339ZM1214.18 63.1022C1211.35 61.3335 1208.07 60.4637 1204.37 60.4637V62.3171C1207.77 62.3171 1210.7 63.1125 1213.2 64.6739L1214.18 63.1022ZM1204.37 60.4637C1200.66 60.4637 1197.33 61.3336 1194.4 63.0934L1195.35 64.6827C1197.97 63.1123 1200.97 62.3171 1204.37 62.3171V60.4637ZM1194.41 63.0876C1191.59 64.7294 1189.32 67.0709 1187.58 70.0852L1189.18 71.0114C1190.78 68.2535 1192.83 66.1548 1195.34 64.6885L1194.41 63.0876ZM1187.57 70.109C1185.93 73.1493 1185.12 76.6346 1185.12 80.5387H1186.98C1186.98 76.8945 1187.73 73.7196 1189.2 70.9877L1187.57 70.109ZM1185.12 80.5387C1185.12 84.3369 1185.93 87.7656 1187.57 90.802L1189.2 89.9233C1187.72 87.1875 1186.98 84.0669 1186.98 80.5387H1185.12ZM1187.57 90.802C1189.2 93.8329 1191.48 96.2321 1194.4 97.9841L1195.35 96.3948C1192.72 94.8167 1190.67 92.6647 1189.2 89.9233L1187.57 90.802ZM1194.4 97.9841C1197.33 99.7411 1200.6 100.614 1204.2 100.614V98.7604C1200.92 98.7604 1197.97 97.968 1195.35 96.3948L1194.4 97.9841ZM1222.28 121V99.1876H1220.42V121H1222.28ZM1222.26 99.3649L1226.09 79.717L1224.27 79.3624L1220.44 99.0103L1222.26 99.3649ZM1226.09 79.3624L1222.26 59.7146L1220.44 60.0691L1224.27 79.717L1226.09 79.3624ZM1222.28 59.8919V40.0775H1220.42V59.8919H1222.28ZM1221.35 41.0042H1246.33V39.1508H1221.35V41.0042ZM1245.4 40.0775V121H1247.25V40.0775H1245.4ZM1246.33 120.073H1221.35V121.927H1246.33V120.073ZM1264.26 121H1263.34V121.927H1264.26V121ZM1264.26 0.115768V-0.810932H1263.34V0.115768H1264.26ZM1289.74 0.115768H1290.67V-0.810932H1289.74V0.115768ZM1289.74 121V121.927H1290.67V121H1289.74ZM1265.19 121V0.115768H1263.34V121H1265.19ZM1264.26 1.04247H1289.74V-0.810932H1264.26V1.04247ZM1288.81 0.115768V121H1290.67V0.115768H1288.81ZM1289.74 120.073H1264.26V121.927H1289.74V120.073Z" fill="white"/>
</svg>
